%TF.GenerationSoftware,KiCad,Pcbnew,5.1.8-db9833491~87~ubuntu20.04.1*%
%TF.CreationDate,2020-11-19T17:12:54+01:00*%
%TF.ProjectId,custom-arduino-rtc-temperature-humidity,63757374-6f6d-42d6-9172-6475696e6f2d,rev?*%
%TF.SameCoordinates,Original*%
%TF.FileFunction,Copper,L4,Bot*%
%TF.FilePolarity,Positive*%
%FSLAX46Y46*%
G04 Gerber Fmt 4.6, Leading zero omitted, Abs format (unit mm)*
G04 Created by KiCad (PCBNEW 5.1.8-db9833491~87~ubuntu20.04.1) date 2020-11-19 17:12:54*
%MOMM*%
%LPD*%
G01*
G04 APERTURE LIST*
%TA.AperFunction,ComponentPad*%
%ADD10O,1.700000X1.700000*%
%TD*%
%TA.AperFunction,ComponentPad*%
%ADD11R,1.700000X1.700000*%
%TD*%
%TA.AperFunction,ComponentPad*%
%ADD12C,1.524000*%
%TD*%
%TA.AperFunction,ComponentPad*%
%ADD13C,2.000000*%
%TD*%
%TA.AperFunction,ComponentPad*%
%ADD14R,1.524000X1.524000*%
%TD*%
%TA.AperFunction,ComponentPad*%
%ADD15C,0.800000*%
%TD*%
%TA.AperFunction,ComponentPad*%
%ADD16C,6.400000*%
%TD*%
%TA.AperFunction,ComponentPad*%
%ADD17O,1.700000X1.350000*%
%TD*%
%TA.AperFunction,ComponentPad*%
%ADD18O,1.500000X1.100000*%
%TD*%
%TA.AperFunction,ViaPad*%
%ADD19C,0.800000*%
%TD*%
%TA.AperFunction,Conductor*%
%ADD20C,0.250000*%
%TD*%
%TA.AperFunction,Conductor*%
%ADD21C,0.254000*%
%TD*%
%TA.AperFunction,Conductor*%
%ADD22C,0.100000*%
%TD*%
G04 APERTURE END LIST*
D10*
%TO.P,J7,2*%
%TO.N,GND*%
X139700000Y-94361000D03*
D11*
%TO.P,J7,1*%
%TO.N,+3V3*%
X139700000Y-91821000D03*
%TD*%
D10*
%TO.P,J6,2*%
%TO.N,GND*%
X144399000Y-94361000D03*
D11*
%TO.P,J6,1*%
%TO.N,+5V*%
X144399000Y-91821000D03*
%TD*%
%TO.P,BT2,2*%
%TO.N,GND*%
%TA.AperFunction,ComponentPad*%
G36*
G01*
X118905000Y-85457000D02*
X118905000Y-86219000D01*
G75*
G02*
X118524000Y-86600000I-381000J0D01*
G01*
X117762000Y-86600000D01*
G75*
G02*
X117381000Y-86219000I0J381000D01*
G01*
X117381000Y-85457000D01*
G75*
G02*
X117762000Y-85076000I381000J0D01*
G01*
X118524000Y-85076000D01*
G75*
G02*
X118905000Y-85457000I0J-381000D01*
G01*
G37*
%TD.AperFunction*%
%TO.P,BT2,1*%
%TO.N,VBAT*%
%TA.AperFunction,ComponentPad*%
G36*
G01*
X138905000Y-85457000D02*
X138905000Y-86219000D01*
G75*
G02*
X138524000Y-86600000I-381000J0D01*
G01*
X137762000Y-86600000D01*
G75*
G02*
X137381000Y-86219000I0J381000D01*
G01*
X137381000Y-85457000D01*
G75*
G02*
X137762000Y-85076000I381000J0D01*
G01*
X138524000Y-85076000D01*
G75*
G02*
X138905000Y-85457000I0J-381000D01*
G01*
G37*
%TD.AperFunction*%
%TD*%
D12*
%TO.P,J4,4*%
%TO.N,SDA*%
X133350000Y-23830000D03*
%TO.P,J4,3*%
%TO.N,SCL*%
X130810000Y-23830000D03*
%TO.P,J4,2*%
%TO.N,+5V*%
X128270000Y-23830000D03*
%TO.P,J4,1*%
%TO.N,GND*%
X125730000Y-23830000D03*
%TD*%
%TO.P,J3,1*%
%TO.N,+5V*%
X138430000Y-66040000D03*
%TO.P,J3,4*%
%TO.N,SDA*%
X146050000Y-66040000D03*
%TO.P,J3,3*%
%TO.N,SCL*%
X143510000Y-66040000D03*
%TO.P,J3,2*%
%TO.N,GND*%
X140970000Y-66040000D03*
%TD*%
D13*
%TO.P,SW3,1*%
%TO.N,+5V*%
X153187400Y-62303800D03*
%TO.P,SW3,2*%
%TO.N,BTN_DOWN*%
X148687400Y-62303800D03*
%TO.P,SW3,1*%
%TO.N,+5V*%
X153187400Y-55803800D03*
%TO.P,SW3,2*%
%TO.N,BTN_DOWN*%
X148687400Y-55803800D03*
%TD*%
%TO.P,SW2,1*%
%TO.N,+5V*%
X153162000Y-38783400D03*
%TO.P,SW2,2*%
%TO.N,BTN_UP*%
X148662000Y-38783400D03*
%TO.P,SW2,1*%
%TO.N,+5V*%
X153162000Y-32283400D03*
%TO.P,SW2,2*%
%TO.N,BTN_UP*%
X148662000Y-32283400D03*
%TD*%
%TO.P,SW1,1*%
%TO.N,+5V*%
X153162000Y-50569000D03*
%TO.P,SW1,2*%
%TO.N,BTN_SET*%
X148662000Y-50569000D03*
%TO.P,SW1,1*%
%TO.N,+5V*%
X153162000Y-44069000D03*
%TO.P,SW1,2*%
%TO.N,BTN_SET*%
X148662000Y-44069000D03*
%TD*%
D12*
%TO.P,J1,6*%
%TO.N,GND*%
X110871000Y-73025000D03*
%TO.P,J1,5*%
%TO.N,RESET*%
X113411000Y-73025000D03*
%TO.P,J1,4*%
%TO.N,MOSI*%
X110871000Y-75565000D03*
%TO.P,J1,3*%
%TO.N,SCK*%
X113411000Y-75565000D03*
%TO.P,J1,2*%
%TO.N,+5V*%
X110871000Y-78105000D03*
D14*
%TO.P,J1,1*%
%TO.N,MISO*%
X113411000Y-78105000D03*
%TD*%
D15*
%TO.P,H4,1*%
%TO.N,GND*%
X152827056Y-92282944D03*
X151130000Y-91580000D03*
X149432944Y-92282944D03*
X148730000Y-93980000D03*
X149432944Y-95677056D03*
X151130000Y-96380000D03*
X152827056Y-95677056D03*
X153530000Y-93980000D03*
D16*
X151130000Y-93980000D03*
%TD*%
D17*
%TO.P,J2,6*%
%TO.N,GND*%
X106835000Y-63157000D03*
X106835000Y-57697000D03*
D18*
X109835000Y-62847000D03*
X109835000Y-58007000D03*
%TD*%
D15*
%TO.P,H3,1*%
%TO.N,GND*%
X152827056Y-22432944D03*
X151130000Y-21730000D03*
X149432944Y-22432944D03*
X148730000Y-24130000D03*
X149432944Y-25827056D03*
X151130000Y-26530000D03*
X152827056Y-25827056D03*
X153530000Y-24130000D03*
D16*
X151130000Y-24130000D03*
%TD*%
D15*
%TO.P,H2,1*%
%TO.N,GND*%
X109647056Y-92282944D03*
X107950000Y-91580000D03*
X106252944Y-92282944D03*
X105550000Y-93980000D03*
X106252944Y-95677056D03*
X107950000Y-96380000D03*
X109647056Y-95677056D03*
X110350000Y-93980000D03*
D16*
X107950000Y-93980000D03*
%TD*%
D15*
%TO.P,H1,1*%
%TO.N,GND*%
X109647056Y-22432944D03*
X107950000Y-21730000D03*
X106252944Y-22432944D03*
X105550000Y-24130000D03*
X106252944Y-25827056D03*
X107950000Y-26530000D03*
X109647056Y-25827056D03*
X110350000Y-24130000D03*
D16*
X107950000Y-24130000D03*
%TD*%
D19*
%TO.N,GND*%
X127774700Y-58750200D03*
X128460500Y-66370200D03*
X144780000Y-73533000D03*
X139954000Y-74803000D03*
X129730500Y-50685700D03*
X152908000Y-53213000D03*
X152908000Y-41402000D03*
X152908000Y-29718000D03*
X129184400Y-74358500D03*
X118033800Y-57772300D03*
X118033800Y-61201300D03*
X118033800Y-63271400D03*
X137618349Y-57835800D03*
X126339600Y-73266300D03*
X117068600Y-40817800D03*
X117068600Y-46139100D03*
X118859300Y-46139100D03*
X137922000Y-51689000D03*
X110744000Y-29083000D03*
X122174000Y-26289000D03*
X107061000Y-84963000D03*
%TO.N,RESET*%
X125476000Y-66040000D03*
X118999000Y-66040000D03*
%TO.N,SCK*%
X121920000Y-64643000D03*
X115951000Y-74549000D03*
%TO.N,+5V*%
X133858000Y-65405000D03*
X125222000Y-63119000D03*
X125222000Y-59055000D03*
X113792000Y-68072000D03*
X126619000Y-66167000D03*
X133477000Y-54229000D03*
X139827000Y-70893010D03*
X125476000Y-53975000D03*
X109626400Y-49136300D03*
X106794300Y-50647600D03*
X112204500Y-50647600D03*
X118745000Y-26416000D03*
%TO.N,BTN_SET*%
X131902200Y-64477900D03*
%TO.N,BTN_UP*%
X133235700Y-59817000D03*
X147205700Y-40132000D03*
%TO.N,BTN_DOWN*%
X133248400Y-63030100D03*
X147281900Y-63982600D03*
%TO.N,+3V3*%
X123698000Y-43180000D03*
X121158000Y-39751000D03*
%TO.N,CTS*%
X136271000Y-68326000D03*
%TD*%
D20*
%TO.N,GND*%
X137618349Y-57835800D02*
X137343359Y-57835800D01*
%TO.N,RESET*%
X125476000Y-66040000D02*
X118999000Y-66040000D01*
%TO.N,SCK*%
X115951000Y-68014998D02*
X115951000Y-74549000D01*
X119322998Y-64643000D02*
X115951000Y-68014998D01*
X121920000Y-64643000D02*
X119322998Y-64643000D01*
%TO.N,BTN_SET*%
X131914900Y-64643000D02*
X131864100Y-64693800D01*
X150012401Y-64223899D02*
X149593300Y-64643000D01*
X150012401Y-51919401D02*
X150012401Y-64223899D01*
X148662000Y-50569000D02*
X150012401Y-51919401D01*
X134003902Y-64477900D02*
X131902200Y-64477900D01*
X134233603Y-64707601D02*
X134003902Y-64477900D01*
X147629901Y-64707601D02*
X134233603Y-64707601D01*
X147694502Y-64643000D02*
X147629901Y-64707601D01*
X149593300Y-64643000D02*
X147694502Y-64643000D01*
%TO.N,BTN_UP*%
X133235700Y-59817000D02*
X146775000Y-46277700D01*
X146775000Y-40562700D02*
X147205700Y-40132000D01*
X146775000Y-46277700D02*
X146775000Y-40562700D01*
%TO.N,BTN_DOWN*%
X146329400Y-63030100D02*
X133248400Y-63030100D01*
X147281900Y-63982600D02*
X146329400Y-63030100D01*
%TO.N,CTS*%
X136234001Y-68362999D02*
X136271000Y-68326000D01*
%TD*%
D21*
%TO.N,GND*%
X148608724Y-21429119D02*
X151130000Y-23950395D01*
X151144143Y-23936253D01*
X151323748Y-24115858D01*
X151309605Y-24130000D01*
X153830881Y-26651276D01*
X154280000Y-26320914D01*
X154280000Y-31089161D01*
X154204252Y-31013413D01*
X153936463Y-30834482D01*
X153638912Y-30711232D01*
X153323033Y-30648400D01*
X153000967Y-30648400D01*
X152685088Y-30711232D01*
X152387537Y-30834482D01*
X152119748Y-31013413D01*
X151892013Y-31241148D01*
X151713082Y-31508937D01*
X151589832Y-31806488D01*
X151527000Y-32122367D01*
X151527000Y-32444433D01*
X151589832Y-32760312D01*
X151713082Y-33057863D01*
X151892013Y-33325652D01*
X152119748Y-33553387D01*
X152387537Y-33732318D01*
X152685088Y-33855568D01*
X153000967Y-33918400D01*
X153323033Y-33918400D01*
X153638912Y-33855568D01*
X153936463Y-33732318D01*
X154204252Y-33553387D01*
X154280000Y-33477639D01*
X154280000Y-37589161D01*
X154204252Y-37513413D01*
X153936463Y-37334482D01*
X153638912Y-37211232D01*
X153323033Y-37148400D01*
X153000967Y-37148400D01*
X152685088Y-37211232D01*
X152387537Y-37334482D01*
X152119748Y-37513413D01*
X151892013Y-37741148D01*
X151713082Y-38008937D01*
X151589832Y-38306488D01*
X151527000Y-38622367D01*
X151527000Y-38944433D01*
X151589832Y-39260312D01*
X151713082Y-39557863D01*
X151892013Y-39825652D01*
X152119748Y-40053387D01*
X152387537Y-40232318D01*
X152685088Y-40355568D01*
X153000967Y-40418400D01*
X153323033Y-40418400D01*
X153638912Y-40355568D01*
X153936463Y-40232318D01*
X154204252Y-40053387D01*
X154280000Y-39977639D01*
X154280000Y-42874761D01*
X154204252Y-42799013D01*
X153936463Y-42620082D01*
X153638912Y-42496832D01*
X153323033Y-42434000D01*
X153000967Y-42434000D01*
X152685088Y-42496832D01*
X152387537Y-42620082D01*
X152119748Y-42799013D01*
X151892013Y-43026748D01*
X151713082Y-43294537D01*
X151589832Y-43592088D01*
X151527000Y-43907967D01*
X151527000Y-44230033D01*
X151589832Y-44545912D01*
X151713082Y-44843463D01*
X151892013Y-45111252D01*
X152119748Y-45338987D01*
X152387537Y-45517918D01*
X152685088Y-45641168D01*
X153000967Y-45704000D01*
X153323033Y-45704000D01*
X153638912Y-45641168D01*
X153936463Y-45517918D01*
X154204252Y-45338987D01*
X154280000Y-45263239D01*
X154280000Y-49374761D01*
X154204252Y-49299013D01*
X153936463Y-49120082D01*
X153638912Y-48996832D01*
X153323033Y-48934000D01*
X153000967Y-48934000D01*
X152685088Y-48996832D01*
X152387537Y-49120082D01*
X152119748Y-49299013D01*
X151892013Y-49526748D01*
X151713082Y-49794537D01*
X151589832Y-50092088D01*
X151527000Y-50407967D01*
X151527000Y-50730033D01*
X151589832Y-51045912D01*
X151713082Y-51343463D01*
X151892013Y-51611252D01*
X152119748Y-51838987D01*
X152387537Y-52017918D01*
X152685088Y-52141168D01*
X153000967Y-52204000D01*
X153323033Y-52204000D01*
X153638912Y-52141168D01*
X153936463Y-52017918D01*
X154204252Y-51838987D01*
X154280000Y-51763239D01*
X154280000Y-54584161D01*
X154229652Y-54533813D01*
X153961863Y-54354882D01*
X153664312Y-54231632D01*
X153348433Y-54168800D01*
X153026367Y-54168800D01*
X152710488Y-54231632D01*
X152412937Y-54354882D01*
X152145148Y-54533813D01*
X151917413Y-54761548D01*
X151738482Y-55029337D01*
X151615232Y-55326888D01*
X151552400Y-55642767D01*
X151552400Y-55964833D01*
X151615232Y-56280712D01*
X151738482Y-56578263D01*
X151917413Y-56846052D01*
X152145148Y-57073787D01*
X152412937Y-57252718D01*
X152710488Y-57375968D01*
X153026367Y-57438800D01*
X153348433Y-57438800D01*
X153664312Y-57375968D01*
X153961863Y-57252718D01*
X154229652Y-57073787D01*
X154280000Y-57023439D01*
X154280001Y-61084162D01*
X154229652Y-61033813D01*
X153961863Y-60854882D01*
X153664312Y-60731632D01*
X153348433Y-60668800D01*
X153026367Y-60668800D01*
X152710488Y-60731632D01*
X152412937Y-60854882D01*
X152145148Y-61033813D01*
X151917413Y-61261548D01*
X151738482Y-61529337D01*
X151615232Y-61826888D01*
X151552400Y-62142767D01*
X151552400Y-62464833D01*
X151615232Y-62780712D01*
X151738482Y-63078263D01*
X151917413Y-63346052D01*
X152145148Y-63573787D01*
X152412937Y-63752718D01*
X152710488Y-63875968D01*
X153026367Y-63938800D01*
X153348433Y-63938800D01*
X153664312Y-63875968D01*
X153961863Y-63752718D01*
X154229652Y-63573787D01*
X154280001Y-63523438D01*
X154280001Y-91789087D01*
X153830881Y-91458724D01*
X151309605Y-93980000D01*
X151323748Y-93994143D01*
X151144143Y-94173748D01*
X151130000Y-94159605D01*
X148608724Y-96680881D01*
X148939086Y-97130000D01*
X110140914Y-97130000D01*
X110471276Y-96680881D01*
X107950000Y-94159605D01*
X107935858Y-94173748D01*
X107756253Y-93994143D01*
X107770395Y-93980000D01*
X108129605Y-93980000D01*
X110650881Y-96501276D01*
X111140548Y-96141088D01*
X111500849Y-95477118D01*
X111724694Y-94755615D01*
X111728650Y-94717890D01*
X138258524Y-94717890D01*
X138303175Y-94865099D01*
X138428359Y-95127920D01*
X138602412Y-95361269D01*
X138818645Y-95556178D01*
X139068748Y-95705157D01*
X139343109Y-95802481D01*
X139573000Y-95681814D01*
X139573000Y-94488000D01*
X139827000Y-94488000D01*
X139827000Y-95681814D01*
X140056891Y-95802481D01*
X140331252Y-95705157D01*
X140581355Y-95556178D01*
X140797588Y-95361269D01*
X140971641Y-95127920D01*
X141096825Y-94865099D01*
X141141476Y-94717890D01*
X142957524Y-94717890D01*
X143002175Y-94865099D01*
X143127359Y-95127920D01*
X143301412Y-95361269D01*
X143517645Y-95556178D01*
X143767748Y-95705157D01*
X144042109Y-95802481D01*
X144272000Y-95681814D01*
X144272000Y-94488000D01*
X144526000Y-94488000D01*
X144526000Y-95681814D01*
X144755891Y-95802481D01*
X145030252Y-95705157D01*
X145280355Y-95556178D01*
X145496588Y-95361269D01*
X145670641Y-95127920D01*
X145795825Y-94865099D01*
X145840476Y-94717890D01*
X145719155Y-94488000D01*
X144526000Y-94488000D01*
X144272000Y-94488000D01*
X143078845Y-94488000D01*
X142957524Y-94717890D01*
X141141476Y-94717890D01*
X141020155Y-94488000D01*
X139827000Y-94488000D01*
X139573000Y-94488000D01*
X138379845Y-94488000D01*
X138258524Y-94717890D01*
X111728650Y-94717890D01*
X111803480Y-94004305D01*
X111734178Y-93252062D01*
X111519452Y-92527792D01*
X111167555Y-91859330D01*
X111140548Y-91818912D01*
X110650881Y-91458724D01*
X108129605Y-93980000D01*
X107770395Y-93980000D01*
X105249119Y-91458724D01*
X104800000Y-91789086D01*
X104800000Y-91279119D01*
X105428724Y-91279119D01*
X107950000Y-93800395D01*
X110471276Y-91279119D01*
X110244631Y-90971000D01*
X138211928Y-90971000D01*
X138211928Y-92671000D01*
X138224188Y-92795482D01*
X138260498Y-92915180D01*
X138319463Y-93025494D01*
X138398815Y-93122185D01*
X138495506Y-93201537D01*
X138605820Y-93260502D01*
X138686466Y-93284966D01*
X138602412Y-93360731D01*
X138428359Y-93594080D01*
X138303175Y-93856901D01*
X138258524Y-94004110D01*
X138379845Y-94234000D01*
X139573000Y-94234000D01*
X139573000Y-94214000D01*
X139827000Y-94214000D01*
X139827000Y-94234000D01*
X141020155Y-94234000D01*
X141141476Y-94004110D01*
X141096825Y-93856901D01*
X140971641Y-93594080D01*
X140797588Y-93360731D01*
X140713534Y-93284966D01*
X140794180Y-93260502D01*
X140904494Y-93201537D01*
X141001185Y-93122185D01*
X141080537Y-93025494D01*
X141139502Y-92915180D01*
X141175812Y-92795482D01*
X141188072Y-92671000D01*
X141188072Y-90971000D01*
X142910928Y-90971000D01*
X142910928Y-92671000D01*
X142923188Y-92795482D01*
X142959498Y-92915180D01*
X143018463Y-93025494D01*
X143097815Y-93122185D01*
X143194506Y-93201537D01*
X143304820Y-93260502D01*
X143385466Y-93284966D01*
X143301412Y-93360731D01*
X143127359Y-93594080D01*
X143002175Y-93856901D01*
X142957524Y-94004110D01*
X143078845Y-94234000D01*
X144272000Y-94234000D01*
X144272000Y-94214000D01*
X144526000Y-94214000D01*
X144526000Y-94234000D01*
X145719155Y-94234000D01*
X145840476Y-94004110D01*
X145825791Y-93955695D01*
X147276520Y-93955695D01*
X147345822Y-94707938D01*
X147560548Y-95432208D01*
X147912445Y-96100670D01*
X147939452Y-96141088D01*
X148429119Y-96501276D01*
X150950395Y-93980000D01*
X148429119Y-91458724D01*
X147939452Y-91818912D01*
X147579151Y-92482882D01*
X147355306Y-93204385D01*
X147276520Y-93955695D01*
X145825791Y-93955695D01*
X145795825Y-93856901D01*
X145670641Y-93594080D01*
X145496588Y-93360731D01*
X145412534Y-93284966D01*
X145493180Y-93260502D01*
X145603494Y-93201537D01*
X145700185Y-93122185D01*
X145779537Y-93025494D01*
X145838502Y-92915180D01*
X145874812Y-92795482D01*
X145887072Y-92671000D01*
X145887072Y-91279119D01*
X148608724Y-91279119D01*
X151130000Y-93800395D01*
X153651276Y-91279119D01*
X153291088Y-90789452D01*
X152627118Y-90429151D01*
X151905615Y-90205306D01*
X151154305Y-90126520D01*
X150402062Y-90195822D01*
X149677792Y-90410548D01*
X149009330Y-90762445D01*
X148968912Y-90789452D01*
X148608724Y-91279119D01*
X145887072Y-91279119D01*
X145887072Y-90971000D01*
X145874812Y-90846518D01*
X145838502Y-90726820D01*
X145779537Y-90616506D01*
X145700185Y-90519815D01*
X145603494Y-90440463D01*
X145493180Y-90381498D01*
X145373482Y-90345188D01*
X145249000Y-90332928D01*
X143549000Y-90332928D01*
X143424518Y-90345188D01*
X143304820Y-90381498D01*
X143194506Y-90440463D01*
X143097815Y-90519815D01*
X143018463Y-90616506D01*
X142959498Y-90726820D01*
X142923188Y-90846518D01*
X142910928Y-90971000D01*
X141188072Y-90971000D01*
X141175812Y-90846518D01*
X141139502Y-90726820D01*
X141080537Y-90616506D01*
X141001185Y-90519815D01*
X140904494Y-90440463D01*
X140794180Y-90381498D01*
X140674482Y-90345188D01*
X140550000Y-90332928D01*
X138850000Y-90332928D01*
X138725518Y-90345188D01*
X138605820Y-90381498D01*
X138495506Y-90440463D01*
X138398815Y-90519815D01*
X138319463Y-90616506D01*
X138260498Y-90726820D01*
X138224188Y-90846518D01*
X138211928Y-90971000D01*
X110244631Y-90971000D01*
X110111088Y-90789452D01*
X109447118Y-90429151D01*
X108725615Y-90205306D01*
X107974305Y-90126520D01*
X107222062Y-90195822D01*
X106497792Y-90410548D01*
X105829330Y-90762445D01*
X105788912Y-90789452D01*
X105428724Y-91279119D01*
X104800000Y-91279119D01*
X104800000Y-86600000D01*
X116742928Y-86600000D01*
X116755188Y-86724482D01*
X116791498Y-86844180D01*
X116850463Y-86954494D01*
X116929815Y-87051185D01*
X117026506Y-87130537D01*
X117136820Y-87189502D01*
X117256518Y-87225812D01*
X117381000Y-87238072D01*
X117857250Y-87235000D01*
X118016000Y-87076250D01*
X118016000Y-85965000D01*
X118270000Y-85965000D01*
X118270000Y-87076250D01*
X118428750Y-87235000D01*
X118905000Y-87238072D01*
X119029482Y-87225812D01*
X119149180Y-87189502D01*
X119259494Y-87130537D01*
X119356185Y-87051185D01*
X119435537Y-86954494D01*
X119494502Y-86844180D01*
X119530812Y-86724482D01*
X119543072Y-86600000D01*
X119540000Y-86123750D01*
X119381250Y-85965000D01*
X118270000Y-85965000D01*
X118016000Y-85965000D01*
X116904750Y-85965000D01*
X116746000Y-86123750D01*
X116742928Y-86600000D01*
X104800000Y-86600000D01*
X104800000Y-85076000D01*
X116742928Y-85076000D01*
X116746000Y-85552250D01*
X116904750Y-85711000D01*
X118016000Y-85711000D01*
X118016000Y-84599750D01*
X118270000Y-84599750D01*
X118270000Y-85711000D01*
X119381250Y-85711000D01*
X119540000Y-85552250D01*
X119540614Y-85457000D01*
X136742928Y-85457000D01*
X136742928Y-86219000D01*
X136762509Y-86417811D01*
X136820500Y-86608982D01*
X136914673Y-86785166D01*
X137041407Y-86939593D01*
X137195834Y-87066327D01*
X137372018Y-87160500D01*
X137563189Y-87218491D01*
X137762000Y-87238072D01*
X138524000Y-87238072D01*
X138722811Y-87218491D01*
X138913982Y-87160500D01*
X139090166Y-87066327D01*
X139244593Y-86939593D01*
X139371327Y-86785166D01*
X139465500Y-86608982D01*
X139523491Y-86417811D01*
X139543072Y-86219000D01*
X139543072Y-85457000D01*
X139523491Y-85258189D01*
X139465500Y-85067018D01*
X139371327Y-84890834D01*
X139244593Y-84736407D01*
X139090166Y-84609673D01*
X138913982Y-84515500D01*
X138722811Y-84457509D01*
X138524000Y-84437928D01*
X137762000Y-84437928D01*
X137563189Y-84457509D01*
X137372018Y-84515500D01*
X137195834Y-84609673D01*
X137041407Y-84736407D01*
X136914673Y-84890834D01*
X136820500Y-85067018D01*
X136762509Y-85258189D01*
X136742928Y-85457000D01*
X119540614Y-85457000D01*
X119543072Y-85076000D01*
X119530812Y-84951518D01*
X119494502Y-84831820D01*
X119435537Y-84721506D01*
X119356185Y-84624815D01*
X119259494Y-84545463D01*
X119149180Y-84486498D01*
X119029482Y-84450188D01*
X118905000Y-84437928D01*
X118428750Y-84441000D01*
X118270000Y-84599750D01*
X118016000Y-84599750D01*
X117857250Y-84441000D01*
X117381000Y-84437928D01*
X117256518Y-84450188D01*
X117136820Y-84486498D01*
X117026506Y-84545463D01*
X116929815Y-84624815D01*
X116850463Y-84721506D01*
X116791498Y-84831820D01*
X116755188Y-84951518D01*
X116742928Y-85076000D01*
X104800000Y-85076000D01*
X104800000Y-75427408D01*
X109474000Y-75427408D01*
X109474000Y-75702592D01*
X109527686Y-75972490D01*
X109632995Y-76226727D01*
X109785880Y-76455535D01*
X109980465Y-76650120D01*
X110209273Y-76803005D01*
X110286515Y-76835000D01*
X110209273Y-76866995D01*
X109980465Y-77019880D01*
X109785880Y-77214465D01*
X109632995Y-77443273D01*
X109527686Y-77697510D01*
X109474000Y-77967408D01*
X109474000Y-78242592D01*
X109527686Y-78512490D01*
X109632995Y-78766727D01*
X109785880Y-78995535D01*
X109980465Y-79190120D01*
X110209273Y-79343005D01*
X110463510Y-79448314D01*
X110733408Y-79502000D01*
X111008592Y-79502000D01*
X111278490Y-79448314D01*
X111532727Y-79343005D01*
X111761535Y-79190120D01*
X111956120Y-78995535D01*
X112014920Y-78907535D01*
X112023188Y-78991482D01*
X112059498Y-79111180D01*
X112118463Y-79221494D01*
X112197815Y-79318185D01*
X112294506Y-79397537D01*
X112404820Y-79456502D01*
X112524518Y-79492812D01*
X112649000Y-79505072D01*
X114173000Y-79505072D01*
X114297482Y-79492812D01*
X114417180Y-79456502D01*
X114527494Y-79397537D01*
X114624185Y-79318185D01*
X114703537Y-79221494D01*
X114762502Y-79111180D01*
X114798812Y-78991482D01*
X114811072Y-78867000D01*
X114811072Y-77343000D01*
X114798812Y-77218518D01*
X114762502Y-77098820D01*
X114703537Y-76988506D01*
X114624185Y-76891815D01*
X114527494Y-76812463D01*
X114417180Y-76753498D01*
X114297482Y-76717188D01*
X114213535Y-76708920D01*
X114301535Y-76650120D01*
X114496120Y-76455535D01*
X114649005Y-76226727D01*
X114754314Y-75972490D01*
X114808000Y-75702592D01*
X114808000Y-75427408D01*
X114754314Y-75157510D01*
X114649005Y-74903273D01*
X114496120Y-74674465D01*
X114301535Y-74479880D01*
X114252419Y-74447061D01*
X114916000Y-74447061D01*
X114916000Y-74650939D01*
X114955774Y-74850898D01*
X115033795Y-75039256D01*
X115147063Y-75208774D01*
X115291226Y-75352937D01*
X115460744Y-75466205D01*
X115649102Y-75544226D01*
X115849061Y-75584000D01*
X116052939Y-75584000D01*
X116252898Y-75544226D01*
X116441256Y-75466205D01*
X116610774Y-75352937D01*
X116754937Y-75208774D01*
X116868205Y-75039256D01*
X116946226Y-74850898D01*
X116986000Y-74650939D01*
X116986000Y-74447061D01*
X116946226Y-74247102D01*
X116868205Y-74058744D01*
X116754937Y-73889226D01*
X116711000Y-73845289D01*
X116711000Y-70791071D01*
X138792000Y-70791071D01*
X138792000Y-70994949D01*
X138831774Y-71194908D01*
X138909795Y-71383266D01*
X139023063Y-71552784D01*
X139167226Y-71696947D01*
X139336744Y-71810215D01*
X139525102Y-71888236D01*
X139725061Y-71928010D01*
X139928939Y-71928010D01*
X140128898Y-71888236D01*
X140317256Y-71810215D01*
X140486774Y-71696947D01*
X140630937Y-71552784D01*
X140744205Y-71383266D01*
X140822226Y-71194908D01*
X140862000Y-70994949D01*
X140862000Y-70791071D01*
X140822226Y-70591112D01*
X140744205Y-70402754D01*
X140630937Y-70233236D01*
X140486774Y-70089073D01*
X140317256Y-69975805D01*
X140128898Y-69897784D01*
X139928939Y-69858010D01*
X139725061Y-69858010D01*
X139525102Y-69897784D01*
X139336744Y-69975805D01*
X139167226Y-70089073D01*
X139023063Y-70233236D01*
X138909795Y-70402754D01*
X138831774Y-70591112D01*
X138792000Y-70791071D01*
X116711000Y-70791071D01*
X116711000Y-68329799D01*
X116816738Y-68224061D01*
X135236000Y-68224061D01*
X135236000Y-68427939D01*
X135275774Y-68627898D01*
X135353795Y-68816256D01*
X135467063Y-68985774D01*
X135611226Y-69129937D01*
X135780744Y-69243205D01*
X135969102Y-69321226D01*
X136169061Y-69361000D01*
X136372939Y-69361000D01*
X136572898Y-69321226D01*
X136761256Y-69243205D01*
X136930774Y-69129937D01*
X137074937Y-68985774D01*
X137188205Y-68816256D01*
X137266226Y-68627898D01*
X137306000Y-68427939D01*
X137306000Y-68224061D01*
X137266226Y-68024102D01*
X137188205Y-67835744D01*
X137074937Y-67666226D01*
X136930774Y-67522063D01*
X136761256Y-67408795D01*
X136572898Y-67330774D01*
X136372939Y-67291000D01*
X136169061Y-67291000D01*
X135969102Y-67330774D01*
X135780744Y-67408795D01*
X135611226Y-67522063D01*
X135467063Y-67666226D01*
X135353795Y-67835744D01*
X135275774Y-68024102D01*
X135236000Y-68224061D01*
X116816738Y-68224061D01*
X118268044Y-66772755D01*
X118339226Y-66843937D01*
X118508744Y-66957205D01*
X118697102Y-67035226D01*
X118897061Y-67075000D01*
X119100939Y-67075000D01*
X119300898Y-67035226D01*
X119489256Y-66957205D01*
X119658774Y-66843937D01*
X119702711Y-66800000D01*
X124772289Y-66800000D01*
X124816226Y-66843937D01*
X124985744Y-66957205D01*
X125174102Y-67035226D01*
X125374061Y-67075000D01*
X125577939Y-67075000D01*
X125777898Y-67035226D01*
X125951575Y-66963286D01*
X125959226Y-66970937D01*
X126128744Y-67084205D01*
X126317102Y-67162226D01*
X126517061Y-67202000D01*
X126720939Y-67202000D01*
X126920898Y-67162226D01*
X127109256Y-67084205D01*
X127278774Y-66970937D01*
X127422937Y-66826774D01*
X127536205Y-66657256D01*
X127614226Y-66468898D01*
X127654000Y-66268939D01*
X127654000Y-66065061D01*
X127614226Y-65865102D01*
X127536205Y-65676744D01*
X127422937Y-65507226D01*
X127278774Y-65363063D01*
X127109256Y-65249795D01*
X126920898Y-65171774D01*
X126720939Y-65132000D01*
X126517061Y-65132000D01*
X126317102Y-65171774D01*
X126143425Y-65243714D01*
X126135774Y-65236063D01*
X125966256Y-65122795D01*
X125777898Y-65044774D01*
X125577939Y-65005000D01*
X125374061Y-65005000D01*
X125174102Y-65044774D01*
X124985744Y-65122795D01*
X124816226Y-65236063D01*
X124772289Y-65280000D01*
X122739154Y-65280000D01*
X122837205Y-65133256D01*
X122915226Y-64944898D01*
X122955000Y-64744939D01*
X122955000Y-64541061D01*
X122922160Y-64375961D01*
X130867200Y-64375961D01*
X130867200Y-64579839D01*
X130906974Y-64779798D01*
X130984995Y-64968156D01*
X131098263Y-65137674D01*
X131242426Y-65281837D01*
X131411944Y-65395105D01*
X131600302Y-65473126D01*
X131800261Y-65512900D01*
X132004139Y-65512900D01*
X132204098Y-65473126D01*
X132392456Y-65395105D01*
X132561974Y-65281837D01*
X132605911Y-65237900D01*
X132835961Y-65237900D01*
X132823000Y-65303061D01*
X132823000Y-65506939D01*
X132862774Y-65706898D01*
X132940795Y-65895256D01*
X133054063Y-66064774D01*
X133198226Y-66208937D01*
X133367744Y-66322205D01*
X133556102Y-66400226D01*
X133756061Y-66440000D01*
X133959939Y-66440000D01*
X134159898Y-66400226D01*
X134348256Y-66322205D01*
X134517774Y-66208937D01*
X134661937Y-66064774D01*
X134775205Y-65895256D01*
X134853226Y-65706898D01*
X134893000Y-65506939D01*
X134893000Y-65467601D01*
X137154994Y-65467601D01*
X137086686Y-65632510D01*
X137033000Y-65902408D01*
X137033000Y-66177592D01*
X137086686Y-66447490D01*
X137191995Y-66701727D01*
X137344880Y-66930535D01*
X137539465Y-67125120D01*
X137768273Y-67278005D01*
X138022510Y-67383314D01*
X138292408Y-67437000D01*
X138567592Y-67437000D01*
X138837490Y-67383314D01*
X139091727Y-67278005D01*
X139320535Y-67125120D01*
X139440090Y-67005565D01*
X140184040Y-67005565D01*
X140251020Y-67245656D01*
X140500048Y-67362756D01*
X140767135Y-67429023D01*
X141042017Y-67441910D01*
X141314133Y-67400922D01*
X141573023Y-67307636D01*
X141688980Y-67245656D01*
X141755960Y-67005565D01*
X140970000Y-66219605D01*
X140184040Y-67005565D01*
X139440090Y-67005565D01*
X139515120Y-66930535D01*
X139668005Y-66701727D01*
X139697692Y-66630057D01*
X139702364Y-66643023D01*
X139764344Y-66758980D01*
X140004435Y-66825960D01*
X140790395Y-66040000D01*
X140776253Y-66025858D01*
X140955858Y-65846253D01*
X140970000Y-65860395D01*
X140984143Y-65846253D01*
X141163748Y-66025858D01*
X141149605Y-66040000D01*
X141935565Y-66825960D01*
X142175656Y-66758980D01*
X142239485Y-66623240D01*
X142271995Y-66701727D01*
X142424880Y-66930535D01*
X142619465Y-67125120D01*
X142848273Y-67278005D01*
X143102510Y-67383314D01*
X143372408Y-67437000D01*
X143647592Y-67437000D01*
X143917490Y-67383314D01*
X144171727Y-67278005D01*
X144400535Y-67125120D01*
X144595120Y-66930535D01*
X144748005Y-66701727D01*
X144780000Y-66624485D01*
X144811995Y-66701727D01*
X144964880Y-66930535D01*
X145159465Y-67125120D01*
X145388273Y-67278005D01*
X145642510Y-67383314D01*
X145912408Y-67437000D01*
X146187592Y-67437000D01*
X146457490Y-67383314D01*
X146711727Y-67278005D01*
X146940535Y-67125120D01*
X147135120Y-66930535D01*
X147288005Y-66701727D01*
X147393314Y-66447490D01*
X147447000Y-66177592D01*
X147447000Y-65902408D01*
X147393314Y-65632510D01*
X147325006Y-65467601D01*
X147592579Y-65467601D01*
X147629901Y-65471277D01*
X147667223Y-65467601D01*
X147667234Y-65467601D01*
X147778887Y-65456604D01*
X147922148Y-65413147D01*
X147941131Y-65403000D01*
X149555978Y-65403000D01*
X149593300Y-65406676D01*
X149630622Y-65403000D01*
X149630633Y-65403000D01*
X149742286Y-65392003D01*
X149885547Y-65348546D01*
X150017576Y-65277974D01*
X150133301Y-65183001D01*
X150157104Y-65153997D01*
X150523398Y-64787703D01*
X150552402Y-64763900D01*
X150647375Y-64648175D01*
X150717947Y-64516146D01*
X150761404Y-64372885D01*
X150772401Y-64261232D01*
X150772401Y-64261223D01*
X150776077Y-64223900D01*
X150772401Y-64186577D01*
X150772401Y-51956723D01*
X150776077Y-51919400D01*
X150772401Y-51882077D01*
X150772401Y-51882068D01*
X150761404Y-51770415D01*
X150717947Y-51627154D01*
X150647375Y-51495125D01*
X150634212Y-51479086D01*
X150576200Y-51408397D01*
X150576196Y-51408393D01*
X150552402Y-51379400D01*
X150523410Y-51355607D01*
X150228177Y-51060375D01*
X150234168Y-51045912D01*
X150297000Y-50730033D01*
X150297000Y-50407967D01*
X150234168Y-50092088D01*
X150110918Y-49794537D01*
X149931987Y-49526748D01*
X149704252Y-49299013D01*
X149436463Y-49120082D01*
X149138912Y-48996832D01*
X148823033Y-48934000D01*
X148500967Y-48934000D01*
X148185088Y-48996832D01*
X147887537Y-49120082D01*
X147619748Y-49299013D01*
X147392013Y-49526748D01*
X147213082Y-49794537D01*
X147089832Y-50092088D01*
X147027000Y-50407967D01*
X147027000Y-50730033D01*
X147089832Y-51045912D01*
X147213082Y-51343463D01*
X147392013Y-51611252D01*
X147619748Y-51838987D01*
X147887537Y-52017918D01*
X148185088Y-52141168D01*
X148500967Y-52204000D01*
X148823033Y-52204000D01*
X149138912Y-52141168D01*
X149153375Y-52135177D01*
X149252401Y-52234204D01*
X149252401Y-54268120D01*
X149164312Y-54231632D01*
X148848433Y-54168800D01*
X148526367Y-54168800D01*
X148210488Y-54231632D01*
X147912937Y-54354882D01*
X147645148Y-54533813D01*
X147417413Y-54761548D01*
X147238482Y-55029337D01*
X147115232Y-55326888D01*
X147052400Y-55642767D01*
X147052400Y-55964833D01*
X147115232Y-56280712D01*
X147238482Y-56578263D01*
X147417413Y-56846052D01*
X147645148Y-57073787D01*
X147912937Y-57252718D01*
X148210488Y-57375968D01*
X148526367Y-57438800D01*
X148848433Y-57438800D01*
X149164312Y-57375968D01*
X149252401Y-57339480D01*
X149252402Y-60768120D01*
X149164312Y-60731632D01*
X148848433Y-60668800D01*
X148526367Y-60668800D01*
X148210488Y-60731632D01*
X147912937Y-60854882D01*
X147645148Y-61033813D01*
X147417413Y-61261548D01*
X147238482Y-61529337D01*
X147115232Y-61826888D01*
X147052400Y-62142767D01*
X147052400Y-62464833D01*
X147105404Y-62731302D01*
X146893203Y-62519102D01*
X146869401Y-62490099D01*
X146753676Y-62395126D01*
X146621647Y-62324554D01*
X146478386Y-62281097D01*
X146366733Y-62270100D01*
X146366722Y-62270100D01*
X146329400Y-62266424D01*
X146292078Y-62270100D01*
X133952111Y-62270100D01*
X133908174Y-62226163D01*
X133738656Y-62112895D01*
X133550298Y-62034874D01*
X133350339Y-61995100D01*
X133146461Y-61995100D01*
X132946502Y-62034874D01*
X132758144Y-62112895D01*
X132588626Y-62226163D01*
X132444463Y-62370326D01*
X132331195Y-62539844D01*
X132253174Y-62728202D01*
X132213400Y-62928161D01*
X132213400Y-63132039D01*
X132253174Y-63331998D01*
X132331195Y-63520356D01*
X132345020Y-63541046D01*
X132204098Y-63482674D01*
X132004139Y-63442900D01*
X131800261Y-63442900D01*
X131600302Y-63482674D01*
X131411944Y-63560695D01*
X131242426Y-63673963D01*
X131098263Y-63818126D01*
X130984995Y-63987644D01*
X130906974Y-64176002D01*
X130867200Y-64375961D01*
X122922160Y-64375961D01*
X122915226Y-64341102D01*
X122837205Y-64152744D01*
X122723937Y-63983226D01*
X122579774Y-63839063D01*
X122410256Y-63725795D01*
X122221898Y-63647774D01*
X122021939Y-63608000D01*
X121818061Y-63608000D01*
X121618102Y-63647774D01*
X121429744Y-63725795D01*
X121260226Y-63839063D01*
X121216289Y-63883000D01*
X119360320Y-63883000D01*
X119322997Y-63879324D01*
X119285674Y-63883000D01*
X119285665Y-63883000D01*
X119174012Y-63893997D01*
X119030751Y-63937454D01*
X118898722Y-64008026D01*
X118782997Y-64102999D01*
X118759199Y-64131997D01*
X115440003Y-67451194D01*
X115410999Y-67474997D01*
X115355871Y-67542172D01*
X115316026Y-67590722D01*
X115245455Y-67722751D01*
X115245454Y-67722752D01*
X115201997Y-67866013D01*
X115191000Y-67977666D01*
X115191000Y-67977676D01*
X115187324Y-68014998D01*
X115191000Y-68052321D01*
X115191001Y-73845288D01*
X115147063Y-73889226D01*
X115033795Y-74058744D01*
X114955774Y-74247102D01*
X114916000Y-74447061D01*
X114252419Y-74447061D01*
X114072727Y-74326995D01*
X113995485Y-74295000D01*
X114072727Y-74263005D01*
X114301535Y-74110120D01*
X114496120Y-73915535D01*
X114649005Y-73686727D01*
X114754314Y-73432490D01*
X114808000Y-73162592D01*
X114808000Y-72887408D01*
X114754314Y-72617510D01*
X114649005Y-72363273D01*
X114496120Y-72134465D01*
X114301535Y-71939880D01*
X114072727Y-71786995D01*
X113818490Y-71681686D01*
X113548592Y-71628000D01*
X113273408Y-71628000D01*
X113003510Y-71681686D01*
X112749273Y-71786995D01*
X112520465Y-71939880D01*
X112325880Y-72134465D01*
X112172995Y-72363273D01*
X112143308Y-72434943D01*
X112138636Y-72421977D01*
X112076656Y-72306020D01*
X111836565Y-72239040D01*
X111050605Y-73025000D01*
X111836565Y-73810960D01*
X112076656Y-73743980D01*
X112140485Y-73608240D01*
X112172995Y-73686727D01*
X112325880Y-73915535D01*
X112520465Y-74110120D01*
X112749273Y-74263005D01*
X112826515Y-74295000D01*
X112749273Y-74326995D01*
X112520465Y-74479880D01*
X112325880Y-74674465D01*
X112172995Y-74903273D01*
X112141000Y-74980515D01*
X112109005Y-74903273D01*
X111956120Y-74674465D01*
X111761535Y-74479880D01*
X111532727Y-74326995D01*
X111461057Y-74297308D01*
X111474023Y-74292636D01*
X111589980Y-74230656D01*
X111656960Y-73990565D01*
X110871000Y-73204605D01*
X110085040Y-73990565D01*
X110152020Y-74230656D01*
X110287760Y-74294485D01*
X110209273Y-74326995D01*
X109980465Y-74479880D01*
X109785880Y-74674465D01*
X109632995Y-74903273D01*
X109527686Y-75157510D01*
X109474000Y-75427408D01*
X104800000Y-75427408D01*
X104800000Y-73097017D01*
X109469090Y-73097017D01*
X109510078Y-73369133D01*
X109603364Y-73628023D01*
X109665344Y-73743980D01*
X109905435Y-73810960D01*
X110691395Y-73025000D01*
X109905435Y-72239040D01*
X109665344Y-72306020D01*
X109548244Y-72555048D01*
X109481977Y-72822135D01*
X109469090Y-73097017D01*
X104800000Y-73097017D01*
X104800000Y-72059435D01*
X110085040Y-72059435D01*
X110871000Y-72845395D01*
X111656960Y-72059435D01*
X111589980Y-71819344D01*
X111340952Y-71702244D01*
X111073865Y-71635977D01*
X110798983Y-71623090D01*
X110526867Y-71664078D01*
X110267977Y-71757364D01*
X110152020Y-71819344D01*
X110085040Y-72059435D01*
X104800000Y-72059435D01*
X104800000Y-67970061D01*
X112757000Y-67970061D01*
X112757000Y-68173939D01*
X112796774Y-68373898D01*
X112874795Y-68562256D01*
X112988063Y-68731774D01*
X113132226Y-68875937D01*
X113301744Y-68989205D01*
X113490102Y-69067226D01*
X113690061Y-69107000D01*
X113893939Y-69107000D01*
X114093898Y-69067226D01*
X114282256Y-68989205D01*
X114451774Y-68875937D01*
X114595937Y-68731774D01*
X114709205Y-68562256D01*
X114787226Y-68373898D01*
X114827000Y-68173939D01*
X114827000Y-67970061D01*
X114787226Y-67770102D01*
X114709205Y-67581744D01*
X114595937Y-67412226D01*
X114451774Y-67268063D01*
X114282256Y-67154795D01*
X114093898Y-67076774D01*
X113893939Y-67037000D01*
X113690061Y-67037000D01*
X113490102Y-67076774D01*
X113301744Y-67154795D01*
X113132226Y-67268063D01*
X112988063Y-67412226D01*
X112874795Y-67581744D01*
X112796774Y-67770102D01*
X112757000Y-67970061D01*
X104800000Y-67970061D01*
X104800000Y-63486400D01*
X105392090Y-63486400D01*
X105395143Y-63510029D01*
X105488319Y-63750007D01*
X105626522Y-63967196D01*
X105804441Y-64153250D01*
X106015239Y-64301019D01*
X106250815Y-64404824D01*
X106502116Y-64460675D01*
X106708000Y-64310573D01*
X106708000Y-63284000D01*
X106962000Y-63284000D01*
X106962000Y-64310573D01*
X107167884Y-64460675D01*
X107419185Y-64404824D01*
X107654761Y-64301019D01*
X107865559Y-64153250D01*
X108043478Y-63967196D01*
X108181681Y-63750007D01*
X108274857Y-63510029D01*
X108277910Y-63486400D01*
X108154224Y-63284000D01*
X106962000Y-63284000D01*
X106708000Y-63284000D01*
X105515776Y-63284000D01*
X105392090Y-63486400D01*
X104800000Y-63486400D01*
X104800000Y-63156744D01*
X108491197Y-63156744D01*
X108495989Y-63195526D01*
X108585869Y-63411039D01*
X108716066Y-63604877D01*
X108881578Y-63769590D01*
X109076043Y-63898848D01*
X109291989Y-63987684D01*
X109521116Y-64032684D01*
X109708000Y-63877152D01*
X109708000Y-62974000D01*
X109962000Y-62974000D01*
X109962000Y-63877152D01*
X110148884Y-64032684D01*
X110378011Y-63987684D01*
X110593957Y-63898848D01*
X110788422Y-63769590D01*
X110953934Y-63604877D01*
X111084131Y-63411039D01*
X111174011Y-63195526D01*
X111178803Y-63156744D01*
X111082920Y-63017061D01*
X124187000Y-63017061D01*
X124187000Y-63220939D01*
X124226774Y-63420898D01*
X124304795Y-63609256D01*
X124418063Y-63778774D01*
X124562226Y-63922937D01*
X124731744Y-64036205D01*
X124920102Y-64114226D01*
X125120061Y-64154000D01*
X125323939Y-64154000D01*
X125523898Y-64114226D01*
X125712256Y-64036205D01*
X125881774Y-63922937D01*
X126025937Y-63778774D01*
X126139205Y-63609256D01*
X126217226Y-63420898D01*
X126257000Y-63220939D01*
X126257000Y-63017061D01*
X126217226Y-62817102D01*
X126139205Y-62628744D01*
X126025937Y-62459226D01*
X125881774Y-62315063D01*
X125712256Y-62201795D01*
X125523898Y-62123774D01*
X125323939Y-62084000D01*
X125120061Y-62084000D01*
X124920102Y-62123774D01*
X124731744Y-62201795D01*
X124562226Y-62315063D01*
X124418063Y-62459226D01*
X124304795Y-62628744D01*
X124226774Y-62817102D01*
X124187000Y-63017061D01*
X111082920Y-63017061D01*
X111053361Y-62974000D01*
X109962000Y-62974000D01*
X109708000Y-62974000D01*
X108616639Y-62974000D01*
X108491197Y-63156744D01*
X104800000Y-63156744D01*
X104800000Y-62827600D01*
X105392090Y-62827600D01*
X105515776Y-63030000D01*
X106708000Y-63030000D01*
X106708000Y-62003427D01*
X106962000Y-62003427D01*
X106962000Y-63030000D01*
X108154224Y-63030000D01*
X108277910Y-62827600D01*
X108274857Y-62803971D01*
X108181681Y-62563993D01*
X108164668Y-62537256D01*
X108491197Y-62537256D01*
X108616639Y-62720000D01*
X109708000Y-62720000D01*
X109708000Y-61816848D01*
X109962000Y-61816848D01*
X109962000Y-62720000D01*
X111053361Y-62720000D01*
X111178803Y-62537256D01*
X111174011Y-62498474D01*
X111084131Y-62282961D01*
X110953934Y-62089123D01*
X110788422Y-61924410D01*
X110593957Y-61795152D01*
X110378011Y-61706316D01*
X110148884Y-61661316D01*
X109962000Y-61816848D01*
X109708000Y-61816848D01*
X109521116Y-61661316D01*
X109291989Y-61706316D01*
X109076043Y-61795152D01*
X108881578Y-61924410D01*
X108716066Y-62089123D01*
X108585869Y-62282961D01*
X108495989Y-62498474D01*
X108491197Y-62537256D01*
X108164668Y-62537256D01*
X108043478Y-62346804D01*
X107865559Y-62160750D01*
X107654761Y-62012981D01*
X107419185Y-61909176D01*
X107167884Y-61853325D01*
X106962000Y-62003427D01*
X106708000Y-62003427D01*
X106502116Y-61853325D01*
X106250815Y-61909176D01*
X106015239Y-62012981D01*
X105804441Y-62160750D01*
X105626522Y-62346804D01*
X105488319Y-62563993D01*
X105395143Y-62803971D01*
X105392090Y-62827600D01*
X104800000Y-62827600D01*
X104800000Y-58026400D01*
X105392090Y-58026400D01*
X105395143Y-58050029D01*
X105488319Y-58290007D01*
X105626522Y-58507196D01*
X105804441Y-58693250D01*
X106015239Y-58841019D01*
X106250815Y-58944824D01*
X106502116Y-59000675D01*
X106708000Y-58850573D01*
X106708000Y-57824000D01*
X106962000Y-57824000D01*
X106962000Y-58850573D01*
X107167884Y-59000675D01*
X107419185Y-58944824D01*
X107654761Y-58841019D01*
X107865559Y-58693250D01*
X108043478Y-58507196D01*
X108164667Y-58316744D01*
X108491197Y-58316744D01*
X108495989Y-58355526D01*
X108585869Y-58571039D01*
X108716066Y-58764877D01*
X108881578Y-58929590D01*
X109076043Y-59058848D01*
X109291989Y-59147684D01*
X109521116Y-59192684D01*
X109708000Y-59037152D01*
X109708000Y-58134000D01*
X109962000Y-58134000D01*
X109962000Y-59037152D01*
X110148884Y-59192684D01*
X110378011Y-59147684D01*
X110593957Y-59058848D01*
X110753110Y-58953061D01*
X124187000Y-58953061D01*
X124187000Y-59156939D01*
X124226774Y-59356898D01*
X124304795Y-59545256D01*
X124418063Y-59714774D01*
X124562226Y-59858937D01*
X124731744Y-59972205D01*
X124920102Y-60050226D01*
X125120061Y-60090000D01*
X125323939Y-60090000D01*
X125523898Y-60050226D01*
X125712256Y-59972205D01*
X125881774Y-59858937D01*
X126025650Y-59715061D01*
X132200700Y-59715061D01*
X132200700Y-59918939D01*
X132240474Y-60118898D01*
X132318495Y-60307256D01*
X132431763Y-60476774D01*
X132575926Y-60620937D01*
X132745444Y-60734205D01*
X132933802Y-60812226D01*
X133133761Y-60852000D01*
X133337639Y-60852000D01*
X133537598Y-60812226D01*
X133725956Y-60734205D01*
X133895474Y-60620937D01*
X134039637Y-60476774D01*
X134152905Y-60307256D01*
X134230926Y-60118898D01*
X134270700Y-59918939D01*
X134270700Y-59856801D01*
X147286004Y-46841498D01*
X147315001Y-46817701D01*
X147409974Y-46701976D01*
X147480546Y-46569947D01*
X147524003Y-46426686D01*
X147535000Y-46315033D01*
X147535000Y-46315025D01*
X147538676Y-46277700D01*
X147535000Y-46240375D01*
X147535000Y-45254239D01*
X147619748Y-45338987D01*
X147887537Y-45517918D01*
X148185088Y-45641168D01*
X148500967Y-45704000D01*
X148823033Y-45704000D01*
X149138912Y-45641168D01*
X149436463Y-45517918D01*
X149704252Y-45338987D01*
X149931987Y-45111252D01*
X150110918Y-44843463D01*
X150234168Y-44545912D01*
X150297000Y-44230033D01*
X150297000Y-43907967D01*
X150234168Y-43592088D01*
X150110918Y-43294537D01*
X149931987Y-43026748D01*
X149704252Y-42799013D01*
X149436463Y-42620082D01*
X149138912Y-42496832D01*
X148823033Y-42434000D01*
X148500967Y-42434000D01*
X148185088Y-42496832D01*
X147887537Y-42620082D01*
X147619748Y-42799013D01*
X147535000Y-42883761D01*
X147535000Y-41115876D01*
X147695956Y-41049205D01*
X147865474Y-40935937D01*
X148009637Y-40791774D01*
X148122905Y-40622256D01*
X148200926Y-40433898D01*
X148215311Y-40361580D01*
X148500967Y-40418400D01*
X148823033Y-40418400D01*
X149138912Y-40355568D01*
X149436463Y-40232318D01*
X149704252Y-40053387D01*
X149931987Y-39825652D01*
X150110918Y-39557863D01*
X150234168Y-39260312D01*
X150297000Y-38944433D01*
X150297000Y-38622367D01*
X150234168Y-38306488D01*
X150110918Y-38008937D01*
X149931987Y-37741148D01*
X149704252Y-37513413D01*
X149436463Y-37334482D01*
X149138912Y-37211232D01*
X148823033Y-37148400D01*
X148500967Y-37148400D01*
X148185088Y-37211232D01*
X147887537Y-37334482D01*
X147619748Y-37513413D01*
X147392013Y-37741148D01*
X147213082Y-38008937D01*
X147089832Y-38306488D01*
X147027000Y-38622367D01*
X147027000Y-38944433D01*
X147059114Y-39105881D01*
X146903802Y-39136774D01*
X146715444Y-39214795D01*
X146545926Y-39328063D01*
X146401763Y-39472226D01*
X146288495Y-39641744D01*
X146210474Y-39830102D01*
X146170700Y-40030061D01*
X146170700Y-40101048D01*
X146140026Y-40138424D01*
X146069454Y-40270454D01*
X146043636Y-40355568D01*
X146025998Y-40413714D01*
X146024961Y-40424247D01*
X146011324Y-40562700D01*
X146015001Y-40600032D01*
X146015000Y-45962898D01*
X133195899Y-58782000D01*
X133133761Y-58782000D01*
X132933802Y-58821774D01*
X132745444Y-58899795D01*
X132575926Y-59013063D01*
X132431763Y-59157226D01*
X132318495Y-59326744D01*
X132240474Y-59515102D01*
X132200700Y-59715061D01*
X126025650Y-59715061D01*
X126025937Y-59714774D01*
X126139205Y-59545256D01*
X126217226Y-59356898D01*
X126257000Y-59156939D01*
X126257000Y-58953061D01*
X126217226Y-58753102D01*
X126139205Y-58564744D01*
X126025937Y-58395226D01*
X125881774Y-58251063D01*
X125712256Y-58137795D01*
X125523898Y-58059774D01*
X125323939Y-58020000D01*
X125120061Y-58020000D01*
X124920102Y-58059774D01*
X124731744Y-58137795D01*
X124562226Y-58251063D01*
X124418063Y-58395226D01*
X124304795Y-58564744D01*
X124226774Y-58753102D01*
X124187000Y-58953061D01*
X110753110Y-58953061D01*
X110788422Y-58929590D01*
X110953934Y-58764877D01*
X111084131Y-58571039D01*
X111174011Y-58355526D01*
X111178803Y-58316744D01*
X111053361Y-58134000D01*
X109962000Y-58134000D01*
X109708000Y-58134000D01*
X108616639Y-58134000D01*
X108491197Y-58316744D01*
X108164667Y-58316744D01*
X108181681Y-58290007D01*
X108274857Y-58050029D01*
X108277910Y-58026400D01*
X108154224Y-57824000D01*
X106962000Y-57824000D01*
X106708000Y-57824000D01*
X105515776Y-57824000D01*
X105392090Y-58026400D01*
X104800000Y-58026400D01*
X104800000Y-57697256D01*
X108491197Y-57697256D01*
X108616639Y-57880000D01*
X109708000Y-57880000D01*
X109708000Y-56976848D01*
X109962000Y-56976848D01*
X109962000Y-57880000D01*
X111053361Y-57880000D01*
X111178803Y-57697256D01*
X111174011Y-57658474D01*
X111084131Y-57442961D01*
X110953934Y-57249123D01*
X110788422Y-57084410D01*
X110593957Y-56955152D01*
X110378011Y-56866316D01*
X110148884Y-56821316D01*
X109962000Y-56976848D01*
X109708000Y-56976848D01*
X109521116Y-56821316D01*
X109291989Y-56866316D01*
X109076043Y-56955152D01*
X108881578Y-57084410D01*
X108716066Y-57249123D01*
X108585869Y-57442961D01*
X108495989Y-57658474D01*
X108491197Y-57697256D01*
X104800000Y-57697256D01*
X104800000Y-57367600D01*
X105392090Y-57367600D01*
X105515776Y-57570000D01*
X106708000Y-57570000D01*
X106708000Y-56543427D01*
X106962000Y-56543427D01*
X106962000Y-57570000D01*
X108154224Y-57570000D01*
X108277910Y-57367600D01*
X108274857Y-57343971D01*
X108181681Y-57103993D01*
X108043478Y-56886804D01*
X107865559Y-56700750D01*
X107654761Y-56552981D01*
X107419185Y-56449176D01*
X107167884Y-56393325D01*
X106962000Y-56543427D01*
X106708000Y-56543427D01*
X106502116Y-56393325D01*
X106250815Y-56449176D01*
X106015239Y-56552981D01*
X105804441Y-56700750D01*
X105626522Y-56886804D01*
X105488319Y-57103993D01*
X105395143Y-57343971D01*
X105392090Y-57367600D01*
X104800000Y-57367600D01*
X104800000Y-53873061D01*
X124441000Y-53873061D01*
X124441000Y-54076939D01*
X124480774Y-54276898D01*
X124558795Y-54465256D01*
X124672063Y-54634774D01*
X124816226Y-54778937D01*
X124985744Y-54892205D01*
X125174102Y-54970226D01*
X125374061Y-55010000D01*
X125577939Y-55010000D01*
X125777898Y-54970226D01*
X125966256Y-54892205D01*
X126135774Y-54778937D01*
X126279937Y-54634774D01*
X126393205Y-54465256D01*
X126471226Y-54276898D01*
X126501030Y-54127061D01*
X132442000Y-54127061D01*
X132442000Y-54330939D01*
X132481774Y-54530898D01*
X132559795Y-54719256D01*
X132673063Y-54888774D01*
X132817226Y-55032937D01*
X132986744Y-55146205D01*
X133175102Y-55224226D01*
X133375061Y-55264000D01*
X133578939Y-55264000D01*
X133778898Y-55224226D01*
X133967256Y-55146205D01*
X134136774Y-55032937D01*
X134280937Y-54888774D01*
X134394205Y-54719256D01*
X134472226Y-54530898D01*
X134512000Y-54330939D01*
X134512000Y-54127061D01*
X134472226Y-53927102D01*
X134394205Y-53738744D01*
X134280937Y-53569226D01*
X134136774Y-53425063D01*
X133967256Y-53311795D01*
X133778898Y-53233774D01*
X133578939Y-53194000D01*
X133375061Y-53194000D01*
X133175102Y-53233774D01*
X132986744Y-53311795D01*
X132817226Y-53425063D01*
X132673063Y-53569226D01*
X132559795Y-53738744D01*
X132481774Y-53927102D01*
X132442000Y-54127061D01*
X126501030Y-54127061D01*
X126511000Y-54076939D01*
X126511000Y-53873061D01*
X126471226Y-53673102D01*
X126393205Y-53484744D01*
X126279937Y-53315226D01*
X126135774Y-53171063D01*
X125966256Y-53057795D01*
X125777898Y-52979774D01*
X125577939Y-52940000D01*
X125374061Y-52940000D01*
X125174102Y-52979774D01*
X124985744Y-53057795D01*
X124816226Y-53171063D01*
X124672063Y-53315226D01*
X124558795Y-53484744D01*
X124480774Y-53673102D01*
X124441000Y-53873061D01*
X104800000Y-53873061D01*
X104800000Y-50545661D01*
X105759300Y-50545661D01*
X105759300Y-50749539D01*
X105799074Y-50949498D01*
X105877095Y-51137856D01*
X105990363Y-51307374D01*
X106134526Y-51451537D01*
X106304044Y-51564805D01*
X106492402Y-51642826D01*
X106692361Y-51682600D01*
X106896239Y-51682600D01*
X107096198Y-51642826D01*
X107284556Y-51564805D01*
X107454074Y-51451537D01*
X107598237Y-51307374D01*
X107711505Y-51137856D01*
X107789526Y-50949498D01*
X107829300Y-50749539D01*
X107829300Y-50545661D01*
X111169500Y-50545661D01*
X111169500Y-50749539D01*
X111209274Y-50949498D01*
X111287295Y-51137856D01*
X111400563Y-51307374D01*
X111544726Y-51451537D01*
X111714244Y-51564805D01*
X111902602Y-51642826D01*
X112102561Y-51682600D01*
X112306439Y-51682600D01*
X112506398Y-51642826D01*
X112694756Y-51564805D01*
X112864274Y-51451537D01*
X113008437Y-51307374D01*
X113121705Y-51137856D01*
X113199726Y-50949498D01*
X113239500Y-50749539D01*
X113239500Y-50545661D01*
X113199726Y-50345702D01*
X113121705Y-50157344D01*
X113008437Y-49987826D01*
X112864274Y-49843663D01*
X112694756Y-49730395D01*
X112506398Y-49652374D01*
X112306439Y-49612600D01*
X112102561Y-49612600D01*
X111902602Y-49652374D01*
X111714244Y-49730395D01*
X111544726Y-49843663D01*
X111400563Y-49987826D01*
X111287295Y-50157344D01*
X111209274Y-50345702D01*
X111169500Y-50545661D01*
X107829300Y-50545661D01*
X107789526Y-50345702D01*
X107711505Y-50157344D01*
X107598237Y-49987826D01*
X107454074Y-49843663D01*
X107284556Y-49730395D01*
X107096198Y-49652374D01*
X106896239Y-49612600D01*
X106692361Y-49612600D01*
X106492402Y-49652374D01*
X106304044Y-49730395D01*
X106134526Y-49843663D01*
X105990363Y-49987826D01*
X105877095Y-50157344D01*
X105799074Y-50345702D01*
X105759300Y-50545661D01*
X104800000Y-50545661D01*
X104800000Y-49034361D01*
X108591400Y-49034361D01*
X108591400Y-49238239D01*
X108631174Y-49438198D01*
X108709195Y-49626556D01*
X108822463Y-49796074D01*
X108966626Y-49940237D01*
X109136144Y-50053505D01*
X109324502Y-50131526D01*
X109524461Y-50171300D01*
X109728339Y-50171300D01*
X109928298Y-50131526D01*
X110116656Y-50053505D01*
X110286174Y-49940237D01*
X110430337Y-49796074D01*
X110543605Y-49626556D01*
X110621626Y-49438198D01*
X110661400Y-49238239D01*
X110661400Y-49034361D01*
X110621626Y-48834402D01*
X110543605Y-48646044D01*
X110430337Y-48476526D01*
X110286174Y-48332363D01*
X110116656Y-48219095D01*
X109928298Y-48141074D01*
X109728339Y-48101300D01*
X109524461Y-48101300D01*
X109324502Y-48141074D01*
X109136144Y-48219095D01*
X108966626Y-48332363D01*
X108822463Y-48476526D01*
X108709195Y-48646044D01*
X108631174Y-48834402D01*
X108591400Y-49034361D01*
X104800000Y-49034361D01*
X104800000Y-43078061D01*
X122663000Y-43078061D01*
X122663000Y-43281939D01*
X122702774Y-43481898D01*
X122780795Y-43670256D01*
X122894063Y-43839774D01*
X123038226Y-43983937D01*
X123207744Y-44097205D01*
X123396102Y-44175226D01*
X123596061Y-44215000D01*
X123799939Y-44215000D01*
X123999898Y-44175226D01*
X124188256Y-44097205D01*
X124357774Y-43983937D01*
X124501937Y-43839774D01*
X124615205Y-43670256D01*
X124693226Y-43481898D01*
X124733000Y-43281939D01*
X124733000Y-43078061D01*
X124693226Y-42878102D01*
X124615205Y-42689744D01*
X124501937Y-42520226D01*
X124357774Y-42376063D01*
X124188256Y-42262795D01*
X123999898Y-42184774D01*
X123799939Y-42145000D01*
X123596061Y-42145000D01*
X123396102Y-42184774D01*
X123207744Y-42262795D01*
X123038226Y-42376063D01*
X122894063Y-42520226D01*
X122780795Y-42689744D01*
X122702774Y-42878102D01*
X122663000Y-43078061D01*
X104800000Y-43078061D01*
X104800000Y-39649061D01*
X120123000Y-39649061D01*
X120123000Y-39852939D01*
X120162774Y-40052898D01*
X120240795Y-40241256D01*
X120354063Y-40410774D01*
X120498226Y-40554937D01*
X120667744Y-40668205D01*
X120856102Y-40746226D01*
X121056061Y-40786000D01*
X121259939Y-40786000D01*
X121459898Y-40746226D01*
X121648256Y-40668205D01*
X121817774Y-40554937D01*
X121961937Y-40410774D01*
X122075205Y-40241256D01*
X122153226Y-40052898D01*
X122193000Y-39852939D01*
X122193000Y-39649061D01*
X122153226Y-39449102D01*
X122075205Y-39260744D01*
X121961937Y-39091226D01*
X121817774Y-38947063D01*
X121648256Y-38833795D01*
X121459898Y-38755774D01*
X121259939Y-38716000D01*
X121056061Y-38716000D01*
X120856102Y-38755774D01*
X120667744Y-38833795D01*
X120498226Y-38947063D01*
X120354063Y-39091226D01*
X120240795Y-39260744D01*
X120162774Y-39449102D01*
X120123000Y-39649061D01*
X104800000Y-39649061D01*
X104800000Y-32122367D01*
X147027000Y-32122367D01*
X147027000Y-32444433D01*
X147089832Y-32760312D01*
X147213082Y-33057863D01*
X147392013Y-33325652D01*
X147619748Y-33553387D01*
X147887537Y-33732318D01*
X148185088Y-33855568D01*
X148500967Y-33918400D01*
X148823033Y-33918400D01*
X149138912Y-33855568D01*
X149436463Y-33732318D01*
X149704252Y-33553387D01*
X149931987Y-33325652D01*
X150110918Y-33057863D01*
X150234168Y-32760312D01*
X150297000Y-32444433D01*
X150297000Y-32122367D01*
X150234168Y-31806488D01*
X150110918Y-31508937D01*
X149931987Y-31241148D01*
X149704252Y-31013413D01*
X149436463Y-30834482D01*
X149138912Y-30711232D01*
X148823033Y-30648400D01*
X148500967Y-30648400D01*
X148185088Y-30711232D01*
X147887537Y-30834482D01*
X147619748Y-31013413D01*
X147392013Y-31241148D01*
X147213082Y-31508937D01*
X147089832Y-31806488D01*
X147027000Y-32122367D01*
X104800000Y-32122367D01*
X104800000Y-26830881D01*
X105428724Y-26830881D01*
X105788912Y-27320548D01*
X106452882Y-27680849D01*
X107174385Y-27904694D01*
X107925695Y-27983480D01*
X108677938Y-27914178D01*
X109402208Y-27699452D01*
X110070670Y-27347555D01*
X110111088Y-27320548D01*
X110471276Y-26830881D01*
X107950000Y-24309605D01*
X105428724Y-26830881D01*
X104800000Y-26830881D01*
X104800000Y-26320914D01*
X105249119Y-26651276D01*
X107770395Y-24130000D01*
X108129605Y-24130000D01*
X110650881Y-26651276D01*
X111109316Y-26314061D01*
X117710000Y-26314061D01*
X117710000Y-26517939D01*
X117749774Y-26717898D01*
X117827795Y-26906256D01*
X117941063Y-27075774D01*
X118085226Y-27219937D01*
X118254744Y-27333205D01*
X118443102Y-27411226D01*
X118643061Y-27451000D01*
X118846939Y-27451000D01*
X119046898Y-27411226D01*
X119235256Y-27333205D01*
X119404774Y-27219937D01*
X119548937Y-27075774D01*
X119662205Y-26906256D01*
X119693426Y-26830881D01*
X148608724Y-26830881D01*
X148968912Y-27320548D01*
X149632882Y-27680849D01*
X150354385Y-27904694D01*
X151105695Y-27983480D01*
X151857938Y-27914178D01*
X152582208Y-27699452D01*
X153250670Y-27347555D01*
X153291088Y-27320548D01*
X153651276Y-26830881D01*
X151130000Y-24309605D01*
X148608724Y-26830881D01*
X119693426Y-26830881D01*
X119740226Y-26717898D01*
X119780000Y-26517939D01*
X119780000Y-26314061D01*
X119740226Y-26114102D01*
X119662205Y-25925744D01*
X119548937Y-25756226D01*
X119404774Y-25612063D01*
X119235256Y-25498795D01*
X119046898Y-25420774D01*
X118846939Y-25381000D01*
X118643061Y-25381000D01*
X118443102Y-25420774D01*
X118254744Y-25498795D01*
X118085226Y-25612063D01*
X117941063Y-25756226D01*
X117827795Y-25925744D01*
X117749774Y-26114102D01*
X117710000Y-26314061D01*
X111109316Y-26314061D01*
X111140548Y-26291088D01*
X111500849Y-25627118D01*
X111724694Y-24905615D01*
X111736234Y-24795565D01*
X124944040Y-24795565D01*
X125011020Y-25035656D01*
X125260048Y-25152756D01*
X125527135Y-25219023D01*
X125802017Y-25231910D01*
X126074133Y-25190922D01*
X126333023Y-25097636D01*
X126448980Y-25035656D01*
X126515960Y-24795565D01*
X125730000Y-24009605D01*
X124944040Y-24795565D01*
X111736234Y-24795565D01*
X111803480Y-24154305D01*
X111780238Y-23902017D01*
X124328090Y-23902017D01*
X124369078Y-24174133D01*
X124462364Y-24433023D01*
X124524344Y-24548980D01*
X124764435Y-24615960D01*
X125550395Y-23830000D01*
X125909605Y-23830000D01*
X126695565Y-24615960D01*
X126935656Y-24548980D01*
X126999485Y-24413240D01*
X127031995Y-24491727D01*
X127184880Y-24720535D01*
X127379465Y-24915120D01*
X127608273Y-25068005D01*
X127862510Y-25173314D01*
X128132408Y-25227000D01*
X128407592Y-25227000D01*
X128677490Y-25173314D01*
X128931727Y-25068005D01*
X129160535Y-24915120D01*
X129355120Y-24720535D01*
X129508005Y-24491727D01*
X129540000Y-24414485D01*
X129571995Y-24491727D01*
X129724880Y-24720535D01*
X129919465Y-24915120D01*
X130148273Y-25068005D01*
X130402510Y-25173314D01*
X130672408Y-25227000D01*
X130947592Y-25227000D01*
X131217490Y-25173314D01*
X131471727Y-25068005D01*
X131700535Y-24915120D01*
X131895120Y-24720535D01*
X132048005Y-24491727D01*
X132080000Y-24414485D01*
X132111995Y-24491727D01*
X132264880Y-24720535D01*
X132459465Y-24915120D01*
X132688273Y-25068005D01*
X132942510Y-25173314D01*
X133212408Y-25227000D01*
X133487592Y-25227000D01*
X133757490Y-25173314D01*
X134011727Y-25068005D01*
X134240535Y-24915120D01*
X134435120Y-24720535D01*
X134588005Y-24491727D01*
X134693314Y-24237490D01*
X134719529Y-24105695D01*
X147276520Y-24105695D01*
X147345822Y-24857938D01*
X147560548Y-25582208D01*
X147912445Y-26250670D01*
X147939452Y-26291088D01*
X148429119Y-26651276D01*
X150950395Y-24130000D01*
X148429119Y-21608724D01*
X147939452Y-21968912D01*
X147579151Y-22632882D01*
X147355306Y-23354385D01*
X147276520Y-24105695D01*
X134719529Y-24105695D01*
X134747000Y-23967592D01*
X134747000Y-23692408D01*
X134693314Y-23422510D01*
X134588005Y-23168273D01*
X134435120Y-22939465D01*
X134240535Y-22744880D01*
X134011727Y-22591995D01*
X133757490Y-22486686D01*
X133487592Y-22433000D01*
X133212408Y-22433000D01*
X132942510Y-22486686D01*
X132688273Y-22591995D01*
X132459465Y-22744880D01*
X132264880Y-22939465D01*
X132111995Y-23168273D01*
X132080000Y-23245515D01*
X132048005Y-23168273D01*
X131895120Y-22939465D01*
X131700535Y-22744880D01*
X131471727Y-22591995D01*
X131217490Y-22486686D01*
X130947592Y-22433000D01*
X130672408Y-22433000D01*
X130402510Y-22486686D01*
X130148273Y-22591995D01*
X129919465Y-22744880D01*
X129724880Y-22939465D01*
X129571995Y-23168273D01*
X129540000Y-23245515D01*
X129508005Y-23168273D01*
X129355120Y-22939465D01*
X129160535Y-22744880D01*
X128931727Y-22591995D01*
X128677490Y-22486686D01*
X128407592Y-22433000D01*
X128132408Y-22433000D01*
X127862510Y-22486686D01*
X127608273Y-22591995D01*
X127379465Y-22744880D01*
X127184880Y-22939465D01*
X127031995Y-23168273D01*
X127002308Y-23239943D01*
X126997636Y-23226977D01*
X126935656Y-23111020D01*
X126695565Y-23044040D01*
X125909605Y-23830000D01*
X125550395Y-23830000D01*
X124764435Y-23044040D01*
X124524344Y-23111020D01*
X124407244Y-23360048D01*
X124340977Y-23627135D01*
X124328090Y-23902017D01*
X111780238Y-23902017D01*
X111734178Y-23402062D01*
X111574787Y-22864435D01*
X124944040Y-22864435D01*
X125730000Y-23650395D01*
X126515960Y-22864435D01*
X126448980Y-22624344D01*
X126199952Y-22507244D01*
X125932865Y-22440977D01*
X125657983Y-22428090D01*
X125385867Y-22469078D01*
X125126977Y-22562364D01*
X125011020Y-22624344D01*
X124944040Y-22864435D01*
X111574787Y-22864435D01*
X111519452Y-22677792D01*
X111167555Y-22009330D01*
X111140548Y-21968912D01*
X110650881Y-21608724D01*
X108129605Y-24130000D01*
X107770395Y-24130000D01*
X107756253Y-24115858D01*
X107935858Y-23936253D01*
X107950000Y-23950395D01*
X110471276Y-21429119D01*
X110140914Y-20980000D01*
X148939086Y-20980000D01*
X148608724Y-21429119D01*
%TA.AperFunction,Conductor*%
D22*
G36*
X148608724Y-21429119D02*
G01*
X151130000Y-23950395D01*
X151144143Y-23936253D01*
X151323748Y-24115858D01*
X151309605Y-24130000D01*
X153830881Y-26651276D01*
X154280000Y-26320914D01*
X154280000Y-31089161D01*
X154204252Y-31013413D01*
X153936463Y-30834482D01*
X153638912Y-30711232D01*
X153323033Y-30648400D01*
X153000967Y-30648400D01*
X152685088Y-30711232D01*
X152387537Y-30834482D01*
X152119748Y-31013413D01*
X151892013Y-31241148D01*
X151713082Y-31508937D01*
X151589832Y-31806488D01*
X151527000Y-32122367D01*
X151527000Y-32444433D01*
X151589832Y-32760312D01*
X151713082Y-33057863D01*
X151892013Y-33325652D01*
X152119748Y-33553387D01*
X152387537Y-33732318D01*
X152685088Y-33855568D01*
X153000967Y-33918400D01*
X153323033Y-33918400D01*
X153638912Y-33855568D01*
X153936463Y-33732318D01*
X154204252Y-33553387D01*
X154280000Y-33477639D01*
X154280000Y-37589161D01*
X154204252Y-37513413D01*
X153936463Y-37334482D01*
X153638912Y-37211232D01*
X153323033Y-37148400D01*
X153000967Y-37148400D01*
X152685088Y-37211232D01*
X152387537Y-37334482D01*
X152119748Y-37513413D01*
X151892013Y-37741148D01*
X151713082Y-38008937D01*
X151589832Y-38306488D01*
X151527000Y-38622367D01*
X151527000Y-38944433D01*
X151589832Y-39260312D01*
X151713082Y-39557863D01*
X151892013Y-39825652D01*
X152119748Y-40053387D01*
X152387537Y-40232318D01*
X152685088Y-40355568D01*
X153000967Y-40418400D01*
X153323033Y-40418400D01*
X153638912Y-40355568D01*
X153936463Y-40232318D01*
X154204252Y-40053387D01*
X154280000Y-39977639D01*
X154280000Y-42874761D01*
X154204252Y-42799013D01*
X153936463Y-42620082D01*
X153638912Y-42496832D01*
X153323033Y-42434000D01*
X153000967Y-42434000D01*
X152685088Y-42496832D01*
X152387537Y-42620082D01*
X152119748Y-42799013D01*
X151892013Y-43026748D01*
X151713082Y-43294537D01*
X151589832Y-43592088D01*
X151527000Y-43907967D01*
X151527000Y-44230033D01*
X151589832Y-44545912D01*
X151713082Y-44843463D01*
X151892013Y-45111252D01*
X152119748Y-45338987D01*
X152387537Y-45517918D01*
X152685088Y-45641168D01*
X153000967Y-45704000D01*
X153323033Y-45704000D01*
X153638912Y-45641168D01*
X153936463Y-45517918D01*
X154204252Y-45338987D01*
X154280000Y-45263239D01*
X154280000Y-49374761D01*
X154204252Y-49299013D01*
X153936463Y-49120082D01*
X153638912Y-48996832D01*
X153323033Y-48934000D01*
X153000967Y-48934000D01*
X152685088Y-48996832D01*
X152387537Y-49120082D01*
X152119748Y-49299013D01*
X151892013Y-49526748D01*
X151713082Y-49794537D01*
X151589832Y-50092088D01*
X151527000Y-50407967D01*
X151527000Y-50730033D01*
X151589832Y-51045912D01*
X151713082Y-51343463D01*
X151892013Y-51611252D01*
X152119748Y-51838987D01*
X152387537Y-52017918D01*
X152685088Y-52141168D01*
X153000967Y-52204000D01*
X153323033Y-52204000D01*
X153638912Y-52141168D01*
X153936463Y-52017918D01*
X154204252Y-51838987D01*
X154280000Y-51763239D01*
X154280000Y-54584161D01*
X154229652Y-54533813D01*
X153961863Y-54354882D01*
X153664312Y-54231632D01*
X153348433Y-54168800D01*
X153026367Y-54168800D01*
X152710488Y-54231632D01*
X152412937Y-54354882D01*
X152145148Y-54533813D01*
X151917413Y-54761548D01*
X151738482Y-55029337D01*
X151615232Y-55326888D01*
X151552400Y-55642767D01*
X151552400Y-55964833D01*
X151615232Y-56280712D01*
X151738482Y-56578263D01*
X151917413Y-56846052D01*
X152145148Y-57073787D01*
X152412937Y-57252718D01*
X152710488Y-57375968D01*
X153026367Y-57438800D01*
X153348433Y-57438800D01*
X153664312Y-57375968D01*
X153961863Y-57252718D01*
X154229652Y-57073787D01*
X154280000Y-57023439D01*
X154280001Y-61084162D01*
X154229652Y-61033813D01*
X153961863Y-60854882D01*
X153664312Y-60731632D01*
X153348433Y-60668800D01*
X153026367Y-60668800D01*
X152710488Y-60731632D01*
X152412937Y-60854882D01*
X152145148Y-61033813D01*
X151917413Y-61261548D01*
X151738482Y-61529337D01*
X151615232Y-61826888D01*
X151552400Y-62142767D01*
X151552400Y-62464833D01*
X151615232Y-62780712D01*
X151738482Y-63078263D01*
X151917413Y-63346052D01*
X152145148Y-63573787D01*
X152412937Y-63752718D01*
X152710488Y-63875968D01*
X153026367Y-63938800D01*
X153348433Y-63938800D01*
X153664312Y-63875968D01*
X153961863Y-63752718D01*
X154229652Y-63573787D01*
X154280001Y-63523438D01*
X154280001Y-91789087D01*
X153830881Y-91458724D01*
X151309605Y-93980000D01*
X151323748Y-93994143D01*
X151144143Y-94173748D01*
X151130000Y-94159605D01*
X148608724Y-96680881D01*
X148939086Y-97130000D01*
X110140914Y-97130000D01*
X110471276Y-96680881D01*
X107950000Y-94159605D01*
X107935858Y-94173748D01*
X107756253Y-93994143D01*
X107770395Y-93980000D01*
X108129605Y-93980000D01*
X110650881Y-96501276D01*
X111140548Y-96141088D01*
X111500849Y-95477118D01*
X111724694Y-94755615D01*
X111728650Y-94717890D01*
X138258524Y-94717890D01*
X138303175Y-94865099D01*
X138428359Y-95127920D01*
X138602412Y-95361269D01*
X138818645Y-95556178D01*
X139068748Y-95705157D01*
X139343109Y-95802481D01*
X139573000Y-95681814D01*
X139573000Y-94488000D01*
X139827000Y-94488000D01*
X139827000Y-95681814D01*
X140056891Y-95802481D01*
X140331252Y-95705157D01*
X140581355Y-95556178D01*
X140797588Y-95361269D01*
X140971641Y-95127920D01*
X141096825Y-94865099D01*
X141141476Y-94717890D01*
X142957524Y-94717890D01*
X143002175Y-94865099D01*
X143127359Y-95127920D01*
X143301412Y-95361269D01*
X143517645Y-95556178D01*
X143767748Y-95705157D01*
X144042109Y-95802481D01*
X144272000Y-95681814D01*
X144272000Y-94488000D01*
X144526000Y-94488000D01*
X144526000Y-95681814D01*
X144755891Y-95802481D01*
X145030252Y-95705157D01*
X145280355Y-95556178D01*
X145496588Y-95361269D01*
X145670641Y-95127920D01*
X145795825Y-94865099D01*
X145840476Y-94717890D01*
X145719155Y-94488000D01*
X144526000Y-94488000D01*
X144272000Y-94488000D01*
X143078845Y-94488000D01*
X142957524Y-94717890D01*
X141141476Y-94717890D01*
X141020155Y-94488000D01*
X139827000Y-94488000D01*
X139573000Y-94488000D01*
X138379845Y-94488000D01*
X138258524Y-94717890D01*
X111728650Y-94717890D01*
X111803480Y-94004305D01*
X111734178Y-93252062D01*
X111519452Y-92527792D01*
X111167555Y-91859330D01*
X111140548Y-91818912D01*
X110650881Y-91458724D01*
X108129605Y-93980000D01*
X107770395Y-93980000D01*
X105249119Y-91458724D01*
X104800000Y-91789086D01*
X104800000Y-91279119D01*
X105428724Y-91279119D01*
X107950000Y-93800395D01*
X110471276Y-91279119D01*
X110244631Y-90971000D01*
X138211928Y-90971000D01*
X138211928Y-92671000D01*
X138224188Y-92795482D01*
X138260498Y-92915180D01*
X138319463Y-93025494D01*
X138398815Y-93122185D01*
X138495506Y-93201537D01*
X138605820Y-93260502D01*
X138686466Y-93284966D01*
X138602412Y-93360731D01*
X138428359Y-93594080D01*
X138303175Y-93856901D01*
X138258524Y-94004110D01*
X138379845Y-94234000D01*
X139573000Y-94234000D01*
X139573000Y-94214000D01*
X139827000Y-94214000D01*
X139827000Y-94234000D01*
X141020155Y-94234000D01*
X141141476Y-94004110D01*
X141096825Y-93856901D01*
X140971641Y-93594080D01*
X140797588Y-93360731D01*
X140713534Y-93284966D01*
X140794180Y-93260502D01*
X140904494Y-93201537D01*
X141001185Y-93122185D01*
X141080537Y-93025494D01*
X141139502Y-92915180D01*
X141175812Y-92795482D01*
X141188072Y-92671000D01*
X141188072Y-90971000D01*
X142910928Y-90971000D01*
X142910928Y-92671000D01*
X142923188Y-92795482D01*
X142959498Y-92915180D01*
X143018463Y-93025494D01*
X143097815Y-93122185D01*
X143194506Y-93201537D01*
X143304820Y-93260502D01*
X143385466Y-93284966D01*
X143301412Y-93360731D01*
X143127359Y-93594080D01*
X143002175Y-93856901D01*
X142957524Y-94004110D01*
X143078845Y-94234000D01*
X144272000Y-94234000D01*
X144272000Y-94214000D01*
X144526000Y-94214000D01*
X144526000Y-94234000D01*
X145719155Y-94234000D01*
X145840476Y-94004110D01*
X145825791Y-93955695D01*
X147276520Y-93955695D01*
X147345822Y-94707938D01*
X147560548Y-95432208D01*
X147912445Y-96100670D01*
X147939452Y-96141088D01*
X148429119Y-96501276D01*
X150950395Y-93980000D01*
X148429119Y-91458724D01*
X147939452Y-91818912D01*
X147579151Y-92482882D01*
X147355306Y-93204385D01*
X147276520Y-93955695D01*
X145825791Y-93955695D01*
X145795825Y-93856901D01*
X145670641Y-93594080D01*
X145496588Y-93360731D01*
X145412534Y-93284966D01*
X145493180Y-93260502D01*
X145603494Y-93201537D01*
X145700185Y-93122185D01*
X145779537Y-93025494D01*
X145838502Y-92915180D01*
X145874812Y-92795482D01*
X145887072Y-92671000D01*
X145887072Y-91279119D01*
X148608724Y-91279119D01*
X151130000Y-93800395D01*
X153651276Y-91279119D01*
X153291088Y-90789452D01*
X152627118Y-90429151D01*
X151905615Y-90205306D01*
X151154305Y-90126520D01*
X150402062Y-90195822D01*
X149677792Y-90410548D01*
X149009330Y-90762445D01*
X148968912Y-90789452D01*
X148608724Y-91279119D01*
X145887072Y-91279119D01*
X145887072Y-90971000D01*
X145874812Y-90846518D01*
X145838502Y-90726820D01*
X145779537Y-90616506D01*
X145700185Y-90519815D01*
X145603494Y-90440463D01*
X145493180Y-90381498D01*
X145373482Y-90345188D01*
X145249000Y-90332928D01*
X143549000Y-90332928D01*
X143424518Y-90345188D01*
X143304820Y-90381498D01*
X143194506Y-90440463D01*
X143097815Y-90519815D01*
X143018463Y-90616506D01*
X142959498Y-90726820D01*
X142923188Y-90846518D01*
X142910928Y-90971000D01*
X141188072Y-90971000D01*
X141175812Y-90846518D01*
X141139502Y-90726820D01*
X141080537Y-90616506D01*
X141001185Y-90519815D01*
X140904494Y-90440463D01*
X140794180Y-90381498D01*
X140674482Y-90345188D01*
X140550000Y-90332928D01*
X138850000Y-90332928D01*
X138725518Y-90345188D01*
X138605820Y-90381498D01*
X138495506Y-90440463D01*
X138398815Y-90519815D01*
X138319463Y-90616506D01*
X138260498Y-90726820D01*
X138224188Y-90846518D01*
X138211928Y-90971000D01*
X110244631Y-90971000D01*
X110111088Y-90789452D01*
X109447118Y-90429151D01*
X108725615Y-90205306D01*
X107974305Y-90126520D01*
X107222062Y-90195822D01*
X106497792Y-90410548D01*
X105829330Y-90762445D01*
X105788912Y-90789452D01*
X105428724Y-91279119D01*
X104800000Y-91279119D01*
X104800000Y-86600000D01*
X116742928Y-86600000D01*
X116755188Y-86724482D01*
X116791498Y-86844180D01*
X116850463Y-86954494D01*
X116929815Y-87051185D01*
X117026506Y-87130537D01*
X117136820Y-87189502D01*
X117256518Y-87225812D01*
X117381000Y-87238072D01*
X117857250Y-87235000D01*
X118016000Y-87076250D01*
X118016000Y-85965000D01*
X118270000Y-85965000D01*
X118270000Y-87076250D01*
X118428750Y-87235000D01*
X118905000Y-87238072D01*
X119029482Y-87225812D01*
X119149180Y-87189502D01*
X119259494Y-87130537D01*
X119356185Y-87051185D01*
X119435537Y-86954494D01*
X119494502Y-86844180D01*
X119530812Y-86724482D01*
X119543072Y-86600000D01*
X119540000Y-86123750D01*
X119381250Y-85965000D01*
X118270000Y-85965000D01*
X118016000Y-85965000D01*
X116904750Y-85965000D01*
X116746000Y-86123750D01*
X116742928Y-86600000D01*
X104800000Y-86600000D01*
X104800000Y-85076000D01*
X116742928Y-85076000D01*
X116746000Y-85552250D01*
X116904750Y-85711000D01*
X118016000Y-85711000D01*
X118016000Y-84599750D01*
X118270000Y-84599750D01*
X118270000Y-85711000D01*
X119381250Y-85711000D01*
X119540000Y-85552250D01*
X119540614Y-85457000D01*
X136742928Y-85457000D01*
X136742928Y-86219000D01*
X136762509Y-86417811D01*
X136820500Y-86608982D01*
X136914673Y-86785166D01*
X137041407Y-86939593D01*
X137195834Y-87066327D01*
X137372018Y-87160500D01*
X137563189Y-87218491D01*
X137762000Y-87238072D01*
X138524000Y-87238072D01*
X138722811Y-87218491D01*
X138913982Y-87160500D01*
X139090166Y-87066327D01*
X139244593Y-86939593D01*
X139371327Y-86785166D01*
X139465500Y-86608982D01*
X139523491Y-86417811D01*
X139543072Y-86219000D01*
X139543072Y-85457000D01*
X139523491Y-85258189D01*
X139465500Y-85067018D01*
X139371327Y-84890834D01*
X139244593Y-84736407D01*
X139090166Y-84609673D01*
X138913982Y-84515500D01*
X138722811Y-84457509D01*
X138524000Y-84437928D01*
X137762000Y-84437928D01*
X137563189Y-84457509D01*
X137372018Y-84515500D01*
X137195834Y-84609673D01*
X137041407Y-84736407D01*
X136914673Y-84890834D01*
X136820500Y-85067018D01*
X136762509Y-85258189D01*
X136742928Y-85457000D01*
X119540614Y-85457000D01*
X119543072Y-85076000D01*
X119530812Y-84951518D01*
X119494502Y-84831820D01*
X119435537Y-84721506D01*
X119356185Y-84624815D01*
X119259494Y-84545463D01*
X119149180Y-84486498D01*
X119029482Y-84450188D01*
X118905000Y-84437928D01*
X118428750Y-84441000D01*
X118270000Y-84599750D01*
X118016000Y-84599750D01*
X117857250Y-84441000D01*
X117381000Y-84437928D01*
X117256518Y-84450188D01*
X117136820Y-84486498D01*
X117026506Y-84545463D01*
X116929815Y-84624815D01*
X116850463Y-84721506D01*
X116791498Y-84831820D01*
X116755188Y-84951518D01*
X116742928Y-85076000D01*
X104800000Y-85076000D01*
X104800000Y-75427408D01*
X109474000Y-75427408D01*
X109474000Y-75702592D01*
X109527686Y-75972490D01*
X109632995Y-76226727D01*
X109785880Y-76455535D01*
X109980465Y-76650120D01*
X110209273Y-76803005D01*
X110286515Y-76835000D01*
X110209273Y-76866995D01*
X109980465Y-77019880D01*
X109785880Y-77214465D01*
X109632995Y-77443273D01*
X109527686Y-77697510D01*
X109474000Y-77967408D01*
X109474000Y-78242592D01*
X109527686Y-78512490D01*
X109632995Y-78766727D01*
X109785880Y-78995535D01*
X109980465Y-79190120D01*
X110209273Y-79343005D01*
X110463510Y-79448314D01*
X110733408Y-79502000D01*
X111008592Y-79502000D01*
X111278490Y-79448314D01*
X111532727Y-79343005D01*
X111761535Y-79190120D01*
X111956120Y-78995535D01*
X112014920Y-78907535D01*
X112023188Y-78991482D01*
X112059498Y-79111180D01*
X112118463Y-79221494D01*
X112197815Y-79318185D01*
X112294506Y-79397537D01*
X112404820Y-79456502D01*
X112524518Y-79492812D01*
X112649000Y-79505072D01*
X114173000Y-79505072D01*
X114297482Y-79492812D01*
X114417180Y-79456502D01*
X114527494Y-79397537D01*
X114624185Y-79318185D01*
X114703537Y-79221494D01*
X114762502Y-79111180D01*
X114798812Y-78991482D01*
X114811072Y-78867000D01*
X114811072Y-77343000D01*
X114798812Y-77218518D01*
X114762502Y-77098820D01*
X114703537Y-76988506D01*
X114624185Y-76891815D01*
X114527494Y-76812463D01*
X114417180Y-76753498D01*
X114297482Y-76717188D01*
X114213535Y-76708920D01*
X114301535Y-76650120D01*
X114496120Y-76455535D01*
X114649005Y-76226727D01*
X114754314Y-75972490D01*
X114808000Y-75702592D01*
X114808000Y-75427408D01*
X114754314Y-75157510D01*
X114649005Y-74903273D01*
X114496120Y-74674465D01*
X114301535Y-74479880D01*
X114252419Y-74447061D01*
X114916000Y-74447061D01*
X114916000Y-74650939D01*
X114955774Y-74850898D01*
X115033795Y-75039256D01*
X115147063Y-75208774D01*
X115291226Y-75352937D01*
X115460744Y-75466205D01*
X115649102Y-75544226D01*
X115849061Y-75584000D01*
X116052939Y-75584000D01*
X116252898Y-75544226D01*
X116441256Y-75466205D01*
X116610774Y-75352937D01*
X116754937Y-75208774D01*
X116868205Y-75039256D01*
X116946226Y-74850898D01*
X116986000Y-74650939D01*
X116986000Y-74447061D01*
X116946226Y-74247102D01*
X116868205Y-74058744D01*
X116754937Y-73889226D01*
X116711000Y-73845289D01*
X116711000Y-70791071D01*
X138792000Y-70791071D01*
X138792000Y-70994949D01*
X138831774Y-71194908D01*
X138909795Y-71383266D01*
X139023063Y-71552784D01*
X139167226Y-71696947D01*
X139336744Y-71810215D01*
X139525102Y-71888236D01*
X139725061Y-71928010D01*
X139928939Y-71928010D01*
X140128898Y-71888236D01*
X140317256Y-71810215D01*
X140486774Y-71696947D01*
X140630937Y-71552784D01*
X140744205Y-71383266D01*
X140822226Y-71194908D01*
X140862000Y-70994949D01*
X140862000Y-70791071D01*
X140822226Y-70591112D01*
X140744205Y-70402754D01*
X140630937Y-70233236D01*
X140486774Y-70089073D01*
X140317256Y-69975805D01*
X140128898Y-69897784D01*
X139928939Y-69858010D01*
X139725061Y-69858010D01*
X139525102Y-69897784D01*
X139336744Y-69975805D01*
X139167226Y-70089073D01*
X139023063Y-70233236D01*
X138909795Y-70402754D01*
X138831774Y-70591112D01*
X138792000Y-70791071D01*
X116711000Y-70791071D01*
X116711000Y-68329799D01*
X116816738Y-68224061D01*
X135236000Y-68224061D01*
X135236000Y-68427939D01*
X135275774Y-68627898D01*
X135353795Y-68816256D01*
X135467063Y-68985774D01*
X135611226Y-69129937D01*
X135780744Y-69243205D01*
X135969102Y-69321226D01*
X136169061Y-69361000D01*
X136372939Y-69361000D01*
X136572898Y-69321226D01*
X136761256Y-69243205D01*
X136930774Y-69129937D01*
X137074937Y-68985774D01*
X137188205Y-68816256D01*
X137266226Y-68627898D01*
X137306000Y-68427939D01*
X137306000Y-68224061D01*
X137266226Y-68024102D01*
X137188205Y-67835744D01*
X137074937Y-67666226D01*
X136930774Y-67522063D01*
X136761256Y-67408795D01*
X136572898Y-67330774D01*
X136372939Y-67291000D01*
X136169061Y-67291000D01*
X135969102Y-67330774D01*
X135780744Y-67408795D01*
X135611226Y-67522063D01*
X135467063Y-67666226D01*
X135353795Y-67835744D01*
X135275774Y-68024102D01*
X135236000Y-68224061D01*
X116816738Y-68224061D01*
X118268044Y-66772755D01*
X118339226Y-66843937D01*
X118508744Y-66957205D01*
X118697102Y-67035226D01*
X118897061Y-67075000D01*
X119100939Y-67075000D01*
X119300898Y-67035226D01*
X119489256Y-66957205D01*
X119658774Y-66843937D01*
X119702711Y-66800000D01*
X124772289Y-66800000D01*
X124816226Y-66843937D01*
X124985744Y-66957205D01*
X125174102Y-67035226D01*
X125374061Y-67075000D01*
X125577939Y-67075000D01*
X125777898Y-67035226D01*
X125951575Y-66963286D01*
X125959226Y-66970937D01*
X126128744Y-67084205D01*
X126317102Y-67162226D01*
X126517061Y-67202000D01*
X126720939Y-67202000D01*
X126920898Y-67162226D01*
X127109256Y-67084205D01*
X127278774Y-66970937D01*
X127422937Y-66826774D01*
X127536205Y-66657256D01*
X127614226Y-66468898D01*
X127654000Y-66268939D01*
X127654000Y-66065061D01*
X127614226Y-65865102D01*
X127536205Y-65676744D01*
X127422937Y-65507226D01*
X127278774Y-65363063D01*
X127109256Y-65249795D01*
X126920898Y-65171774D01*
X126720939Y-65132000D01*
X126517061Y-65132000D01*
X126317102Y-65171774D01*
X126143425Y-65243714D01*
X126135774Y-65236063D01*
X125966256Y-65122795D01*
X125777898Y-65044774D01*
X125577939Y-65005000D01*
X125374061Y-65005000D01*
X125174102Y-65044774D01*
X124985744Y-65122795D01*
X124816226Y-65236063D01*
X124772289Y-65280000D01*
X122739154Y-65280000D01*
X122837205Y-65133256D01*
X122915226Y-64944898D01*
X122955000Y-64744939D01*
X122955000Y-64541061D01*
X122922160Y-64375961D01*
X130867200Y-64375961D01*
X130867200Y-64579839D01*
X130906974Y-64779798D01*
X130984995Y-64968156D01*
X131098263Y-65137674D01*
X131242426Y-65281837D01*
X131411944Y-65395105D01*
X131600302Y-65473126D01*
X131800261Y-65512900D01*
X132004139Y-65512900D01*
X132204098Y-65473126D01*
X132392456Y-65395105D01*
X132561974Y-65281837D01*
X132605911Y-65237900D01*
X132835961Y-65237900D01*
X132823000Y-65303061D01*
X132823000Y-65506939D01*
X132862774Y-65706898D01*
X132940795Y-65895256D01*
X133054063Y-66064774D01*
X133198226Y-66208937D01*
X133367744Y-66322205D01*
X133556102Y-66400226D01*
X133756061Y-66440000D01*
X133959939Y-66440000D01*
X134159898Y-66400226D01*
X134348256Y-66322205D01*
X134517774Y-66208937D01*
X134661937Y-66064774D01*
X134775205Y-65895256D01*
X134853226Y-65706898D01*
X134893000Y-65506939D01*
X134893000Y-65467601D01*
X137154994Y-65467601D01*
X137086686Y-65632510D01*
X137033000Y-65902408D01*
X137033000Y-66177592D01*
X137086686Y-66447490D01*
X137191995Y-66701727D01*
X137344880Y-66930535D01*
X137539465Y-67125120D01*
X137768273Y-67278005D01*
X138022510Y-67383314D01*
X138292408Y-67437000D01*
X138567592Y-67437000D01*
X138837490Y-67383314D01*
X139091727Y-67278005D01*
X139320535Y-67125120D01*
X139440090Y-67005565D01*
X140184040Y-67005565D01*
X140251020Y-67245656D01*
X140500048Y-67362756D01*
X140767135Y-67429023D01*
X141042017Y-67441910D01*
X141314133Y-67400922D01*
X141573023Y-67307636D01*
X141688980Y-67245656D01*
X141755960Y-67005565D01*
X140970000Y-66219605D01*
X140184040Y-67005565D01*
X139440090Y-67005565D01*
X139515120Y-66930535D01*
X139668005Y-66701727D01*
X139697692Y-66630057D01*
X139702364Y-66643023D01*
X139764344Y-66758980D01*
X140004435Y-66825960D01*
X140790395Y-66040000D01*
X140776253Y-66025858D01*
X140955858Y-65846253D01*
X140970000Y-65860395D01*
X140984143Y-65846253D01*
X141163748Y-66025858D01*
X141149605Y-66040000D01*
X141935565Y-66825960D01*
X142175656Y-66758980D01*
X142239485Y-66623240D01*
X142271995Y-66701727D01*
X142424880Y-66930535D01*
X142619465Y-67125120D01*
X142848273Y-67278005D01*
X143102510Y-67383314D01*
X143372408Y-67437000D01*
X143647592Y-67437000D01*
X143917490Y-67383314D01*
X144171727Y-67278005D01*
X144400535Y-67125120D01*
X144595120Y-66930535D01*
X144748005Y-66701727D01*
X144780000Y-66624485D01*
X144811995Y-66701727D01*
X144964880Y-66930535D01*
X145159465Y-67125120D01*
X145388273Y-67278005D01*
X145642510Y-67383314D01*
X145912408Y-67437000D01*
X146187592Y-67437000D01*
X146457490Y-67383314D01*
X146711727Y-67278005D01*
X146940535Y-67125120D01*
X147135120Y-66930535D01*
X147288005Y-66701727D01*
X147393314Y-66447490D01*
X147447000Y-66177592D01*
X147447000Y-65902408D01*
X147393314Y-65632510D01*
X147325006Y-65467601D01*
X147592579Y-65467601D01*
X147629901Y-65471277D01*
X147667223Y-65467601D01*
X147667234Y-65467601D01*
X147778887Y-65456604D01*
X147922148Y-65413147D01*
X147941131Y-65403000D01*
X149555978Y-65403000D01*
X149593300Y-65406676D01*
X149630622Y-65403000D01*
X149630633Y-65403000D01*
X149742286Y-65392003D01*
X149885547Y-65348546D01*
X150017576Y-65277974D01*
X150133301Y-65183001D01*
X150157104Y-65153997D01*
X150523398Y-64787703D01*
X150552402Y-64763900D01*
X150647375Y-64648175D01*
X150717947Y-64516146D01*
X150761404Y-64372885D01*
X150772401Y-64261232D01*
X150772401Y-64261223D01*
X150776077Y-64223900D01*
X150772401Y-64186577D01*
X150772401Y-51956723D01*
X150776077Y-51919400D01*
X150772401Y-51882077D01*
X150772401Y-51882068D01*
X150761404Y-51770415D01*
X150717947Y-51627154D01*
X150647375Y-51495125D01*
X150634212Y-51479086D01*
X150576200Y-51408397D01*
X150576196Y-51408393D01*
X150552402Y-51379400D01*
X150523410Y-51355607D01*
X150228177Y-51060375D01*
X150234168Y-51045912D01*
X150297000Y-50730033D01*
X150297000Y-50407967D01*
X150234168Y-50092088D01*
X150110918Y-49794537D01*
X149931987Y-49526748D01*
X149704252Y-49299013D01*
X149436463Y-49120082D01*
X149138912Y-48996832D01*
X148823033Y-48934000D01*
X148500967Y-48934000D01*
X148185088Y-48996832D01*
X147887537Y-49120082D01*
X147619748Y-49299013D01*
X147392013Y-49526748D01*
X147213082Y-49794537D01*
X147089832Y-50092088D01*
X147027000Y-50407967D01*
X147027000Y-50730033D01*
X147089832Y-51045912D01*
X147213082Y-51343463D01*
X147392013Y-51611252D01*
X147619748Y-51838987D01*
X147887537Y-52017918D01*
X148185088Y-52141168D01*
X148500967Y-52204000D01*
X148823033Y-52204000D01*
X149138912Y-52141168D01*
X149153375Y-52135177D01*
X149252401Y-52234204D01*
X149252401Y-54268120D01*
X149164312Y-54231632D01*
X148848433Y-54168800D01*
X148526367Y-54168800D01*
X148210488Y-54231632D01*
X147912937Y-54354882D01*
X147645148Y-54533813D01*
X147417413Y-54761548D01*
X147238482Y-55029337D01*
X147115232Y-55326888D01*
X147052400Y-55642767D01*
X147052400Y-55964833D01*
X147115232Y-56280712D01*
X147238482Y-56578263D01*
X147417413Y-56846052D01*
X147645148Y-57073787D01*
X147912937Y-57252718D01*
X148210488Y-57375968D01*
X148526367Y-57438800D01*
X148848433Y-57438800D01*
X149164312Y-57375968D01*
X149252401Y-57339480D01*
X149252402Y-60768120D01*
X149164312Y-60731632D01*
X148848433Y-60668800D01*
X148526367Y-60668800D01*
X148210488Y-60731632D01*
X147912937Y-60854882D01*
X147645148Y-61033813D01*
X147417413Y-61261548D01*
X147238482Y-61529337D01*
X147115232Y-61826888D01*
X147052400Y-62142767D01*
X147052400Y-62464833D01*
X147105404Y-62731302D01*
X146893203Y-62519102D01*
X146869401Y-62490099D01*
X146753676Y-62395126D01*
X146621647Y-62324554D01*
X146478386Y-62281097D01*
X146366733Y-62270100D01*
X146366722Y-62270100D01*
X146329400Y-62266424D01*
X146292078Y-62270100D01*
X133952111Y-62270100D01*
X133908174Y-62226163D01*
X133738656Y-62112895D01*
X133550298Y-62034874D01*
X133350339Y-61995100D01*
X133146461Y-61995100D01*
X132946502Y-62034874D01*
X132758144Y-62112895D01*
X132588626Y-62226163D01*
X132444463Y-62370326D01*
X132331195Y-62539844D01*
X132253174Y-62728202D01*
X132213400Y-62928161D01*
X132213400Y-63132039D01*
X132253174Y-63331998D01*
X132331195Y-63520356D01*
X132345020Y-63541046D01*
X132204098Y-63482674D01*
X132004139Y-63442900D01*
X131800261Y-63442900D01*
X131600302Y-63482674D01*
X131411944Y-63560695D01*
X131242426Y-63673963D01*
X131098263Y-63818126D01*
X130984995Y-63987644D01*
X130906974Y-64176002D01*
X130867200Y-64375961D01*
X122922160Y-64375961D01*
X122915226Y-64341102D01*
X122837205Y-64152744D01*
X122723937Y-63983226D01*
X122579774Y-63839063D01*
X122410256Y-63725795D01*
X122221898Y-63647774D01*
X122021939Y-63608000D01*
X121818061Y-63608000D01*
X121618102Y-63647774D01*
X121429744Y-63725795D01*
X121260226Y-63839063D01*
X121216289Y-63883000D01*
X119360320Y-63883000D01*
X119322997Y-63879324D01*
X119285674Y-63883000D01*
X119285665Y-63883000D01*
X119174012Y-63893997D01*
X119030751Y-63937454D01*
X118898722Y-64008026D01*
X118782997Y-64102999D01*
X118759199Y-64131997D01*
X115440003Y-67451194D01*
X115410999Y-67474997D01*
X115355871Y-67542172D01*
X115316026Y-67590722D01*
X115245455Y-67722751D01*
X115245454Y-67722752D01*
X115201997Y-67866013D01*
X115191000Y-67977666D01*
X115191000Y-67977676D01*
X115187324Y-68014998D01*
X115191000Y-68052321D01*
X115191001Y-73845288D01*
X115147063Y-73889226D01*
X115033795Y-74058744D01*
X114955774Y-74247102D01*
X114916000Y-74447061D01*
X114252419Y-74447061D01*
X114072727Y-74326995D01*
X113995485Y-74295000D01*
X114072727Y-74263005D01*
X114301535Y-74110120D01*
X114496120Y-73915535D01*
X114649005Y-73686727D01*
X114754314Y-73432490D01*
X114808000Y-73162592D01*
X114808000Y-72887408D01*
X114754314Y-72617510D01*
X114649005Y-72363273D01*
X114496120Y-72134465D01*
X114301535Y-71939880D01*
X114072727Y-71786995D01*
X113818490Y-71681686D01*
X113548592Y-71628000D01*
X113273408Y-71628000D01*
X113003510Y-71681686D01*
X112749273Y-71786995D01*
X112520465Y-71939880D01*
X112325880Y-72134465D01*
X112172995Y-72363273D01*
X112143308Y-72434943D01*
X112138636Y-72421977D01*
X112076656Y-72306020D01*
X111836565Y-72239040D01*
X111050605Y-73025000D01*
X111836565Y-73810960D01*
X112076656Y-73743980D01*
X112140485Y-73608240D01*
X112172995Y-73686727D01*
X112325880Y-73915535D01*
X112520465Y-74110120D01*
X112749273Y-74263005D01*
X112826515Y-74295000D01*
X112749273Y-74326995D01*
X112520465Y-74479880D01*
X112325880Y-74674465D01*
X112172995Y-74903273D01*
X112141000Y-74980515D01*
X112109005Y-74903273D01*
X111956120Y-74674465D01*
X111761535Y-74479880D01*
X111532727Y-74326995D01*
X111461057Y-74297308D01*
X111474023Y-74292636D01*
X111589980Y-74230656D01*
X111656960Y-73990565D01*
X110871000Y-73204605D01*
X110085040Y-73990565D01*
X110152020Y-74230656D01*
X110287760Y-74294485D01*
X110209273Y-74326995D01*
X109980465Y-74479880D01*
X109785880Y-74674465D01*
X109632995Y-74903273D01*
X109527686Y-75157510D01*
X109474000Y-75427408D01*
X104800000Y-75427408D01*
X104800000Y-73097017D01*
X109469090Y-73097017D01*
X109510078Y-73369133D01*
X109603364Y-73628023D01*
X109665344Y-73743980D01*
X109905435Y-73810960D01*
X110691395Y-73025000D01*
X109905435Y-72239040D01*
X109665344Y-72306020D01*
X109548244Y-72555048D01*
X109481977Y-72822135D01*
X109469090Y-73097017D01*
X104800000Y-73097017D01*
X104800000Y-72059435D01*
X110085040Y-72059435D01*
X110871000Y-72845395D01*
X111656960Y-72059435D01*
X111589980Y-71819344D01*
X111340952Y-71702244D01*
X111073865Y-71635977D01*
X110798983Y-71623090D01*
X110526867Y-71664078D01*
X110267977Y-71757364D01*
X110152020Y-71819344D01*
X110085040Y-72059435D01*
X104800000Y-72059435D01*
X104800000Y-67970061D01*
X112757000Y-67970061D01*
X112757000Y-68173939D01*
X112796774Y-68373898D01*
X112874795Y-68562256D01*
X112988063Y-68731774D01*
X113132226Y-68875937D01*
X113301744Y-68989205D01*
X113490102Y-69067226D01*
X113690061Y-69107000D01*
X113893939Y-69107000D01*
X114093898Y-69067226D01*
X114282256Y-68989205D01*
X114451774Y-68875937D01*
X114595937Y-68731774D01*
X114709205Y-68562256D01*
X114787226Y-68373898D01*
X114827000Y-68173939D01*
X114827000Y-67970061D01*
X114787226Y-67770102D01*
X114709205Y-67581744D01*
X114595937Y-67412226D01*
X114451774Y-67268063D01*
X114282256Y-67154795D01*
X114093898Y-67076774D01*
X113893939Y-67037000D01*
X113690061Y-67037000D01*
X113490102Y-67076774D01*
X113301744Y-67154795D01*
X113132226Y-67268063D01*
X112988063Y-67412226D01*
X112874795Y-67581744D01*
X112796774Y-67770102D01*
X112757000Y-67970061D01*
X104800000Y-67970061D01*
X104800000Y-63486400D01*
X105392090Y-63486400D01*
X105395143Y-63510029D01*
X105488319Y-63750007D01*
X105626522Y-63967196D01*
X105804441Y-64153250D01*
X106015239Y-64301019D01*
X106250815Y-64404824D01*
X106502116Y-64460675D01*
X106708000Y-64310573D01*
X106708000Y-63284000D01*
X106962000Y-63284000D01*
X106962000Y-64310573D01*
X107167884Y-64460675D01*
X107419185Y-64404824D01*
X107654761Y-64301019D01*
X107865559Y-64153250D01*
X108043478Y-63967196D01*
X108181681Y-63750007D01*
X108274857Y-63510029D01*
X108277910Y-63486400D01*
X108154224Y-63284000D01*
X106962000Y-63284000D01*
X106708000Y-63284000D01*
X105515776Y-63284000D01*
X105392090Y-63486400D01*
X104800000Y-63486400D01*
X104800000Y-63156744D01*
X108491197Y-63156744D01*
X108495989Y-63195526D01*
X108585869Y-63411039D01*
X108716066Y-63604877D01*
X108881578Y-63769590D01*
X109076043Y-63898848D01*
X109291989Y-63987684D01*
X109521116Y-64032684D01*
X109708000Y-63877152D01*
X109708000Y-62974000D01*
X109962000Y-62974000D01*
X109962000Y-63877152D01*
X110148884Y-64032684D01*
X110378011Y-63987684D01*
X110593957Y-63898848D01*
X110788422Y-63769590D01*
X110953934Y-63604877D01*
X111084131Y-63411039D01*
X111174011Y-63195526D01*
X111178803Y-63156744D01*
X111082920Y-63017061D01*
X124187000Y-63017061D01*
X124187000Y-63220939D01*
X124226774Y-63420898D01*
X124304795Y-63609256D01*
X124418063Y-63778774D01*
X124562226Y-63922937D01*
X124731744Y-64036205D01*
X124920102Y-64114226D01*
X125120061Y-64154000D01*
X125323939Y-64154000D01*
X125523898Y-64114226D01*
X125712256Y-64036205D01*
X125881774Y-63922937D01*
X126025937Y-63778774D01*
X126139205Y-63609256D01*
X126217226Y-63420898D01*
X126257000Y-63220939D01*
X126257000Y-63017061D01*
X126217226Y-62817102D01*
X126139205Y-62628744D01*
X126025937Y-62459226D01*
X125881774Y-62315063D01*
X125712256Y-62201795D01*
X125523898Y-62123774D01*
X125323939Y-62084000D01*
X125120061Y-62084000D01*
X124920102Y-62123774D01*
X124731744Y-62201795D01*
X124562226Y-62315063D01*
X124418063Y-62459226D01*
X124304795Y-62628744D01*
X124226774Y-62817102D01*
X124187000Y-63017061D01*
X111082920Y-63017061D01*
X111053361Y-62974000D01*
X109962000Y-62974000D01*
X109708000Y-62974000D01*
X108616639Y-62974000D01*
X108491197Y-63156744D01*
X104800000Y-63156744D01*
X104800000Y-62827600D01*
X105392090Y-62827600D01*
X105515776Y-63030000D01*
X106708000Y-63030000D01*
X106708000Y-62003427D01*
X106962000Y-62003427D01*
X106962000Y-63030000D01*
X108154224Y-63030000D01*
X108277910Y-62827600D01*
X108274857Y-62803971D01*
X108181681Y-62563993D01*
X108164668Y-62537256D01*
X108491197Y-62537256D01*
X108616639Y-62720000D01*
X109708000Y-62720000D01*
X109708000Y-61816848D01*
X109962000Y-61816848D01*
X109962000Y-62720000D01*
X111053361Y-62720000D01*
X111178803Y-62537256D01*
X111174011Y-62498474D01*
X111084131Y-62282961D01*
X110953934Y-62089123D01*
X110788422Y-61924410D01*
X110593957Y-61795152D01*
X110378011Y-61706316D01*
X110148884Y-61661316D01*
X109962000Y-61816848D01*
X109708000Y-61816848D01*
X109521116Y-61661316D01*
X109291989Y-61706316D01*
X109076043Y-61795152D01*
X108881578Y-61924410D01*
X108716066Y-62089123D01*
X108585869Y-62282961D01*
X108495989Y-62498474D01*
X108491197Y-62537256D01*
X108164668Y-62537256D01*
X108043478Y-62346804D01*
X107865559Y-62160750D01*
X107654761Y-62012981D01*
X107419185Y-61909176D01*
X107167884Y-61853325D01*
X106962000Y-62003427D01*
X106708000Y-62003427D01*
X106502116Y-61853325D01*
X106250815Y-61909176D01*
X106015239Y-62012981D01*
X105804441Y-62160750D01*
X105626522Y-62346804D01*
X105488319Y-62563993D01*
X105395143Y-62803971D01*
X105392090Y-62827600D01*
X104800000Y-62827600D01*
X104800000Y-58026400D01*
X105392090Y-58026400D01*
X105395143Y-58050029D01*
X105488319Y-58290007D01*
X105626522Y-58507196D01*
X105804441Y-58693250D01*
X106015239Y-58841019D01*
X106250815Y-58944824D01*
X106502116Y-59000675D01*
X106708000Y-58850573D01*
X106708000Y-57824000D01*
X106962000Y-57824000D01*
X106962000Y-58850573D01*
X107167884Y-59000675D01*
X107419185Y-58944824D01*
X107654761Y-58841019D01*
X107865559Y-58693250D01*
X108043478Y-58507196D01*
X108164667Y-58316744D01*
X108491197Y-58316744D01*
X108495989Y-58355526D01*
X108585869Y-58571039D01*
X108716066Y-58764877D01*
X108881578Y-58929590D01*
X109076043Y-59058848D01*
X109291989Y-59147684D01*
X109521116Y-59192684D01*
X109708000Y-59037152D01*
X109708000Y-58134000D01*
X109962000Y-58134000D01*
X109962000Y-59037152D01*
X110148884Y-59192684D01*
X110378011Y-59147684D01*
X110593957Y-59058848D01*
X110753110Y-58953061D01*
X124187000Y-58953061D01*
X124187000Y-59156939D01*
X124226774Y-59356898D01*
X124304795Y-59545256D01*
X124418063Y-59714774D01*
X124562226Y-59858937D01*
X124731744Y-59972205D01*
X124920102Y-60050226D01*
X125120061Y-60090000D01*
X125323939Y-60090000D01*
X125523898Y-60050226D01*
X125712256Y-59972205D01*
X125881774Y-59858937D01*
X126025650Y-59715061D01*
X132200700Y-59715061D01*
X132200700Y-59918939D01*
X132240474Y-60118898D01*
X132318495Y-60307256D01*
X132431763Y-60476774D01*
X132575926Y-60620937D01*
X132745444Y-60734205D01*
X132933802Y-60812226D01*
X133133761Y-60852000D01*
X133337639Y-60852000D01*
X133537598Y-60812226D01*
X133725956Y-60734205D01*
X133895474Y-60620937D01*
X134039637Y-60476774D01*
X134152905Y-60307256D01*
X134230926Y-60118898D01*
X134270700Y-59918939D01*
X134270700Y-59856801D01*
X147286004Y-46841498D01*
X147315001Y-46817701D01*
X147409974Y-46701976D01*
X147480546Y-46569947D01*
X147524003Y-46426686D01*
X147535000Y-46315033D01*
X147535000Y-46315025D01*
X147538676Y-46277700D01*
X147535000Y-46240375D01*
X147535000Y-45254239D01*
X147619748Y-45338987D01*
X147887537Y-45517918D01*
X148185088Y-45641168D01*
X148500967Y-45704000D01*
X148823033Y-45704000D01*
X149138912Y-45641168D01*
X149436463Y-45517918D01*
X149704252Y-45338987D01*
X149931987Y-45111252D01*
X150110918Y-44843463D01*
X150234168Y-44545912D01*
X150297000Y-44230033D01*
X150297000Y-43907967D01*
X150234168Y-43592088D01*
X150110918Y-43294537D01*
X149931987Y-43026748D01*
X149704252Y-42799013D01*
X149436463Y-42620082D01*
X149138912Y-42496832D01*
X148823033Y-42434000D01*
X148500967Y-42434000D01*
X148185088Y-42496832D01*
X147887537Y-42620082D01*
X147619748Y-42799013D01*
X147535000Y-42883761D01*
X147535000Y-41115876D01*
X147695956Y-41049205D01*
X147865474Y-40935937D01*
X148009637Y-40791774D01*
X148122905Y-40622256D01*
X148200926Y-40433898D01*
X148215311Y-40361580D01*
X148500967Y-40418400D01*
X148823033Y-40418400D01*
X149138912Y-40355568D01*
X149436463Y-40232318D01*
X149704252Y-40053387D01*
X149931987Y-39825652D01*
X150110918Y-39557863D01*
X150234168Y-39260312D01*
X150297000Y-38944433D01*
X150297000Y-38622367D01*
X150234168Y-38306488D01*
X150110918Y-38008937D01*
X149931987Y-37741148D01*
X149704252Y-37513413D01*
X149436463Y-37334482D01*
X149138912Y-37211232D01*
X148823033Y-37148400D01*
X148500967Y-37148400D01*
X148185088Y-37211232D01*
X147887537Y-37334482D01*
X147619748Y-37513413D01*
X147392013Y-37741148D01*
X147213082Y-38008937D01*
X147089832Y-38306488D01*
X147027000Y-38622367D01*
X147027000Y-38944433D01*
X147059114Y-39105881D01*
X146903802Y-39136774D01*
X146715444Y-39214795D01*
X146545926Y-39328063D01*
X146401763Y-39472226D01*
X146288495Y-39641744D01*
X146210474Y-39830102D01*
X146170700Y-40030061D01*
X146170700Y-40101048D01*
X146140026Y-40138424D01*
X146069454Y-40270454D01*
X146043636Y-40355568D01*
X146025998Y-40413714D01*
X146024961Y-40424247D01*
X146011324Y-40562700D01*
X146015001Y-40600032D01*
X146015000Y-45962898D01*
X133195899Y-58782000D01*
X133133761Y-58782000D01*
X132933802Y-58821774D01*
X132745444Y-58899795D01*
X132575926Y-59013063D01*
X132431763Y-59157226D01*
X132318495Y-59326744D01*
X132240474Y-59515102D01*
X132200700Y-59715061D01*
X126025650Y-59715061D01*
X126025937Y-59714774D01*
X126139205Y-59545256D01*
X126217226Y-59356898D01*
X126257000Y-59156939D01*
X126257000Y-58953061D01*
X126217226Y-58753102D01*
X126139205Y-58564744D01*
X126025937Y-58395226D01*
X125881774Y-58251063D01*
X125712256Y-58137795D01*
X125523898Y-58059774D01*
X125323939Y-58020000D01*
X125120061Y-58020000D01*
X124920102Y-58059774D01*
X124731744Y-58137795D01*
X124562226Y-58251063D01*
X124418063Y-58395226D01*
X124304795Y-58564744D01*
X124226774Y-58753102D01*
X124187000Y-58953061D01*
X110753110Y-58953061D01*
X110788422Y-58929590D01*
X110953934Y-58764877D01*
X111084131Y-58571039D01*
X111174011Y-58355526D01*
X111178803Y-58316744D01*
X111053361Y-58134000D01*
X109962000Y-58134000D01*
X109708000Y-58134000D01*
X108616639Y-58134000D01*
X108491197Y-58316744D01*
X108164667Y-58316744D01*
X108181681Y-58290007D01*
X108274857Y-58050029D01*
X108277910Y-58026400D01*
X108154224Y-57824000D01*
X106962000Y-57824000D01*
X106708000Y-57824000D01*
X105515776Y-57824000D01*
X105392090Y-58026400D01*
X104800000Y-58026400D01*
X104800000Y-57697256D01*
X108491197Y-57697256D01*
X108616639Y-57880000D01*
X109708000Y-57880000D01*
X109708000Y-56976848D01*
X109962000Y-56976848D01*
X109962000Y-57880000D01*
X111053361Y-57880000D01*
X111178803Y-57697256D01*
X111174011Y-57658474D01*
X111084131Y-57442961D01*
X110953934Y-57249123D01*
X110788422Y-57084410D01*
X110593957Y-56955152D01*
X110378011Y-56866316D01*
X110148884Y-56821316D01*
X109962000Y-56976848D01*
X109708000Y-56976848D01*
X109521116Y-56821316D01*
X109291989Y-56866316D01*
X109076043Y-56955152D01*
X108881578Y-57084410D01*
X108716066Y-57249123D01*
X108585869Y-57442961D01*
X108495989Y-57658474D01*
X108491197Y-57697256D01*
X104800000Y-57697256D01*
X104800000Y-57367600D01*
X105392090Y-57367600D01*
X105515776Y-57570000D01*
X106708000Y-57570000D01*
X106708000Y-56543427D01*
X106962000Y-56543427D01*
X106962000Y-57570000D01*
X108154224Y-57570000D01*
X108277910Y-57367600D01*
X108274857Y-57343971D01*
X108181681Y-57103993D01*
X108043478Y-56886804D01*
X107865559Y-56700750D01*
X107654761Y-56552981D01*
X107419185Y-56449176D01*
X107167884Y-56393325D01*
X106962000Y-56543427D01*
X106708000Y-56543427D01*
X106502116Y-56393325D01*
X106250815Y-56449176D01*
X106015239Y-56552981D01*
X105804441Y-56700750D01*
X105626522Y-56886804D01*
X105488319Y-57103993D01*
X105395143Y-57343971D01*
X105392090Y-57367600D01*
X104800000Y-57367600D01*
X104800000Y-53873061D01*
X124441000Y-53873061D01*
X124441000Y-54076939D01*
X124480774Y-54276898D01*
X124558795Y-54465256D01*
X124672063Y-54634774D01*
X124816226Y-54778937D01*
X124985744Y-54892205D01*
X125174102Y-54970226D01*
X125374061Y-55010000D01*
X125577939Y-55010000D01*
X125777898Y-54970226D01*
X125966256Y-54892205D01*
X126135774Y-54778937D01*
X126279937Y-54634774D01*
X126393205Y-54465256D01*
X126471226Y-54276898D01*
X126501030Y-54127061D01*
X132442000Y-54127061D01*
X132442000Y-54330939D01*
X132481774Y-54530898D01*
X132559795Y-54719256D01*
X132673063Y-54888774D01*
X132817226Y-55032937D01*
X132986744Y-55146205D01*
X133175102Y-55224226D01*
X133375061Y-55264000D01*
X133578939Y-55264000D01*
X133778898Y-55224226D01*
X133967256Y-55146205D01*
X134136774Y-55032937D01*
X134280937Y-54888774D01*
X134394205Y-54719256D01*
X134472226Y-54530898D01*
X134512000Y-54330939D01*
X134512000Y-54127061D01*
X134472226Y-53927102D01*
X134394205Y-53738744D01*
X134280937Y-53569226D01*
X134136774Y-53425063D01*
X133967256Y-53311795D01*
X133778898Y-53233774D01*
X133578939Y-53194000D01*
X133375061Y-53194000D01*
X133175102Y-53233774D01*
X132986744Y-53311795D01*
X132817226Y-53425063D01*
X132673063Y-53569226D01*
X132559795Y-53738744D01*
X132481774Y-53927102D01*
X132442000Y-54127061D01*
X126501030Y-54127061D01*
X126511000Y-54076939D01*
X126511000Y-53873061D01*
X126471226Y-53673102D01*
X126393205Y-53484744D01*
X126279937Y-53315226D01*
X126135774Y-53171063D01*
X125966256Y-53057795D01*
X125777898Y-52979774D01*
X125577939Y-52940000D01*
X125374061Y-52940000D01*
X125174102Y-52979774D01*
X124985744Y-53057795D01*
X124816226Y-53171063D01*
X124672063Y-53315226D01*
X124558795Y-53484744D01*
X124480774Y-53673102D01*
X124441000Y-53873061D01*
X104800000Y-53873061D01*
X104800000Y-50545661D01*
X105759300Y-50545661D01*
X105759300Y-50749539D01*
X105799074Y-50949498D01*
X105877095Y-51137856D01*
X105990363Y-51307374D01*
X106134526Y-51451537D01*
X106304044Y-51564805D01*
X106492402Y-51642826D01*
X106692361Y-51682600D01*
X106896239Y-51682600D01*
X107096198Y-51642826D01*
X107284556Y-51564805D01*
X107454074Y-51451537D01*
X107598237Y-51307374D01*
X107711505Y-51137856D01*
X107789526Y-50949498D01*
X107829300Y-50749539D01*
X107829300Y-50545661D01*
X111169500Y-50545661D01*
X111169500Y-50749539D01*
X111209274Y-50949498D01*
X111287295Y-51137856D01*
X111400563Y-51307374D01*
X111544726Y-51451537D01*
X111714244Y-51564805D01*
X111902602Y-51642826D01*
X112102561Y-51682600D01*
X112306439Y-51682600D01*
X112506398Y-51642826D01*
X112694756Y-51564805D01*
X112864274Y-51451537D01*
X113008437Y-51307374D01*
X113121705Y-51137856D01*
X113199726Y-50949498D01*
X113239500Y-50749539D01*
X113239500Y-50545661D01*
X113199726Y-50345702D01*
X113121705Y-50157344D01*
X113008437Y-49987826D01*
X112864274Y-49843663D01*
X112694756Y-49730395D01*
X112506398Y-49652374D01*
X112306439Y-49612600D01*
X112102561Y-49612600D01*
X111902602Y-49652374D01*
X111714244Y-49730395D01*
X111544726Y-49843663D01*
X111400563Y-49987826D01*
X111287295Y-50157344D01*
X111209274Y-50345702D01*
X111169500Y-50545661D01*
X107829300Y-50545661D01*
X107789526Y-50345702D01*
X107711505Y-50157344D01*
X107598237Y-49987826D01*
X107454074Y-49843663D01*
X107284556Y-49730395D01*
X107096198Y-49652374D01*
X106896239Y-49612600D01*
X106692361Y-49612600D01*
X106492402Y-49652374D01*
X106304044Y-49730395D01*
X106134526Y-49843663D01*
X105990363Y-49987826D01*
X105877095Y-50157344D01*
X105799074Y-50345702D01*
X105759300Y-50545661D01*
X104800000Y-50545661D01*
X104800000Y-49034361D01*
X108591400Y-49034361D01*
X108591400Y-49238239D01*
X108631174Y-49438198D01*
X108709195Y-49626556D01*
X108822463Y-49796074D01*
X108966626Y-49940237D01*
X109136144Y-50053505D01*
X109324502Y-50131526D01*
X109524461Y-50171300D01*
X109728339Y-50171300D01*
X109928298Y-50131526D01*
X110116656Y-50053505D01*
X110286174Y-49940237D01*
X110430337Y-49796074D01*
X110543605Y-49626556D01*
X110621626Y-49438198D01*
X110661400Y-49238239D01*
X110661400Y-49034361D01*
X110621626Y-48834402D01*
X110543605Y-48646044D01*
X110430337Y-48476526D01*
X110286174Y-48332363D01*
X110116656Y-48219095D01*
X109928298Y-48141074D01*
X109728339Y-48101300D01*
X109524461Y-48101300D01*
X109324502Y-48141074D01*
X109136144Y-48219095D01*
X108966626Y-48332363D01*
X108822463Y-48476526D01*
X108709195Y-48646044D01*
X108631174Y-48834402D01*
X108591400Y-49034361D01*
X104800000Y-49034361D01*
X104800000Y-43078061D01*
X122663000Y-43078061D01*
X122663000Y-43281939D01*
X122702774Y-43481898D01*
X122780795Y-43670256D01*
X122894063Y-43839774D01*
X123038226Y-43983937D01*
X123207744Y-44097205D01*
X123396102Y-44175226D01*
X123596061Y-44215000D01*
X123799939Y-44215000D01*
X123999898Y-44175226D01*
X124188256Y-44097205D01*
X124357774Y-43983937D01*
X124501937Y-43839774D01*
X124615205Y-43670256D01*
X124693226Y-43481898D01*
X124733000Y-43281939D01*
X124733000Y-43078061D01*
X124693226Y-42878102D01*
X124615205Y-42689744D01*
X124501937Y-42520226D01*
X124357774Y-42376063D01*
X124188256Y-42262795D01*
X123999898Y-42184774D01*
X123799939Y-42145000D01*
X123596061Y-42145000D01*
X123396102Y-42184774D01*
X123207744Y-42262795D01*
X123038226Y-42376063D01*
X122894063Y-42520226D01*
X122780795Y-42689744D01*
X122702774Y-42878102D01*
X122663000Y-43078061D01*
X104800000Y-43078061D01*
X104800000Y-39649061D01*
X120123000Y-39649061D01*
X120123000Y-39852939D01*
X120162774Y-40052898D01*
X120240795Y-40241256D01*
X120354063Y-40410774D01*
X120498226Y-40554937D01*
X120667744Y-40668205D01*
X120856102Y-40746226D01*
X121056061Y-40786000D01*
X121259939Y-40786000D01*
X121459898Y-40746226D01*
X121648256Y-40668205D01*
X121817774Y-40554937D01*
X121961937Y-40410774D01*
X122075205Y-40241256D01*
X122153226Y-40052898D01*
X122193000Y-39852939D01*
X122193000Y-39649061D01*
X122153226Y-39449102D01*
X122075205Y-39260744D01*
X121961937Y-39091226D01*
X121817774Y-38947063D01*
X121648256Y-38833795D01*
X121459898Y-38755774D01*
X121259939Y-38716000D01*
X121056061Y-38716000D01*
X120856102Y-38755774D01*
X120667744Y-38833795D01*
X120498226Y-38947063D01*
X120354063Y-39091226D01*
X120240795Y-39260744D01*
X120162774Y-39449102D01*
X120123000Y-39649061D01*
X104800000Y-39649061D01*
X104800000Y-32122367D01*
X147027000Y-32122367D01*
X147027000Y-32444433D01*
X147089832Y-32760312D01*
X147213082Y-33057863D01*
X147392013Y-33325652D01*
X147619748Y-33553387D01*
X147887537Y-33732318D01*
X148185088Y-33855568D01*
X148500967Y-33918400D01*
X148823033Y-33918400D01*
X149138912Y-33855568D01*
X149436463Y-33732318D01*
X149704252Y-33553387D01*
X149931987Y-33325652D01*
X150110918Y-33057863D01*
X150234168Y-32760312D01*
X150297000Y-32444433D01*
X150297000Y-32122367D01*
X150234168Y-31806488D01*
X150110918Y-31508937D01*
X149931987Y-31241148D01*
X149704252Y-31013413D01*
X149436463Y-30834482D01*
X149138912Y-30711232D01*
X148823033Y-30648400D01*
X148500967Y-30648400D01*
X148185088Y-30711232D01*
X147887537Y-30834482D01*
X147619748Y-31013413D01*
X147392013Y-31241148D01*
X147213082Y-31508937D01*
X147089832Y-31806488D01*
X147027000Y-32122367D01*
X104800000Y-32122367D01*
X104800000Y-26830881D01*
X105428724Y-26830881D01*
X105788912Y-27320548D01*
X106452882Y-27680849D01*
X107174385Y-27904694D01*
X107925695Y-27983480D01*
X108677938Y-27914178D01*
X109402208Y-27699452D01*
X110070670Y-27347555D01*
X110111088Y-27320548D01*
X110471276Y-26830881D01*
X107950000Y-24309605D01*
X105428724Y-26830881D01*
X104800000Y-26830881D01*
X104800000Y-26320914D01*
X105249119Y-26651276D01*
X107770395Y-24130000D01*
X108129605Y-24130000D01*
X110650881Y-26651276D01*
X111109316Y-26314061D01*
X117710000Y-26314061D01*
X117710000Y-26517939D01*
X117749774Y-26717898D01*
X117827795Y-26906256D01*
X117941063Y-27075774D01*
X118085226Y-27219937D01*
X118254744Y-27333205D01*
X118443102Y-27411226D01*
X118643061Y-27451000D01*
X118846939Y-27451000D01*
X119046898Y-27411226D01*
X119235256Y-27333205D01*
X119404774Y-27219937D01*
X119548937Y-27075774D01*
X119662205Y-26906256D01*
X119693426Y-26830881D01*
X148608724Y-26830881D01*
X148968912Y-27320548D01*
X149632882Y-27680849D01*
X150354385Y-27904694D01*
X151105695Y-27983480D01*
X151857938Y-27914178D01*
X152582208Y-27699452D01*
X153250670Y-27347555D01*
X153291088Y-27320548D01*
X153651276Y-26830881D01*
X151130000Y-24309605D01*
X148608724Y-26830881D01*
X119693426Y-26830881D01*
X119740226Y-26717898D01*
X119780000Y-26517939D01*
X119780000Y-26314061D01*
X119740226Y-26114102D01*
X119662205Y-25925744D01*
X119548937Y-25756226D01*
X119404774Y-25612063D01*
X119235256Y-25498795D01*
X119046898Y-25420774D01*
X118846939Y-25381000D01*
X118643061Y-25381000D01*
X118443102Y-25420774D01*
X118254744Y-25498795D01*
X118085226Y-25612063D01*
X117941063Y-25756226D01*
X117827795Y-25925744D01*
X117749774Y-26114102D01*
X117710000Y-26314061D01*
X111109316Y-26314061D01*
X111140548Y-26291088D01*
X111500849Y-25627118D01*
X111724694Y-24905615D01*
X111736234Y-24795565D01*
X124944040Y-24795565D01*
X125011020Y-25035656D01*
X125260048Y-25152756D01*
X125527135Y-25219023D01*
X125802017Y-25231910D01*
X126074133Y-25190922D01*
X126333023Y-25097636D01*
X126448980Y-25035656D01*
X126515960Y-24795565D01*
X125730000Y-24009605D01*
X124944040Y-24795565D01*
X111736234Y-24795565D01*
X111803480Y-24154305D01*
X111780238Y-23902017D01*
X124328090Y-23902017D01*
X124369078Y-24174133D01*
X124462364Y-24433023D01*
X124524344Y-24548980D01*
X124764435Y-24615960D01*
X125550395Y-23830000D01*
X125909605Y-23830000D01*
X126695565Y-24615960D01*
X126935656Y-24548980D01*
X126999485Y-24413240D01*
X127031995Y-24491727D01*
X127184880Y-24720535D01*
X127379465Y-24915120D01*
X127608273Y-25068005D01*
X127862510Y-25173314D01*
X128132408Y-25227000D01*
X128407592Y-25227000D01*
X128677490Y-25173314D01*
X128931727Y-25068005D01*
X129160535Y-24915120D01*
X129355120Y-24720535D01*
X129508005Y-24491727D01*
X129540000Y-24414485D01*
X129571995Y-24491727D01*
X129724880Y-24720535D01*
X129919465Y-24915120D01*
X130148273Y-25068005D01*
X130402510Y-25173314D01*
X130672408Y-25227000D01*
X130947592Y-25227000D01*
X131217490Y-25173314D01*
X131471727Y-25068005D01*
X131700535Y-24915120D01*
X131895120Y-24720535D01*
X132048005Y-24491727D01*
X132080000Y-24414485D01*
X132111995Y-24491727D01*
X132264880Y-24720535D01*
X132459465Y-24915120D01*
X132688273Y-25068005D01*
X132942510Y-25173314D01*
X133212408Y-25227000D01*
X133487592Y-25227000D01*
X133757490Y-25173314D01*
X134011727Y-25068005D01*
X134240535Y-24915120D01*
X134435120Y-24720535D01*
X134588005Y-24491727D01*
X134693314Y-24237490D01*
X134719529Y-24105695D01*
X147276520Y-24105695D01*
X147345822Y-24857938D01*
X147560548Y-25582208D01*
X147912445Y-26250670D01*
X147939452Y-26291088D01*
X148429119Y-26651276D01*
X150950395Y-24130000D01*
X148429119Y-21608724D01*
X147939452Y-21968912D01*
X147579151Y-22632882D01*
X147355306Y-23354385D01*
X147276520Y-24105695D01*
X134719529Y-24105695D01*
X134747000Y-23967592D01*
X134747000Y-23692408D01*
X134693314Y-23422510D01*
X134588005Y-23168273D01*
X134435120Y-22939465D01*
X134240535Y-22744880D01*
X134011727Y-22591995D01*
X133757490Y-22486686D01*
X133487592Y-22433000D01*
X133212408Y-22433000D01*
X132942510Y-22486686D01*
X132688273Y-22591995D01*
X132459465Y-22744880D01*
X132264880Y-22939465D01*
X132111995Y-23168273D01*
X132080000Y-23245515D01*
X132048005Y-23168273D01*
X131895120Y-22939465D01*
X131700535Y-22744880D01*
X131471727Y-22591995D01*
X131217490Y-22486686D01*
X130947592Y-22433000D01*
X130672408Y-22433000D01*
X130402510Y-22486686D01*
X130148273Y-22591995D01*
X129919465Y-22744880D01*
X129724880Y-22939465D01*
X129571995Y-23168273D01*
X129540000Y-23245515D01*
X129508005Y-23168273D01*
X129355120Y-22939465D01*
X129160535Y-22744880D01*
X128931727Y-22591995D01*
X128677490Y-22486686D01*
X128407592Y-22433000D01*
X128132408Y-22433000D01*
X127862510Y-22486686D01*
X127608273Y-22591995D01*
X127379465Y-22744880D01*
X127184880Y-22939465D01*
X127031995Y-23168273D01*
X127002308Y-23239943D01*
X126997636Y-23226977D01*
X126935656Y-23111020D01*
X126695565Y-23044040D01*
X125909605Y-23830000D01*
X125550395Y-23830000D01*
X124764435Y-23044040D01*
X124524344Y-23111020D01*
X124407244Y-23360048D01*
X124340977Y-23627135D01*
X124328090Y-23902017D01*
X111780238Y-23902017D01*
X111734178Y-23402062D01*
X111574787Y-22864435D01*
X124944040Y-22864435D01*
X125730000Y-23650395D01*
X126515960Y-22864435D01*
X126448980Y-22624344D01*
X126199952Y-22507244D01*
X125932865Y-22440977D01*
X125657983Y-22428090D01*
X125385867Y-22469078D01*
X125126977Y-22562364D01*
X125011020Y-22624344D01*
X124944040Y-22864435D01*
X111574787Y-22864435D01*
X111519452Y-22677792D01*
X111167555Y-22009330D01*
X111140548Y-21968912D01*
X110650881Y-21608724D01*
X108129605Y-24130000D01*
X107770395Y-24130000D01*
X107756253Y-24115858D01*
X107935858Y-23936253D01*
X107950000Y-23950395D01*
X110471276Y-21429119D01*
X110140914Y-20980000D01*
X148939086Y-20980000D01*
X148608724Y-21429119D01*
G37*
%TD.AperFunction*%
%TD*%
M02*
