%TF.GenerationSoftware,KiCad,Pcbnew,5.1.8-db9833491~87~ubuntu20.04.1*%
%TF.CreationDate,2020-11-19T17:12:54+01:00*%
%TF.ProjectId,custom-arduino-rtc-temperature-humidity,63757374-6f6d-42d6-9172-6475696e6f2d,rev?*%
%TF.SameCoordinates,Original*%
%TF.FileFunction,Legend,Bot*%
%TF.FilePolarity,Positive*%
%FSLAX46Y46*%
G04 Gerber Fmt 4.6, Leading zero omitted, Abs format (unit mm)*
G04 Created by KiCad (PCBNEW 5.1.8-db9833491~87~ubuntu20.04.1) date 2020-11-19 17:12:54*
%MOMM*%
%LPD*%
G01*
G04 APERTURE LIST*
%ADD10C,0.175000*%
%ADD11C,0.010000*%
G04 APERTURE END LIST*
D10*
X145285440Y-27609833D02*
X145333059Y-27562214D01*
X145428297Y-27419357D01*
X145475916Y-27324119D01*
X145523535Y-27181261D01*
X145571154Y-26943166D01*
X145571154Y-26752690D01*
X145523535Y-26514595D01*
X145475916Y-26371738D01*
X145428297Y-26276500D01*
X145333059Y-26133642D01*
X145285440Y-26086023D01*
X144475916Y-27181261D02*
X144571154Y-27228880D01*
X144761630Y-27228880D01*
X144856869Y-27181261D01*
X144904488Y-27133642D01*
X144952107Y-27038404D01*
X144952107Y-26752690D01*
X144904488Y-26657452D01*
X144856869Y-26609833D01*
X144761630Y-26562214D01*
X144571154Y-26562214D01*
X144475916Y-26609833D01*
X144142583Y-27609833D02*
X144094964Y-27562214D01*
X143999726Y-27419357D01*
X143952107Y-27324119D01*
X143904488Y-27181261D01*
X143856869Y-26943166D01*
X143856869Y-26752690D01*
X143904488Y-26514595D01*
X143952107Y-26371738D01*
X143999726Y-26276500D01*
X144094964Y-26133642D01*
X144142583Y-26086023D01*
X142666392Y-26324119D02*
X142618773Y-26276500D01*
X142523535Y-26228880D01*
X142285440Y-26228880D01*
X142190202Y-26276500D01*
X142142583Y-26324119D01*
X142094964Y-26419357D01*
X142094964Y-26514595D01*
X142142583Y-26657452D01*
X142714011Y-27228880D01*
X142094964Y-27228880D01*
X141475916Y-26228880D02*
X141380678Y-26228880D01*
X141285440Y-26276500D01*
X141237821Y-26324119D01*
X141190202Y-26419357D01*
X141142583Y-26609833D01*
X141142583Y-26847928D01*
X141190202Y-27038404D01*
X141237821Y-27133642D01*
X141285440Y-27181261D01*
X141380678Y-27228880D01*
X141475916Y-27228880D01*
X141571154Y-27181261D01*
X141618773Y-27133642D01*
X141666392Y-27038404D01*
X141714011Y-26847928D01*
X141714011Y-26609833D01*
X141666392Y-26419357D01*
X141618773Y-26324119D01*
X141571154Y-26276500D01*
X141475916Y-26228880D01*
X140761630Y-26324119D02*
X140714011Y-26276500D01*
X140618773Y-26228880D01*
X140380678Y-26228880D01*
X140285440Y-26276500D01*
X140237821Y-26324119D01*
X140190202Y-26419357D01*
X140190202Y-26514595D01*
X140237821Y-26657452D01*
X140809250Y-27228880D01*
X140190202Y-27228880D01*
X139571154Y-26228880D02*
X139475916Y-26228880D01*
X139380678Y-26276500D01*
X139333059Y-26324119D01*
X139285440Y-26419357D01*
X139237821Y-26609833D01*
X139237821Y-26847928D01*
X139285440Y-27038404D01*
X139333059Y-27133642D01*
X139380678Y-27181261D01*
X139475916Y-27228880D01*
X139571154Y-27228880D01*
X139666392Y-27181261D01*
X139714011Y-27133642D01*
X139761630Y-27038404D01*
X139809250Y-26847928D01*
X139809250Y-26609833D01*
X139761630Y-26419357D01*
X139714011Y-26324119D01*
X139666392Y-26276500D01*
X139571154Y-26228880D01*
X137475916Y-27133642D02*
X137523535Y-27181261D01*
X137666392Y-27228880D01*
X137761630Y-27228880D01*
X137904488Y-27181261D01*
X137999726Y-27086023D01*
X138047345Y-26990785D01*
X138094964Y-26800309D01*
X138094964Y-26657452D01*
X138047345Y-26466976D01*
X137999726Y-26371738D01*
X137904488Y-26276500D01*
X137761630Y-26228880D01*
X137666392Y-26228880D01*
X137523535Y-26276500D01*
X137475916Y-26324119D01*
X137047345Y-27228880D02*
X137047345Y-26228880D01*
X136618773Y-27228880D02*
X136618773Y-26705071D01*
X136666392Y-26609833D01*
X136761630Y-26562214D01*
X136904488Y-26562214D01*
X136999726Y-26609833D01*
X137047345Y-26657452D01*
X136142583Y-27228880D02*
X136142583Y-26562214D01*
X136142583Y-26752690D02*
X136094964Y-26657452D01*
X136047345Y-26609833D01*
X135952107Y-26562214D01*
X135856869Y-26562214D01*
X135523535Y-27228880D02*
X135523535Y-26562214D01*
X135523535Y-26228880D02*
X135571154Y-26276500D01*
X135523535Y-26324119D01*
X135475916Y-26276500D01*
X135523535Y-26228880D01*
X135523535Y-26324119D01*
X135094964Y-27181261D02*
X134999726Y-27228880D01*
X134809250Y-27228880D01*
X134714011Y-27181261D01*
X134666392Y-27086023D01*
X134666392Y-27038404D01*
X134714011Y-26943166D01*
X134809250Y-26895547D01*
X134952107Y-26895547D01*
X135047345Y-26847928D01*
X135094964Y-26752690D01*
X135094964Y-26705071D01*
X135047345Y-26609833D01*
X134952107Y-26562214D01*
X134809250Y-26562214D01*
X134714011Y-26609833D01*
X134380678Y-26562214D02*
X133999726Y-26562214D01*
X134237821Y-26228880D02*
X134237821Y-27086023D01*
X134190202Y-27181261D01*
X134094964Y-27228880D01*
X133999726Y-27228880D01*
X133666392Y-27228880D02*
X133666392Y-26562214D01*
X133666392Y-26228880D02*
X133714011Y-26276500D01*
X133666392Y-26324119D01*
X133618773Y-26276500D01*
X133666392Y-26228880D01*
X133666392Y-26324119D01*
X132761630Y-27228880D02*
X132761630Y-26705071D01*
X132809250Y-26609833D01*
X132904488Y-26562214D01*
X133094964Y-26562214D01*
X133190202Y-26609833D01*
X132761630Y-27181261D02*
X132856869Y-27228880D01*
X133094964Y-27228880D01*
X133190202Y-27181261D01*
X133237821Y-27086023D01*
X133237821Y-26990785D01*
X133190202Y-26895547D01*
X133094964Y-26847928D01*
X132856869Y-26847928D01*
X132761630Y-26800309D01*
X132285440Y-26562214D02*
X132285440Y-27228880D01*
X132285440Y-26657452D02*
X132237821Y-26609833D01*
X132142583Y-26562214D01*
X131999726Y-26562214D01*
X131904488Y-26609833D01*
X131856869Y-26705071D01*
X131856869Y-27228880D01*
X130666392Y-27181261D02*
X130523535Y-27228880D01*
X130285440Y-27228880D01*
X130190202Y-27181261D01*
X130142583Y-27133642D01*
X130094964Y-27038404D01*
X130094964Y-26943166D01*
X130142583Y-26847928D01*
X130190202Y-26800309D01*
X130285440Y-26752690D01*
X130475916Y-26705071D01*
X130571154Y-26657452D01*
X130618773Y-26609833D01*
X130666392Y-26514595D01*
X130666392Y-26419357D01*
X130618773Y-26324119D01*
X130571154Y-26276500D01*
X130475916Y-26228880D01*
X130237821Y-26228880D01*
X130094964Y-26276500D01*
X129523535Y-27228880D02*
X129618773Y-27181261D01*
X129666392Y-27133642D01*
X129714011Y-27038404D01*
X129714011Y-26752690D01*
X129666392Y-26657452D01*
X129618773Y-26609833D01*
X129523535Y-26562214D01*
X129380678Y-26562214D01*
X129285440Y-26609833D01*
X129237821Y-26657452D01*
X129190202Y-26752690D01*
X129190202Y-27038404D01*
X129237821Y-27133642D01*
X129285440Y-27181261D01*
X129380678Y-27228880D01*
X129523535Y-27228880D01*
X128761630Y-26562214D02*
X128761630Y-27228880D01*
X128761630Y-26657452D02*
X128714011Y-26609833D01*
X128618773Y-26562214D01*
X128475916Y-26562214D01*
X128380678Y-26609833D01*
X128333059Y-26705071D01*
X128333059Y-27228880D01*
X127856869Y-26562214D02*
X127856869Y-27228880D01*
X127856869Y-26657452D02*
X127809250Y-26609833D01*
X127714011Y-26562214D01*
X127571154Y-26562214D01*
X127475916Y-26609833D01*
X127428297Y-26705071D01*
X127428297Y-27228880D01*
X127094964Y-26562214D02*
X126714011Y-26562214D01*
X126952107Y-26228880D02*
X126952107Y-27086023D01*
X126904488Y-27181261D01*
X126809250Y-27228880D01*
X126714011Y-27228880D01*
X125952107Y-27228880D02*
X125952107Y-26705071D01*
X125999726Y-26609833D01*
X126094964Y-26562214D01*
X126285440Y-26562214D01*
X126380678Y-26609833D01*
X125952107Y-27181261D02*
X126047345Y-27228880D01*
X126285440Y-27228880D01*
X126380678Y-27181261D01*
X126428297Y-27086023D01*
X126428297Y-26990785D01*
X126380678Y-26895547D01*
X126285440Y-26847928D01*
X126047345Y-26847928D01*
X125952107Y-26800309D01*
X125047345Y-26562214D02*
X125047345Y-27371738D01*
X125094964Y-27466976D01*
X125142583Y-27514595D01*
X125237821Y-27562214D01*
X125380678Y-27562214D01*
X125475916Y-27514595D01*
X125047345Y-27181261D02*
X125142583Y-27228880D01*
X125333059Y-27228880D01*
X125428297Y-27181261D01*
X125475916Y-27133642D01*
X125523535Y-27038404D01*
X125523535Y-26752690D01*
X125475916Y-26657452D01*
X125428297Y-26609833D01*
X125333059Y-26562214D01*
X125142583Y-26562214D01*
X125047345Y-26609833D01*
X145142583Y-30531261D02*
X145237821Y-30578880D01*
X145428297Y-30578880D01*
X145523535Y-30531261D01*
X145571154Y-30483642D01*
X145618773Y-30388404D01*
X145618773Y-30102690D01*
X145571154Y-30007452D01*
X145523535Y-29959833D01*
X145428297Y-29912214D01*
X145237821Y-29912214D01*
X145142583Y-29959833D01*
X144285440Y-29912214D02*
X144285440Y-30578880D01*
X144714011Y-29912214D02*
X144714011Y-30436023D01*
X144666392Y-30531261D01*
X144571154Y-30578880D01*
X144428297Y-30578880D01*
X144333059Y-30531261D01*
X144285440Y-30483642D01*
X143856869Y-30531261D02*
X143761630Y-30578880D01*
X143571154Y-30578880D01*
X143475916Y-30531261D01*
X143428297Y-30436023D01*
X143428297Y-30388404D01*
X143475916Y-30293166D01*
X143571154Y-30245547D01*
X143714011Y-30245547D01*
X143809250Y-30197928D01*
X143856869Y-30102690D01*
X143856869Y-30055071D01*
X143809250Y-29959833D01*
X143714011Y-29912214D01*
X143571154Y-29912214D01*
X143475916Y-29959833D01*
X143142583Y-29912214D02*
X142761630Y-29912214D01*
X142999726Y-29578880D02*
X142999726Y-30436023D01*
X142952107Y-30531261D01*
X142856869Y-30578880D01*
X142761630Y-30578880D01*
X142285440Y-30578880D02*
X142380678Y-30531261D01*
X142428297Y-30483642D01*
X142475916Y-30388404D01*
X142475916Y-30102690D01*
X142428297Y-30007452D01*
X142380678Y-29959833D01*
X142285440Y-29912214D01*
X142142583Y-29912214D01*
X142047345Y-29959833D01*
X141999726Y-30007452D01*
X141952107Y-30102690D01*
X141952107Y-30388404D01*
X141999726Y-30483642D01*
X142047345Y-30531261D01*
X142142583Y-30578880D01*
X142285440Y-30578880D01*
X141523535Y-30578880D02*
X141523535Y-29912214D01*
X141523535Y-30007452D02*
X141475916Y-29959833D01*
X141380678Y-29912214D01*
X141237821Y-29912214D01*
X141142583Y-29959833D01*
X141094964Y-30055071D01*
X141094964Y-30578880D01*
X141094964Y-30055071D02*
X141047345Y-29959833D01*
X140952107Y-29912214D01*
X140809250Y-29912214D01*
X140714011Y-29959833D01*
X140666392Y-30055071D01*
X140666392Y-30578880D01*
X138999726Y-30578880D02*
X138999726Y-30055071D01*
X139047345Y-29959833D01*
X139142583Y-29912214D01*
X139333059Y-29912214D01*
X139428297Y-29959833D01*
X138999726Y-30531261D02*
X139094964Y-30578880D01*
X139333059Y-30578880D01*
X139428297Y-30531261D01*
X139475916Y-30436023D01*
X139475916Y-30340785D01*
X139428297Y-30245547D01*
X139333059Y-30197928D01*
X139094964Y-30197928D01*
X138999726Y-30150309D01*
X138523535Y-30578880D02*
X138523535Y-29912214D01*
X138523535Y-30102690D02*
X138475916Y-30007452D01*
X138428297Y-29959833D01*
X138333059Y-29912214D01*
X138237821Y-29912214D01*
X137475916Y-30578880D02*
X137475916Y-29578880D01*
X137475916Y-30531261D02*
X137571154Y-30578880D01*
X137761630Y-30578880D01*
X137856869Y-30531261D01*
X137904488Y-30483642D01*
X137952107Y-30388404D01*
X137952107Y-30102690D01*
X137904488Y-30007452D01*
X137856869Y-29959833D01*
X137761630Y-29912214D01*
X137571154Y-29912214D01*
X137475916Y-29959833D01*
X136571154Y-29912214D02*
X136571154Y-30578880D01*
X136999726Y-29912214D02*
X136999726Y-30436023D01*
X136952107Y-30531261D01*
X136856869Y-30578880D01*
X136714011Y-30578880D01*
X136618773Y-30531261D01*
X136571154Y-30483642D01*
X136094964Y-30578880D02*
X136094964Y-29912214D01*
X136094964Y-29578880D02*
X136142583Y-29626500D01*
X136094964Y-29674119D01*
X136047345Y-29626500D01*
X136094964Y-29578880D01*
X136094964Y-29674119D01*
X135618773Y-29912214D02*
X135618773Y-30578880D01*
X135618773Y-30007452D02*
X135571154Y-29959833D01*
X135475916Y-29912214D01*
X135333059Y-29912214D01*
X135237821Y-29959833D01*
X135190202Y-30055071D01*
X135190202Y-30578880D01*
X134571154Y-30578880D02*
X134666392Y-30531261D01*
X134714011Y-30483642D01*
X134761630Y-30388404D01*
X134761630Y-30102690D01*
X134714011Y-30007452D01*
X134666392Y-29959833D01*
X134571154Y-29912214D01*
X134428297Y-29912214D01*
X134333059Y-29959833D01*
X134285440Y-30007452D01*
X134237821Y-30102690D01*
X134237821Y-30388404D01*
X134285440Y-30483642D01*
X134333059Y-30531261D01*
X134428297Y-30578880D01*
X134571154Y-30578880D01*
X133047345Y-30578880D02*
X133047345Y-29912214D01*
X133047345Y-30102690D02*
X132999726Y-30007452D01*
X132952107Y-29959833D01*
X132856869Y-29912214D01*
X132761630Y-29912214D01*
X132047345Y-30531261D02*
X132142583Y-30578880D01*
X132333059Y-30578880D01*
X132428297Y-30531261D01*
X132475916Y-30436023D01*
X132475916Y-30055071D01*
X132428297Y-29959833D01*
X132333059Y-29912214D01*
X132142583Y-29912214D01*
X132047345Y-29959833D01*
X131999726Y-30055071D01*
X131999726Y-30150309D01*
X132475916Y-30245547D01*
X131666392Y-29912214D02*
X131428297Y-30578880D01*
X131190202Y-29912214D01*
X129523535Y-30578880D02*
X130094964Y-30578880D01*
X129809250Y-30578880D02*
X129809250Y-29578880D01*
X129904488Y-29721738D01*
X129999726Y-29816976D01*
X130094964Y-29864595D01*
X129094964Y-30483642D02*
X129047345Y-30531261D01*
X129094964Y-30578880D01*
X129142583Y-30531261D01*
X129094964Y-30483642D01*
X129094964Y-30578880D01*
X128094964Y-30578880D02*
X128666392Y-30578880D01*
X128380678Y-30578880D02*
X128380678Y-29578880D01*
X128475916Y-29721738D01*
X128571154Y-29816976D01*
X128666392Y-29864595D01*
X145428297Y-32928880D02*
X145428297Y-33166976D01*
X145666392Y-33071738D02*
X145428297Y-33166976D01*
X145190202Y-33071738D01*
X145571154Y-33357452D02*
X145428297Y-33166976D01*
X145285440Y-33357452D01*
X144094964Y-33643166D02*
X143618773Y-33643166D01*
X144190202Y-33928880D02*
X143856869Y-32928880D01*
X143523535Y-33928880D01*
X143333059Y-32928880D02*
X142761630Y-32928880D01*
X143047345Y-33928880D02*
X143047345Y-32928880D01*
X142428297Y-33928880D02*
X142428297Y-33262214D01*
X142428297Y-33357452D02*
X142380678Y-33309833D01*
X142285440Y-33262214D01*
X142142583Y-33262214D01*
X142047345Y-33309833D01*
X141999726Y-33405071D01*
X141999726Y-33928880D01*
X141999726Y-33405071D02*
X141952107Y-33309833D01*
X141856869Y-33262214D01*
X141714011Y-33262214D01*
X141618773Y-33309833D01*
X141571154Y-33405071D01*
X141571154Y-33928880D01*
X140714011Y-33881261D02*
X140809250Y-33928880D01*
X140999726Y-33928880D01*
X141094964Y-33881261D01*
X141142583Y-33786023D01*
X141142583Y-33405071D01*
X141094964Y-33309833D01*
X140999726Y-33262214D01*
X140809250Y-33262214D01*
X140714011Y-33309833D01*
X140666392Y-33405071D01*
X140666392Y-33500309D01*
X141142583Y-33595547D01*
X139809250Y-33262214D02*
X139809250Y-34071738D01*
X139856869Y-34166976D01*
X139904488Y-34214595D01*
X139999726Y-34262214D01*
X140142583Y-34262214D01*
X140237821Y-34214595D01*
X139809250Y-33881261D02*
X139904488Y-33928880D01*
X140094964Y-33928880D01*
X140190202Y-33881261D01*
X140237821Y-33833642D01*
X140285440Y-33738404D01*
X140285440Y-33452690D01*
X140237821Y-33357452D01*
X140190202Y-33309833D01*
X140094964Y-33262214D01*
X139904488Y-33262214D01*
X139809250Y-33309833D01*
X138904488Y-33928880D02*
X138904488Y-33405071D01*
X138952107Y-33309833D01*
X139047345Y-33262214D01*
X139237821Y-33262214D01*
X139333059Y-33309833D01*
X138904488Y-33881261D02*
X138999726Y-33928880D01*
X139237821Y-33928880D01*
X139333059Y-33881261D01*
X139380678Y-33786023D01*
X139380678Y-33690785D01*
X139333059Y-33595547D01*
X139237821Y-33547928D01*
X138999726Y-33547928D01*
X138904488Y-33500309D01*
X138523535Y-32928880D02*
X137904488Y-32928880D01*
X138237821Y-33309833D01*
X138094964Y-33309833D01*
X137999726Y-33357452D01*
X137952107Y-33405071D01*
X137904488Y-33500309D01*
X137904488Y-33738404D01*
X137952107Y-33833642D01*
X137999726Y-33881261D01*
X138094964Y-33928880D01*
X138380678Y-33928880D01*
X138475916Y-33881261D01*
X138523535Y-33833642D01*
X137523535Y-33024119D02*
X137475916Y-32976500D01*
X137380678Y-32928880D01*
X137142583Y-32928880D01*
X137047345Y-32976500D01*
X136999726Y-33024119D01*
X136952107Y-33119357D01*
X136952107Y-33214595D01*
X136999726Y-33357452D01*
X137571154Y-33928880D01*
X136952107Y-33928880D01*
X136523535Y-32928880D02*
X136523535Y-33738404D01*
X136475916Y-33833642D01*
X136428297Y-33881261D01*
X136333059Y-33928880D01*
X136142583Y-33928880D01*
X136047345Y-33881261D01*
X135999726Y-33833642D01*
X135952107Y-33738404D01*
X135952107Y-32928880D01*
X135047345Y-33262214D02*
X135047345Y-33928880D01*
X135285440Y-32881261D02*
X135523535Y-33595547D01*
X134904488Y-33595547D01*
X145428297Y-34603880D02*
X145428297Y-34841976D01*
X145666392Y-34746738D02*
X145428297Y-34841976D01*
X145190202Y-34746738D01*
X145571154Y-35032452D02*
X145428297Y-34841976D01*
X145285440Y-35032452D01*
X144047345Y-35603880D02*
X144047345Y-34603880D01*
X143809250Y-34603880D01*
X143666392Y-34651500D01*
X143571154Y-34746738D01*
X143523535Y-34841976D01*
X143475916Y-35032452D01*
X143475916Y-35175309D01*
X143523535Y-35365785D01*
X143571154Y-35461023D01*
X143666392Y-35556261D01*
X143809250Y-35603880D01*
X144047345Y-35603880D01*
X143094964Y-35556261D02*
X142952107Y-35603880D01*
X142714011Y-35603880D01*
X142618773Y-35556261D01*
X142571154Y-35508642D01*
X142523535Y-35413404D01*
X142523535Y-35318166D01*
X142571154Y-35222928D01*
X142618773Y-35175309D01*
X142714011Y-35127690D01*
X142904488Y-35080071D01*
X142999726Y-35032452D01*
X143047345Y-34984833D01*
X143094964Y-34889595D01*
X143094964Y-34794357D01*
X143047345Y-34699119D01*
X142999726Y-34651500D01*
X142904488Y-34603880D01*
X142666392Y-34603880D01*
X142523535Y-34651500D01*
X142190202Y-34603880D02*
X141571154Y-34603880D01*
X141904488Y-34984833D01*
X141761630Y-34984833D01*
X141666392Y-35032452D01*
X141618773Y-35080071D01*
X141571154Y-35175309D01*
X141571154Y-35413404D01*
X141618773Y-35508642D01*
X141666392Y-35556261D01*
X141761630Y-35603880D01*
X142047345Y-35603880D01*
X142142583Y-35556261D01*
X142190202Y-35508642D01*
X141190202Y-34699119D02*
X141142583Y-34651500D01*
X141047345Y-34603880D01*
X140809250Y-34603880D01*
X140714011Y-34651500D01*
X140666392Y-34699119D01*
X140618773Y-34794357D01*
X140618773Y-34889595D01*
X140666392Y-35032452D01*
X141237821Y-35603880D01*
X140618773Y-35603880D01*
X140285440Y-34603880D02*
X139666392Y-34603880D01*
X139999726Y-34984833D01*
X139856869Y-34984833D01*
X139761630Y-35032452D01*
X139714011Y-35080071D01*
X139666392Y-35175309D01*
X139666392Y-35413404D01*
X139714011Y-35508642D01*
X139761630Y-35556261D01*
X139856869Y-35603880D01*
X140142583Y-35603880D01*
X140237821Y-35556261D01*
X140285440Y-35508642D01*
X138714011Y-35603880D02*
X139285440Y-35603880D01*
X138999726Y-35603880D02*
X138999726Y-34603880D01*
X139094964Y-34746738D01*
X139190202Y-34841976D01*
X139285440Y-34889595D01*
X137523535Y-35603880D02*
X137523535Y-34937214D01*
X137523535Y-35127690D02*
X137475916Y-35032452D01*
X137428297Y-34984833D01*
X137333059Y-34937214D01*
X137237821Y-34937214D01*
X137047345Y-34937214D02*
X136666392Y-34937214D01*
X136904488Y-34603880D02*
X136904488Y-35461023D01*
X136856869Y-35556261D01*
X136761630Y-35603880D01*
X136666392Y-35603880D01*
X135904488Y-35556261D02*
X135999726Y-35603880D01*
X136190202Y-35603880D01*
X136285440Y-35556261D01*
X136333059Y-35508642D01*
X136380678Y-35413404D01*
X136380678Y-35127690D01*
X136333059Y-35032452D01*
X136285440Y-34984833D01*
X136190202Y-34937214D01*
X135999726Y-34937214D01*
X135904488Y-34984833D01*
X145428297Y-36278880D02*
X145428297Y-36516976D01*
X145666392Y-36421738D02*
X145428297Y-36516976D01*
X145190202Y-36421738D01*
X145571154Y-36707452D02*
X145428297Y-36516976D01*
X145285440Y-36707452D01*
X143714011Y-36755071D02*
X143571154Y-36802690D01*
X143523535Y-36850309D01*
X143475916Y-36945547D01*
X143475916Y-37088404D01*
X143523535Y-37183642D01*
X143571154Y-37231261D01*
X143666392Y-37278880D01*
X144047345Y-37278880D01*
X144047345Y-36278880D01*
X143714011Y-36278880D01*
X143618773Y-36326500D01*
X143571154Y-36374119D01*
X143523535Y-36469357D01*
X143523535Y-36564595D01*
X143571154Y-36659833D01*
X143618773Y-36707452D01*
X143714011Y-36755071D01*
X144047345Y-36755071D01*
X143047345Y-37278880D02*
X143047345Y-36278880D01*
X142714011Y-36993166D01*
X142380678Y-36278880D01*
X142380678Y-37278880D01*
X141904488Y-36755071D02*
X141571154Y-36755071D01*
X141428297Y-37278880D02*
X141904488Y-37278880D01*
X141904488Y-36278880D01*
X141428297Y-36278880D01*
X141047345Y-36374119D02*
X140999726Y-36326500D01*
X140904488Y-36278880D01*
X140666392Y-36278880D01*
X140571154Y-36326500D01*
X140523535Y-36374119D01*
X140475916Y-36469357D01*
X140475916Y-36564595D01*
X140523535Y-36707452D01*
X141094964Y-37278880D01*
X140475916Y-37278880D01*
X139904488Y-36707452D02*
X139999726Y-36659833D01*
X140047345Y-36612214D01*
X140094964Y-36516976D01*
X140094964Y-36469357D01*
X140047345Y-36374119D01*
X139999726Y-36326500D01*
X139904488Y-36278880D01*
X139714011Y-36278880D01*
X139618773Y-36326500D01*
X139571154Y-36374119D01*
X139523535Y-36469357D01*
X139523535Y-36516976D01*
X139571154Y-36612214D01*
X139618773Y-36659833D01*
X139714011Y-36707452D01*
X139904488Y-36707452D01*
X139999726Y-36755071D01*
X140047345Y-36802690D01*
X140094964Y-36897928D01*
X140094964Y-37088404D01*
X140047345Y-37183642D01*
X139999726Y-37231261D01*
X139904488Y-37278880D01*
X139714011Y-37278880D01*
X139618773Y-37231261D01*
X139571154Y-37183642D01*
X139523535Y-37088404D01*
X139523535Y-36897928D01*
X139571154Y-36802690D01*
X139618773Y-36755071D01*
X139714011Y-36707452D01*
X138904488Y-36278880D02*
X138809250Y-36278880D01*
X138714011Y-36326500D01*
X138666392Y-36374119D01*
X138618773Y-36469357D01*
X138571154Y-36659833D01*
X138571154Y-36897928D01*
X138618773Y-37088404D01*
X138666392Y-37183642D01*
X138714011Y-37231261D01*
X138809250Y-37278880D01*
X138904488Y-37278880D01*
X138999726Y-37231261D01*
X139047345Y-37183642D01*
X139094964Y-37088404D01*
X139142583Y-36897928D01*
X139142583Y-36659833D01*
X139094964Y-36469357D01*
X139047345Y-36374119D01*
X138999726Y-36326500D01*
X138904488Y-36278880D01*
X137523535Y-36612214D02*
X137142583Y-36612214D01*
X137380678Y-36278880D02*
X137380678Y-37136023D01*
X137333059Y-37231261D01*
X137237821Y-37278880D01*
X137142583Y-37278880D01*
X136428297Y-37231261D02*
X136523535Y-37278880D01*
X136714011Y-37278880D01*
X136809250Y-37231261D01*
X136856869Y-37136023D01*
X136856869Y-36755071D01*
X136809250Y-36659833D01*
X136714011Y-36612214D01*
X136523535Y-36612214D01*
X136428297Y-36659833D01*
X136380678Y-36755071D01*
X136380678Y-36850309D01*
X136856869Y-36945547D01*
X135952107Y-37278880D02*
X135952107Y-36612214D01*
X135952107Y-36707452D02*
X135904488Y-36659833D01*
X135809250Y-36612214D01*
X135666392Y-36612214D01*
X135571154Y-36659833D01*
X135523535Y-36755071D01*
X135523535Y-37278880D01*
X135523535Y-36755071D02*
X135475916Y-36659833D01*
X135380678Y-36612214D01*
X135237821Y-36612214D01*
X135142583Y-36659833D01*
X135094964Y-36755071D01*
X135094964Y-37278880D01*
X134618773Y-36612214D02*
X134618773Y-37612214D01*
X134618773Y-36659833D02*
X134523535Y-36612214D01*
X134333059Y-36612214D01*
X134237821Y-36659833D01*
X134190202Y-36707452D01*
X134142583Y-36802690D01*
X134142583Y-37088404D01*
X134190202Y-37183642D01*
X134237821Y-37231261D01*
X134333059Y-37278880D01*
X134523535Y-37278880D01*
X134618773Y-37231261D01*
X133333059Y-37231261D02*
X133428297Y-37278880D01*
X133618773Y-37278880D01*
X133714011Y-37231261D01*
X133761630Y-37136023D01*
X133761630Y-36755071D01*
X133714011Y-36659833D01*
X133618773Y-36612214D01*
X133428297Y-36612214D01*
X133333059Y-36659833D01*
X133285440Y-36755071D01*
X133285440Y-36850309D01*
X133761630Y-36945547D01*
X132856869Y-37278880D02*
X132856869Y-36612214D01*
X132856869Y-36802690D02*
X132809250Y-36707452D01*
X132761630Y-36659833D01*
X132666392Y-36612214D01*
X132571154Y-36612214D01*
X131809250Y-37278880D02*
X131809250Y-36755071D01*
X131856869Y-36659833D01*
X131952107Y-36612214D01*
X132142583Y-36612214D01*
X132237821Y-36659833D01*
X131809250Y-37231261D02*
X131904488Y-37278880D01*
X132142583Y-37278880D01*
X132237821Y-37231261D01*
X132285440Y-37136023D01*
X132285440Y-37040785D01*
X132237821Y-36945547D01*
X132142583Y-36897928D01*
X131904488Y-36897928D01*
X131809250Y-36850309D01*
X131475916Y-36612214D02*
X131094964Y-36612214D01*
X131333059Y-36278880D02*
X131333059Y-37136023D01*
X131285440Y-37231261D01*
X131190202Y-37278880D01*
X131094964Y-37278880D01*
X130333059Y-36612214D02*
X130333059Y-37278880D01*
X130761630Y-36612214D02*
X130761630Y-37136023D01*
X130714011Y-37231261D01*
X130618773Y-37278880D01*
X130475916Y-37278880D01*
X130380678Y-37231261D01*
X130333059Y-37183642D01*
X129856869Y-37278880D02*
X129856869Y-36612214D01*
X129856869Y-36802690D02*
X129809250Y-36707452D01*
X129761630Y-36659833D01*
X129666392Y-36612214D01*
X129571154Y-36612214D01*
X128856869Y-37231261D02*
X128952107Y-37278880D01*
X129142583Y-37278880D01*
X129237821Y-37231261D01*
X129285440Y-37136023D01*
X129285440Y-36755071D01*
X129237821Y-36659833D01*
X129142583Y-36612214D01*
X128952107Y-36612214D01*
X128856869Y-36659833D01*
X128809250Y-36755071D01*
X128809250Y-36850309D01*
X129285440Y-36945547D01*
X128333059Y-37231261D02*
X128333059Y-37278880D01*
X128380678Y-37374119D01*
X128428297Y-37421738D01*
X127142583Y-37278880D02*
X127142583Y-36278880D01*
X126714011Y-37278880D02*
X126714011Y-36755071D01*
X126761630Y-36659833D01*
X126856869Y-36612214D01*
X126999726Y-36612214D01*
X127094964Y-36659833D01*
X127142583Y-36707452D01*
X125809250Y-36612214D02*
X125809250Y-37278880D01*
X126237821Y-36612214D02*
X126237821Y-37136023D01*
X126190202Y-37231261D01*
X126094964Y-37278880D01*
X125952107Y-37278880D01*
X125856869Y-37231261D01*
X125809250Y-37183642D01*
X125333059Y-37278880D02*
X125333059Y-36612214D01*
X125333059Y-36707452D02*
X125285440Y-36659833D01*
X125190202Y-36612214D01*
X125047345Y-36612214D01*
X124952107Y-36659833D01*
X124904488Y-36755071D01*
X124904488Y-37278880D01*
X124904488Y-36755071D02*
X124856869Y-36659833D01*
X124761630Y-36612214D01*
X124618773Y-36612214D01*
X124523535Y-36659833D01*
X124475916Y-36755071D01*
X124475916Y-37278880D01*
X123999726Y-37278880D02*
X123999726Y-36612214D01*
X123999726Y-36278880D02*
X124047345Y-36326500D01*
X123999726Y-36374119D01*
X123952107Y-36326500D01*
X123999726Y-36278880D01*
X123999726Y-36374119D01*
X123094964Y-37278880D02*
X123094964Y-36278880D01*
X123094964Y-37231261D02*
X123190202Y-37278880D01*
X123380678Y-37278880D01*
X123475916Y-37231261D01*
X123523535Y-37183642D01*
X123571154Y-37088404D01*
X123571154Y-36802690D01*
X123523535Y-36707452D01*
X123475916Y-36659833D01*
X123380678Y-36612214D01*
X123190202Y-36612214D01*
X123094964Y-36659833D01*
X122618773Y-37278880D02*
X122618773Y-36612214D01*
X122618773Y-36278880D02*
X122666392Y-36326500D01*
X122618773Y-36374119D01*
X122571154Y-36326500D01*
X122618773Y-36278880D01*
X122618773Y-36374119D01*
X122285440Y-36612214D02*
X121904488Y-36612214D01*
X122142583Y-36278880D02*
X122142583Y-37136023D01*
X122094964Y-37231261D01*
X121999726Y-37278880D01*
X121904488Y-37278880D01*
X121666392Y-36612214D02*
X121428297Y-37278880D01*
X121190202Y-36612214D02*
X121428297Y-37278880D01*
X121523535Y-37516976D01*
X121571154Y-37564595D01*
X121666392Y-37612214D01*
X120809250Y-37183642D02*
X120761630Y-37231261D01*
X120809250Y-37278880D01*
X120856869Y-37231261D01*
X120809250Y-37183642D01*
X120809250Y-37278880D01*
X120333059Y-37183642D02*
X120285440Y-37231261D01*
X120333059Y-37278880D01*
X120380678Y-37231261D01*
X120333059Y-37183642D01*
X120333059Y-37278880D01*
X119856869Y-37183642D02*
X119809250Y-37231261D01*
X119856869Y-37278880D01*
X119904488Y-37231261D01*
X119856869Y-37183642D01*
X119856869Y-37278880D01*
X145428297Y-37953880D02*
X145428297Y-38191976D01*
X145666392Y-38096738D02*
X145428297Y-38191976D01*
X145190202Y-38096738D01*
X145571154Y-38382452D02*
X145428297Y-38191976D01*
X145285440Y-38382452D01*
X144047345Y-38430071D02*
X143714011Y-38430071D01*
X143571154Y-38953880D02*
X144047345Y-38953880D01*
X144047345Y-37953880D01*
X143571154Y-37953880D01*
X142761630Y-38906261D02*
X142856869Y-38953880D01*
X143047345Y-38953880D01*
X143142583Y-38906261D01*
X143190202Y-38811023D01*
X143190202Y-38430071D01*
X143142583Y-38334833D01*
X143047345Y-38287214D01*
X142856869Y-38287214D01*
X142761630Y-38334833D01*
X142714011Y-38430071D01*
X142714011Y-38525309D01*
X143190202Y-38620547D01*
X142285440Y-38287214D02*
X142285440Y-39287214D01*
X142285440Y-38334833D02*
X142190202Y-38287214D01*
X141999726Y-38287214D01*
X141904488Y-38334833D01*
X141856869Y-38382452D01*
X141809250Y-38477690D01*
X141809250Y-38763404D01*
X141856869Y-38858642D01*
X141904488Y-38906261D01*
X141999726Y-38953880D01*
X142190202Y-38953880D01*
X142285440Y-38906261D01*
X141380678Y-38953880D02*
X141380678Y-38287214D01*
X141380678Y-38477690D02*
X141333059Y-38382452D01*
X141285440Y-38334833D01*
X141190202Y-38287214D01*
X141094964Y-38287214D01*
X140618773Y-38953880D02*
X140714011Y-38906261D01*
X140761630Y-38858642D01*
X140809250Y-38763404D01*
X140809250Y-38477690D01*
X140761630Y-38382452D01*
X140714011Y-38334833D01*
X140618773Y-38287214D01*
X140475916Y-38287214D01*
X140380678Y-38334833D01*
X140333059Y-38382452D01*
X140285440Y-38477690D01*
X140285440Y-38763404D01*
X140333059Y-38858642D01*
X140380678Y-38906261D01*
X140475916Y-38953880D01*
X140618773Y-38953880D01*
X139856869Y-38953880D02*
X139856869Y-38287214D01*
X139856869Y-38382452D02*
X139809250Y-38334833D01*
X139714011Y-38287214D01*
X139571154Y-38287214D01*
X139475916Y-38334833D01*
X139428297Y-38430071D01*
X139428297Y-38953880D01*
X139428297Y-38430071D02*
X139380678Y-38334833D01*
X139285440Y-38287214D01*
X139142583Y-38287214D01*
X139047345Y-38334833D01*
X138999726Y-38430071D01*
X138999726Y-38953880D01*
X137809250Y-38049119D02*
X137761630Y-38001500D01*
X137666392Y-37953880D01*
X137428297Y-37953880D01*
X137333059Y-38001500D01*
X137285440Y-38049119D01*
X137237821Y-38144357D01*
X137237821Y-38239595D01*
X137285440Y-38382452D01*
X137856869Y-38953880D01*
X137237821Y-38953880D01*
X136380678Y-38287214D02*
X136380678Y-38953880D01*
X136618773Y-37906261D02*
X136856869Y-38620547D01*
X136237821Y-38620547D01*
X135428297Y-38906261D02*
X135523535Y-38953880D01*
X135714011Y-38953880D01*
X135809250Y-38906261D01*
X135856869Y-38858642D01*
X135904488Y-38763404D01*
X135904488Y-38477690D01*
X135856869Y-38382452D01*
X135809250Y-38334833D01*
X135714011Y-38287214D01*
X135523535Y-38287214D01*
X135428297Y-38334833D01*
X135094964Y-37953880D02*
X134475916Y-37953880D01*
X134809250Y-38334833D01*
X134666392Y-38334833D01*
X134571154Y-38382452D01*
X134523535Y-38430071D01*
X134475916Y-38525309D01*
X134475916Y-38763404D01*
X134523535Y-38858642D01*
X134571154Y-38906261D01*
X134666392Y-38953880D01*
X134952107Y-38953880D01*
X135047345Y-38906261D01*
X135094964Y-38858642D01*
X134094964Y-38049119D02*
X134047345Y-38001500D01*
X133952107Y-37953880D01*
X133714011Y-37953880D01*
X133618773Y-38001500D01*
X133571154Y-38049119D01*
X133523535Y-38144357D01*
X133523535Y-38239595D01*
X133571154Y-38382452D01*
X134142583Y-38953880D01*
X133523535Y-38953880D01*
D11*
%TO.C,REF\u002A\u002A*%
G36*
X146581090Y-82967348D02*
G01*
X146502546Y-82967778D01*
X146445702Y-82968942D01*
X146406895Y-82971207D01*
X146382462Y-82974940D01*
X146368738Y-82980506D01*
X146362060Y-82988273D01*
X146358764Y-82998605D01*
X146358444Y-82999943D01*
X146353438Y-83024079D01*
X146344171Y-83071701D01*
X146331608Y-83137741D01*
X146316713Y-83217128D01*
X146300449Y-83304796D01*
X146299881Y-83307875D01*
X146283590Y-83393789D01*
X146268348Y-83469696D01*
X146255139Y-83531045D01*
X146244946Y-83573282D01*
X146238752Y-83591855D01*
X146238457Y-83592184D01*
X146220212Y-83601253D01*
X146182595Y-83616367D01*
X146133729Y-83634262D01*
X146133457Y-83634358D01*
X146071907Y-83657493D01*
X145999343Y-83686965D01*
X145930943Y-83716597D01*
X145927706Y-83718062D01*
X145816298Y-83768626D01*
X145569601Y-83600160D01*
X145493923Y-83548803D01*
X145425369Y-83502889D01*
X145367912Y-83465030D01*
X145325524Y-83437837D01*
X145302175Y-83423921D01*
X145299958Y-83422889D01*
X145282990Y-83427484D01*
X145251299Y-83449655D01*
X145203648Y-83490447D01*
X145138802Y-83550905D01*
X145072603Y-83615227D01*
X145008786Y-83678612D01*
X144951671Y-83736451D01*
X144904695Y-83785175D01*
X144871297Y-83821210D01*
X144854915Y-83840984D01*
X144854306Y-83842002D01*
X144852495Y-83855572D01*
X144859317Y-83877733D01*
X144876460Y-83911478D01*
X144905607Y-83959800D01*
X144948445Y-84025692D01*
X145005552Y-84110517D01*
X145056234Y-84185177D01*
X145101539Y-84252140D01*
X145138850Y-84307516D01*
X145165548Y-84347420D01*
X145179015Y-84367962D01*
X145179863Y-84369356D01*
X145178219Y-84389038D01*
X145165755Y-84427293D01*
X145144952Y-84476889D01*
X145137538Y-84492728D01*
X145105186Y-84563290D01*
X145070672Y-84643353D01*
X145042635Y-84712629D01*
X145022432Y-84764045D01*
X145006385Y-84803119D01*
X144997112Y-84823541D01*
X144995959Y-84825114D01*
X144978904Y-84827721D01*
X144938702Y-84834863D01*
X144880698Y-84845523D01*
X144810237Y-84858685D01*
X144732665Y-84873333D01*
X144653328Y-84888449D01*
X144577569Y-84903018D01*
X144510736Y-84916022D01*
X144458172Y-84926445D01*
X144425224Y-84933270D01*
X144417143Y-84935199D01*
X144408795Y-84939962D01*
X144402494Y-84950718D01*
X144397955Y-84971098D01*
X144394896Y-85004734D01*
X144393033Y-85055255D01*
X144392082Y-85126292D01*
X144391760Y-85221476D01*
X144391743Y-85260492D01*
X144391743Y-85577799D01*
X144467943Y-85592839D01*
X144510337Y-85600995D01*
X144573600Y-85612899D01*
X144650038Y-85627116D01*
X144731957Y-85642210D01*
X144754600Y-85646355D01*
X144830194Y-85661053D01*
X144896047Y-85675505D01*
X144946634Y-85688375D01*
X144976426Y-85698322D01*
X144981388Y-85701287D01*
X144993574Y-85722283D01*
X145011047Y-85762967D01*
X145030423Y-85815322D01*
X145034266Y-85826600D01*
X145059661Y-85896523D01*
X145091183Y-85975418D01*
X145122031Y-86046266D01*
X145122183Y-86046595D01*
X145173553Y-86157733D01*
X145004601Y-86406253D01*
X144835648Y-86654772D01*
X145052571Y-86872058D01*
X145118181Y-86936726D01*
X145178021Y-86993733D01*
X145228733Y-87040033D01*
X145266954Y-87072584D01*
X145289325Y-87088343D01*
X145292534Y-87089343D01*
X145311374Y-87081469D01*
X145349820Y-87059578D01*
X145403670Y-87026267D01*
X145468724Y-86984131D01*
X145539060Y-86936943D01*
X145610445Y-86888810D01*
X145674092Y-86846928D01*
X145725959Y-86813871D01*
X145762005Y-86792218D01*
X145778133Y-86784543D01*
X145797811Y-86791037D01*
X145835125Y-86808150D01*
X145882379Y-86832326D01*
X145887388Y-86835013D01*
X145951023Y-86866927D01*
X145994659Y-86882579D01*
X146021798Y-86882745D01*
X146035943Y-86868204D01*
X146036025Y-86868000D01*
X146043095Y-86850779D01*
X146059958Y-86809899D01*
X146085305Y-86748525D01*
X146117829Y-86669819D01*
X146156222Y-86576947D01*
X146199178Y-86473072D01*
X146240778Y-86372502D01*
X146286496Y-86261516D01*
X146328474Y-86158703D01*
X146365452Y-86067215D01*
X146396173Y-85990201D01*
X146419378Y-85930815D01*
X146433810Y-85892209D01*
X146438257Y-85877800D01*
X146427104Y-85861272D01*
X146397931Y-85834930D01*
X146359029Y-85805887D01*
X146248243Y-85714039D01*
X146161649Y-85608759D01*
X146100284Y-85492266D01*
X146065185Y-85366776D01*
X146057392Y-85234507D01*
X146063057Y-85173457D01*
X146093922Y-85046795D01*
X146147080Y-84934941D01*
X146219233Y-84839001D01*
X146307083Y-84760076D01*
X146407335Y-84699270D01*
X146516690Y-84657687D01*
X146631853Y-84636428D01*
X146749525Y-84636599D01*
X146866410Y-84659301D01*
X146979211Y-84705638D01*
X147084631Y-84776713D01*
X147128632Y-84816911D01*
X147213021Y-84920129D01*
X147271778Y-85032925D01*
X147305296Y-85152010D01*
X147313965Y-85274095D01*
X147298177Y-85395893D01*
X147258322Y-85514116D01*
X147194793Y-85625475D01*
X147107979Y-85726684D01*
X147010971Y-85805887D01*
X146970563Y-85836162D01*
X146942018Y-85862219D01*
X146931743Y-85877825D01*
X146937123Y-85894843D01*
X146952425Y-85935500D01*
X146976388Y-85996642D01*
X147007756Y-86075119D01*
X147045268Y-86167780D01*
X147087667Y-86271472D01*
X147129337Y-86372526D01*
X147175310Y-86483607D01*
X147217893Y-86586541D01*
X147255779Y-86678165D01*
X147287660Y-86755316D01*
X147312229Y-86814831D01*
X147328180Y-86853544D01*
X147334090Y-86868000D01*
X147348052Y-86882685D01*
X147375060Y-86882642D01*
X147418587Y-86867099D01*
X147482110Y-86835284D01*
X147482612Y-86835013D01*
X147530440Y-86810323D01*
X147569103Y-86792338D01*
X147590905Y-86784614D01*
X147591867Y-86784543D01*
X147608279Y-86792378D01*
X147644513Y-86814165D01*
X147696526Y-86847328D01*
X147760275Y-86889291D01*
X147830940Y-86936943D01*
X147902884Y-86985191D01*
X147967726Y-87027151D01*
X148021265Y-87060227D01*
X148059303Y-87081821D01*
X148077467Y-87089343D01*
X148094192Y-87079457D01*
X148127820Y-87051826D01*
X148174990Y-87009495D01*
X148232342Y-86955505D01*
X148296516Y-86892899D01*
X148317503Y-86871983D01*
X148534501Y-86654623D01*
X148369332Y-86412220D01*
X148319136Y-86337781D01*
X148275081Y-86270972D01*
X148239638Y-86215665D01*
X148215281Y-86175729D01*
X148204478Y-86155036D01*
X148204162Y-86153563D01*
X148209857Y-86134058D01*
X148225174Y-86094822D01*
X148247463Y-86042430D01*
X148263107Y-86007355D01*
X148292359Y-85940201D01*
X148319906Y-85872358D01*
X148341263Y-85815034D01*
X148347065Y-85797572D01*
X148363548Y-85750938D01*
X148379660Y-85714905D01*
X148388510Y-85701287D01*
X148408040Y-85692952D01*
X148450666Y-85681137D01*
X148510855Y-85667181D01*
X148583078Y-85652422D01*
X148615400Y-85646355D01*
X148697478Y-85631273D01*
X148776205Y-85616669D01*
X148843891Y-85603980D01*
X148892840Y-85594642D01*
X148902057Y-85592839D01*
X148978257Y-85577799D01*
X148978257Y-85260492D01*
X148978086Y-85156154D01*
X148977384Y-85077213D01*
X148975866Y-85020038D01*
X148973251Y-84980999D01*
X148969254Y-84956465D01*
X148963591Y-84942805D01*
X148955980Y-84936389D01*
X148952857Y-84935199D01*
X148934022Y-84930980D01*
X148892412Y-84922562D01*
X148833370Y-84910961D01*
X148762243Y-84897195D01*
X148684375Y-84882280D01*
X148605113Y-84867232D01*
X148529802Y-84853069D01*
X148463787Y-84840806D01*
X148412413Y-84831461D01*
X148381025Y-84826050D01*
X148374041Y-84825114D01*
X148367715Y-84812596D01*
X148353710Y-84779246D01*
X148334645Y-84731377D01*
X148327366Y-84712629D01*
X148298004Y-84640195D01*
X148263429Y-84560170D01*
X148232463Y-84492728D01*
X148209677Y-84441159D01*
X148194518Y-84398785D01*
X148189458Y-84372834D01*
X148190264Y-84369356D01*
X148200959Y-84352936D01*
X148225380Y-84316417D01*
X148260905Y-84263687D01*
X148304913Y-84198635D01*
X148354783Y-84125151D01*
X148364644Y-84110645D01*
X148422508Y-84024704D01*
X148465044Y-83959261D01*
X148493946Y-83911304D01*
X148510910Y-83877820D01*
X148517633Y-83855795D01*
X148515810Y-83842217D01*
X148515764Y-83842131D01*
X148501414Y-83824297D01*
X148469677Y-83789817D01*
X148423990Y-83742268D01*
X148367796Y-83685222D01*
X148304532Y-83622255D01*
X148297398Y-83615227D01*
X148217670Y-83538020D01*
X148156143Y-83481330D01*
X148111579Y-83444110D01*
X148082743Y-83425315D01*
X148070042Y-83422889D01*
X148051506Y-83433471D01*
X148013039Y-83457916D01*
X147958614Y-83493612D01*
X147892202Y-83537947D01*
X147817775Y-83588311D01*
X147800399Y-83600160D01*
X147553703Y-83768626D01*
X147442294Y-83718062D01*
X147374543Y-83688595D01*
X147301817Y-83658959D01*
X147239297Y-83635330D01*
X147236543Y-83634358D01*
X147187640Y-83616457D01*
X147149943Y-83601320D01*
X147131575Y-83592210D01*
X147131544Y-83592184D01*
X147125715Y-83575717D01*
X147115808Y-83535219D01*
X147102805Y-83475242D01*
X147087691Y-83400340D01*
X147071448Y-83315064D01*
X147070119Y-83307875D01*
X147053825Y-83220014D01*
X147038867Y-83140260D01*
X147026209Y-83073681D01*
X147016814Y-83025347D01*
X147011646Y-83000325D01*
X147011556Y-82999943D01*
X147008411Y-82989299D01*
X147002296Y-82981262D01*
X146989547Y-82975467D01*
X146966500Y-82971547D01*
X146929491Y-82969135D01*
X146874856Y-82967865D01*
X146798933Y-82967371D01*
X146698056Y-82967286D01*
X146685000Y-82967286D01*
X146581090Y-82967348D01*
G37*
X146581090Y-82967348D02*
X146502546Y-82967778D01*
X146445702Y-82968942D01*
X146406895Y-82971207D01*
X146382462Y-82974940D01*
X146368738Y-82980506D01*
X146362060Y-82988273D01*
X146358764Y-82998605D01*
X146358444Y-82999943D01*
X146353438Y-83024079D01*
X146344171Y-83071701D01*
X146331608Y-83137741D01*
X146316713Y-83217128D01*
X146300449Y-83304796D01*
X146299881Y-83307875D01*
X146283590Y-83393789D01*
X146268348Y-83469696D01*
X146255139Y-83531045D01*
X146244946Y-83573282D01*
X146238752Y-83591855D01*
X146238457Y-83592184D01*
X146220212Y-83601253D01*
X146182595Y-83616367D01*
X146133729Y-83634262D01*
X146133457Y-83634358D01*
X146071907Y-83657493D01*
X145999343Y-83686965D01*
X145930943Y-83716597D01*
X145927706Y-83718062D01*
X145816298Y-83768626D01*
X145569601Y-83600160D01*
X145493923Y-83548803D01*
X145425369Y-83502889D01*
X145367912Y-83465030D01*
X145325524Y-83437837D01*
X145302175Y-83423921D01*
X145299958Y-83422889D01*
X145282990Y-83427484D01*
X145251299Y-83449655D01*
X145203648Y-83490447D01*
X145138802Y-83550905D01*
X145072603Y-83615227D01*
X145008786Y-83678612D01*
X144951671Y-83736451D01*
X144904695Y-83785175D01*
X144871297Y-83821210D01*
X144854915Y-83840984D01*
X144854306Y-83842002D01*
X144852495Y-83855572D01*
X144859317Y-83877733D01*
X144876460Y-83911478D01*
X144905607Y-83959800D01*
X144948445Y-84025692D01*
X145005552Y-84110517D01*
X145056234Y-84185177D01*
X145101539Y-84252140D01*
X145138850Y-84307516D01*
X145165548Y-84347420D01*
X145179015Y-84367962D01*
X145179863Y-84369356D01*
X145178219Y-84389038D01*
X145165755Y-84427293D01*
X145144952Y-84476889D01*
X145137538Y-84492728D01*
X145105186Y-84563290D01*
X145070672Y-84643353D01*
X145042635Y-84712629D01*
X145022432Y-84764045D01*
X145006385Y-84803119D01*
X144997112Y-84823541D01*
X144995959Y-84825114D01*
X144978904Y-84827721D01*
X144938702Y-84834863D01*
X144880698Y-84845523D01*
X144810237Y-84858685D01*
X144732665Y-84873333D01*
X144653328Y-84888449D01*
X144577569Y-84903018D01*
X144510736Y-84916022D01*
X144458172Y-84926445D01*
X144425224Y-84933270D01*
X144417143Y-84935199D01*
X144408795Y-84939962D01*
X144402494Y-84950718D01*
X144397955Y-84971098D01*
X144394896Y-85004734D01*
X144393033Y-85055255D01*
X144392082Y-85126292D01*
X144391760Y-85221476D01*
X144391743Y-85260492D01*
X144391743Y-85577799D01*
X144467943Y-85592839D01*
X144510337Y-85600995D01*
X144573600Y-85612899D01*
X144650038Y-85627116D01*
X144731957Y-85642210D01*
X144754600Y-85646355D01*
X144830194Y-85661053D01*
X144896047Y-85675505D01*
X144946634Y-85688375D01*
X144976426Y-85698322D01*
X144981388Y-85701287D01*
X144993574Y-85722283D01*
X145011047Y-85762967D01*
X145030423Y-85815322D01*
X145034266Y-85826600D01*
X145059661Y-85896523D01*
X145091183Y-85975418D01*
X145122031Y-86046266D01*
X145122183Y-86046595D01*
X145173553Y-86157733D01*
X145004601Y-86406253D01*
X144835648Y-86654772D01*
X145052571Y-86872058D01*
X145118181Y-86936726D01*
X145178021Y-86993733D01*
X145228733Y-87040033D01*
X145266954Y-87072584D01*
X145289325Y-87088343D01*
X145292534Y-87089343D01*
X145311374Y-87081469D01*
X145349820Y-87059578D01*
X145403670Y-87026267D01*
X145468724Y-86984131D01*
X145539060Y-86936943D01*
X145610445Y-86888810D01*
X145674092Y-86846928D01*
X145725959Y-86813871D01*
X145762005Y-86792218D01*
X145778133Y-86784543D01*
X145797811Y-86791037D01*
X145835125Y-86808150D01*
X145882379Y-86832326D01*
X145887388Y-86835013D01*
X145951023Y-86866927D01*
X145994659Y-86882579D01*
X146021798Y-86882745D01*
X146035943Y-86868204D01*
X146036025Y-86868000D01*
X146043095Y-86850779D01*
X146059958Y-86809899D01*
X146085305Y-86748525D01*
X146117829Y-86669819D01*
X146156222Y-86576947D01*
X146199178Y-86473072D01*
X146240778Y-86372502D01*
X146286496Y-86261516D01*
X146328474Y-86158703D01*
X146365452Y-86067215D01*
X146396173Y-85990201D01*
X146419378Y-85930815D01*
X146433810Y-85892209D01*
X146438257Y-85877800D01*
X146427104Y-85861272D01*
X146397931Y-85834930D01*
X146359029Y-85805887D01*
X146248243Y-85714039D01*
X146161649Y-85608759D01*
X146100284Y-85492266D01*
X146065185Y-85366776D01*
X146057392Y-85234507D01*
X146063057Y-85173457D01*
X146093922Y-85046795D01*
X146147080Y-84934941D01*
X146219233Y-84839001D01*
X146307083Y-84760076D01*
X146407335Y-84699270D01*
X146516690Y-84657687D01*
X146631853Y-84636428D01*
X146749525Y-84636599D01*
X146866410Y-84659301D01*
X146979211Y-84705638D01*
X147084631Y-84776713D01*
X147128632Y-84816911D01*
X147213021Y-84920129D01*
X147271778Y-85032925D01*
X147305296Y-85152010D01*
X147313965Y-85274095D01*
X147298177Y-85395893D01*
X147258322Y-85514116D01*
X147194793Y-85625475D01*
X147107979Y-85726684D01*
X147010971Y-85805887D01*
X146970563Y-85836162D01*
X146942018Y-85862219D01*
X146931743Y-85877825D01*
X146937123Y-85894843D01*
X146952425Y-85935500D01*
X146976388Y-85996642D01*
X147007756Y-86075119D01*
X147045268Y-86167780D01*
X147087667Y-86271472D01*
X147129337Y-86372526D01*
X147175310Y-86483607D01*
X147217893Y-86586541D01*
X147255779Y-86678165D01*
X147287660Y-86755316D01*
X147312229Y-86814831D01*
X147328180Y-86853544D01*
X147334090Y-86868000D01*
X147348052Y-86882685D01*
X147375060Y-86882642D01*
X147418587Y-86867099D01*
X147482110Y-86835284D01*
X147482612Y-86835013D01*
X147530440Y-86810323D01*
X147569103Y-86792338D01*
X147590905Y-86784614D01*
X147591867Y-86784543D01*
X147608279Y-86792378D01*
X147644513Y-86814165D01*
X147696526Y-86847328D01*
X147760275Y-86889291D01*
X147830940Y-86936943D01*
X147902884Y-86985191D01*
X147967726Y-87027151D01*
X148021265Y-87060227D01*
X148059303Y-87081821D01*
X148077467Y-87089343D01*
X148094192Y-87079457D01*
X148127820Y-87051826D01*
X148174990Y-87009495D01*
X148232342Y-86955505D01*
X148296516Y-86892899D01*
X148317503Y-86871983D01*
X148534501Y-86654623D01*
X148369332Y-86412220D01*
X148319136Y-86337781D01*
X148275081Y-86270972D01*
X148239638Y-86215665D01*
X148215281Y-86175729D01*
X148204478Y-86155036D01*
X148204162Y-86153563D01*
X148209857Y-86134058D01*
X148225174Y-86094822D01*
X148247463Y-86042430D01*
X148263107Y-86007355D01*
X148292359Y-85940201D01*
X148319906Y-85872358D01*
X148341263Y-85815034D01*
X148347065Y-85797572D01*
X148363548Y-85750938D01*
X148379660Y-85714905D01*
X148388510Y-85701287D01*
X148408040Y-85692952D01*
X148450666Y-85681137D01*
X148510855Y-85667181D01*
X148583078Y-85652422D01*
X148615400Y-85646355D01*
X148697478Y-85631273D01*
X148776205Y-85616669D01*
X148843891Y-85603980D01*
X148892840Y-85594642D01*
X148902057Y-85592839D01*
X148978257Y-85577799D01*
X148978257Y-85260492D01*
X148978086Y-85156154D01*
X148977384Y-85077213D01*
X148975866Y-85020038D01*
X148973251Y-84980999D01*
X148969254Y-84956465D01*
X148963591Y-84942805D01*
X148955980Y-84936389D01*
X148952857Y-84935199D01*
X148934022Y-84930980D01*
X148892412Y-84922562D01*
X148833370Y-84910961D01*
X148762243Y-84897195D01*
X148684375Y-84882280D01*
X148605113Y-84867232D01*
X148529802Y-84853069D01*
X148463787Y-84840806D01*
X148412413Y-84831461D01*
X148381025Y-84826050D01*
X148374041Y-84825114D01*
X148367715Y-84812596D01*
X148353710Y-84779246D01*
X148334645Y-84731377D01*
X148327366Y-84712629D01*
X148298004Y-84640195D01*
X148263429Y-84560170D01*
X148232463Y-84492728D01*
X148209677Y-84441159D01*
X148194518Y-84398785D01*
X148189458Y-84372834D01*
X148190264Y-84369356D01*
X148200959Y-84352936D01*
X148225380Y-84316417D01*
X148260905Y-84263687D01*
X148304913Y-84198635D01*
X148354783Y-84125151D01*
X148364644Y-84110645D01*
X148422508Y-84024704D01*
X148465044Y-83959261D01*
X148493946Y-83911304D01*
X148510910Y-83877820D01*
X148517633Y-83855795D01*
X148515810Y-83842217D01*
X148515764Y-83842131D01*
X148501414Y-83824297D01*
X148469677Y-83789817D01*
X148423990Y-83742268D01*
X148367796Y-83685222D01*
X148304532Y-83622255D01*
X148297398Y-83615227D01*
X148217670Y-83538020D01*
X148156143Y-83481330D01*
X148111579Y-83444110D01*
X148082743Y-83425315D01*
X148070042Y-83422889D01*
X148051506Y-83433471D01*
X148013039Y-83457916D01*
X147958614Y-83493612D01*
X147892202Y-83537947D01*
X147817775Y-83588311D01*
X147800399Y-83600160D01*
X147553703Y-83768626D01*
X147442294Y-83718062D01*
X147374543Y-83688595D01*
X147301817Y-83658959D01*
X147239297Y-83635330D01*
X147236543Y-83634358D01*
X147187640Y-83616457D01*
X147149943Y-83601320D01*
X147131575Y-83592210D01*
X147131544Y-83592184D01*
X147125715Y-83575717D01*
X147115808Y-83535219D01*
X147102805Y-83475242D01*
X147087691Y-83400340D01*
X147071448Y-83315064D01*
X147070119Y-83307875D01*
X147053825Y-83220014D01*
X147038867Y-83140260D01*
X147026209Y-83073681D01*
X147016814Y-83025347D01*
X147011646Y-83000325D01*
X147011556Y-82999943D01*
X147008411Y-82989299D01*
X147002296Y-82981262D01*
X146989547Y-82975467D01*
X146966500Y-82971547D01*
X146929491Y-82969135D01*
X146874856Y-82967865D01*
X146798933Y-82967371D01*
X146698056Y-82967286D01*
X146685000Y-82967286D01*
X146581090Y-82967348D01*
G36*
X143531405Y-87691966D02*
G01*
X143473979Y-87729497D01*
X143446281Y-87763096D01*
X143424338Y-87824064D01*
X143422595Y-87872308D01*
X143426543Y-87936816D01*
X143575314Y-88001934D01*
X143647651Y-88035202D01*
X143694916Y-88061964D01*
X143719493Y-88085144D01*
X143723763Y-88107667D01*
X143710111Y-88132455D01*
X143695057Y-88148886D01*
X143651254Y-88175235D01*
X143603611Y-88177081D01*
X143559855Y-88156546D01*
X143527711Y-88115752D01*
X143521962Y-88101347D01*
X143494424Y-88056356D01*
X143462742Y-88037182D01*
X143419286Y-88020779D01*
X143419286Y-88082966D01*
X143423128Y-88125283D01*
X143438177Y-88160969D01*
X143469720Y-88201943D01*
X143474408Y-88207267D01*
X143509494Y-88243720D01*
X143539653Y-88263283D01*
X143577385Y-88272283D01*
X143608665Y-88275230D01*
X143664615Y-88275965D01*
X143704445Y-88266660D01*
X143729292Y-88252846D01*
X143768344Y-88222467D01*
X143795375Y-88189613D01*
X143812483Y-88148294D01*
X143821762Y-88092521D01*
X143825307Y-88016305D01*
X143825590Y-87977622D01*
X143824628Y-87931247D01*
X143736993Y-87931247D01*
X143735977Y-87956126D01*
X143733444Y-87960200D01*
X143716726Y-87954665D01*
X143680751Y-87940017D01*
X143632669Y-87919190D01*
X143622614Y-87914714D01*
X143561848Y-87883814D01*
X143528368Y-87856657D01*
X143521010Y-87831220D01*
X143538609Y-87805481D01*
X143553144Y-87794109D01*
X143605590Y-87771364D01*
X143654678Y-87775122D01*
X143695773Y-87802884D01*
X143724242Y-87852152D01*
X143733369Y-87891257D01*
X143736993Y-87931247D01*
X143824628Y-87931247D01*
X143823715Y-87887249D01*
X143816804Y-87820384D01*
X143803116Y-87771695D01*
X143780904Y-87735849D01*
X143748426Y-87707513D01*
X143734267Y-87698355D01*
X143669947Y-87674507D01*
X143599527Y-87673006D01*
X143531405Y-87691966D01*
G37*
X143531405Y-87691966D02*
X143473979Y-87729497D01*
X143446281Y-87763096D01*
X143424338Y-87824064D01*
X143422595Y-87872308D01*
X143426543Y-87936816D01*
X143575314Y-88001934D01*
X143647651Y-88035202D01*
X143694916Y-88061964D01*
X143719493Y-88085144D01*
X143723763Y-88107667D01*
X143710111Y-88132455D01*
X143695057Y-88148886D01*
X143651254Y-88175235D01*
X143603611Y-88177081D01*
X143559855Y-88156546D01*
X143527711Y-88115752D01*
X143521962Y-88101347D01*
X143494424Y-88056356D01*
X143462742Y-88037182D01*
X143419286Y-88020779D01*
X143419286Y-88082966D01*
X143423128Y-88125283D01*
X143438177Y-88160969D01*
X143469720Y-88201943D01*
X143474408Y-88207267D01*
X143509494Y-88243720D01*
X143539653Y-88263283D01*
X143577385Y-88272283D01*
X143608665Y-88275230D01*
X143664615Y-88275965D01*
X143704445Y-88266660D01*
X143729292Y-88252846D01*
X143768344Y-88222467D01*
X143795375Y-88189613D01*
X143812483Y-88148294D01*
X143821762Y-88092521D01*
X143825307Y-88016305D01*
X143825590Y-87977622D01*
X143824628Y-87931247D01*
X143736993Y-87931247D01*
X143735977Y-87956126D01*
X143733444Y-87960200D01*
X143716726Y-87954665D01*
X143680751Y-87940017D01*
X143632669Y-87919190D01*
X143622614Y-87914714D01*
X143561848Y-87883814D01*
X143528368Y-87856657D01*
X143521010Y-87831220D01*
X143538609Y-87805481D01*
X143553144Y-87794109D01*
X143605590Y-87771364D01*
X143654678Y-87775122D01*
X143695773Y-87802884D01*
X143724242Y-87852152D01*
X143733369Y-87891257D01*
X143736993Y-87931247D01*
X143824628Y-87931247D01*
X143823715Y-87887249D01*
X143816804Y-87820384D01*
X143803116Y-87771695D01*
X143780904Y-87735849D01*
X143748426Y-87707513D01*
X143734267Y-87698355D01*
X143669947Y-87674507D01*
X143599527Y-87673006D01*
X143531405Y-87691966D01*
G36*
X144032400Y-87683752D02*
G01*
X144015052Y-87691334D01*
X143973644Y-87724128D01*
X143938235Y-87771547D01*
X143916336Y-87822151D01*
X143912771Y-87847098D01*
X143924721Y-87881927D01*
X143950933Y-87900357D01*
X143979036Y-87911516D01*
X143991905Y-87913572D01*
X143998171Y-87898649D01*
X144010544Y-87866175D01*
X144015972Y-87851502D01*
X144046410Y-87800744D01*
X144090480Y-87775427D01*
X144146990Y-87776206D01*
X144151175Y-87777203D01*
X144181345Y-87791507D01*
X144203524Y-87819393D01*
X144218673Y-87864287D01*
X144227750Y-87929615D01*
X144231714Y-88018804D01*
X144232086Y-88066261D01*
X144232270Y-88141071D01*
X144233478Y-88192069D01*
X144236691Y-88224471D01*
X144242891Y-88243495D01*
X144253060Y-88254356D01*
X144268181Y-88262272D01*
X144269054Y-88262670D01*
X144298172Y-88274981D01*
X144312597Y-88279514D01*
X144314814Y-88265809D01*
X144316711Y-88227925D01*
X144318153Y-88170715D01*
X144319002Y-88099027D01*
X144319171Y-88046565D01*
X144318308Y-87945047D01*
X144314930Y-87868032D01*
X144307858Y-87811023D01*
X144295912Y-87769526D01*
X144277910Y-87739043D01*
X144252673Y-87715080D01*
X144227753Y-87698355D01*
X144167829Y-87676097D01*
X144098089Y-87671076D01*
X144032400Y-87683752D01*
G37*
X144032400Y-87683752D02*
X144015052Y-87691334D01*
X143973644Y-87724128D01*
X143938235Y-87771547D01*
X143916336Y-87822151D01*
X143912771Y-87847098D01*
X143924721Y-87881927D01*
X143950933Y-87900357D01*
X143979036Y-87911516D01*
X143991905Y-87913572D01*
X143998171Y-87898649D01*
X144010544Y-87866175D01*
X144015972Y-87851502D01*
X144046410Y-87800744D01*
X144090480Y-87775427D01*
X144146990Y-87776206D01*
X144151175Y-87777203D01*
X144181345Y-87791507D01*
X144203524Y-87819393D01*
X144218673Y-87864287D01*
X144227750Y-87929615D01*
X144231714Y-88018804D01*
X144232086Y-88066261D01*
X144232270Y-88141071D01*
X144233478Y-88192069D01*
X144236691Y-88224471D01*
X144242891Y-88243495D01*
X144253060Y-88254356D01*
X144268181Y-88262272D01*
X144269054Y-88262670D01*
X144298172Y-88274981D01*
X144312597Y-88279514D01*
X144314814Y-88265809D01*
X144316711Y-88227925D01*
X144318153Y-88170715D01*
X144319002Y-88099027D01*
X144319171Y-88046565D01*
X144318308Y-87945047D01*
X144314930Y-87868032D01*
X144307858Y-87811023D01*
X144295912Y-87769526D01*
X144277910Y-87739043D01*
X144252673Y-87715080D01*
X144227753Y-87698355D01*
X144167829Y-87676097D01*
X144098089Y-87671076D01*
X144032400Y-87683752D01*
G36*
X144540124Y-87681335D02*
G01*
X144498333Y-87700344D01*
X144465531Y-87723378D01*
X144441497Y-87749133D01*
X144424903Y-87782358D01*
X144414423Y-87827800D01*
X144408729Y-87890207D01*
X144406493Y-87974327D01*
X144406257Y-88029721D01*
X144406257Y-88245826D01*
X144443226Y-88262670D01*
X144472344Y-88274981D01*
X144486769Y-88279514D01*
X144489528Y-88266025D01*
X144491718Y-88229653D01*
X144493058Y-88176542D01*
X144493343Y-88134372D01*
X144494566Y-88073447D01*
X144497864Y-88025115D01*
X144502679Y-87995518D01*
X144506504Y-87989229D01*
X144532217Y-87995652D01*
X144572582Y-88012125D01*
X144619321Y-88034458D01*
X144664155Y-88058457D01*
X144698807Y-88079930D01*
X144714998Y-88094685D01*
X144715062Y-88094845D01*
X144713670Y-88122152D01*
X144701182Y-88148219D01*
X144679257Y-88169392D01*
X144647257Y-88176474D01*
X144619908Y-88175649D01*
X144581174Y-88175042D01*
X144560842Y-88184116D01*
X144548631Y-88208092D01*
X144547091Y-88212613D01*
X144541797Y-88246806D01*
X144555953Y-88267568D01*
X144592852Y-88277462D01*
X144632711Y-88279292D01*
X144704438Y-88265727D01*
X144741568Y-88246355D01*
X144787424Y-88200845D01*
X144811744Y-88144983D01*
X144813927Y-88085957D01*
X144793371Y-88030953D01*
X144762451Y-87996486D01*
X144731580Y-87977189D01*
X144683058Y-87952759D01*
X144626515Y-87927985D01*
X144617090Y-87924199D01*
X144554981Y-87896791D01*
X144519178Y-87872634D01*
X144507663Y-87848619D01*
X144518420Y-87821635D01*
X144536886Y-87800543D01*
X144580531Y-87774572D01*
X144628554Y-87772624D01*
X144672594Y-87792637D01*
X144704291Y-87832551D01*
X144708451Y-87842848D01*
X144732673Y-87880724D01*
X144768035Y-87908842D01*
X144812657Y-87931917D01*
X144812657Y-87866485D01*
X144810031Y-87826506D01*
X144798770Y-87794997D01*
X144773801Y-87761378D01*
X144749831Y-87735484D01*
X144712559Y-87698817D01*
X144683599Y-87679121D01*
X144652495Y-87671220D01*
X144617287Y-87669914D01*
X144540124Y-87681335D01*
G37*
X144540124Y-87681335D02*
X144498333Y-87700344D01*
X144465531Y-87723378D01*
X144441497Y-87749133D01*
X144424903Y-87782358D01*
X144414423Y-87827800D01*
X144408729Y-87890207D01*
X144406493Y-87974327D01*
X144406257Y-88029721D01*
X144406257Y-88245826D01*
X144443226Y-88262670D01*
X144472344Y-88274981D01*
X144486769Y-88279514D01*
X144489528Y-88266025D01*
X144491718Y-88229653D01*
X144493058Y-88176542D01*
X144493343Y-88134372D01*
X144494566Y-88073447D01*
X144497864Y-88025115D01*
X144502679Y-87995518D01*
X144506504Y-87989229D01*
X144532217Y-87995652D01*
X144572582Y-88012125D01*
X144619321Y-88034458D01*
X144664155Y-88058457D01*
X144698807Y-88079930D01*
X144714998Y-88094685D01*
X144715062Y-88094845D01*
X144713670Y-88122152D01*
X144701182Y-88148219D01*
X144679257Y-88169392D01*
X144647257Y-88176474D01*
X144619908Y-88175649D01*
X144581174Y-88175042D01*
X144560842Y-88184116D01*
X144548631Y-88208092D01*
X144547091Y-88212613D01*
X144541797Y-88246806D01*
X144555953Y-88267568D01*
X144592852Y-88277462D01*
X144632711Y-88279292D01*
X144704438Y-88265727D01*
X144741568Y-88246355D01*
X144787424Y-88200845D01*
X144811744Y-88144983D01*
X144813927Y-88085957D01*
X144793371Y-88030953D01*
X144762451Y-87996486D01*
X144731580Y-87977189D01*
X144683058Y-87952759D01*
X144626515Y-87927985D01*
X144617090Y-87924199D01*
X144554981Y-87896791D01*
X144519178Y-87872634D01*
X144507663Y-87848619D01*
X144518420Y-87821635D01*
X144536886Y-87800543D01*
X144580531Y-87774572D01*
X144628554Y-87772624D01*
X144672594Y-87792637D01*
X144704291Y-87832551D01*
X144708451Y-87842848D01*
X144732673Y-87880724D01*
X144768035Y-87908842D01*
X144812657Y-87931917D01*
X144812657Y-87866485D01*
X144810031Y-87826506D01*
X144798770Y-87794997D01*
X144773801Y-87761378D01*
X144749831Y-87735484D01*
X144712559Y-87698817D01*
X144683599Y-87679121D01*
X144652495Y-87671220D01*
X144617287Y-87669914D01*
X144540124Y-87681335D01*
G36*
X144905167Y-87683663D02*
G01*
X144902952Y-87721850D01*
X144901216Y-87779886D01*
X144900101Y-87853180D01*
X144899743Y-87930055D01*
X144899743Y-88190196D01*
X144945674Y-88236127D01*
X144977325Y-88264429D01*
X145005110Y-88275893D01*
X145043085Y-88275168D01*
X145058160Y-88273321D01*
X145105274Y-88267948D01*
X145144244Y-88264869D01*
X145153743Y-88264585D01*
X145185767Y-88266445D01*
X145231568Y-88271114D01*
X145249326Y-88273321D01*
X145292943Y-88276735D01*
X145322255Y-88269320D01*
X145351320Y-88246427D01*
X145361812Y-88236127D01*
X145407743Y-88190196D01*
X145407743Y-87703602D01*
X145370774Y-87686758D01*
X145338941Y-87674282D01*
X145320317Y-87669914D01*
X145315542Y-87683718D01*
X145311079Y-87722286D01*
X145307225Y-87781356D01*
X145304278Y-87856663D01*
X145302857Y-87920286D01*
X145298886Y-88170657D01*
X145264241Y-88175556D01*
X145232732Y-88172131D01*
X145217292Y-88161041D01*
X145212977Y-88140308D01*
X145209292Y-88096145D01*
X145206531Y-88034146D01*
X145204988Y-87959909D01*
X145204765Y-87921706D01*
X145204543Y-87701783D01*
X145158834Y-87685849D01*
X145126482Y-87675015D01*
X145108885Y-87669962D01*
X145108377Y-87669914D01*
X145106612Y-87683648D01*
X145104671Y-87721730D01*
X145102718Y-87779482D01*
X145100916Y-87852227D01*
X145099657Y-87920286D01*
X145095686Y-88170657D01*
X145008600Y-88170657D01*
X145004604Y-87942240D01*
X145000608Y-87713822D01*
X144958153Y-87691868D01*
X144926808Y-87676793D01*
X144908256Y-87669951D01*
X144907721Y-87669914D01*
X144905167Y-87683663D01*
G37*
X144905167Y-87683663D02*
X144902952Y-87721850D01*
X144901216Y-87779886D01*
X144900101Y-87853180D01*
X144899743Y-87930055D01*
X144899743Y-88190196D01*
X144945674Y-88236127D01*
X144977325Y-88264429D01*
X145005110Y-88275893D01*
X145043085Y-88275168D01*
X145058160Y-88273321D01*
X145105274Y-88267948D01*
X145144244Y-88264869D01*
X145153743Y-88264585D01*
X145185767Y-88266445D01*
X145231568Y-88271114D01*
X145249326Y-88273321D01*
X145292943Y-88276735D01*
X145322255Y-88269320D01*
X145351320Y-88246427D01*
X145361812Y-88236127D01*
X145407743Y-88190196D01*
X145407743Y-87703602D01*
X145370774Y-87686758D01*
X145338941Y-87674282D01*
X145320317Y-87669914D01*
X145315542Y-87683718D01*
X145311079Y-87722286D01*
X145307225Y-87781356D01*
X145304278Y-87856663D01*
X145302857Y-87920286D01*
X145298886Y-88170657D01*
X145264241Y-88175556D01*
X145232732Y-88172131D01*
X145217292Y-88161041D01*
X145212977Y-88140308D01*
X145209292Y-88096145D01*
X145206531Y-88034146D01*
X145204988Y-87959909D01*
X145204765Y-87921706D01*
X145204543Y-87701783D01*
X145158834Y-87685849D01*
X145126482Y-87675015D01*
X145108885Y-87669962D01*
X145108377Y-87669914D01*
X145106612Y-87683648D01*
X145104671Y-87721730D01*
X145102718Y-87779482D01*
X145100916Y-87852227D01*
X145099657Y-87920286D01*
X145095686Y-88170657D01*
X145008600Y-88170657D01*
X145004604Y-87942240D01*
X145000608Y-87713822D01*
X144958153Y-87691868D01*
X144926808Y-87676793D01*
X144908256Y-87669951D01*
X144907721Y-87669914D01*
X144905167Y-87683663D01*
G36*
X145494883Y-87790358D02*
G01*
X145495067Y-87898837D01*
X145495781Y-87982287D01*
X145497325Y-88044704D01*
X145499999Y-88090085D01*
X145504106Y-88122429D01*
X145509945Y-88145733D01*
X145517818Y-88163995D01*
X145523779Y-88174418D01*
X145573145Y-88230945D01*
X145635736Y-88266377D01*
X145704987Y-88279090D01*
X145774332Y-88267463D01*
X145815625Y-88246568D01*
X145858975Y-88210422D01*
X145888519Y-88166276D01*
X145906345Y-88108462D01*
X145914537Y-88031313D01*
X145915698Y-87974714D01*
X145915542Y-87970647D01*
X145814143Y-87970647D01*
X145813524Y-88035550D01*
X145810686Y-88078514D01*
X145804160Y-88106622D01*
X145792477Y-88126953D01*
X145778517Y-88142288D01*
X145731635Y-88171890D01*
X145681299Y-88174419D01*
X145633724Y-88149705D01*
X145630021Y-88146356D01*
X145614217Y-88128935D01*
X145604307Y-88108209D01*
X145598942Y-88077362D01*
X145596772Y-88029577D01*
X145596429Y-87976748D01*
X145597173Y-87910381D01*
X145600252Y-87866106D01*
X145606939Y-87837009D01*
X145618504Y-87816173D01*
X145627987Y-87805107D01*
X145672040Y-87777198D01*
X145722776Y-87773843D01*
X145771204Y-87795159D01*
X145780550Y-87803073D01*
X145796460Y-87820647D01*
X145806390Y-87841587D01*
X145811722Y-87872782D01*
X145813837Y-87921122D01*
X145814143Y-87970647D01*
X145915542Y-87970647D01*
X145912190Y-87883568D01*
X145900274Y-87815086D01*
X145877865Y-87763600D01*
X145842876Y-87723443D01*
X145815625Y-87702861D01*
X145766093Y-87680625D01*
X145708684Y-87670304D01*
X145655318Y-87673067D01*
X145625457Y-87684212D01*
X145613739Y-87687383D01*
X145605963Y-87675557D01*
X145600535Y-87643866D01*
X145596429Y-87595593D01*
X145591933Y-87541829D01*
X145585687Y-87509482D01*
X145574324Y-87490985D01*
X145554472Y-87478770D01*
X145542000Y-87473362D01*
X145494829Y-87453601D01*
X145494883Y-87790358D01*
G37*
X145494883Y-87790358D02*
X145495067Y-87898837D01*
X145495781Y-87982287D01*
X145497325Y-88044704D01*
X145499999Y-88090085D01*
X145504106Y-88122429D01*
X145509945Y-88145733D01*
X145517818Y-88163995D01*
X145523779Y-88174418D01*
X145573145Y-88230945D01*
X145635736Y-88266377D01*
X145704987Y-88279090D01*
X145774332Y-88267463D01*
X145815625Y-88246568D01*
X145858975Y-88210422D01*
X145888519Y-88166276D01*
X145906345Y-88108462D01*
X145914537Y-88031313D01*
X145915698Y-87974714D01*
X145915542Y-87970647D01*
X145814143Y-87970647D01*
X145813524Y-88035550D01*
X145810686Y-88078514D01*
X145804160Y-88106622D01*
X145792477Y-88126953D01*
X145778517Y-88142288D01*
X145731635Y-88171890D01*
X145681299Y-88174419D01*
X145633724Y-88149705D01*
X145630021Y-88146356D01*
X145614217Y-88128935D01*
X145604307Y-88108209D01*
X145598942Y-88077362D01*
X145596772Y-88029577D01*
X145596429Y-87976748D01*
X145597173Y-87910381D01*
X145600252Y-87866106D01*
X145606939Y-87837009D01*
X145618504Y-87816173D01*
X145627987Y-87805107D01*
X145672040Y-87777198D01*
X145722776Y-87773843D01*
X145771204Y-87795159D01*
X145780550Y-87803073D01*
X145796460Y-87820647D01*
X145806390Y-87841587D01*
X145811722Y-87872782D01*
X145813837Y-87921122D01*
X145814143Y-87970647D01*
X145915542Y-87970647D01*
X145912190Y-87883568D01*
X145900274Y-87815086D01*
X145877865Y-87763600D01*
X145842876Y-87723443D01*
X145815625Y-87702861D01*
X145766093Y-87680625D01*
X145708684Y-87670304D01*
X145655318Y-87673067D01*
X145625457Y-87684212D01*
X145613739Y-87687383D01*
X145605963Y-87675557D01*
X145600535Y-87643866D01*
X145596429Y-87595593D01*
X145591933Y-87541829D01*
X145585687Y-87509482D01*
X145574324Y-87490985D01*
X145554472Y-87478770D01*
X145542000Y-87473362D01*
X145494829Y-87453601D01*
X145494883Y-87790358D01*
G36*
X146155074Y-87674755D02*
G01*
X146089142Y-87699084D01*
X146035727Y-87742117D01*
X146014836Y-87772409D01*
X145992061Y-87827994D01*
X145992534Y-87868186D01*
X146016438Y-87895217D01*
X146025283Y-87899813D01*
X146063470Y-87914144D01*
X146082972Y-87910472D01*
X146089578Y-87886407D01*
X146089914Y-87873114D01*
X146102008Y-87824210D01*
X146133529Y-87789999D01*
X146177341Y-87773476D01*
X146226305Y-87777634D01*
X146266106Y-87799227D01*
X146279550Y-87811544D01*
X146289079Y-87826487D01*
X146295515Y-87849075D01*
X146299683Y-87884328D01*
X146302403Y-87937266D01*
X146304498Y-88012907D01*
X146305040Y-88036857D01*
X146307019Y-88118790D01*
X146309269Y-88176455D01*
X146312643Y-88214608D01*
X146317994Y-88238004D01*
X146326176Y-88251398D01*
X146338041Y-88259545D01*
X146345638Y-88263144D01*
X146377898Y-88275452D01*
X146396889Y-88279514D01*
X146403164Y-88265948D01*
X146406994Y-88224934D01*
X146408400Y-88155999D01*
X146407402Y-88058669D01*
X146407092Y-88043657D01*
X146404899Y-87954859D01*
X146402307Y-87890019D01*
X146398618Y-87844067D01*
X146393136Y-87811935D01*
X146385165Y-87788553D01*
X146374007Y-87768852D01*
X146368170Y-87760410D01*
X146334704Y-87723057D01*
X146297273Y-87694003D01*
X146292691Y-87691467D01*
X146225574Y-87671443D01*
X146155074Y-87674755D01*
G37*
X146155074Y-87674755D02*
X146089142Y-87699084D01*
X146035727Y-87742117D01*
X146014836Y-87772409D01*
X145992061Y-87827994D01*
X145992534Y-87868186D01*
X146016438Y-87895217D01*
X146025283Y-87899813D01*
X146063470Y-87914144D01*
X146082972Y-87910472D01*
X146089578Y-87886407D01*
X146089914Y-87873114D01*
X146102008Y-87824210D01*
X146133529Y-87789999D01*
X146177341Y-87773476D01*
X146226305Y-87777634D01*
X146266106Y-87799227D01*
X146279550Y-87811544D01*
X146289079Y-87826487D01*
X146295515Y-87849075D01*
X146299683Y-87884328D01*
X146302403Y-87937266D01*
X146304498Y-88012907D01*
X146305040Y-88036857D01*
X146307019Y-88118790D01*
X146309269Y-88176455D01*
X146312643Y-88214608D01*
X146317994Y-88238004D01*
X146326176Y-88251398D01*
X146338041Y-88259545D01*
X146345638Y-88263144D01*
X146377898Y-88275452D01*
X146396889Y-88279514D01*
X146403164Y-88265948D01*
X146406994Y-88224934D01*
X146408400Y-88155999D01*
X146407402Y-88058669D01*
X146407092Y-88043657D01*
X146404899Y-87954859D01*
X146402307Y-87890019D01*
X146398618Y-87844067D01*
X146393136Y-87811935D01*
X146385165Y-87788553D01*
X146374007Y-87768852D01*
X146368170Y-87760410D01*
X146334704Y-87723057D01*
X146297273Y-87694003D01*
X146292691Y-87691467D01*
X146225574Y-87671443D01*
X146155074Y-87674755D01*
G36*
X146645256Y-87675968D02*
G01*
X146588384Y-87697087D01*
X146587733Y-87697493D01*
X146552560Y-87723380D01*
X146526593Y-87753633D01*
X146508330Y-87793058D01*
X146496268Y-87846462D01*
X146488904Y-87918651D01*
X146484736Y-88014432D01*
X146484371Y-88028078D01*
X146479124Y-88233842D01*
X146523284Y-88256678D01*
X146555237Y-88272110D01*
X146574530Y-88279423D01*
X146575422Y-88279514D01*
X146578761Y-88266022D01*
X146581413Y-88229626D01*
X146583044Y-88176452D01*
X146583400Y-88133393D01*
X146583408Y-88063641D01*
X146586597Y-88019837D01*
X146597712Y-87998944D01*
X146621499Y-87997925D01*
X146662704Y-88013741D01*
X146724914Y-88042815D01*
X146770659Y-88066963D01*
X146794187Y-88087913D01*
X146801104Y-88110747D01*
X146801114Y-88111877D01*
X146789701Y-88151212D01*
X146755908Y-88172462D01*
X146704191Y-88175539D01*
X146666939Y-88175006D01*
X146647297Y-88185735D01*
X146635048Y-88211505D01*
X146627998Y-88244337D01*
X146638158Y-88262966D01*
X146641983Y-88265632D01*
X146677999Y-88276340D01*
X146728434Y-88277856D01*
X146780374Y-88270759D01*
X146817178Y-88257788D01*
X146868062Y-88214585D01*
X146896986Y-88154446D01*
X146902714Y-88107462D01*
X146898343Y-88065082D01*
X146882525Y-88030488D01*
X146851203Y-87999763D01*
X146800322Y-87968990D01*
X146725824Y-87934252D01*
X146721286Y-87932288D01*
X146654179Y-87901287D01*
X146612768Y-87875862D01*
X146595019Y-87853014D01*
X146598893Y-87829745D01*
X146622357Y-87803056D01*
X146629373Y-87796914D01*
X146676370Y-87773100D01*
X146725067Y-87774103D01*
X146767478Y-87797451D01*
X146795616Y-87840675D01*
X146798231Y-87849160D01*
X146823692Y-87890308D01*
X146855999Y-87910128D01*
X146902714Y-87929770D01*
X146902714Y-87878950D01*
X146888504Y-87805082D01*
X146846325Y-87737327D01*
X146824376Y-87714661D01*
X146774483Y-87685569D01*
X146711033Y-87672400D01*
X146645256Y-87675968D01*
G37*
X146645256Y-87675968D02*
X146588384Y-87697087D01*
X146587733Y-87697493D01*
X146552560Y-87723380D01*
X146526593Y-87753633D01*
X146508330Y-87793058D01*
X146496268Y-87846462D01*
X146488904Y-87918651D01*
X146484736Y-88014432D01*
X146484371Y-88028078D01*
X146479124Y-88233842D01*
X146523284Y-88256678D01*
X146555237Y-88272110D01*
X146574530Y-88279423D01*
X146575422Y-88279514D01*
X146578761Y-88266022D01*
X146581413Y-88229626D01*
X146583044Y-88176452D01*
X146583400Y-88133393D01*
X146583408Y-88063641D01*
X146586597Y-88019837D01*
X146597712Y-87998944D01*
X146621499Y-87997925D01*
X146662704Y-88013741D01*
X146724914Y-88042815D01*
X146770659Y-88066963D01*
X146794187Y-88087913D01*
X146801104Y-88110747D01*
X146801114Y-88111877D01*
X146789701Y-88151212D01*
X146755908Y-88172462D01*
X146704191Y-88175539D01*
X146666939Y-88175006D01*
X146647297Y-88185735D01*
X146635048Y-88211505D01*
X146627998Y-88244337D01*
X146638158Y-88262966D01*
X146641983Y-88265632D01*
X146677999Y-88276340D01*
X146728434Y-88277856D01*
X146780374Y-88270759D01*
X146817178Y-88257788D01*
X146868062Y-88214585D01*
X146896986Y-88154446D01*
X146902714Y-88107462D01*
X146898343Y-88065082D01*
X146882525Y-88030488D01*
X146851203Y-87999763D01*
X146800322Y-87968990D01*
X146725824Y-87934252D01*
X146721286Y-87932288D01*
X146654179Y-87901287D01*
X146612768Y-87875862D01*
X146595019Y-87853014D01*
X146598893Y-87829745D01*
X146622357Y-87803056D01*
X146629373Y-87796914D01*
X146676370Y-87773100D01*
X146725067Y-87774103D01*
X146767478Y-87797451D01*
X146795616Y-87840675D01*
X146798231Y-87849160D01*
X146823692Y-87890308D01*
X146855999Y-87910128D01*
X146902714Y-87929770D01*
X146902714Y-87878950D01*
X146888504Y-87805082D01*
X146846325Y-87737327D01*
X146824376Y-87714661D01*
X146774483Y-87685569D01*
X146711033Y-87672400D01*
X146645256Y-87675968D01*
G36*
X147309114Y-87576289D02*
G01*
X147304861Y-87635613D01*
X147299975Y-87670572D01*
X147293205Y-87685820D01*
X147283298Y-87686015D01*
X147280086Y-87684195D01*
X147237356Y-87671015D01*
X147181773Y-87671785D01*
X147125263Y-87685333D01*
X147089918Y-87702861D01*
X147053679Y-87730861D01*
X147027187Y-87762549D01*
X147009001Y-87802813D01*
X146997678Y-87856543D01*
X146991778Y-87928626D01*
X146989857Y-88023951D01*
X146989823Y-88042237D01*
X146989800Y-88247646D01*
X147035509Y-88263580D01*
X147067973Y-88274420D01*
X147085785Y-88279468D01*
X147086309Y-88279514D01*
X147088063Y-88265828D01*
X147089556Y-88228076D01*
X147090674Y-88171224D01*
X147091303Y-88100234D01*
X147091400Y-88057073D01*
X147091602Y-87971973D01*
X147092642Y-87910981D01*
X147095169Y-87869177D01*
X147099836Y-87841642D01*
X147107293Y-87823456D01*
X147118189Y-87809698D01*
X147124993Y-87803073D01*
X147171728Y-87776375D01*
X147222728Y-87774375D01*
X147268999Y-87796955D01*
X147277556Y-87805107D01*
X147290107Y-87820436D01*
X147298812Y-87838618D01*
X147304369Y-87864909D01*
X147307474Y-87904562D01*
X147308824Y-87962832D01*
X147309114Y-88043173D01*
X147309114Y-88247646D01*
X147354823Y-88263580D01*
X147387287Y-88274420D01*
X147405099Y-88279468D01*
X147405623Y-88279514D01*
X147406963Y-88265623D01*
X147408172Y-88226439D01*
X147409199Y-88165700D01*
X147409998Y-88087141D01*
X147410519Y-87994498D01*
X147410714Y-87891509D01*
X147410714Y-87494342D01*
X147363543Y-87474444D01*
X147316371Y-87454547D01*
X147309114Y-87576289D01*
G37*
X147309114Y-87576289D02*
X147304861Y-87635613D01*
X147299975Y-87670572D01*
X147293205Y-87685820D01*
X147283298Y-87686015D01*
X147280086Y-87684195D01*
X147237356Y-87671015D01*
X147181773Y-87671785D01*
X147125263Y-87685333D01*
X147089918Y-87702861D01*
X147053679Y-87730861D01*
X147027187Y-87762549D01*
X147009001Y-87802813D01*
X146997678Y-87856543D01*
X146991778Y-87928626D01*
X146989857Y-88023951D01*
X146989823Y-88042237D01*
X146989800Y-88247646D01*
X147035509Y-88263580D01*
X147067973Y-88274420D01*
X147085785Y-88279468D01*
X147086309Y-88279514D01*
X147088063Y-88265828D01*
X147089556Y-88228076D01*
X147090674Y-88171224D01*
X147091303Y-88100234D01*
X147091400Y-88057073D01*
X147091602Y-87971973D01*
X147092642Y-87910981D01*
X147095169Y-87869177D01*
X147099836Y-87841642D01*
X147107293Y-87823456D01*
X147118189Y-87809698D01*
X147124993Y-87803073D01*
X147171728Y-87776375D01*
X147222728Y-87774375D01*
X147268999Y-87796955D01*
X147277556Y-87805107D01*
X147290107Y-87820436D01*
X147298812Y-87838618D01*
X147304369Y-87864909D01*
X147307474Y-87904562D01*
X147308824Y-87962832D01*
X147309114Y-88043173D01*
X147309114Y-88247646D01*
X147354823Y-88263580D01*
X147387287Y-88274420D01*
X147405099Y-88279468D01*
X147405623Y-88279514D01*
X147406963Y-88265623D01*
X147408172Y-88226439D01*
X147409199Y-88165700D01*
X147409998Y-88087141D01*
X147410519Y-87994498D01*
X147410714Y-87891509D01*
X147410714Y-87494342D01*
X147363543Y-87474444D01*
X147316371Y-87454547D01*
X147309114Y-87576289D01*
G36*
X148516697Y-87656239D02*
G01*
X148459473Y-87694735D01*
X148415251Y-87750335D01*
X148388833Y-87821086D01*
X148383490Y-87873162D01*
X148384097Y-87894893D01*
X148389178Y-87911531D01*
X148403145Y-87926437D01*
X148430411Y-87942973D01*
X148475388Y-87964498D01*
X148542489Y-87994374D01*
X148542829Y-87994524D01*
X148604593Y-88022813D01*
X148655241Y-88047933D01*
X148689596Y-88067179D01*
X148702482Y-88077848D01*
X148702486Y-88077934D01*
X148691128Y-88101166D01*
X148664569Y-88126774D01*
X148634077Y-88145221D01*
X148618630Y-88148886D01*
X148576485Y-88136212D01*
X148540192Y-88104471D01*
X148522483Y-88069572D01*
X148505448Y-88043845D01*
X148472078Y-88014546D01*
X148432851Y-87989235D01*
X148398244Y-87975471D01*
X148391007Y-87974714D01*
X148382861Y-87987160D01*
X148382370Y-88018972D01*
X148388357Y-88061866D01*
X148399643Y-88107558D01*
X148415050Y-88147761D01*
X148415829Y-88149322D01*
X148462196Y-88214062D01*
X148522289Y-88258097D01*
X148590535Y-88279711D01*
X148661362Y-88277185D01*
X148729196Y-88248804D01*
X148732212Y-88246808D01*
X148785573Y-88198448D01*
X148820660Y-88135352D01*
X148840078Y-88052387D01*
X148842684Y-88029078D01*
X148847299Y-87919055D01*
X148841767Y-87867748D01*
X148702486Y-87867748D01*
X148700676Y-87899753D01*
X148690778Y-87909093D01*
X148666102Y-87902105D01*
X148627205Y-87885587D01*
X148583725Y-87864881D01*
X148582644Y-87864333D01*
X148545791Y-87844949D01*
X148531000Y-87832013D01*
X148534647Y-87818451D01*
X148550005Y-87800632D01*
X148589077Y-87774845D01*
X148631154Y-87772950D01*
X148668897Y-87791717D01*
X148694966Y-87827915D01*
X148702486Y-87867748D01*
X148841767Y-87867748D01*
X148837806Y-87831027D01*
X148813450Y-87761212D01*
X148779544Y-87712302D01*
X148718347Y-87662878D01*
X148650937Y-87638359D01*
X148582120Y-87636797D01*
X148516697Y-87656239D01*
G37*
X148516697Y-87656239D02*
X148459473Y-87694735D01*
X148415251Y-87750335D01*
X148388833Y-87821086D01*
X148383490Y-87873162D01*
X148384097Y-87894893D01*
X148389178Y-87911531D01*
X148403145Y-87926437D01*
X148430411Y-87942973D01*
X148475388Y-87964498D01*
X148542489Y-87994374D01*
X148542829Y-87994524D01*
X148604593Y-88022813D01*
X148655241Y-88047933D01*
X148689596Y-88067179D01*
X148702482Y-88077848D01*
X148702486Y-88077934D01*
X148691128Y-88101166D01*
X148664569Y-88126774D01*
X148634077Y-88145221D01*
X148618630Y-88148886D01*
X148576485Y-88136212D01*
X148540192Y-88104471D01*
X148522483Y-88069572D01*
X148505448Y-88043845D01*
X148472078Y-88014546D01*
X148432851Y-87989235D01*
X148398244Y-87975471D01*
X148391007Y-87974714D01*
X148382861Y-87987160D01*
X148382370Y-88018972D01*
X148388357Y-88061866D01*
X148399643Y-88107558D01*
X148415050Y-88147761D01*
X148415829Y-88149322D01*
X148462196Y-88214062D01*
X148522289Y-88258097D01*
X148590535Y-88279711D01*
X148661362Y-88277185D01*
X148729196Y-88248804D01*
X148732212Y-88246808D01*
X148785573Y-88198448D01*
X148820660Y-88135352D01*
X148840078Y-88052387D01*
X148842684Y-88029078D01*
X148847299Y-87919055D01*
X148841767Y-87867748D01*
X148702486Y-87867748D01*
X148700676Y-87899753D01*
X148690778Y-87909093D01*
X148666102Y-87902105D01*
X148627205Y-87885587D01*
X148583725Y-87864881D01*
X148582644Y-87864333D01*
X148545791Y-87844949D01*
X148531000Y-87832013D01*
X148534647Y-87818451D01*
X148550005Y-87800632D01*
X148589077Y-87774845D01*
X148631154Y-87772950D01*
X148668897Y-87791717D01*
X148694966Y-87827915D01*
X148702486Y-87867748D01*
X148841767Y-87867748D01*
X148837806Y-87831027D01*
X148813450Y-87761212D01*
X148779544Y-87712302D01*
X148718347Y-87662878D01*
X148650937Y-87638359D01*
X148582120Y-87636797D01*
X148516697Y-87656239D01*
G36*
X149643885Y-87646962D02*
G01*
X149575855Y-87682733D01*
X149525649Y-87740301D01*
X149507815Y-87777312D01*
X149493937Y-87832882D01*
X149486833Y-87903096D01*
X149486160Y-87979727D01*
X149491573Y-88054552D01*
X149502730Y-88119342D01*
X149519286Y-88165873D01*
X149524374Y-88173887D01*
X149584645Y-88233707D01*
X149656231Y-88269535D01*
X149733908Y-88280020D01*
X149812452Y-88263810D01*
X149834311Y-88254092D01*
X149876878Y-88224143D01*
X149914237Y-88184433D01*
X149917768Y-88179397D01*
X149932119Y-88155124D01*
X149941606Y-88129178D01*
X149947210Y-88095022D01*
X149949914Y-88046119D01*
X149950701Y-87975935D01*
X149950714Y-87960200D01*
X149950678Y-87955192D01*
X149805571Y-87955192D01*
X149804727Y-88021430D01*
X149801404Y-88065386D01*
X149794417Y-88093779D01*
X149782584Y-88113325D01*
X149776543Y-88119857D01*
X149741814Y-88144680D01*
X149708097Y-88143548D01*
X149674005Y-88122016D01*
X149653671Y-88099029D01*
X149641629Y-88065478D01*
X149634866Y-88012569D01*
X149634402Y-88006399D01*
X149633248Y-87910513D01*
X149645312Y-87839299D01*
X149670430Y-87793194D01*
X149708440Y-87772635D01*
X149722008Y-87771514D01*
X149757636Y-87777152D01*
X149782006Y-87796686D01*
X149796907Y-87834042D01*
X149804125Y-87893150D01*
X149805571Y-87955192D01*
X149950678Y-87955192D01*
X149950174Y-87885413D01*
X149947904Y-87833159D01*
X149942932Y-87796949D01*
X149934287Y-87770299D01*
X149920995Y-87746722D01*
X149918057Y-87742338D01*
X149868687Y-87683249D01*
X149814891Y-87648947D01*
X149749398Y-87635331D01*
X149727158Y-87634665D01*
X149643885Y-87646962D01*
G37*
X149643885Y-87646962D02*
X149575855Y-87682733D01*
X149525649Y-87740301D01*
X149507815Y-87777312D01*
X149493937Y-87832882D01*
X149486833Y-87903096D01*
X149486160Y-87979727D01*
X149491573Y-88054552D01*
X149502730Y-88119342D01*
X149519286Y-88165873D01*
X149524374Y-88173887D01*
X149584645Y-88233707D01*
X149656231Y-88269535D01*
X149733908Y-88280020D01*
X149812452Y-88263810D01*
X149834311Y-88254092D01*
X149876878Y-88224143D01*
X149914237Y-88184433D01*
X149917768Y-88179397D01*
X149932119Y-88155124D01*
X149941606Y-88129178D01*
X149947210Y-88095022D01*
X149949914Y-88046119D01*
X149950701Y-87975935D01*
X149950714Y-87960200D01*
X149950678Y-87955192D01*
X149805571Y-87955192D01*
X149804727Y-88021430D01*
X149801404Y-88065386D01*
X149794417Y-88093779D01*
X149782584Y-88113325D01*
X149776543Y-88119857D01*
X149741814Y-88144680D01*
X149708097Y-88143548D01*
X149674005Y-88122016D01*
X149653671Y-88099029D01*
X149641629Y-88065478D01*
X149634866Y-88012569D01*
X149634402Y-88006399D01*
X149633248Y-87910513D01*
X149645312Y-87839299D01*
X149670430Y-87793194D01*
X149708440Y-87772635D01*
X149722008Y-87771514D01*
X149757636Y-87777152D01*
X149782006Y-87796686D01*
X149796907Y-87834042D01*
X149804125Y-87893150D01*
X149805571Y-87955192D01*
X149950678Y-87955192D01*
X149950174Y-87885413D01*
X149947904Y-87833159D01*
X149942932Y-87796949D01*
X149934287Y-87770299D01*
X149920995Y-87746722D01*
X149918057Y-87742338D01*
X149868687Y-87683249D01*
X149814891Y-87648947D01*
X149749398Y-87635331D01*
X149727158Y-87634665D01*
X149643885Y-87646962D01*
G36*
X147968907Y-87652780D02*
G01*
X147922328Y-87679723D01*
X147889943Y-87706466D01*
X147866258Y-87734484D01*
X147849941Y-87768748D01*
X147839661Y-87814227D01*
X147834086Y-87875892D01*
X147831884Y-87958711D01*
X147831629Y-88018246D01*
X147831629Y-88237391D01*
X147893314Y-88265044D01*
X147955000Y-88292697D01*
X147962257Y-88052670D01*
X147965256Y-87963028D01*
X147968402Y-87897962D01*
X147972299Y-87853026D01*
X147977553Y-87823770D01*
X147984769Y-87805748D01*
X147994550Y-87794511D01*
X147997688Y-87792079D01*
X148045239Y-87773083D01*
X148093303Y-87780600D01*
X148121914Y-87800543D01*
X148133553Y-87814675D01*
X148141609Y-87833220D01*
X148146729Y-87861334D01*
X148149559Y-87904173D01*
X148150744Y-87966895D01*
X148150943Y-88032261D01*
X148150982Y-88114268D01*
X148152386Y-88172316D01*
X148157086Y-88211465D01*
X148167013Y-88236780D01*
X148184097Y-88253323D01*
X148210268Y-88266156D01*
X148245225Y-88279491D01*
X148283404Y-88294007D01*
X148278859Y-88036389D01*
X148277029Y-87943519D01*
X148274888Y-87874889D01*
X148271819Y-87825711D01*
X148267206Y-87791198D01*
X148260432Y-87766562D01*
X148250881Y-87747016D01*
X148239366Y-87729770D01*
X148183810Y-87674680D01*
X148116020Y-87642822D01*
X148042287Y-87635191D01*
X147968907Y-87652780D01*
G37*
X147968907Y-87652780D02*
X147922328Y-87679723D01*
X147889943Y-87706466D01*
X147866258Y-87734484D01*
X147849941Y-87768748D01*
X147839661Y-87814227D01*
X147834086Y-87875892D01*
X147831884Y-87958711D01*
X147831629Y-88018246D01*
X147831629Y-88237391D01*
X147893314Y-88265044D01*
X147955000Y-88292697D01*
X147962257Y-88052670D01*
X147965256Y-87963028D01*
X147968402Y-87897962D01*
X147972299Y-87853026D01*
X147977553Y-87823770D01*
X147984769Y-87805748D01*
X147994550Y-87794511D01*
X147997688Y-87792079D01*
X148045239Y-87773083D01*
X148093303Y-87780600D01*
X148121914Y-87800543D01*
X148133553Y-87814675D01*
X148141609Y-87833220D01*
X148146729Y-87861334D01*
X148149559Y-87904173D01*
X148150744Y-87966895D01*
X148150943Y-88032261D01*
X148150982Y-88114268D01*
X148152386Y-88172316D01*
X148157086Y-88211465D01*
X148167013Y-88236780D01*
X148184097Y-88253323D01*
X148210268Y-88266156D01*
X148245225Y-88279491D01*
X148283404Y-88294007D01*
X148278859Y-88036389D01*
X148277029Y-87943519D01*
X148274888Y-87874889D01*
X148271819Y-87825711D01*
X148267206Y-87791198D01*
X148260432Y-87766562D01*
X148250881Y-87747016D01*
X148239366Y-87729770D01*
X148183810Y-87674680D01*
X148116020Y-87642822D01*
X148042287Y-87635191D01*
X147968907Y-87652780D01*
G36*
X149085256Y-87644918D02*
G01*
X149029799Y-87672568D01*
X148980852Y-87723480D01*
X148967371Y-87742338D01*
X148952686Y-87767015D01*
X148943158Y-87793816D01*
X148937707Y-87829587D01*
X148935253Y-87881169D01*
X148934714Y-87949267D01*
X148937148Y-88042588D01*
X148945606Y-88112657D01*
X148961826Y-88164931D01*
X148987546Y-88204869D01*
X149024503Y-88237929D01*
X149027218Y-88239886D01*
X149063640Y-88259908D01*
X149107498Y-88269815D01*
X149163276Y-88272257D01*
X149253952Y-88272257D01*
X149253990Y-88360283D01*
X149254834Y-88409308D01*
X149259976Y-88438065D01*
X149273413Y-88455311D01*
X149299142Y-88469808D01*
X149305321Y-88472769D01*
X149334236Y-88486648D01*
X149356624Y-88495414D01*
X149373271Y-88496171D01*
X149384964Y-88486023D01*
X149392490Y-88462073D01*
X149396634Y-88421426D01*
X149398185Y-88361186D01*
X149397929Y-88278455D01*
X149396651Y-88170339D01*
X149396252Y-88138000D01*
X149394815Y-88026524D01*
X149393528Y-87953603D01*
X149254029Y-87953603D01*
X149253245Y-88015499D01*
X149249760Y-88055997D01*
X149241876Y-88082708D01*
X149227895Y-88103244D01*
X149218403Y-88113260D01*
X149179596Y-88142567D01*
X149145237Y-88144952D01*
X149109784Y-88120750D01*
X149108886Y-88119857D01*
X149094461Y-88101153D01*
X149085687Y-88075732D01*
X149081261Y-88036584D01*
X149079882Y-87976697D01*
X149079857Y-87963430D01*
X149083188Y-87880901D01*
X149094031Y-87823691D01*
X149113660Y-87788766D01*
X149143350Y-87773094D01*
X149160509Y-87771514D01*
X149201234Y-87778926D01*
X149229168Y-87803330D01*
X149245983Y-87847980D01*
X149253350Y-87916130D01*
X149254029Y-87953603D01*
X149393528Y-87953603D01*
X149393292Y-87940245D01*
X149391323Y-87875333D01*
X149388550Y-87827958D01*
X149384612Y-87794290D01*
X149379151Y-87770498D01*
X149371808Y-87752753D01*
X149362223Y-87737224D01*
X149358113Y-87731381D01*
X149303595Y-87676185D01*
X149234664Y-87644890D01*
X149154928Y-87636165D01*
X149085256Y-87644918D01*
G37*
X149085256Y-87644918D02*
X149029799Y-87672568D01*
X148980852Y-87723480D01*
X148967371Y-87742338D01*
X148952686Y-87767015D01*
X148943158Y-87793816D01*
X148937707Y-87829587D01*
X148935253Y-87881169D01*
X148934714Y-87949267D01*
X148937148Y-88042588D01*
X148945606Y-88112657D01*
X148961826Y-88164931D01*
X148987546Y-88204869D01*
X149024503Y-88237929D01*
X149027218Y-88239886D01*
X149063640Y-88259908D01*
X149107498Y-88269815D01*
X149163276Y-88272257D01*
X149253952Y-88272257D01*
X149253990Y-88360283D01*
X149254834Y-88409308D01*
X149259976Y-88438065D01*
X149273413Y-88455311D01*
X149299142Y-88469808D01*
X149305321Y-88472769D01*
X149334236Y-88486648D01*
X149356624Y-88495414D01*
X149373271Y-88496171D01*
X149384964Y-88486023D01*
X149392490Y-88462073D01*
X149396634Y-88421426D01*
X149398185Y-88361186D01*
X149397929Y-88278455D01*
X149396651Y-88170339D01*
X149396252Y-88138000D01*
X149394815Y-88026524D01*
X149393528Y-87953603D01*
X149254029Y-87953603D01*
X149253245Y-88015499D01*
X149249760Y-88055997D01*
X149241876Y-88082708D01*
X149227895Y-88103244D01*
X149218403Y-88113260D01*
X149179596Y-88142567D01*
X149145237Y-88144952D01*
X149109784Y-88120750D01*
X149108886Y-88119857D01*
X149094461Y-88101153D01*
X149085687Y-88075732D01*
X149081261Y-88036584D01*
X149079882Y-87976697D01*
X149079857Y-87963430D01*
X149083188Y-87880901D01*
X149094031Y-87823691D01*
X149113660Y-87788766D01*
X149143350Y-87773094D01*
X149160509Y-87771514D01*
X149201234Y-87778926D01*
X149229168Y-87803330D01*
X149245983Y-87847980D01*
X149253350Y-87916130D01*
X149254029Y-87953603D01*
X149393528Y-87953603D01*
X149393292Y-87940245D01*
X149391323Y-87875333D01*
X149388550Y-87827958D01*
X149384612Y-87794290D01*
X149379151Y-87770498D01*
X149371808Y-87752753D01*
X149362223Y-87737224D01*
X149358113Y-87731381D01*
X149303595Y-87676185D01*
X149234664Y-87644890D01*
X149154928Y-87636165D01*
X149085256Y-87644918D01*
G36*
X122422177Y-87999533D02*
G01*
X122390798Y-88021776D01*
X122363089Y-88049485D01*
X122363089Y-88358920D01*
X122363162Y-88450799D01*
X122363505Y-88522840D01*
X122364308Y-88577780D01*
X122365759Y-88618360D01*
X122368048Y-88647317D01*
X122371364Y-88667391D01*
X122375895Y-88681321D01*
X122381831Y-88691845D01*
X122386486Y-88698100D01*
X122417217Y-88722673D01*
X122452504Y-88725341D01*
X122484755Y-88710271D01*
X122495412Y-88701374D01*
X122502536Y-88689557D01*
X122506833Y-88670526D01*
X122509009Y-88639992D01*
X122509772Y-88593662D01*
X122509845Y-88557871D01*
X122509845Y-88423045D01*
X123006556Y-88423045D01*
X123006556Y-88545700D01*
X123007069Y-88601787D01*
X123009124Y-88640333D01*
X123013492Y-88666361D01*
X123020944Y-88684897D01*
X123029953Y-88698100D01*
X123060856Y-88722604D01*
X123095804Y-88725506D01*
X123129262Y-88708089D01*
X123138396Y-88698959D01*
X123144848Y-88686855D01*
X123149103Y-88668001D01*
X123151648Y-88638620D01*
X123152971Y-88594937D01*
X123153557Y-88533175D01*
X123153625Y-88519000D01*
X123154109Y-88402631D01*
X123154359Y-88306727D01*
X123154277Y-88229177D01*
X123153769Y-88167869D01*
X123152738Y-88120690D01*
X123151087Y-88085530D01*
X123148721Y-88060276D01*
X123145543Y-88042817D01*
X123141456Y-88031041D01*
X123136366Y-88022835D01*
X123130734Y-88016645D01*
X123098872Y-87996844D01*
X123065643Y-87999533D01*
X123034265Y-88021776D01*
X123021567Y-88036126D01*
X123013474Y-88051978D01*
X123008958Y-88074554D01*
X123006994Y-88109078D01*
X123006556Y-88160776D01*
X123006556Y-88276289D01*
X122509845Y-88276289D01*
X122509845Y-88157756D01*
X122509338Y-88103148D01*
X122507302Y-88066275D01*
X122502965Y-88042307D01*
X122495553Y-88026415D01*
X122487267Y-88016645D01*
X122455406Y-87996844D01*
X122422177Y-87999533D01*
G37*
X122422177Y-87999533D02*
X122390798Y-88021776D01*
X122363089Y-88049485D01*
X122363089Y-88358920D01*
X122363162Y-88450799D01*
X122363505Y-88522840D01*
X122364308Y-88577780D01*
X122365759Y-88618360D01*
X122368048Y-88647317D01*
X122371364Y-88667391D01*
X122375895Y-88681321D01*
X122381831Y-88691845D01*
X122386486Y-88698100D01*
X122417217Y-88722673D01*
X122452504Y-88725341D01*
X122484755Y-88710271D01*
X122495412Y-88701374D01*
X122502536Y-88689557D01*
X122506833Y-88670526D01*
X122509009Y-88639992D01*
X122509772Y-88593662D01*
X122509845Y-88557871D01*
X122509845Y-88423045D01*
X123006556Y-88423045D01*
X123006556Y-88545700D01*
X123007069Y-88601787D01*
X123009124Y-88640333D01*
X123013492Y-88666361D01*
X123020944Y-88684897D01*
X123029953Y-88698100D01*
X123060856Y-88722604D01*
X123095804Y-88725506D01*
X123129262Y-88708089D01*
X123138396Y-88698959D01*
X123144848Y-88686855D01*
X123149103Y-88668001D01*
X123151648Y-88638620D01*
X123152971Y-88594937D01*
X123153557Y-88533175D01*
X123153625Y-88519000D01*
X123154109Y-88402631D01*
X123154359Y-88306727D01*
X123154277Y-88229177D01*
X123153769Y-88167869D01*
X123152738Y-88120690D01*
X123151087Y-88085530D01*
X123148721Y-88060276D01*
X123145543Y-88042817D01*
X123141456Y-88031041D01*
X123136366Y-88022835D01*
X123130734Y-88016645D01*
X123098872Y-87996844D01*
X123065643Y-87999533D01*
X123034265Y-88021776D01*
X123021567Y-88036126D01*
X123013474Y-88051978D01*
X123008958Y-88074554D01*
X123006994Y-88109078D01*
X123006556Y-88160776D01*
X123006556Y-88276289D01*
X122509845Y-88276289D01*
X122509845Y-88157756D01*
X122509338Y-88103148D01*
X122507302Y-88066275D01*
X122502965Y-88042307D01*
X122495553Y-88026415D01*
X122487267Y-88016645D01*
X122455406Y-87996844D01*
X122422177Y-87999533D01*
G36*
X123687935Y-87994163D02*
G01*
X123609228Y-87994542D01*
X123548137Y-87995333D01*
X123502183Y-87996670D01*
X123468886Y-87998683D01*
X123445764Y-88001506D01*
X123430338Y-88005269D01*
X123420129Y-88010105D01*
X123415187Y-88013822D01*
X123389543Y-88046358D01*
X123386441Y-88080138D01*
X123402289Y-88110826D01*
X123412652Y-88123089D01*
X123423804Y-88131450D01*
X123439965Y-88136657D01*
X123465358Y-88139457D01*
X123504202Y-88140596D01*
X123560720Y-88140821D01*
X123571820Y-88140822D01*
X123717756Y-88140822D01*
X123717756Y-88411756D01*
X123717852Y-88497154D01*
X123718289Y-88562864D01*
X123719288Y-88611774D01*
X123721072Y-88646773D01*
X123723863Y-88670749D01*
X123727883Y-88686593D01*
X123733355Y-88697191D01*
X123740334Y-88705267D01*
X123773266Y-88725112D01*
X123807646Y-88723548D01*
X123838824Y-88700906D01*
X123841114Y-88698100D01*
X123848571Y-88687492D01*
X123854253Y-88675081D01*
X123858399Y-88657850D01*
X123861250Y-88632784D01*
X123863046Y-88596867D01*
X123864028Y-88547083D01*
X123864436Y-88480417D01*
X123864511Y-88404589D01*
X123864511Y-88140822D01*
X124003873Y-88140822D01*
X124063678Y-88140418D01*
X124105082Y-88138840D01*
X124132252Y-88135547D01*
X124149354Y-88129992D01*
X124160557Y-88121631D01*
X124161917Y-88120178D01*
X124178275Y-88086939D01*
X124176828Y-88049362D01*
X124158022Y-88016645D01*
X124150750Y-88010298D01*
X124141373Y-88005266D01*
X124127391Y-88001396D01*
X124106304Y-87998537D01*
X124075611Y-87996535D01*
X124032811Y-87995239D01*
X123975405Y-87994498D01*
X123900890Y-87994158D01*
X123806767Y-87994068D01*
X123786740Y-87994067D01*
X123687935Y-87994163D01*
G37*
X123687935Y-87994163D02*
X123609228Y-87994542D01*
X123548137Y-87995333D01*
X123502183Y-87996670D01*
X123468886Y-87998683D01*
X123445764Y-88001506D01*
X123430338Y-88005269D01*
X123420129Y-88010105D01*
X123415187Y-88013822D01*
X123389543Y-88046358D01*
X123386441Y-88080138D01*
X123402289Y-88110826D01*
X123412652Y-88123089D01*
X123423804Y-88131450D01*
X123439965Y-88136657D01*
X123465358Y-88139457D01*
X123504202Y-88140596D01*
X123560720Y-88140821D01*
X123571820Y-88140822D01*
X123717756Y-88140822D01*
X123717756Y-88411756D01*
X123717852Y-88497154D01*
X123718289Y-88562864D01*
X123719288Y-88611774D01*
X123721072Y-88646773D01*
X123723863Y-88670749D01*
X123727883Y-88686593D01*
X123733355Y-88697191D01*
X123740334Y-88705267D01*
X123773266Y-88725112D01*
X123807646Y-88723548D01*
X123838824Y-88700906D01*
X123841114Y-88698100D01*
X123848571Y-88687492D01*
X123854253Y-88675081D01*
X123858399Y-88657850D01*
X123861250Y-88632784D01*
X123863046Y-88596867D01*
X123864028Y-88547083D01*
X123864436Y-88480417D01*
X123864511Y-88404589D01*
X123864511Y-88140822D01*
X124003873Y-88140822D01*
X124063678Y-88140418D01*
X124105082Y-88138840D01*
X124132252Y-88135547D01*
X124149354Y-88129992D01*
X124160557Y-88121631D01*
X124161917Y-88120178D01*
X124178275Y-88086939D01*
X124176828Y-88049362D01*
X124158022Y-88016645D01*
X124150750Y-88010298D01*
X124141373Y-88005266D01*
X124127391Y-88001396D01*
X124106304Y-87998537D01*
X124075611Y-87996535D01*
X124032811Y-87995239D01*
X123975405Y-87994498D01*
X123900890Y-87994158D01*
X123806767Y-87994068D01*
X123786740Y-87994067D01*
X123687935Y-87994163D01*
G36*
X124462386Y-88000877D02*
G01*
X124438673Y-88015647D01*
X124412022Y-88037227D01*
X124412022Y-88358773D01*
X124412107Y-88452830D01*
X124412471Y-88526932D01*
X124413276Y-88583704D01*
X124414687Y-88625768D01*
X124416867Y-88655748D01*
X124419979Y-88676267D01*
X124424186Y-88689949D01*
X124429652Y-88699416D01*
X124433528Y-88704082D01*
X124464966Y-88724575D01*
X124500767Y-88723739D01*
X124532127Y-88706264D01*
X124558778Y-88684684D01*
X124558778Y-88037227D01*
X124532127Y-88015647D01*
X124506406Y-87999949D01*
X124485400Y-87994067D01*
X124462386Y-88000877D01*
G37*
X124462386Y-88000877D02*
X124438673Y-88015647D01*
X124412022Y-88037227D01*
X124412022Y-88358773D01*
X124412107Y-88452830D01*
X124412471Y-88526932D01*
X124413276Y-88583704D01*
X124414687Y-88625768D01*
X124416867Y-88655748D01*
X124419979Y-88676267D01*
X124424186Y-88689949D01*
X124429652Y-88699416D01*
X124433528Y-88704082D01*
X124464966Y-88724575D01*
X124500767Y-88723739D01*
X124532127Y-88706264D01*
X124558778Y-88684684D01*
X124558778Y-88037227D01*
X124532127Y-88015647D01*
X124506406Y-87999949D01*
X124485400Y-87994067D01*
X124462386Y-88000877D01*
G36*
X124906335Y-87996034D02*
G01*
X124886745Y-88003035D01*
X124885990Y-88003377D01*
X124859387Y-88023678D01*
X124844730Y-88044561D01*
X124841862Y-88054352D01*
X124842004Y-88067361D01*
X124846039Y-88085895D01*
X124854854Y-88112257D01*
X124869331Y-88148752D01*
X124890355Y-88197687D01*
X124918812Y-88261365D01*
X124955585Y-88342093D01*
X124975825Y-88386216D01*
X125012375Y-88464985D01*
X125046685Y-88537423D01*
X125077448Y-88600880D01*
X125103352Y-88652708D01*
X125123090Y-88690259D01*
X125135350Y-88710884D01*
X125137776Y-88713733D01*
X125168817Y-88726302D01*
X125203879Y-88724619D01*
X125232000Y-88709332D01*
X125233146Y-88708089D01*
X125244332Y-88691154D01*
X125263096Y-88658170D01*
X125287125Y-88613380D01*
X125314103Y-88561032D01*
X125323799Y-88541742D01*
X125396986Y-88395150D01*
X125476760Y-88554393D01*
X125505233Y-88609415D01*
X125531650Y-88657132D01*
X125553852Y-88693893D01*
X125569681Y-88716044D01*
X125575046Y-88720741D01*
X125616743Y-88727102D01*
X125651151Y-88713733D01*
X125661272Y-88699446D01*
X125678786Y-88667692D01*
X125702265Y-88621597D01*
X125730280Y-88564285D01*
X125761401Y-88498880D01*
X125794201Y-88428507D01*
X125827250Y-88356291D01*
X125859119Y-88285355D01*
X125888381Y-88218825D01*
X125913605Y-88159826D01*
X125933364Y-88111481D01*
X125946228Y-88076915D01*
X125950769Y-88059253D01*
X125950723Y-88058613D01*
X125939674Y-88036388D01*
X125917590Y-88013753D01*
X125916290Y-88012768D01*
X125889147Y-87997425D01*
X125864042Y-87997574D01*
X125854632Y-88000466D01*
X125843166Y-88006718D01*
X125830990Y-88019014D01*
X125816643Y-88039908D01*
X125798664Y-88071949D01*
X125775593Y-88117688D01*
X125745970Y-88179677D01*
X125719255Y-88236898D01*
X125688520Y-88303226D01*
X125660979Y-88362874D01*
X125638062Y-88412725D01*
X125621202Y-88449664D01*
X125611827Y-88470573D01*
X125610460Y-88473845D01*
X125604311Y-88468497D01*
X125590178Y-88446109D01*
X125569943Y-88409946D01*
X125545485Y-88363277D01*
X125535752Y-88344022D01*
X125502783Y-88279004D01*
X125477357Y-88231654D01*
X125457388Y-88199219D01*
X125440790Y-88178946D01*
X125425476Y-88168082D01*
X125409360Y-88163875D01*
X125398857Y-88163400D01*
X125380330Y-88165042D01*
X125364096Y-88171831D01*
X125347965Y-88186566D01*
X125329749Y-88212044D01*
X125307261Y-88251061D01*
X125278311Y-88306414D01*
X125262338Y-88337903D01*
X125236430Y-88388087D01*
X125213833Y-88429704D01*
X125196542Y-88459242D01*
X125186550Y-88473189D01*
X125185191Y-88473770D01*
X125178739Y-88462793D01*
X125164292Y-88434290D01*
X125143297Y-88391244D01*
X125117203Y-88336638D01*
X125087454Y-88273454D01*
X125072820Y-88242071D01*
X125034750Y-88161078D01*
X125004095Y-88098756D01*
X124979263Y-88053071D01*
X124958663Y-88021989D01*
X124940702Y-88003478D01*
X124923790Y-87995504D01*
X124906335Y-87996034D01*
G37*
X124906335Y-87996034D02*
X124886745Y-88003035D01*
X124885990Y-88003377D01*
X124859387Y-88023678D01*
X124844730Y-88044561D01*
X124841862Y-88054352D01*
X124842004Y-88067361D01*
X124846039Y-88085895D01*
X124854854Y-88112257D01*
X124869331Y-88148752D01*
X124890355Y-88197687D01*
X124918812Y-88261365D01*
X124955585Y-88342093D01*
X124975825Y-88386216D01*
X125012375Y-88464985D01*
X125046685Y-88537423D01*
X125077448Y-88600880D01*
X125103352Y-88652708D01*
X125123090Y-88690259D01*
X125135350Y-88710884D01*
X125137776Y-88713733D01*
X125168817Y-88726302D01*
X125203879Y-88724619D01*
X125232000Y-88709332D01*
X125233146Y-88708089D01*
X125244332Y-88691154D01*
X125263096Y-88658170D01*
X125287125Y-88613380D01*
X125314103Y-88561032D01*
X125323799Y-88541742D01*
X125396986Y-88395150D01*
X125476760Y-88554393D01*
X125505233Y-88609415D01*
X125531650Y-88657132D01*
X125553852Y-88693893D01*
X125569681Y-88716044D01*
X125575046Y-88720741D01*
X125616743Y-88727102D01*
X125651151Y-88713733D01*
X125661272Y-88699446D01*
X125678786Y-88667692D01*
X125702265Y-88621597D01*
X125730280Y-88564285D01*
X125761401Y-88498880D01*
X125794201Y-88428507D01*
X125827250Y-88356291D01*
X125859119Y-88285355D01*
X125888381Y-88218825D01*
X125913605Y-88159826D01*
X125933364Y-88111481D01*
X125946228Y-88076915D01*
X125950769Y-88059253D01*
X125950723Y-88058613D01*
X125939674Y-88036388D01*
X125917590Y-88013753D01*
X125916290Y-88012768D01*
X125889147Y-87997425D01*
X125864042Y-87997574D01*
X125854632Y-88000466D01*
X125843166Y-88006718D01*
X125830990Y-88019014D01*
X125816643Y-88039908D01*
X125798664Y-88071949D01*
X125775593Y-88117688D01*
X125745970Y-88179677D01*
X125719255Y-88236898D01*
X125688520Y-88303226D01*
X125660979Y-88362874D01*
X125638062Y-88412725D01*
X125621202Y-88449664D01*
X125611827Y-88470573D01*
X125610460Y-88473845D01*
X125604311Y-88468497D01*
X125590178Y-88446109D01*
X125569943Y-88409946D01*
X125545485Y-88363277D01*
X125535752Y-88344022D01*
X125502783Y-88279004D01*
X125477357Y-88231654D01*
X125457388Y-88199219D01*
X125440790Y-88178946D01*
X125425476Y-88168082D01*
X125409360Y-88163875D01*
X125398857Y-88163400D01*
X125380330Y-88165042D01*
X125364096Y-88171831D01*
X125347965Y-88186566D01*
X125329749Y-88212044D01*
X125307261Y-88251061D01*
X125278311Y-88306414D01*
X125262338Y-88337903D01*
X125236430Y-88388087D01*
X125213833Y-88429704D01*
X125196542Y-88459242D01*
X125186550Y-88473189D01*
X125185191Y-88473770D01*
X125178739Y-88462793D01*
X125164292Y-88434290D01*
X125143297Y-88391244D01*
X125117203Y-88336638D01*
X125087454Y-88273454D01*
X125072820Y-88242071D01*
X125034750Y-88161078D01*
X125004095Y-88098756D01*
X124979263Y-88053071D01*
X124958663Y-88021989D01*
X124940702Y-88003478D01*
X124923790Y-87995504D01*
X124906335Y-87996034D01*
G36*
X127632691Y-87994275D02*
G01*
X127503712Y-87998636D01*
X127394009Y-88011861D01*
X127301774Y-88034741D01*
X127225198Y-88068070D01*
X127162473Y-88112638D01*
X127111788Y-88169236D01*
X127071337Y-88238658D01*
X127070541Y-88240351D01*
X127046399Y-88302483D01*
X127037797Y-88357509D01*
X127044769Y-88412887D01*
X127067346Y-88476073D01*
X127071628Y-88485689D01*
X127100828Y-88541966D01*
X127133644Y-88585451D01*
X127175998Y-88622417D01*
X127233810Y-88659135D01*
X127237169Y-88661052D01*
X127287496Y-88685227D01*
X127344379Y-88703282D01*
X127411473Y-88715839D01*
X127492435Y-88723522D01*
X127590918Y-88726953D01*
X127625714Y-88727251D01*
X127791406Y-88727845D01*
X127814803Y-88698100D01*
X127821743Y-88688319D01*
X127827158Y-88676897D01*
X127831235Y-88661095D01*
X127834163Y-88638175D01*
X127836133Y-88605396D01*
X127836775Y-88581089D01*
X127680156Y-88581089D01*
X127586274Y-88581089D01*
X127531336Y-88579483D01*
X127474940Y-88575255D01*
X127428655Y-88569292D01*
X127425861Y-88568790D01*
X127343652Y-88546736D01*
X127279886Y-88513600D01*
X127232548Y-88467847D01*
X127199618Y-88407939D01*
X127193892Y-88392061D01*
X127188279Y-88367333D01*
X127190709Y-88342902D01*
X127202533Y-88310400D01*
X127209660Y-88294434D01*
X127233000Y-88252006D01*
X127261120Y-88222240D01*
X127292060Y-88201511D01*
X127354034Y-88174537D01*
X127433349Y-88154998D01*
X127525747Y-88143746D01*
X127592667Y-88141270D01*
X127680156Y-88140822D01*
X127680156Y-88581089D01*
X127836775Y-88581089D01*
X127837332Y-88560021D01*
X127837950Y-88499311D01*
X127838175Y-88420526D01*
X127838200Y-88358920D01*
X127838200Y-88049485D01*
X127810491Y-88021776D01*
X127798194Y-88010544D01*
X127784897Y-88002853D01*
X127766328Y-87998040D01*
X127738214Y-87995446D01*
X127696283Y-87994410D01*
X127636263Y-87994270D01*
X127632691Y-87994275D01*
G37*
X127632691Y-87994275D02*
X127503712Y-87998636D01*
X127394009Y-88011861D01*
X127301774Y-88034741D01*
X127225198Y-88068070D01*
X127162473Y-88112638D01*
X127111788Y-88169236D01*
X127071337Y-88238658D01*
X127070541Y-88240351D01*
X127046399Y-88302483D01*
X127037797Y-88357509D01*
X127044769Y-88412887D01*
X127067346Y-88476073D01*
X127071628Y-88485689D01*
X127100828Y-88541966D01*
X127133644Y-88585451D01*
X127175998Y-88622417D01*
X127233810Y-88659135D01*
X127237169Y-88661052D01*
X127287496Y-88685227D01*
X127344379Y-88703282D01*
X127411473Y-88715839D01*
X127492435Y-88723522D01*
X127590918Y-88726953D01*
X127625714Y-88727251D01*
X127791406Y-88727845D01*
X127814803Y-88698100D01*
X127821743Y-88688319D01*
X127827158Y-88676897D01*
X127831235Y-88661095D01*
X127834163Y-88638175D01*
X127836133Y-88605396D01*
X127836775Y-88581089D01*
X127680156Y-88581089D01*
X127586274Y-88581089D01*
X127531336Y-88579483D01*
X127474940Y-88575255D01*
X127428655Y-88569292D01*
X127425861Y-88568790D01*
X127343652Y-88546736D01*
X127279886Y-88513600D01*
X127232548Y-88467847D01*
X127199618Y-88407939D01*
X127193892Y-88392061D01*
X127188279Y-88367333D01*
X127190709Y-88342902D01*
X127202533Y-88310400D01*
X127209660Y-88294434D01*
X127233000Y-88252006D01*
X127261120Y-88222240D01*
X127292060Y-88201511D01*
X127354034Y-88174537D01*
X127433349Y-88154998D01*
X127525747Y-88143746D01*
X127592667Y-88141270D01*
X127680156Y-88140822D01*
X127680156Y-88581089D01*
X127836775Y-88581089D01*
X127837332Y-88560021D01*
X127837950Y-88499311D01*
X127838175Y-88420526D01*
X127838200Y-88358920D01*
X127838200Y-88049485D01*
X127810491Y-88021776D01*
X127798194Y-88010544D01*
X127784897Y-88002853D01*
X127766328Y-87998040D01*
X127738214Y-87995446D01*
X127696283Y-87994410D01*
X127636263Y-87994270D01*
X127632691Y-87994275D01*
G36*
X128420657Y-87994260D02*
G01*
X128344299Y-87995174D01*
X128285783Y-87997311D01*
X128242745Y-88001175D01*
X128212817Y-88007267D01*
X128193632Y-88016090D01*
X128182824Y-88028146D01*
X128178027Y-88043939D01*
X128176873Y-88063970D01*
X128176867Y-88066335D01*
X128177869Y-88088992D01*
X128182604Y-88106503D01*
X128193667Y-88119574D01*
X128213652Y-88128913D01*
X128245154Y-88135227D01*
X128290768Y-88139222D01*
X128353087Y-88141606D01*
X128434707Y-88143086D01*
X128459723Y-88143414D01*
X128701800Y-88146467D01*
X128705186Y-88211378D01*
X128708571Y-88276289D01*
X128540424Y-88276289D01*
X128474734Y-88276531D01*
X128427828Y-88277556D01*
X128395917Y-88279811D01*
X128375209Y-88283742D01*
X128361916Y-88289798D01*
X128352245Y-88298424D01*
X128352183Y-88298493D01*
X128334644Y-88332112D01*
X128335278Y-88368448D01*
X128353686Y-88399423D01*
X128357329Y-88402607D01*
X128370259Y-88410812D01*
X128387976Y-88416521D01*
X128414430Y-88420162D01*
X128453568Y-88422167D01*
X128509338Y-88422964D01*
X128545006Y-88423045D01*
X128707445Y-88423045D01*
X128707445Y-88581089D01*
X128460839Y-88581089D01*
X128379420Y-88581231D01*
X128317590Y-88581814D01*
X128272363Y-88583068D01*
X128240752Y-88585227D01*
X128219769Y-88588523D01*
X128206427Y-88593189D01*
X128197739Y-88599457D01*
X128195550Y-88601733D01*
X128179386Y-88633280D01*
X128178203Y-88669168D01*
X128191464Y-88700285D01*
X128201957Y-88710271D01*
X128212871Y-88715769D01*
X128229783Y-88720022D01*
X128255367Y-88723180D01*
X128292299Y-88725392D01*
X128343254Y-88726806D01*
X128410906Y-88727572D01*
X128497931Y-88727838D01*
X128517606Y-88727845D01*
X128606089Y-88727787D01*
X128674773Y-88727467D01*
X128726436Y-88726667D01*
X128763855Y-88725167D01*
X128789810Y-88722749D01*
X128807078Y-88719194D01*
X128818438Y-88714282D01*
X128826668Y-88707795D01*
X128831183Y-88703138D01*
X128837979Y-88694889D01*
X128843288Y-88684669D01*
X128847294Y-88669800D01*
X128850179Y-88647602D01*
X128852126Y-88615393D01*
X128853319Y-88570496D01*
X128853939Y-88510228D01*
X128854171Y-88431911D01*
X128854200Y-88365994D01*
X128854129Y-88273628D01*
X128853792Y-88201117D01*
X128853002Y-88145737D01*
X128851574Y-88104765D01*
X128849321Y-88075478D01*
X128846057Y-88055153D01*
X128841596Y-88041066D01*
X128835752Y-88030495D01*
X128830803Y-88023811D01*
X128807406Y-87994067D01*
X128517226Y-87994067D01*
X128420657Y-87994260D01*
G37*
X128420657Y-87994260D02*
X128344299Y-87995174D01*
X128285783Y-87997311D01*
X128242745Y-88001175D01*
X128212817Y-88007267D01*
X128193632Y-88016090D01*
X128182824Y-88028146D01*
X128178027Y-88043939D01*
X128176873Y-88063970D01*
X128176867Y-88066335D01*
X128177869Y-88088992D01*
X128182604Y-88106503D01*
X128193667Y-88119574D01*
X128213652Y-88128913D01*
X128245154Y-88135227D01*
X128290768Y-88139222D01*
X128353087Y-88141606D01*
X128434707Y-88143086D01*
X128459723Y-88143414D01*
X128701800Y-88146467D01*
X128705186Y-88211378D01*
X128708571Y-88276289D01*
X128540424Y-88276289D01*
X128474734Y-88276531D01*
X128427828Y-88277556D01*
X128395917Y-88279811D01*
X128375209Y-88283742D01*
X128361916Y-88289798D01*
X128352245Y-88298424D01*
X128352183Y-88298493D01*
X128334644Y-88332112D01*
X128335278Y-88368448D01*
X128353686Y-88399423D01*
X128357329Y-88402607D01*
X128370259Y-88410812D01*
X128387976Y-88416521D01*
X128414430Y-88420162D01*
X128453568Y-88422167D01*
X128509338Y-88422964D01*
X128545006Y-88423045D01*
X128707445Y-88423045D01*
X128707445Y-88581089D01*
X128460839Y-88581089D01*
X128379420Y-88581231D01*
X128317590Y-88581814D01*
X128272363Y-88583068D01*
X128240752Y-88585227D01*
X128219769Y-88588523D01*
X128206427Y-88593189D01*
X128197739Y-88599457D01*
X128195550Y-88601733D01*
X128179386Y-88633280D01*
X128178203Y-88669168D01*
X128191464Y-88700285D01*
X128201957Y-88710271D01*
X128212871Y-88715769D01*
X128229783Y-88720022D01*
X128255367Y-88723180D01*
X128292299Y-88725392D01*
X128343254Y-88726806D01*
X128410906Y-88727572D01*
X128497931Y-88727838D01*
X128517606Y-88727845D01*
X128606089Y-88727787D01*
X128674773Y-88727467D01*
X128726436Y-88726667D01*
X128763855Y-88725167D01*
X128789810Y-88722749D01*
X128807078Y-88719194D01*
X128818438Y-88714282D01*
X128826668Y-88707795D01*
X128831183Y-88703138D01*
X128837979Y-88694889D01*
X128843288Y-88684669D01*
X128847294Y-88669800D01*
X128850179Y-88647602D01*
X128852126Y-88615393D01*
X128853319Y-88570496D01*
X128853939Y-88510228D01*
X128854171Y-88431911D01*
X128854200Y-88365994D01*
X128854129Y-88273628D01*
X128853792Y-88201117D01*
X128853002Y-88145737D01*
X128851574Y-88104765D01*
X128849321Y-88075478D01*
X128846057Y-88055153D01*
X128841596Y-88041066D01*
X128835752Y-88030495D01*
X128830803Y-88023811D01*
X128807406Y-87994067D01*
X128517226Y-87994067D01*
X128420657Y-87994260D01*
G36*
X129951114Y-87998448D02*
G01*
X129927548Y-88012273D01*
X129896735Y-88034881D01*
X129857078Y-88067338D01*
X129806980Y-88110708D01*
X129744843Y-88166058D01*
X129669072Y-88234451D01*
X129582334Y-88313084D01*
X129401711Y-88476878D01*
X129396067Y-88257029D01*
X129394029Y-88181351D01*
X129392063Y-88124994D01*
X129389734Y-88084706D01*
X129386606Y-88057235D01*
X129382245Y-88039329D01*
X129376216Y-88027737D01*
X129368084Y-88019208D01*
X129363772Y-88015623D01*
X129329241Y-87996670D01*
X129296383Y-87999441D01*
X129270318Y-88015633D01*
X129243667Y-88037199D01*
X129240352Y-88352151D01*
X129239435Y-88444779D01*
X129238968Y-88517544D01*
X129239113Y-88573161D01*
X129240032Y-88614342D01*
X129241887Y-88643803D01*
X129244839Y-88664255D01*
X129249050Y-88678413D01*
X129254682Y-88688991D01*
X129260927Y-88697474D01*
X129274439Y-88713207D01*
X129287883Y-88723636D01*
X129303124Y-88727639D01*
X129322026Y-88724094D01*
X129346455Y-88711879D01*
X129378273Y-88689871D01*
X129419348Y-88656949D01*
X129471542Y-88611991D01*
X129536722Y-88553875D01*
X129610556Y-88487099D01*
X129875845Y-88246458D01*
X129881489Y-88465589D01*
X129883531Y-88541128D01*
X129885502Y-88597354D01*
X129887839Y-88637524D01*
X129890981Y-88664896D01*
X129895364Y-88682728D01*
X129901424Y-88694279D01*
X129909600Y-88702807D01*
X129913784Y-88706282D01*
X129950765Y-88725372D01*
X129985708Y-88722493D01*
X130016136Y-88698100D01*
X130023097Y-88688286D01*
X130028523Y-88676826D01*
X130032603Y-88660968D01*
X130035529Y-88637963D01*
X130037492Y-88605062D01*
X130038683Y-88559516D01*
X130039292Y-88498573D01*
X130039511Y-88419486D01*
X130039534Y-88360956D01*
X130039460Y-88269407D01*
X130039113Y-88197687D01*
X130038301Y-88143045D01*
X130036833Y-88102732D01*
X130034519Y-88073998D01*
X130031167Y-88054093D01*
X130026588Y-88040268D01*
X130020589Y-88029772D01*
X130016136Y-88023811D01*
X130004850Y-88009691D01*
X129994301Y-87999029D01*
X129982893Y-87992892D01*
X129969030Y-87992343D01*
X129951114Y-87998448D01*
G37*
X129951114Y-87998448D02*
X129927548Y-88012273D01*
X129896735Y-88034881D01*
X129857078Y-88067338D01*
X129806980Y-88110708D01*
X129744843Y-88166058D01*
X129669072Y-88234451D01*
X129582334Y-88313084D01*
X129401711Y-88476878D01*
X129396067Y-88257029D01*
X129394029Y-88181351D01*
X129392063Y-88124994D01*
X129389734Y-88084706D01*
X129386606Y-88057235D01*
X129382245Y-88039329D01*
X129376216Y-88027737D01*
X129368084Y-88019208D01*
X129363772Y-88015623D01*
X129329241Y-87996670D01*
X129296383Y-87999441D01*
X129270318Y-88015633D01*
X129243667Y-88037199D01*
X129240352Y-88352151D01*
X129239435Y-88444779D01*
X129238968Y-88517544D01*
X129239113Y-88573161D01*
X129240032Y-88614342D01*
X129241887Y-88643803D01*
X129244839Y-88664255D01*
X129249050Y-88678413D01*
X129254682Y-88688991D01*
X129260927Y-88697474D01*
X129274439Y-88713207D01*
X129287883Y-88723636D01*
X129303124Y-88727639D01*
X129322026Y-88724094D01*
X129346455Y-88711879D01*
X129378273Y-88689871D01*
X129419348Y-88656949D01*
X129471542Y-88611991D01*
X129536722Y-88553875D01*
X129610556Y-88487099D01*
X129875845Y-88246458D01*
X129881489Y-88465589D01*
X129883531Y-88541128D01*
X129885502Y-88597354D01*
X129887839Y-88637524D01*
X129890981Y-88664896D01*
X129895364Y-88682728D01*
X129901424Y-88694279D01*
X129909600Y-88702807D01*
X129913784Y-88706282D01*
X129950765Y-88725372D01*
X129985708Y-88722493D01*
X130016136Y-88698100D01*
X130023097Y-88688286D01*
X130028523Y-88676826D01*
X130032603Y-88660968D01*
X130035529Y-88637963D01*
X130037492Y-88605062D01*
X130038683Y-88559516D01*
X130039292Y-88498573D01*
X130039511Y-88419486D01*
X130039534Y-88360956D01*
X130039460Y-88269407D01*
X130039113Y-88197687D01*
X130038301Y-88143045D01*
X130036833Y-88102732D01*
X130034519Y-88073998D01*
X130031167Y-88054093D01*
X130026588Y-88040268D01*
X130020589Y-88029772D01*
X130016136Y-88023811D01*
X130004850Y-88009691D01*
X129994301Y-87999029D01*
X129982893Y-87992892D01*
X129969030Y-87992343D01*
X129951114Y-87998448D01*
G36*
X130601081Y-87999599D02*
G01*
X130532565Y-88011095D01*
X130479943Y-88028967D01*
X130445708Y-88052499D01*
X130436379Y-88065924D01*
X130426893Y-88097148D01*
X130433277Y-88125395D01*
X130453430Y-88152182D01*
X130484745Y-88164713D01*
X130530183Y-88163696D01*
X130565326Y-88156906D01*
X130643419Y-88143971D01*
X130723226Y-88142742D01*
X130812555Y-88153241D01*
X130837229Y-88157690D01*
X130920291Y-88181108D01*
X130985273Y-88215945D01*
X131031461Y-88261604D01*
X131058145Y-88317494D01*
X131063663Y-88346388D01*
X131060051Y-88405012D01*
X131036729Y-88456879D01*
X130995824Y-88500978D01*
X130939459Y-88536299D01*
X130869760Y-88561829D01*
X130788852Y-88576559D01*
X130698860Y-88579478D01*
X130601910Y-88569575D01*
X130596436Y-88568641D01*
X130557875Y-88561459D01*
X130536494Y-88554521D01*
X130527227Y-88544227D01*
X130525006Y-88526976D01*
X130524956Y-88517841D01*
X130524956Y-88479489D01*
X130593431Y-88479489D01*
X130653900Y-88475347D01*
X130695165Y-88462147D01*
X130719175Y-88438730D01*
X130727877Y-88403936D01*
X130727983Y-88399394D01*
X130722892Y-88369654D01*
X130705433Y-88348419D01*
X130672939Y-88334366D01*
X130622743Y-88326173D01*
X130574123Y-88323161D01*
X130503456Y-88321433D01*
X130452198Y-88324070D01*
X130417239Y-88333800D01*
X130395470Y-88353353D01*
X130383780Y-88385456D01*
X130379060Y-88432838D01*
X130378200Y-88495071D01*
X130379609Y-88564535D01*
X130383848Y-88611786D01*
X130390936Y-88637012D01*
X130392311Y-88638988D01*
X130431228Y-88670508D01*
X130488286Y-88695470D01*
X130559869Y-88713340D01*
X130642358Y-88723586D01*
X130732139Y-88725673D01*
X130825592Y-88719068D01*
X130880556Y-88710956D01*
X130966766Y-88686554D01*
X131046892Y-88646662D01*
X131113977Y-88594887D01*
X131124173Y-88584539D01*
X131157302Y-88541035D01*
X131187194Y-88487118D01*
X131210357Y-88430592D01*
X131223298Y-88379259D01*
X131224858Y-88359544D01*
X131218218Y-88318419D01*
X131200568Y-88267252D01*
X131175297Y-88213394D01*
X131145789Y-88164195D01*
X131119719Y-88131334D01*
X131058765Y-88082452D01*
X130979969Y-88043545D01*
X130886157Y-88015494D01*
X130780150Y-87999179D01*
X130683000Y-87995192D01*
X130601081Y-87999599D01*
G37*
X130601081Y-87999599D02*
X130532565Y-88011095D01*
X130479943Y-88028967D01*
X130445708Y-88052499D01*
X130436379Y-88065924D01*
X130426893Y-88097148D01*
X130433277Y-88125395D01*
X130453430Y-88152182D01*
X130484745Y-88164713D01*
X130530183Y-88163696D01*
X130565326Y-88156906D01*
X130643419Y-88143971D01*
X130723226Y-88142742D01*
X130812555Y-88153241D01*
X130837229Y-88157690D01*
X130920291Y-88181108D01*
X130985273Y-88215945D01*
X131031461Y-88261604D01*
X131058145Y-88317494D01*
X131063663Y-88346388D01*
X131060051Y-88405012D01*
X131036729Y-88456879D01*
X130995824Y-88500978D01*
X130939459Y-88536299D01*
X130869760Y-88561829D01*
X130788852Y-88576559D01*
X130698860Y-88579478D01*
X130601910Y-88569575D01*
X130596436Y-88568641D01*
X130557875Y-88561459D01*
X130536494Y-88554521D01*
X130527227Y-88544227D01*
X130525006Y-88526976D01*
X130524956Y-88517841D01*
X130524956Y-88479489D01*
X130593431Y-88479489D01*
X130653900Y-88475347D01*
X130695165Y-88462147D01*
X130719175Y-88438730D01*
X130727877Y-88403936D01*
X130727983Y-88399394D01*
X130722892Y-88369654D01*
X130705433Y-88348419D01*
X130672939Y-88334366D01*
X130622743Y-88326173D01*
X130574123Y-88323161D01*
X130503456Y-88321433D01*
X130452198Y-88324070D01*
X130417239Y-88333800D01*
X130395470Y-88353353D01*
X130383780Y-88385456D01*
X130379060Y-88432838D01*
X130378200Y-88495071D01*
X130379609Y-88564535D01*
X130383848Y-88611786D01*
X130390936Y-88637012D01*
X130392311Y-88638988D01*
X130431228Y-88670508D01*
X130488286Y-88695470D01*
X130559869Y-88713340D01*
X130642358Y-88723586D01*
X130732139Y-88725673D01*
X130825592Y-88719068D01*
X130880556Y-88710956D01*
X130966766Y-88686554D01*
X131046892Y-88646662D01*
X131113977Y-88594887D01*
X131124173Y-88584539D01*
X131157302Y-88541035D01*
X131187194Y-88487118D01*
X131210357Y-88430592D01*
X131223298Y-88379259D01*
X131224858Y-88359544D01*
X131218218Y-88318419D01*
X131200568Y-88267252D01*
X131175297Y-88213394D01*
X131145789Y-88164195D01*
X131119719Y-88131334D01*
X131058765Y-88082452D01*
X130979969Y-88043545D01*
X130886157Y-88015494D01*
X130780150Y-87999179D01*
X130683000Y-87995192D01*
X130601081Y-87999599D01*
G36*
X131574822Y-88016645D02*
G01*
X131568242Y-88024218D01*
X131563079Y-88033987D01*
X131559164Y-88048571D01*
X131556324Y-88070585D01*
X131554387Y-88102648D01*
X131553183Y-88147375D01*
X131552539Y-88207385D01*
X131552284Y-88285294D01*
X131552245Y-88360956D01*
X131552314Y-88454802D01*
X131552638Y-88528689D01*
X131553386Y-88585232D01*
X131554732Y-88627049D01*
X131556846Y-88656757D01*
X131559900Y-88676973D01*
X131564066Y-88690314D01*
X131569516Y-88699398D01*
X131574822Y-88705267D01*
X131607826Y-88724947D01*
X131642991Y-88723181D01*
X131674455Y-88701717D01*
X131681684Y-88693337D01*
X131687334Y-88683614D01*
X131691599Y-88669861D01*
X131694673Y-88649389D01*
X131696752Y-88619512D01*
X131698030Y-88577541D01*
X131698701Y-88520789D01*
X131698959Y-88446567D01*
X131699000Y-88362537D01*
X131699000Y-88049485D01*
X131671291Y-88021776D01*
X131637137Y-87998463D01*
X131604006Y-87997623D01*
X131574822Y-88016645D01*
G37*
X131574822Y-88016645D02*
X131568242Y-88024218D01*
X131563079Y-88033987D01*
X131559164Y-88048571D01*
X131556324Y-88070585D01*
X131554387Y-88102648D01*
X131553183Y-88147375D01*
X131552539Y-88207385D01*
X131552284Y-88285294D01*
X131552245Y-88360956D01*
X131552314Y-88454802D01*
X131552638Y-88528689D01*
X131553386Y-88585232D01*
X131554732Y-88627049D01*
X131556846Y-88656757D01*
X131559900Y-88676973D01*
X131564066Y-88690314D01*
X131569516Y-88699398D01*
X131574822Y-88705267D01*
X131607826Y-88724947D01*
X131642991Y-88723181D01*
X131674455Y-88701717D01*
X131681684Y-88693337D01*
X131687334Y-88683614D01*
X131691599Y-88669861D01*
X131694673Y-88649389D01*
X131696752Y-88619512D01*
X131698030Y-88577541D01*
X131698701Y-88520789D01*
X131698959Y-88446567D01*
X131699000Y-88362537D01*
X131699000Y-88049485D01*
X131671291Y-88021776D01*
X131637137Y-87998463D01*
X131604006Y-87997623D01*
X131574822Y-88016645D01*
G36*
X132342703Y-87995351D02*
G01*
X132267888Y-88000581D01*
X132198306Y-88008750D01*
X132138002Y-88019550D01*
X132091020Y-88032673D01*
X132061406Y-88047813D01*
X132056860Y-88052269D01*
X132041054Y-88086850D01*
X132045847Y-88122351D01*
X132070364Y-88152725D01*
X132071534Y-88153596D01*
X132085954Y-88162954D01*
X132101008Y-88167876D01*
X132122005Y-88168473D01*
X132154257Y-88164861D01*
X132203073Y-88157154D01*
X132207000Y-88156505D01*
X132279739Y-88147569D01*
X132358217Y-88143161D01*
X132436927Y-88143119D01*
X132510361Y-88147279D01*
X132573011Y-88155479D01*
X132619370Y-88167557D01*
X132622416Y-88168771D01*
X132656048Y-88187615D01*
X132667864Y-88206685D01*
X132658614Y-88225439D01*
X132629047Y-88243337D01*
X132579911Y-88259837D01*
X132511957Y-88274396D01*
X132466645Y-88281406D01*
X132372456Y-88294889D01*
X132297544Y-88307214D01*
X132238717Y-88319449D01*
X132192785Y-88332661D01*
X132156555Y-88347917D01*
X132126838Y-88366285D01*
X132100442Y-88388831D01*
X132079230Y-88410971D01*
X132054065Y-88441819D01*
X132041681Y-88468345D01*
X132037808Y-88501026D01*
X132037667Y-88512995D01*
X132040576Y-88552712D01*
X132052202Y-88582259D01*
X132072323Y-88608486D01*
X132113216Y-88648576D01*
X132158817Y-88679149D01*
X132212513Y-88701203D01*
X132277692Y-88715735D01*
X132357744Y-88723741D01*
X132456057Y-88726218D01*
X132472289Y-88726177D01*
X132537849Y-88724818D01*
X132602866Y-88721730D01*
X132660252Y-88717356D01*
X132702922Y-88712140D01*
X132706372Y-88711541D01*
X132748796Y-88701491D01*
X132784780Y-88688796D01*
X132805150Y-88677190D01*
X132824107Y-88646572D01*
X132825427Y-88610918D01*
X132809085Y-88579144D01*
X132805429Y-88575551D01*
X132790315Y-88564876D01*
X132771415Y-88560276D01*
X132742162Y-88561059D01*
X132706651Y-88565127D01*
X132666970Y-88568762D01*
X132611345Y-88571828D01*
X132546406Y-88574053D01*
X132478785Y-88575164D01*
X132461000Y-88575237D01*
X132393128Y-88574964D01*
X132343454Y-88573646D01*
X132307610Y-88570827D01*
X132281224Y-88566050D01*
X132259926Y-88558857D01*
X132247126Y-88552867D01*
X132219000Y-88536233D01*
X132201068Y-88521168D01*
X132198447Y-88516897D01*
X132203976Y-88499263D01*
X132230260Y-88482192D01*
X132275478Y-88466458D01*
X132337808Y-88452838D01*
X132356171Y-88449804D01*
X132452090Y-88434738D01*
X132528641Y-88422146D01*
X132588780Y-88411111D01*
X132635460Y-88400720D01*
X132671637Y-88390056D01*
X132700265Y-88378205D01*
X132724298Y-88364251D01*
X132746692Y-88347281D01*
X132770402Y-88326378D01*
X132778380Y-88319049D01*
X132806353Y-88291699D01*
X132821160Y-88270029D01*
X132826952Y-88245232D01*
X132827889Y-88213983D01*
X132817575Y-88152705D01*
X132786752Y-88100640D01*
X132735595Y-88057958D01*
X132664283Y-88024825D01*
X132613400Y-88009964D01*
X132558100Y-88000366D01*
X132491853Y-87994936D01*
X132418706Y-87993367D01*
X132342703Y-87995351D01*
G37*
X132342703Y-87995351D02*
X132267888Y-88000581D01*
X132198306Y-88008750D01*
X132138002Y-88019550D01*
X132091020Y-88032673D01*
X132061406Y-88047813D01*
X132056860Y-88052269D01*
X132041054Y-88086850D01*
X132045847Y-88122351D01*
X132070364Y-88152725D01*
X132071534Y-88153596D01*
X132085954Y-88162954D01*
X132101008Y-88167876D01*
X132122005Y-88168473D01*
X132154257Y-88164861D01*
X132203073Y-88157154D01*
X132207000Y-88156505D01*
X132279739Y-88147569D01*
X132358217Y-88143161D01*
X132436927Y-88143119D01*
X132510361Y-88147279D01*
X132573011Y-88155479D01*
X132619370Y-88167557D01*
X132622416Y-88168771D01*
X132656048Y-88187615D01*
X132667864Y-88206685D01*
X132658614Y-88225439D01*
X132629047Y-88243337D01*
X132579911Y-88259837D01*
X132511957Y-88274396D01*
X132466645Y-88281406D01*
X132372456Y-88294889D01*
X132297544Y-88307214D01*
X132238717Y-88319449D01*
X132192785Y-88332661D01*
X132156555Y-88347917D01*
X132126838Y-88366285D01*
X132100442Y-88388831D01*
X132079230Y-88410971D01*
X132054065Y-88441819D01*
X132041681Y-88468345D01*
X132037808Y-88501026D01*
X132037667Y-88512995D01*
X132040576Y-88552712D01*
X132052202Y-88582259D01*
X132072323Y-88608486D01*
X132113216Y-88648576D01*
X132158817Y-88679149D01*
X132212513Y-88701203D01*
X132277692Y-88715735D01*
X132357744Y-88723741D01*
X132456057Y-88726218D01*
X132472289Y-88726177D01*
X132537849Y-88724818D01*
X132602866Y-88721730D01*
X132660252Y-88717356D01*
X132702922Y-88712140D01*
X132706372Y-88711541D01*
X132748796Y-88701491D01*
X132784780Y-88688796D01*
X132805150Y-88677190D01*
X132824107Y-88646572D01*
X132825427Y-88610918D01*
X132809085Y-88579144D01*
X132805429Y-88575551D01*
X132790315Y-88564876D01*
X132771415Y-88560276D01*
X132742162Y-88561059D01*
X132706651Y-88565127D01*
X132666970Y-88568762D01*
X132611345Y-88571828D01*
X132546406Y-88574053D01*
X132478785Y-88575164D01*
X132461000Y-88575237D01*
X132393128Y-88574964D01*
X132343454Y-88573646D01*
X132307610Y-88570827D01*
X132281224Y-88566050D01*
X132259926Y-88558857D01*
X132247126Y-88552867D01*
X132219000Y-88536233D01*
X132201068Y-88521168D01*
X132198447Y-88516897D01*
X132203976Y-88499263D01*
X132230260Y-88482192D01*
X132275478Y-88466458D01*
X132337808Y-88452838D01*
X132356171Y-88449804D01*
X132452090Y-88434738D01*
X132528641Y-88422146D01*
X132588780Y-88411111D01*
X132635460Y-88400720D01*
X132671637Y-88390056D01*
X132700265Y-88378205D01*
X132724298Y-88364251D01*
X132746692Y-88347281D01*
X132770402Y-88326378D01*
X132778380Y-88319049D01*
X132806353Y-88291699D01*
X132821160Y-88270029D01*
X132826952Y-88245232D01*
X132827889Y-88213983D01*
X132817575Y-88152705D01*
X132786752Y-88100640D01*
X132735595Y-88057958D01*
X132664283Y-88024825D01*
X132613400Y-88009964D01*
X132558100Y-88000366D01*
X132491853Y-87994936D01*
X132418706Y-87993367D01*
X132342703Y-87995351D01*
G36*
X133363794Y-87994146D02*
G01*
X133294386Y-87994518D01*
X133241997Y-87995385D01*
X133203847Y-87996946D01*
X133177159Y-87999403D01*
X133159153Y-88002957D01*
X133147049Y-88007810D01*
X133138069Y-88014161D01*
X133134818Y-88017084D01*
X133115043Y-88048142D01*
X133111482Y-88083828D01*
X133124491Y-88115510D01*
X133130506Y-88121913D01*
X133140235Y-88128121D01*
X133155901Y-88132910D01*
X133180408Y-88136514D01*
X133216661Y-88139164D01*
X133267565Y-88141095D01*
X133336026Y-88142539D01*
X133398617Y-88143418D01*
X133646334Y-88146467D01*
X133649719Y-88211378D01*
X133653105Y-88276289D01*
X133484958Y-88276289D01*
X133411959Y-88276919D01*
X133358517Y-88279553D01*
X133321628Y-88285309D01*
X133298288Y-88295304D01*
X133285494Y-88310656D01*
X133280242Y-88332482D01*
X133279445Y-88352738D01*
X133281923Y-88377592D01*
X133291277Y-88395906D01*
X133310383Y-88408637D01*
X133342118Y-88416741D01*
X133389359Y-88421176D01*
X133454983Y-88422899D01*
X133490801Y-88423045D01*
X133651978Y-88423045D01*
X133651978Y-88581089D01*
X133403622Y-88581089D01*
X133322213Y-88581202D01*
X133260342Y-88581712D01*
X133214968Y-88582870D01*
X133183054Y-88584930D01*
X133161559Y-88588146D01*
X133147443Y-88592772D01*
X133137668Y-88599059D01*
X133132689Y-88603667D01*
X133115610Y-88630560D01*
X133110111Y-88654467D01*
X133117963Y-88683667D01*
X133132689Y-88705267D01*
X133140546Y-88712066D01*
X133150688Y-88717346D01*
X133165844Y-88721298D01*
X133188741Y-88724113D01*
X133222109Y-88725982D01*
X133268675Y-88727098D01*
X133331167Y-88727651D01*
X133412314Y-88727833D01*
X133454422Y-88727845D01*
X133544598Y-88727765D01*
X133614924Y-88727398D01*
X133668129Y-88726552D01*
X133706940Y-88725036D01*
X133734087Y-88722659D01*
X133752298Y-88719229D01*
X133764300Y-88714554D01*
X133772822Y-88708444D01*
X133776156Y-88705267D01*
X133782755Y-88697670D01*
X133787927Y-88687870D01*
X133791846Y-88673239D01*
X133794684Y-88651152D01*
X133796615Y-88618982D01*
X133797812Y-88574103D01*
X133798448Y-88513889D01*
X133798697Y-88435713D01*
X133798734Y-88362923D01*
X133798700Y-88269707D01*
X133798465Y-88196431D01*
X133797830Y-88140458D01*
X133796594Y-88099151D01*
X133794556Y-88069872D01*
X133791517Y-88049984D01*
X133787277Y-88036850D01*
X133781635Y-88027832D01*
X133774391Y-88020293D01*
X133772606Y-88018612D01*
X133763945Y-88011172D01*
X133753882Y-88005409D01*
X133739625Y-88001112D01*
X133718383Y-87998064D01*
X133687364Y-87996051D01*
X133643777Y-87994860D01*
X133584831Y-87994275D01*
X133507734Y-87994083D01*
X133453001Y-87994067D01*
X133363794Y-87994146D01*
G37*
X133363794Y-87994146D02*
X133294386Y-87994518D01*
X133241997Y-87995385D01*
X133203847Y-87996946D01*
X133177159Y-87999403D01*
X133159153Y-88002957D01*
X133147049Y-88007810D01*
X133138069Y-88014161D01*
X133134818Y-88017084D01*
X133115043Y-88048142D01*
X133111482Y-88083828D01*
X133124491Y-88115510D01*
X133130506Y-88121913D01*
X133140235Y-88128121D01*
X133155901Y-88132910D01*
X133180408Y-88136514D01*
X133216661Y-88139164D01*
X133267565Y-88141095D01*
X133336026Y-88142539D01*
X133398617Y-88143418D01*
X133646334Y-88146467D01*
X133649719Y-88211378D01*
X133653105Y-88276289D01*
X133484958Y-88276289D01*
X133411959Y-88276919D01*
X133358517Y-88279553D01*
X133321628Y-88285309D01*
X133298288Y-88295304D01*
X133285494Y-88310656D01*
X133280242Y-88332482D01*
X133279445Y-88352738D01*
X133281923Y-88377592D01*
X133291277Y-88395906D01*
X133310383Y-88408637D01*
X133342118Y-88416741D01*
X133389359Y-88421176D01*
X133454983Y-88422899D01*
X133490801Y-88423045D01*
X133651978Y-88423045D01*
X133651978Y-88581089D01*
X133403622Y-88581089D01*
X133322213Y-88581202D01*
X133260342Y-88581712D01*
X133214968Y-88582870D01*
X133183054Y-88584930D01*
X133161559Y-88588146D01*
X133147443Y-88592772D01*
X133137668Y-88599059D01*
X133132689Y-88603667D01*
X133115610Y-88630560D01*
X133110111Y-88654467D01*
X133117963Y-88683667D01*
X133132689Y-88705267D01*
X133140546Y-88712066D01*
X133150688Y-88717346D01*
X133165844Y-88721298D01*
X133188741Y-88724113D01*
X133222109Y-88725982D01*
X133268675Y-88727098D01*
X133331167Y-88727651D01*
X133412314Y-88727833D01*
X133454422Y-88727845D01*
X133544598Y-88727765D01*
X133614924Y-88727398D01*
X133668129Y-88726552D01*
X133706940Y-88725036D01*
X133734087Y-88722659D01*
X133752298Y-88719229D01*
X133764300Y-88714554D01*
X133772822Y-88708444D01*
X133776156Y-88705267D01*
X133782755Y-88697670D01*
X133787927Y-88687870D01*
X133791846Y-88673239D01*
X133794684Y-88651152D01*
X133796615Y-88618982D01*
X133797812Y-88574103D01*
X133798448Y-88513889D01*
X133798697Y-88435713D01*
X133798734Y-88362923D01*
X133798700Y-88269707D01*
X133798465Y-88196431D01*
X133797830Y-88140458D01*
X133796594Y-88099151D01*
X133794556Y-88069872D01*
X133791517Y-88049984D01*
X133787277Y-88036850D01*
X133781635Y-88027832D01*
X133774391Y-88020293D01*
X133772606Y-88018612D01*
X133763945Y-88011172D01*
X133753882Y-88005409D01*
X133739625Y-88001112D01*
X133718383Y-87998064D01*
X133687364Y-87996051D01*
X133643777Y-87994860D01*
X133584831Y-87994275D01*
X133507734Y-87994083D01*
X133453001Y-87994067D01*
X133363794Y-87994146D01*
G36*
X134772371Y-87994066D02*
G01*
X134732889Y-87994467D01*
X134617200Y-87997259D01*
X134520311Y-88005550D01*
X134438919Y-88020232D01*
X134369723Y-88042193D01*
X134309420Y-88072322D01*
X134254708Y-88111510D01*
X134235167Y-88128532D01*
X134202750Y-88168363D01*
X134173520Y-88222413D01*
X134150991Y-88282323D01*
X134138679Y-88339739D01*
X134137400Y-88360956D01*
X134145417Y-88419769D01*
X134166899Y-88484013D01*
X134197999Y-88544821D01*
X134234866Y-88593330D01*
X134240854Y-88599182D01*
X134291579Y-88640321D01*
X134347125Y-88672435D01*
X134410696Y-88696365D01*
X134485494Y-88712953D01*
X134574722Y-88723041D01*
X134681582Y-88727469D01*
X134730528Y-88727845D01*
X134792762Y-88727545D01*
X134836528Y-88726292D01*
X134865931Y-88723554D01*
X134885079Y-88718801D01*
X134898077Y-88711501D01*
X134905045Y-88705267D01*
X134911626Y-88697694D01*
X134916788Y-88687924D01*
X134920703Y-88673340D01*
X134923543Y-88651326D01*
X134925480Y-88619264D01*
X134926684Y-88574536D01*
X134927328Y-88514526D01*
X134927583Y-88436617D01*
X134927622Y-88360956D01*
X134927870Y-88260041D01*
X134927817Y-88179427D01*
X134926857Y-88140822D01*
X134780867Y-88140822D01*
X134780867Y-88581089D01*
X134687734Y-88581004D01*
X134631693Y-88579396D01*
X134572999Y-88575256D01*
X134524028Y-88569464D01*
X134522538Y-88569226D01*
X134443392Y-88550090D01*
X134382002Y-88520287D01*
X134335305Y-88477878D01*
X134305635Y-88431961D01*
X134287353Y-88381026D01*
X134288771Y-88333200D01*
X134309988Y-88281933D01*
X134351489Y-88228899D01*
X134408998Y-88189600D01*
X134483750Y-88163331D01*
X134533708Y-88154035D01*
X134590416Y-88147507D01*
X134650519Y-88142782D01*
X134701639Y-88140817D01*
X134704667Y-88140808D01*
X134780867Y-88140822D01*
X134926857Y-88140822D01*
X134926260Y-88116851D01*
X134921998Y-88070055D01*
X134913830Y-88036778D01*
X134900556Y-88014759D01*
X134880974Y-88001739D01*
X134853883Y-87995457D01*
X134818082Y-87993653D01*
X134772371Y-87994066D01*
G37*
X134772371Y-87994066D02*
X134732889Y-87994467D01*
X134617200Y-87997259D01*
X134520311Y-88005550D01*
X134438919Y-88020232D01*
X134369723Y-88042193D01*
X134309420Y-88072322D01*
X134254708Y-88111510D01*
X134235167Y-88128532D01*
X134202750Y-88168363D01*
X134173520Y-88222413D01*
X134150991Y-88282323D01*
X134138679Y-88339739D01*
X134137400Y-88360956D01*
X134145417Y-88419769D01*
X134166899Y-88484013D01*
X134197999Y-88544821D01*
X134234866Y-88593330D01*
X134240854Y-88599182D01*
X134291579Y-88640321D01*
X134347125Y-88672435D01*
X134410696Y-88696365D01*
X134485494Y-88712953D01*
X134574722Y-88723041D01*
X134681582Y-88727469D01*
X134730528Y-88727845D01*
X134792762Y-88727545D01*
X134836528Y-88726292D01*
X134865931Y-88723554D01*
X134885079Y-88718801D01*
X134898077Y-88711501D01*
X134905045Y-88705267D01*
X134911626Y-88697694D01*
X134916788Y-88687924D01*
X134920703Y-88673340D01*
X134923543Y-88651326D01*
X134925480Y-88619264D01*
X134926684Y-88574536D01*
X134927328Y-88514526D01*
X134927583Y-88436617D01*
X134927622Y-88360956D01*
X134927870Y-88260041D01*
X134927817Y-88179427D01*
X134926857Y-88140822D01*
X134780867Y-88140822D01*
X134780867Y-88581089D01*
X134687734Y-88581004D01*
X134631693Y-88579396D01*
X134572999Y-88575256D01*
X134524028Y-88569464D01*
X134522538Y-88569226D01*
X134443392Y-88550090D01*
X134382002Y-88520287D01*
X134335305Y-88477878D01*
X134305635Y-88431961D01*
X134287353Y-88381026D01*
X134288771Y-88333200D01*
X134309988Y-88281933D01*
X134351489Y-88228899D01*
X134408998Y-88189600D01*
X134483750Y-88163331D01*
X134533708Y-88154035D01*
X134590416Y-88147507D01*
X134650519Y-88142782D01*
X134701639Y-88140817D01*
X134704667Y-88140808D01*
X134780867Y-88140822D01*
X134926857Y-88140822D01*
X134926260Y-88116851D01*
X134921998Y-88070055D01*
X134913830Y-88036778D01*
X134900556Y-88014759D01*
X134880974Y-88001739D01*
X134853883Y-87995457D01*
X134818082Y-87993653D01*
X134772371Y-87994066D01*
G36*
X130924043Y-82751571D02*
G01*
X130827768Y-82775809D01*
X130741184Y-82818641D01*
X130666373Y-82878419D01*
X130605418Y-82953494D01*
X130560399Y-83042220D01*
X130534136Y-83138530D01*
X130528286Y-83235795D01*
X130543140Y-83329654D01*
X130576840Y-83417511D01*
X130627528Y-83496770D01*
X130693345Y-83564836D01*
X130772434Y-83619112D01*
X130862934Y-83657002D01*
X130914200Y-83669426D01*
X130958698Y-83676947D01*
X130992999Y-83679919D01*
X131025960Y-83678094D01*
X131066434Y-83671225D01*
X131099531Y-83664250D01*
X131192947Y-83632741D01*
X131276619Y-83581617D01*
X131348665Y-83512429D01*
X131407200Y-83426728D01*
X131421148Y-83399489D01*
X131437586Y-83363122D01*
X131447894Y-83332582D01*
X131453460Y-83300450D01*
X131455669Y-83259307D01*
X131455948Y-83213222D01*
X131451861Y-83128865D01*
X131438446Y-83059586D01*
X131413256Y-82998961D01*
X131373846Y-82940567D01*
X131335298Y-82896302D01*
X131263406Y-82830484D01*
X131188313Y-82785053D01*
X131105562Y-82757850D01*
X131027928Y-82747576D01*
X130924043Y-82751571D01*
G37*
X130924043Y-82751571D02*
X130827768Y-82775809D01*
X130741184Y-82818641D01*
X130666373Y-82878419D01*
X130605418Y-82953494D01*
X130560399Y-83042220D01*
X130534136Y-83138530D01*
X130528286Y-83235795D01*
X130543140Y-83329654D01*
X130576840Y-83417511D01*
X130627528Y-83496770D01*
X130693345Y-83564836D01*
X130772434Y-83619112D01*
X130862934Y-83657002D01*
X130914200Y-83669426D01*
X130958698Y-83676947D01*
X130992999Y-83679919D01*
X131025960Y-83678094D01*
X131066434Y-83671225D01*
X131099531Y-83664250D01*
X131192947Y-83632741D01*
X131276619Y-83581617D01*
X131348665Y-83512429D01*
X131407200Y-83426728D01*
X131421148Y-83399489D01*
X131437586Y-83363122D01*
X131447894Y-83332582D01*
X131453460Y-83300450D01*
X131455669Y-83259307D01*
X131455948Y-83213222D01*
X131451861Y-83128865D01*
X131438446Y-83059586D01*
X131413256Y-82998961D01*
X131373846Y-82940567D01*
X131335298Y-82896302D01*
X131263406Y-82830484D01*
X131188313Y-82785053D01*
X131105562Y-82757850D01*
X131027928Y-82747576D01*
X130924043Y-82751571D01*
G36*
X122464493Y-85197245D02*
G01*
X122464474Y-85431662D01*
X122464448Y-85644603D01*
X122464375Y-85837168D01*
X122464218Y-86010459D01*
X122463936Y-86165576D01*
X122463491Y-86303620D01*
X122462844Y-86425692D01*
X122461955Y-86532894D01*
X122460787Y-86626326D01*
X122459299Y-86707090D01*
X122457454Y-86776286D01*
X122455211Y-86835015D01*
X122452531Y-86884379D01*
X122449377Y-86925478D01*
X122445708Y-86959413D01*
X122441487Y-86987286D01*
X122436673Y-87010198D01*
X122431227Y-87029249D01*
X122425112Y-87045540D01*
X122418288Y-87060173D01*
X122410715Y-87074249D01*
X122402355Y-87088868D01*
X122397161Y-87097974D01*
X122362896Y-87158689D01*
X123221045Y-87158689D01*
X123221045Y-87062733D01*
X123221776Y-87019370D01*
X123223728Y-86986205D01*
X123226537Y-86968424D01*
X123227779Y-86966778D01*
X123239201Y-86973662D01*
X123261916Y-86991505D01*
X123284615Y-87010879D01*
X123339200Y-87051614D01*
X123408679Y-87092617D01*
X123485730Y-87130123D01*
X123563035Y-87160364D01*
X123593887Y-87170012D01*
X123662384Y-87184578D01*
X123745236Y-87194539D01*
X123834629Y-87199583D01*
X123922752Y-87199396D01*
X124001793Y-87193666D01*
X124039489Y-87187858D01*
X124177586Y-87149797D01*
X124304887Y-87092073D01*
X124420708Y-87015211D01*
X124524363Y-86919739D01*
X124615167Y-86806179D01*
X124681969Y-86695381D01*
X124736836Y-86578625D01*
X124778837Y-86459276D01*
X124808833Y-86333283D01*
X124827689Y-86196594D01*
X124836268Y-86045158D01*
X124836994Y-85967711D01*
X124834900Y-85910934D01*
X124005783Y-85910934D01*
X124005576Y-86004002D01*
X124002663Y-86091692D01*
X123997000Y-86168772D01*
X123988545Y-86230009D01*
X123985962Y-86242350D01*
X123954160Y-86349633D01*
X123912502Y-86436658D01*
X123860637Y-86503642D01*
X123798219Y-86550805D01*
X123724900Y-86578365D01*
X123640331Y-86586541D01*
X123544165Y-86575551D01*
X123480689Y-86559829D01*
X123431546Y-86541639D01*
X123377417Y-86515791D01*
X123336756Y-86492089D01*
X123266200Y-86445721D01*
X123266200Y-85295530D01*
X123333608Y-85251962D01*
X123412133Y-85211040D01*
X123496319Y-85184389D01*
X123581443Y-85172465D01*
X123662784Y-85175722D01*
X123735620Y-85194615D01*
X123767574Y-85210184D01*
X123825499Y-85253181D01*
X123874456Y-85309953D01*
X123915610Y-85382575D01*
X123950126Y-85473121D01*
X123979167Y-85583666D01*
X123980448Y-85589533D01*
X123990619Y-85651788D01*
X123998261Y-85729594D01*
X124003330Y-85817720D01*
X124005783Y-85910934D01*
X124834900Y-85910934D01*
X124829143Y-85754895D01*
X124807198Y-85559059D01*
X124771214Y-85380332D01*
X124721241Y-85218845D01*
X124657332Y-85074726D01*
X124579538Y-84948106D01*
X124487911Y-84839115D01*
X124382503Y-84747883D01*
X124337338Y-84716932D01*
X124236389Y-84660785D01*
X124133099Y-84621174D01*
X124023011Y-84597014D01*
X123901670Y-84587219D01*
X123809164Y-84588265D01*
X123679510Y-84599231D01*
X123566916Y-84621046D01*
X123468125Y-84654714D01*
X123379879Y-84701236D01*
X123331014Y-84735448D01*
X123301647Y-84757362D01*
X123279957Y-84772333D01*
X123271747Y-84776733D01*
X123270132Y-84765904D01*
X123268841Y-84735251D01*
X123267862Y-84687526D01*
X123267183Y-84625479D01*
X123266790Y-84551862D01*
X123266670Y-84469427D01*
X123266812Y-84380925D01*
X123267203Y-84289107D01*
X123267829Y-84196724D01*
X123268680Y-84106528D01*
X123269740Y-84021271D01*
X123270999Y-83943703D01*
X123272444Y-83876576D01*
X123274062Y-83822641D01*
X123275839Y-83784650D01*
X123276331Y-83777667D01*
X123283908Y-83707251D01*
X123295469Y-83652102D01*
X123313208Y-83604981D01*
X123339318Y-83558647D01*
X123345585Y-83549067D01*
X123370017Y-83512378D01*
X122464689Y-83512378D01*
X122464493Y-85197245D01*
G37*
X122464493Y-85197245D02*
X122464474Y-85431662D01*
X122464448Y-85644603D01*
X122464375Y-85837168D01*
X122464218Y-86010459D01*
X122463936Y-86165576D01*
X122463491Y-86303620D01*
X122462844Y-86425692D01*
X122461955Y-86532894D01*
X122460787Y-86626326D01*
X122459299Y-86707090D01*
X122457454Y-86776286D01*
X122455211Y-86835015D01*
X122452531Y-86884379D01*
X122449377Y-86925478D01*
X122445708Y-86959413D01*
X122441487Y-86987286D01*
X122436673Y-87010198D01*
X122431227Y-87029249D01*
X122425112Y-87045540D01*
X122418288Y-87060173D01*
X122410715Y-87074249D01*
X122402355Y-87088868D01*
X122397161Y-87097974D01*
X122362896Y-87158689D01*
X123221045Y-87158689D01*
X123221045Y-87062733D01*
X123221776Y-87019370D01*
X123223728Y-86986205D01*
X123226537Y-86968424D01*
X123227779Y-86966778D01*
X123239201Y-86973662D01*
X123261916Y-86991505D01*
X123284615Y-87010879D01*
X123339200Y-87051614D01*
X123408679Y-87092617D01*
X123485730Y-87130123D01*
X123563035Y-87160364D01*
X123593887Y-87170012D01*
X123662384Y-87184578D01*
X123745236Y-87194539D01*
X123834629Y-87199583D01*
X123922752Y-87199396D01*
X124001793Y-87193666D01*
X124039489Y-87187858D01*
X124177586Y-87149797D01*
X124304887Y-87092073D01*
X124420708Y-87015211D01*
X124524363Y-86919739D01*
X124615167Y-86806179D01*
X124681969Y-86695381D01*
X124736836Y-86578625D01*
X124778837Y-86459276D01*
X124808833Y-86333283D01*
X124827689Y-86196594D01*
X124836268Y-86045158D01*
X124836994Y-85967711D01*
X124834900Y-85910934D01*
X124005783Y-85910934D01*
X124005576Y-86004002D01*
X124002663Y-86091692D01*
X123997000Y-86168772D01*
X123988545Y-86230009D01*
X123985962Y-86242350D01*
X123954160Y-86349633D01*
X123912502Y-86436658D01*
X123860637Y-86503642D01*
X123798219Y-86550805D01*
X123724900Y-86578365D01*
X123640331Y-86586541D01*
X123544165Y-86575551D01*
X123480689Y-86559829D01*
X123431546Y-86541639D01*
X123377417Y-86515791D01*
X123336756Y-86492089D01*
X123266200Y-86445721D01*
X123266200Y-85295530D01*
X123333608Y-85251962D01*
X123412133Y-85211040D01*
X123496319Y-85184389D01*
X123581443Y-85172465D01*
X123662784Y-85175722D01*
X123735620Y-85194615D01*
X123767574Y-85210184D01*
X123825499Y-85253181D01*
X123874456Y-85309953D01*
X123915610Y-85382575D01*
X123950126Y-85473121D01*
X123979167Y-85583666D01*
X123980448Y-85589533D01*
X123990619Y-85651788D01*
X123998261Y-85729594D01*
X124003330Y-85817720D01*
X124005783Y-85910934D01*
X124834900Y-85910934D01*
X124829143Y-85754895D01*
X124807198Y-85559059D01*
X124771214Y-85380332D01*
X124721241Y-85218845D01*
X124657332Y-85074726D01*
X124579538Y-84948106D01*
X124487911Y-84839115D01*
X124382503Y-84747883D01*
X124337338Y-84716932D01*
X124236389Y-84660785D01*
X124133099Y-84621174D01*
X124023011Y-84597014D01*
X123901670Y-84587219D01*
X123809164Y-84588265D01*
X123679510Y-84599231D01*
X123566916Y-84621046D01*
X123468125Y-84654714D01*
X123379879Y-84701236D01*
X123331014Y-84735448D01*
X123301647Y-84757362D01*
X123279957Y-84772333D01*
X123271747Y-84776733D01*
X123270132Y-84765904D01*
X123268841Y-84735251D01*
X123267862Y-84687526D01*
X123267183Y-84625479D01*
X123266790Y-84551862D01*
X123266670Y-84469427D01*
X123266812Y-84380925D01*
X123267203Y-84289107D01*
X123267829Y-84196724D01*
X123268680Y-84106528D01*
X123269740Y-84021271D01*
X123270999Y-83943703D01*
X123272444Y-83876576D01*
X123274062Y-83822641D01*
X123275839Y-83784650D01*
X123276331Y-83777667D01*
X123283908Y-83707251D01*
X123295469Y-83652102D01*
X123313208Y-83604981D01*
X123339318Y-83558647D01*
X123345585Y-83549067D01*
X123370017Y-83512378D01*
X122464689Y-83512378D01*
X122464493Y-85197245D01*
G36*
X125977426Y-84591552D02*
G01*
X125825508Y-84611567D01*
X125690244Y-84645202D01*
X125570761Y-84692725D01*
X125466185Y-84754405D01*
X125388576Y-84817965D01*
X125319735Y-84892099D01*
X125265994Y-84971871D01*
X125223090Y-85064091D01*
X125207616Y-85107161D01*
X125194756Y-85146142D01*
X125183554Y-85182289D01*
X125173880Y-85217434D01*
X125165604Y-85253410D01*
X125158597Y-85292050D01*
X125152728Y-85335185D01*
X125147869Y-85384649D01*
X125143890Y-85442273D01*
X125140660Y-85509891D01*
X125138051Y-85589334D01*
X125135933Y-85682436D01*
X125134176Y-85791027D01*
X125132651Y-85916942D01*
X125131228Y-86062012D01*
X125129975Y-86204778D01*
X125128649Y-86360968D01*
X125127444Y-86496239D01*
X125126234Y-86612246D01*
X125124894Y-86710645D01*
X125123300Y-86793093D01*
X125121325Y-86861246D01*
X125118844Y-86916760D01*
X125115731Y-86961292D01*
X125111862Y-86996498D01*
X125107111Y-87024034D01*
X125101352Y-87045556D01*
X125094461Y-87062722D01*
X125086311Y-87077186D01*
X125076777Y-87090606D01*
X125065734Y-87104638D01*
X125061434Y-87110071D01*
X125045614Y-87132910D01*
X125038578Y-87148463D01*
X125038556Y-87148922D01*
X125049433Y-87151121D01*
X125080418Y-87153147D01*
X125129043Y-87154942D01*
X125192837Y-87156451D01*
X125269331Y-87157616D01*
X125356056Y-87158380D01*
X125450543Y-87158686D01*
X125461450Y-87158689D01*
X125884343Y-87158689D01*
X125887605Y-87062622D01*
X125890867Y-86966556D01*
X125952956Y-87017543D01*
X126050286Y-87085057D01*
X126160187Y-87139749D01*
X126246651Y-87169978D01*
X126315722Y-87184666D01*
X126399075Y-87194659D01*
X126488841Y-87199646D01*
X126577155Y-87199313D01*
X126656149Y-87193351D01*
X126692378Y-87187638D01*
X126832397Y-87149776D01*
X126958822Y-87094932D01*
X127070740Y-87023924D01*
X127167238Y-86937568D01*
X127247400Y-86836679D01*
X127310313Y-86722076D01*
X127354688Y-86595984D01*
X127367022Y-86539401D01*
X127374632Y-86477202D01*
X127378261Y-86402363D01*
X127378755Y-86368467D01*
X127378690Y-86365282D01*
X126618752Y-86365282D01*
X126609459Y-86440333D01*
X126581272Y-86504160D01*
X126532803Y-86559798D01*
X126527746Y-86564211D01*
X126479452Y-86599037D01*
X126427743Y-86621620D01*
X126367011Y-86633540D01*
X126291648Y-86636383D01*
X126273541Y-86635978D01*
X126219722Y-86633325D01*
X126179692Y-86627909D01*
X126144676Y-86617745D01*
X126105897Y-86600850D01*
X126095255Y-86595672D01*
X126034604Y-86559844D01*
X125987785Y-86517212D01*
X125975048Y-86501973D01*
X125930378Y-86445462D01*
X125930378Y-86249586D01*
X125930914Y-86170939D01*
X125932604Y-86112988D01*
X125935572Y-86073875D01*
X125939943Y-86051741D01*
X125944028Y-86045274D01*
X125959953Y-86042111D01*
X125993736Y-86039488D01*
X126040660Y-86037655D01*
X126096007Y-86036857D01*
X126104894Y-86036842D01*
X126225670Y-86042096D01*
X126328340Y-86058263D01*
X126414894Y-86085961D01*
X126487319Y-86125808D01*
X126542249Y-86172758D01*
X126586796Y-86230645D01*
X126611520Y-86293693D01*
X126618752Y-86365282D01*
X127378690Y-86365282D01*
X127376822Y-86274712D01*
X127368478Y-86195812D01*
X127352232Y-86124590D01*
X127326595Y-86053864D01*
X127302599Y-86001493D01*
X127243980Y-85906196D01*
X127165883Y-85818170D01*
X127070685Y-85739017D01*
X126960762Y-85670340D01*
X126838490Y-85613741D01*
X126706245Y-85570821D01*
X126641578Y-85555882D01*
X126505396Y-85533777D01*
X126356951Y-85519194D01*
X126205495Y-85512813D01*
X126078936Y-85514445D01*
X125917050Y-85521224D01*
X125924470Y-85462245D01*
X125943762Y-85363092D01*
X125974896Y-85282372D01*
X126018731Y-85219466D01*
X126076129Y-85173756D01*
X126147952Y-85144622D01*
X126235059Y-85131447D01*
X126338314Y-85133611D01*
X126376289Y-85137612D01*
X126517480Y-85162780D01*
X126654293Y-85203814D01*
X126748822Y-85241815D01*
X126793982Y-85261190D01*
X126832415Y-85276760D01*
X126858766Y-85286405D01*
X126866454Y-85288452D01*
X126876198Y-85279374D01*
X126892917Y-85250405D01*
X126916768Y-85201217D01*
X126947907Y-85131484D01*
X126986493Y-85040879D01*
X126993090Y-85025089D01*
X127023147Y-84952772D01*
X127050126Y-84887425D01*
X127072864Y-84831906D01*
X127090194Y-84789072D01*
X127100952Y-84761781D01*
X127104059Y-84752942D01*
X127094060Y-84748187D01*
X127067783Y-84742910D01*
X127039511Y-84739231D01*
X127009354Y-84734474D01*
X126961567Y-84725028D01*
X126900388Y-84711820D01*
X126830054Y-84695776D01*
X126754806Y-84677820D01*
X126726245Y-84670797D01*
X126621184Y-84645209D01*
X126533520Y-84625147D01*
X126458932Y-84609969D01*
X126393097Y-84599035D01*
X126331693Y-84591704D01*
X126270398Y-84587335D01*
X126204890Y-84585287D01*
X126146872Y-84584889D01*
X125977426Y-84591552D01*
G37*
X125977426Y-84591552D02*
X125825508Y-84611567D01*
X125690244Y-84645202D01*
X125570761Y-84692725D01*
X125466185Y-84754405D01*
X125388576Y-84817965D01*
X125319735Y-84892099D01*
X125265994Y-84971871D01*
X125223090Y-85064091D01*
X125207616Y-85107161D01*
X125194756Y-85146142D01*
X125183554Y-85182289D01*
X125173880Y-85217434D01*
X125165604Y-85253410D01*
X125158597Y-85292050D01*
X125152728Y-85335185D01*
X125147869Y-85384649D01*
X125143890Y-85442273D01*
X125140660Y-85509891D01*
X125138051Y-85589334D01*
X125135933Y-85682436D01*
X125134176Y-85791027D01*
X125132651Y-85916942D01*
X125131228Y-86062012D01*
X125129975Y-86204778D01*
X125128649Y-86360968D01*
X125127444Y-86496239D01*
X125126234Y-86612246D01*
X125124894Y-86710645D01*
X125123300Y-86793093D01*
X125121325Y-86861246D01*
X125118844Y-86916760D01*
X125115731Y-86961292D01*
X125111862Y-86996498D01*
X125107111Y-87024034D01*
X125101352Y-87045556D01*
X125094461Y-87062722D01*
X125086311Y-87077186D01*
X125076777Y-87090606D01*
X125065734Y-87104638D01*
X125061434Y-87110071D01*
X125045614Y-87132910D01*
X125038578Y-87148463D01*
X125038556Y-87148922D01*
X125049433Y-87151121D01*
X125080418Y-87153147D01*
X125129043Y-87154942D01*
X125192837Y-87156451D01*
X125269331Y-87157616D01*
X125356056Y-87158380D01*
X125450543Y-87158686D01*
X125461450Y-87158689D01*
X125884343Y-87158689D01*
X125887605Y-87062622D01*
X125890867Y-86966556D01*
X125952956Y-87017543D01*
X126050286Y-87085057D01*
X126160187Y-87139749D01*
X126246651Y-87169978D01*
X126315722Y-87184666D01*
X126399075Y-87194659D01*
X126488841Y-87199646D01*
X126577155Y-87199313D01*
X126656149Y-87193351D01*
X126692378Y-87187638D01*
X126832397Y-87149776D01*
X126958822Y-87094932D01*
X127070740Y-87023924D01*
X127167238Y-86937568D01*
X127247400Y-86836679D01*
X127310313Y-86722076D01*
X127354688Y-86595984D01*
X127367022Y-86539401D01*
X127374632Y-86477202D01*
X127378261Y-86402363D01*
X127378755Y-86368467D01*
X127378690Y-86365282D01*
X126618752Y-86365282D01*
X126609459Y-86440333D01*
X126581272Y-86504160D01*
X126532803Y-86559798D01*
X126527746Y-86564211D01*
X126479452Y-86599037D01*
X126427743Y-86621620D01*
X126367011Y-86633540D01*
X126291648Y-86636383D01*
X126273541Y-86635978D01*
X126219722Y-86633325D01*
X126179692Y-86627909D01*
X126144676Y-86617745D01*
X126105897Y-86600850D01*
X126095255Y-86595672D01*
X126034604Y-86559844D01*
X125987785Y-86517212D01*
X125975048Y-86501973D01*
X125930378Y-86445462D01*
X125930378Y-86249586D01*
X125930914Y-86170939D01*
X125932604Y-86112988D01*
X125935572Y-86073875D01*
X125939943Y-86051741D01*
X125944028Y-86045274D01*
X125959953Y-86042111D01*
X125993736Y-86039488D01*
X126040660Y-86037655D01*
X126096007Y-86036857D01*
X126104894Y-86036842D01*
X126225670Y-86042096D01*
X126328340Y-86058263D01*
X126414894Y-86085961D01*
X126487319Y-86125808D01*
X126542249Y-86172758D01*
X126586796Y-86230645D01*
X126611520Y-86293693D01*
X126618752Y-86365282D01*
X127378690Y-86365282D01*
X127376822Y-86274712D01*
X127368478Y-86195812D01*
X127352232Y-86124590D01*
X127326595Y-86053864D01*
X127302599Y-86001493D01*
X127243980Y-85906196D01*
X127165883Y-85818170D01*
X127070685Y-85739017D01*
X126960762Y-85670340D01*
X126838490Y-85613741D01*
X126706245Y-85570821D01*
X126641578Y-85555882D01*
X126505396Y-85533777D01*
X126356951Y-85519194D01*
X126205495Y-85512813D01*
X126078936Y-85514445D01*
X125917050Y-85521224D01*
X125924470Y-85462245D01*
X125943762Y-85363092D01*
X125974896Y-85282372D01*
X126018731Y-85219466D01*
X126076129Y-85173756D01*
X126147952Y-85144622D01*
X126235059Y-85131447D01*
X126338314Y-85133611D01*
X126376289Y-85137612D01*
X126517480Y-85162780D01*
X126654293Y-85203814D01*
X126748822Y-85241815D01*
X126793982Y-85261190D01*
X126832415Y-85276760D01*
X126858766Y-85286405D01*
X126866454Y-85288452D01*
X126876198Y-85279374D01*
X126892917Y-85250405D01*
X126916768Y-85201217D01*
X126947907Y-85131484D01*
X126986493Y-85040879D01*
X126993090Y-85025089D01*
X127023147Y-84952772D01*
X127050126Y-84887425D01*
X127072864Y-84831906D01*
X127090194Y-84789072D01*
X127100952Y-84761781D01*
X127104059Y-84752942D01*
X127094060Y-84748187D01*
X127067783Y-84742910D01*
X127039511Y-84739231D01*
X127009354Y-84734474D01*
X126961567Y-84725028D01*
X126900388Y-84711820D01*
X126830054Y-84695776D01*
X126754806Y-84677820D01*
X126726245Y-84670797D01*
X126621184Y-84645209D01*
X126533520Y-84625147D01*
X126458932Y-84609969D01*
X126393097Y-84599035D01*
X126331693Y-84591704D01*
X126270398Y-84587335D01*
X126204890Y-84585287D01*
X126146872Y-84584889D01*
X125977426Y-84591552D01*
G36*
X128322571Y-83674071D02*
G01*
X128162430Y-83695245D01*
X127998490Y-83735385D01*
X127828687Y-83794889D01*
X127650957Y-83874154D01*
X127639690Y-83879699D01*
X127581995Y-83907725D01*
X127530448Y-83931802D01*
X127488809Y-83950249D01*
X127460838Y-83961386D01*
X127451267Y-83963933D01*
X127432050Y-83968941D01*
X127427439Y-83973147D01*
X127432542Y-83983580D01*
X127448582Y-84009868D01*
X127473712Y-84049257D01*
X127506086Y-84098991D01*
X127543857Y-84156315D01*
X127585178Y-84218476D01*
X127628202Y-84282718D01*
X127671083Y-84346285D01*
X127711974Y-84406425D01*
X127749029Y-84460380D01*
X127780400Y-84505397D01*
X127804241Y-84538721D01*
X127818706Y-84557597D01*
X127820691Y-84559787D01*
X127830809Y-84555138D01*
X127853150Y-84537962D01*
X127883720Y-84511440D01*
X127899464Y-84496964D01*
X127995953Y-84421682D01*
X128102664Y-84366241D01*
X128218168Y-84331141D01*
X128341038Y-84316880D01*
X128410439Y-84318051D01*
X128531577Y-84335212D01*
X128640795Y-84371094D01*
X128738418Y-84425959D01*
X128824772Y-84500070D01*
X128900185Y-84593688D01*
X128964982Y-84707076D01*
X129002399Y-84793667D01*
X129046252Y-84929366D01*
X129078572Y-85076850D01*
X129099443Y-85232314D01*
X129108949Y-85391956D01*
X129107173Y-85551973D01*
X129094197Y-85708561D01*
X129070106Y-85857918D01*
X129034982Y-85996240D01*
X128988908Y-86119724D01*
X128972627Y-86153978D01*
X128904380Y-86268064D01*
X128823921Y-86364557D01*
X128732430Y-86442670D01*
X128631089Y-86501617D01*
X128521080Y-86540612D01*
X128403585Y-86558868D01*
X128362117Y-86560211D01*
X128240559Y-86549290D01*
X128120122Y-86516474D01*
X128002334Y-86462439D01*
X127888723Y-86387865D01*
X127797315Y-86309539D01*
X127750785Y-86265008D01*
X127569517Y-86562271D01*
X127524420Y-86636433D01*
X127483181Y-86704646D01*
X127447265Y-86764459D01*
X127418134Y-86813420D01*
X127397250Y-86849079D01*
X127386076Y-86868984D01*
X127384625Y-86872079D01*
X127392854Y-86881718D01*
X127418433Y-86898999D01*
X127458127Y-86922283D01*
X127508703Y-86949934D01*
X127566926Y-86980315D01*
X127629563Y-87011790D01*
X127693379Y-87042722D01*
X127755140Y-87071473D01*
X127811612Y-87096408D01*
X127859562Y-87115889D01*
X127883014Y-87124318D01*
X128016779Y-87162133D01*
X128154673Y-87187136D01*
X128302378Y-87200140D01*
X128429167Y-87202468D01*
X128497122Y-87201373D01*
X128562723Y-87199275D01*
X128620153Y-87196434D01*
X128663597Y-87193106D01*
X128677702Y-87191422D01*
X128816716Y-87162587D01*
X128958243Y-87117468D01*
X129095725Y-87058750D01*
X129222606Y-86989120D01*
X129300111Y-86936441D01*
X129427519Y-86828239D01*
X129545822Y-86701671D01*
X129652828Y-86559866D01*
X129746348Y-86405951D01*
X129824190Y-86243053D01*
X129868044Y-86125756D01*
X129918292Y-85942128D01*
X129951791Y-85747581D01*
X129968551Y-85546325D01*
X129968584Y-85342568D01*
X129951899Y-85140521D01*
X129918507Y-84944392D01*
X129868420Y-84758391D01*
X129864603Y-84746803D01*
X129801719Y-84584750D01*
X129724972Y-84436832D01*
X129631758Y-84298865D01*
X129519473Y-84166661D01*
X129475608Y-84121399D01*
X129339466Y-83997457D01*
X129199509Y-83894915D01*
X129053589Y-83812656D01*
X128899558Y-83749564D01*
X128735268Y-83704523D01*
X128639711Y-83687033D01*
X128480977Y-83671466D01*
X128322571Y-83674071D01*
G37*
X128322571Y-83674071D02*
X128162430Y-83695245D01*
X127998490Y-83735385D01*
X127828687Y-83794889D01*
X127650957Y-83874154D01*
X127639690Y-83879699D01*
X127581995Y-83907725D01*
X127530448Y-83931802D01*
X127488809Y-83950249D01*
X127460838Y-83961386D01*
X127451267Y-83963933D01*
X127432050Y-83968941D01*
X127427439Y-83973147D01*
X127432542Y-83983580D01*
X127448582Y-84009868D01*
X127473712Y-84049257D01*
X127506086Y-84098991D01*
X127543857Y-84156315D01*
X127585178Y-84218476D01*
X127628202Y-84282718D01*
X127671083Y-84346285D01*
X127711974Y-84406425D01*
X127749029Y-84460380D01*
X127780400Y-84505397D01*
X127804241Y-84538721D01*
X127818706Y-84557597D01*
X127820691Y-84559787D01*
X127830809Y-84555138D01*
X127853150Y-84537962D01*
X127883720Y-84511440D01*
X127899464Y-84496964D01*
X127995953Y-84421682D01*
X128102664Y-84366241D01*
X128218168Y-84331141D01*
X128341038Y-84316880D01*
X128410439Y-84318051D01*
X128531577Y-84335212D01*
X128640795Y-84371094D01*
X128738418Y-84425959D01*
X128824772Y-84500070D01*
X128900185Y-84593688D01*
X128964982Y-84707076D01*
X129002399Y-84793667D01*
X129046252Y-84929366D01*
X129078572Y-85076850D01*
X129099443Y-85232314D01*
X129108949Y-85391956D01*
X129107173Y-85551973D01*
X129094197Y-85708561D01*
X129070106Y-85857918D01*
X129034982Y-85996240D01*
X128988908Y-86119724D01*
X128972627Y-86153978D01*
X128904380Y-86268064D01*
X128823921Y-86364557D01*
X128732430Y-86442670D01*
X128631089Y-86501617D01*
X128521080Y-86540612D01*
X128403585Y-86558868D01*
X128362117Y-86560211D01*
X128240559Y-86549290D01*
X128120122Y-86516474D01*
X128002334Y-86462439D01*
X127888723Y-86387865D01*
X127797315Y-86309539D01*
X127750785Y-86265008D01*
X127569517Y-86562271D01*
X127524420Y-86636433D01*
X127483181Y-86704646D01*
X127447265Y-86764459D01*
X127418134Y-86813420D01*
X127397250Y-86849079D01*
X127386076Y-86868984D01*
X127384625Y-86872079D01*
X127392854Y-86881718D01*
X127418433Y-86898999D01*
X127458127Y-86922283D01*
X127508703Y-86949934D01*
X127566926Y-86980315D01*
X127629563Y-87011790D01*
X127693379Y-87042722D01*
X127755140Y-87071473D01*
X127811612Y-87096408D01*
X127859562Y-87115889D01*
X127883014Y-87124318D01*
X128016779Y-87162133D01*
X128154673Y-87187136D01*
X128302378Y-87200140D01*
X128429167Y-87202468D01*
X128497122Y-87201373D01*
X128562723Y-87199275D01*
X128620153Y-87196434D01*
X128663597Y-87193106D01*
X128677702Y-87191422D01*
X128816716Y-87162587D01*
X128958243Y-87117468D01*
X129095725Y-87058750D01*
X129222606Y-86989120D01*
X129300111Y-86936441D01*
X129427519Y-86828239D01*
X129545822Y-86701671D01*
X129652828Y-86559866D01*
X129746348Y-86405951D01*
X129824190Y-86243053D01*
X129868044Y-86125756D01*
X129918292Y-85942128D01*
X129951791Y-85747581D01*
X129968551Y-85546325D01*
X129968584Y-85342568D01*
X129951899Y-85140521D01*
X129918507Y-84944392D01*
X129868420Y-84758391D01*
X129864603Y-84746803D01*
X129801719Y-84584750D01*
X129724972Y-84436832D01*
X129631758Y-84298865D01*
X129519473Y-84166661D01*
X129475608Y-84121399D01*
X129339466Y-83997457D01*
X129199509Y-83894915D01*
X129053589Y-83812656D01*
X128899558Y-83749564D01*
X128735268Y-83704523D01*
X128639711Y-83687033D01*
X128480977Y-83671466D01*
X128322571Y-83674071D01*
G36*
X131597400Y-83214054D02*
G01*
X131586535Y-83327993D01*
X131554918Y-83435616D01*
X131504015Y-83534615D01*
X131435293Y-83622684D01*
X131350219Y-83697516D01*
X131253232Y-83755384D01*
X131146964Y-83795005D01*
X131039950Y-83813573D01*
X130934300Y-83812434D01*
X130832125Y-83792930D01*
X130735534Y-83756406D01*
X130646638Y-83704205D01*
X130567546Y-83637673D01*
X130500369Y-83558152D01*
X130447217Y-83466987D01*
X130410199Y-83365523D01*
X130391427Y-83255102D01*
X130389489Y-83205206D01*
X130389489Y-83117267D01*
X130337560Y-83117267D01*
X130301253Y-83120111D01*
X130274355Y-83131911D01*
X130247249Y-83155649D01*
X130208867Y-83194031D01*
X130208867Y-85385602D01*
X130208876Y-85647739D01*
X130208908Y-85888241D01*
X130208972Y-86108048D01*
X130209076Y-86308101D01*
X130209227Y-86489344D01*
X130209434Y-86652716D01*
X130209706Y-86799160D01*
X130210050Y-86929617D01*
X130210474Y-87045029D01*
X130210987Y-87146338D01*
X130211597Y-87234484D01*
X130212312Y-87310410D01*
X130213140Y-87375057D01*
X130214089Y-87429367D01*
X130215167Y-87474280D01*
X130216383Y-87510740D01*
X130217745Y-87539687D01*
X130219261Y-87562063D01*
X130220938Y-87578809D01*
X130222786Y-87590868D01*
X130224813Y-87599180D01*
X130227025Y-87604687D01*
X130228108Y-87606537D01*
X130232271Y-87613549D01*
X130235805Y-87619996D01*
X130239635Y-87625900D01*
X130244682Y-87631286D01*
X130251871Y-87636178D01*
X130262123Y-87640598D01*
X130276364Y-87644572D01*
X130295514Y-87648121D01*
X130320499Y-87651270D01*
X130352240Y-87654042D01*
X130391662Y-87656461D01*
X130439686Y-87658551D01*
X130497237Y-87660335D01*
X130565237Y-87661837D01*
X130644610Y-87663080D01*
X130736279Y-87664089D01*
X130841166Y-87664885D01*
X130960196Y-87665494D01*
X131094290Y-87665939D01*
X131244373Y-87666243D01*
X131411367Y-87666430D01*
X131596196Y-87666524D01*
X131799783Y-87666548D01*
X132023050Y-87666525D01*
X132266922Y-87666480D01*
X132532321Y-87666437D01*
X132570704Y-87666432D01*
X132837682Y-87666389D01*
X133083002Y-87666318D01*
X133307583Y-87666213D01*
X133512345Y-87666066D01*
X133698206Y-87665869D01*
X133866088Y-87665616D01*
X134016908Y-87665300D01*
X134151587Y-87664913D01*
X134271044Y-87664447D01*
X134376199Y-87663897D01*
X134467971Y-87663253D01*
X134547279Y-87662511D01*
X134615043Y-87661661D01*
X134672182Y-87660697D01*
X134719617Y-87659611D01*
X134758266Y-87658397D01*
X134789049Y-87657047D01*
X134812885Y-87655555D01*
X134830694Y-87653911D01*
X134843395Y-87652111D01*
X134851908Y-87650145D01*
X134856266Y-87648477D01*
X134864728Y-87644906D01*
X134872497Y-87642270D01*
X134879602Y-87639634D01*
X134886073Y-87636062D01*
X134891939Y-87630621D01*
X134897229Y-87622375D01*
X134901974Y-87610390D01*
X134906202Y-87593731D01*
X134909943Y-87571463D01*
X134913227Y-87542652D01*
X134916083Y-87506363D01*
X134918540Y-87461661D01*
X134920629Y-87407611D01*
X134922378Y-87343279D01*
X134923817Y-87267730D01*
X134924976Y-87180030D01*
X134925883Y-87079243D01*
X134926569Y-86964434D01*
X134927063Y-86834670D01*
X134927395Y-86689015D01*
X134927593Y-86526535D01*
X134927687Y-86346295D01*
X134927708Y-86147360D01*
X134927685Y-85928796D01*
X134927646Y-85689668D01*
X134927622Y-85429040D01*
X134927622Y-85386889D01*
X134927636Y-85123992D01*
X134927661Y-84882732D01*
X134927671Y-84662165D01*
X134927642Y-84461352D01*
X134927548Y-84279349D01*
X134927362Y-84115216D01*
X134927059Y-83968011D01*
X134926614Y-83836792D01*
X134926034Y-83726867D01*
X134623197Y-83726867D01*
X134583407Y-83784711D01*
X134572236Y-83800479D01*
X134562166Y-83814441D01*
X134553138Y-83827784D01*
X134545097Y-83841693D01*
X134537986Y-83857356D01*
X134531747Y-83875958D01*
X134526325Y-83898686D01*
X134521662Y-83926727D01*
X134517701Y-83961267D01*
X134514385Y-84003492D01*
X134511659Y-84054589D01*
X134509464Y-84115744D01*
X134507745Y-84188144D01*
X134506444Y-84272975D01*
X134505505Y-84371422D01*
X134504870Y-84484674D01*
X134504484Y-84613916D01*
X134504288Y-84760334D01*
X134504227Y-84925116D01*
X134504243Y-85109447D01*
X134504280Y-85314513D01*
X134504289Y-85437133D01*
X134504265Y-85654082D01*
X134504231Y-85849642D01*
X134504243Y-86024999D01*
X134504358Y-86181341D01*
X134504630Y-86319857D01*
X134505118Y-86441734D01*
X134505876Y-86548160D01*
X134506962Y-86640322D01*
X134508431Y-86719409D01*
X134510340Y-86786608D01*
X134512744Y-86843107D01*
X134515701Y-86890093D01*
X134519266Y-86928755D01*
X134523495Y-86960280D01*
X134528446Y-86985855D01*
X134534173Y-87006670D01*
X134540733Y-87023911D01*
X134548183Y-87038765D01*
X134556579Y-87052422D01*
X134565976Y-87066069D01*
X134576432Y-87080893D01*
X134582523Y-87089783D01*
X134621296Y-87147400D01*
X134089732Y-87147400D01*
X133966483Y-87147365D01*
X133863987Y-87147215D01*
X133780420Y-87146878D01*
X133713956Y-87146286D01*
X133662771Y-87145367D01*
X133625041Y-87144051D01*
X133598940Y-87142269D01*
X133582644Y-87139951D01*
X133574328Y-87137026D01*
X133572168Y-87133424D01*
X133574339Y-87129075D01*
X133575535Y-87127645D01*
X133600685Y-87090573D01*
X133626583Y-87037772D01*
X133650192Y-86975770D01*
X133658461Y-86949357D01*
X133663078Y-86931416D01*
X133666979Y-86910355D01*
X133670248Y-86884089D01*
X133672966Y-86850532D01*
X133675215Y-86807599D01*
X133677077Y-86753204D01*
X133678636Y-86685262D01*
X133679972Y-86601688D01*
X133681169Y-86500395D01*
X133682308Y-86379300D01*
X133682685Y-86334600D01*
X133683702Y-86209449D01*
X133684460Y-86105082D01*
X133684903Y-86019707D01*
X133684970Y-85951533D01*
X133684605Y-85898765D01*
X133683748Y-85859614D01*
X133682341Y-85832285D01*
X133680325Y-85814986D01*
X133677643Y-85805926D01*
X133674236Y-85803312D01*
X133670044Y-85805351D01*
X133665571Y-85809667D01*
X133655216Y-85822602D01*
X133633158Y-85851676D01*
X133600957Y-85894759D01*
X133560174Y-85949718D01*
X133512370Y-86014423D01*
X133459105Y-86086742D01*
X133401940Y-86164544D01*
X133342437Y-86245698D01*
X133282155Y-86328072D01*
X133222655Y-86409536D01*
X133165498Y-86487957D01*
X133112245Y-86561204D01*
X133064457Y-86627147D01*
X133023693Y-86683654D01*
X132991516Y-86728593D01*
X132969485Y-86759834D01*
X132964917Y-86766466D01*
X132941996Y-86803369D01*
X132915188Y-86851359D01*
X132889789Y-86900897D01*
X132886568Y-86907577D01*
X132864890Y-86955772D01*
X132852304Y-86993334D01*
X132846574Y-87029160D01*
X132845456Y-87071200D01*
X132846090Y-87147400D01*
X131691651Y-87147400D01*
X131782815Y-87053669D01*
X131829612Y-87003775D01*
X131879899Y-86947295D01*
X131925944Y-86893026D01*
X131946369Y-86867673D01*
X131976807Y-86828128D01*
X132016862Y-86774916D01*
X132065361Y-86709667D01*
X132121135Y-86634011D01*
X132183011Y-86549577D01*
X132249819Y-86457994D01*
X132320387Y-86360892D01*
X132393545Y-86259901D01*
X132468121Y-86156650D01*
X132542944Y-86052768D01*
X132616843Y-85949885D01*
X132688646Y-85849631D01*
X132757184Y-85753636D01*
X132821284Y-85663527D01*
X132879775Y-85580936D01*
X132931486Y-85507492D01*
X132975247Y-85444824D01*
X133009885Y-85394561D01*
X133034230Y-85358334D01*
X133047111Y-85337771D01*
X133048869Y-85333668D01*
X133040910Y-85322342D01*
X133020115Y-85295162D01*
X132987847Y-85253829D01*
X132945470Y-85200044D01*
X132894347Y-85135506D01*
X132835841Y-85061918D01*
X132771314Y-84980978D01*
X132702131Y-84894388D01*
X132629653Y-84803848D01*
X132555246Y-84711060D01*
X132495517Y-84636702D01*
X131484511Y-84636702D01*
X131478602Y-84649659D01*
X131464272Y-84671908D01*
X131463225Y-84673391D01*
X131444438Y-84703544D01*
X131424791Y-84740375D01*
X131420892Y-84748511D01*
X131417356Y-84756940D01*
X131414230Y-84767059D01*
X131411486Y-84780260D01*
X131409092Y-84797938D01*
X131407019Y-84821484D01*
X131405235Y-84852293D01*
X131403712Y-84891757D01*
X131402419Y-84941269D01*
X131401326Y-85002223D01*
X131400403Y-85076011D01*
X131399619Y-85164028D01*
X131398945Y-85267665D01*
X131398350Y-85388316D01*
X131397805Y-85527374D01*
X131397279Y-85686232D01*
X131396745Y-85865089D01*
X131396206Y-86050207D01*
X131395772Y-86214145D01*
X131395509Y-86358303D01*
X131395484Y-86484079D01*
X131395765Y-86592871D01*
X131396419Y-86686077D01*
X131397514Y-86765097D01*
X131399118Y-86831328D01*
X131401297Y-86886170D01*
X131404119Y-86931021D01*
X131407651Y-86967278D01*
X131411961Y-86996341D01*
X131417117Y-87019609D01*
X131423185Y-87038479D01*
X131430233Y-87054351D01*
X131438329Y-87068622D01*
X131447540Y-87082691D01*
X131456040Y-87095158D01*
X131473176Y-87121452D01*
X131483322Y-87139037D01*
X131484511Y-87142257D01*
X131473604Y-87143334D01*
X131442411Y-87144335D01*
X131393223Y-87145235D01*
X131328333Y-87146010D01*
X131250030Y-87146637D01*
X131160607Y-87147091D01*
X131062356Y-87147349D01*
X130993445Y-87147400D01*
X130888452Y-87147180D01*
X130791610Y-87146548D01*
X130705107Y-87145549D01*
X130631132Y-87144227D01*
X130571874Y-87142626D01*
X130529520Y-87140791D01*
X130506260Y-87138765D01*
X130502378Y-87137493D01*
X130510076Y-87122591D01*
X130518074Y-87114560D01*
X130531246Y-87097434D01*
X130548485Y-87067183D01*
X130560407Y-87042622D01*
X130587045Y-86983711D01*
X130590120Y-85806845D01*
X130593195Y-84629978D01*
X131038853Y-84629978D01*
X131136670Y-84630142D01*
X131227064Y-84630611D01*
X131307630Y-84631347D01*
X131375962Y-84632316D01*
X131429656Y-84633480D01*
X131466305Y-84634803D01*
X131483504Y-84636249D01*
X131484511Y-84636702D01*
X132495517Y-84636702D01*
X132480270Y-84617722D01*
X132406090Y-84525537D01*
X132334069Y-84436204D01*
X132265569Y-84351424D01*
X132201955Y-84272898D01*
X132144588Y-84202326D01*
X132094833Y-84141409D01*
X132054052Y-84091847D01*
X132036888Y-84071178D01*
X131950596Y-83970516D01*
X131873997Y-83887259D01*
X131805183Y-83819438D01*
X131742248Y-83765089D01*
X131732867Y-83757722D01*
X131693356Y-83727117D01*
X132825116Y-83726867D01*
X132819827Y-83774844D01*
X132823130Y-83832188D01*
X132844661Y-83900463D01*
X132884635Y-83980212D01*
X132929943Y-84052495D01*
X132946161Y-84075140D01*
X132974214Y-84112696D01*
X133012430Y-84163021D01*
X133059137Y-84223973D01*
X133112661Y-84293411D01*
X133171331Y-84369194D01*
X133233475Y-84449180D01*
X133297421Y-84531228D01*
X133361495Y-84613196D01*
X133424027Y-84692943D01*
X133483343Y-84768327D01*
X133537771Y-84837207D01*
X133585639Y-84897442D01*
X133625275Y-84946889D01*
X133655006Y-84983408D01*
X133673161Y-85004858D01*
X133676220Y-85008156D01*
X133679079Y-85000149D01*
X133681293Y-84969855D01*
X133682857Y-84917556D01*
X133683767Y-84843531D01*
X133684020Y-84748063D01*
X133683613Y-84631434D01*
X133682704Y-84511445D01*
X133681382Y-84379333D01*
X133679857Y-84267594D01*
X133677881Y-84174025D01*
X133675206Y-84096419D01*
X133671582Y-84032574D01*
X133666761Y-83980283D01*
X133660494Y-83937344D01*
X133652532Y-83901551D01*
X133642627Y-83870700D01*
X133630531Y-83842586D01*
X133615993Y-83815005D01*
X133601311Y-83789966D01*
X133563314Y-83726867D01*
X134623197Y-83726867D01*
X134926034Y-83726867D01*
X134926001Y-83720617D01*
X134925195Y-83618544D01*
X134924170Y-83529633D01*
X134922900Y-83452941D01*
X134921360Y-83387527D01*
X134919524Y-83332449D01*
X134917367Y-83286765D01*
X134914863Y-83249534D01*
X134911987Y-83219813D01*
X134908713Y-83196662D01*
X134905015Y-83179139D01*
X134900869Y-83166301D01*
X134896247Y-83157208D01*
X134891126Y-83150918D01*
X134885478Y-83146488D01*
X134879279Y-83142978D01*
X134872504Y-83139445D01*
X134866508Y-83135876D01*
X134861275Y-83133300D01*
X134853099Y-83130972D01*
X134840886Y-83128878D01*
X134823541Y-83127007D01*
X134799969Y-83125347D01*
X134769077Y-83123884D01*
X134729768Y-83122608D01*
X134680950Y-83121504D01*
X134621527Y-83120561D01*
X134550404Y-83119767D01*
X134466488Y-83119109D01*
X134368683Y-83118575D01*
X134255894Y-83118153D01*
X134127029Y-83117829D01*
X133980991Y-83117592D01*
X133816686Y-83117430D01*
X133633020Y-83117330D01*
X133428897Y-83117280D01*
X133217753Y-83117267D01*
X131597400Y-83117267D01*
X131597400Y-83214054D01*
G37*
X131597400Y-83214054D02*
X131586535Y-83327993D01*
X131554918Y-83435616D01*
X131504015Y-83534615D01*
X131435293Y-83622684D01*
X131350219Y-83697516D01*
X131253232Y-83755384D01*
X131146964Y-83795005D01*
X131039950Y-83813573D01*
X130934300Y-83812434D01*
X130832125Y-83792930D01*
X130735534Y-83756406D01*
X130646638Y-83704205D01*
X130567546Y-83637673D01*
X130500369Y-83558152D01*
X130447217Y-83466987D01*
X130410199Y-83365523D01*
X130391427Y-83255102D01*
X130389489Y-83205206D01*
X130389489Y-83117267D01*
X130337560Y-83117267D01*
X130301253Y-83120111D01*
X130274355Y-83131911D01*
X130247249Y-83155649D01*
X130208867Y-83194031D01*
X130208867Y-85385602D01*
X130208876Y-85647739D01*
X130208908Y-85888241D01*
X130208972Y-86108048D01*
X130209076Y-86308101D01*
X130209227Y-86489344D01*
X130209434Y-86652716D01*
X130209706Y-86799160D01*
X130210050Y-86929617D01*
X130210474Y-87045029D01*
X130210987Y-87146338D01*
X130211597Y-87234484D01*
X130212312Y-87310410D01*
X130213140Y-87375057D01*
X130214089Y-87429367D01*
X130215167Y-87474280D01*
X130216383Y-87510740D01*
X130217745Y-87539687D01*
X130219261Y-87562063D01*
X130220938Y-87578809D01*
X130222786Y-87590868D01*
X130224813Y-87599180D01*
X130227025Y-87604687D01*
X130228108Y-87606537D01*
X130232271Y-87613549D01*
X130235805Y-87619996D01*
X130239635Y-87625900D01*
X130244682Y-87631286D01*
X130251871Y-87636178D01*
X130262123Y-87640598D01*
X130276364Y-87644572D01*
X130295514Y-87648121D01*
X130320499Y-87651270D01*
X130352240Y-87654042D01*
X130391662Y-87656461D01*
X130439686Y-87658551D01*
X130497237Y-87660335D01*
X130565237Y-87661837D01*
X130644610Y-87663080D01*
X130736279Y-87664089D01*
X130841166Y-87664885D01*
X130960196Y-87665494D01*
X131094290Y-87665939D01*
X131244373Y-87666243D01*
X131411367Y-87666430D01*
X131596196Y-87666524D01*
X131799783Y-87666548D01*
X132023050Y-87666525D01*
X132266922Y-87666480D01*
X132532321Y-87666437D01*
X132570704Y-87666432D01*
X132837682Y-87666389D01*
X133083002Y-87666318D01*
X133307583Y-87666213D01*
X133512345Y-87666066D01*
X133698206Y-87665869D01*
X133866088Y-87665616D01*
X134016908Y-87665300D01*
X134151587Y-87664913D01*
X134271044Y-87664447D01*
X134376199Y-87663897D01*
X134467971Y-87663253D01*
X134547279Y-87662511D01*
X134615043Y-87661661D01*
X134672182Y-87660697D01*
X134719617Y-87659611D01*
X134758266Y-87658397D01*
X134789049Y-87657047D01*
X134812885Y-87655555D01*
X134830694Y-87653911D01*
X134843395Y-87652111D01*
X134851908Y-87650145D01*
X134856266Y-87648477D01*
X134864728Y-87644906D01*
X134872497Y-87642270D01*
X134879602Y-87639634D01*
X134886073Y-87636062D01*
X134891939Y-87630621D01*
X134897229Y-87622375D01*
X134901974Y-87610390D01*
X134906202Y-87593731D01*
X134909943Y-87571463D01*
X134913227Y-87542652D01*
X134916083Y-87506363D01*
X134918540Y-87461661D01*
X134920629Y-87407611D01*
X134922378Y-87343279D01*
X134923817Y-87267730D01*
X134924976Y-87180030D01*
X134925883Y-87079243D01*
X134926569Y-86964434D01*
X134927063Y-86834670D01*
X134927395Y-86689015D01*
X134927593Y-86526535D01*
X134927687Y-86346295D01*
X134927708Y-86147360D01*
X134927685Y-85928796D01*
X134927646Y-85689668D01*
X134927622Y-85429040D01*
X134927622Y-85386889D01*
X134927636Y-85123992D01*
X134927661Y-84882732D01*
X134927671Y-84662165D01*
X134927642Y-84461352D01*
X134927548Y-84279349D01*
X134927362Y-84115216D01*
X134927059Y-83968011D01*
X134926614Y-83836792D01*
X134926034Y-83726867D01*
X134623197Y-83726867D01*
X134583407Y-83784711D01*
X134572236Y-83800479D01*
X134562166Y-83814441D01*
X134553138Y-83827784D01*
X134545097Y-83841693D01*
X134537986Y-83857356D01*
X134531747Y-83875958D01*
X134526325Y-83898686D01*
X134521662Y-83926727D01*
X134517701Y-83961267D01*
X134514385Y-84003492D01*
X134511659Y-84054589D01*
X134509464Y-84115744D01*
X134507745Y-84188144D01*
X134506444Y-84272975D01*
X134505505Y-84371422D01*
X134504870Y-84484674D01*
X134504484Y-84613916D01*
X134504288Y-84760334D01*
X134504227Y-84925116D01*
X134504243Y-85109447D01*
X134504280Y-85314513D01*
X134504289Y-85437133D01*
X134504265Y-85654082D01*
X134504231Y-85849642D01*
X134504243Y-86024999D01*
X134504358Y-86181341D01*
X134504630Y-86319857D01*
X134505118Y-86441734D01*
X134505876Y-86548160D01*
X134506962Y-86640322D01*
X134508431Y-86719409D01*
X134510340Y-86786608D01*
X134512744Y-86843107D01*
X134515701Y-86890093D01*
X134519266Y-86928755D01*
X134523495Y-86960280D01*
X134528446Y-86985855D01*
X134534173Y-87006670D01*
X134540733Y-87023911D01*
X134548183Y-87038765D01*
X134556579Y-87052422D01*
X134565976Y-87066069D01*
X134576432Y-87080893D01*
X134582523Y-87089783D01*
X134621296Y-87147400D01*
X134089732Y-87147400D01*
X133966483Y-87147365D01*
X133863987Y-87147215D01*
X133780420Y-87146878D01*
X133713956Y-87146286D01*
X133662771Y-87145367D01*
X133625041Y-87144051D01*
X133598940Y-87142269D01*
X133582644Y-87139951D01*
X133574328Y-87137026D01*
X133572168Y-87133424D01*
X133574339Y-87129075D01*
X133575535Y-87127645D01*
X133600685Y-87090573D01*
X133626583Y-87037772D01*
X133650192Y-86975770D01*
X133658461Y-86949357D01*
X133663078Y-86931416D01*
X133666979Y-86910355D01*
X133670248Y-86884089D01*
X133672966Y-86850532D01*
X133675215Y-86807599D01*
X133677077Y-86753204D01*
X133678636Y-86685262D01*
X133679972Y-86601688D01*
X133681169Y-86500395D01*
X133682308Y-86379300D01*
X133682685Y-86334600D01*
X133683702Y-86209449D01*
X133684460Y-86105082D01*
X133684903Y-86019707D01*
X133684970Y-85951533D01*
X133684605Y-85898765D01*
X133683748Y-85859614D01*
X133682341Y-85832285D01*
X133680325Y-85814986D01*
X133677643Y-85805926D01*
X133674236Y-85803312D01*
X133670044Y-85805351D01*
X133665571Y-85809667D01*
X133655216Y-85822602D01*
X133633158Y-85851676D01*
X133600957Y-85894759D01*
X133560174Y-85949718D01*
X133512370Y-86014423D01*
X133459105Y-86086742D01*
X133401940Y-86164544D01*
X133342437Y-86245698D01*
X133282155Y-86328072D01*
X133222655Y-86409536D01*
X133165498Y-86487957D01*
X133112245Y-86561204D01*
X133064457Y-86627147D01*
X133023693Y-86683654D01*
X132991516Y-86728593D01*
X132969485Y-86759834D01*
X132964917Y-86766466D01*
X132941996Y-86803369D01*
X132915188Y-86851359D01*
X132889789Y-86900897D01*
X132886568Y-86907577D01*
X132864890Y-86955772D01*
X132852304Y-86993334D01*
X132846574Y-87029160D01*
X132845456Y-87071200D01*
X132846090Y-87147400D01*
X131691651Y-87147400D01*
X131782815Y-87053669D01*
X131829612Y-87003775D01*
X131879899Y-86947295D01*
X131925944Y-86893026D01*
X131946369Y-86867673D01*
X131976807Y-86828128D01*
X132016862Y-86774916D01*
X132065361Y-86709667D01*
X132121135Y-86634011D01*
X132183011Y-86549577D01*
X132249819Y-86457994D01*
X132320387Y-86360892D01*
X132393545Y-86259901D01*
X132468121Y-86156650D01*
X132542944Y-86052768D01*
X132616843Y-85949885D01*
X132688646Y-85849631D01*
X132757184Y-85753636D01*
X132821284Y-85663527D01*
X132879775Y-85580936D01*
X132931486Y-85507492D01*
X132975247Y-85444824D01*
X133009885Y-85394561D01*
X133034230Y-85358334D01*
X133047111Y-85337771D01*
X133048869Y-85333668D01*
X133040910Y-85322342D01*
X133020115Y-85295162D01*
X132987847Y-85253829D01*
X132945470Y-85200044D01*
X132894347Y-85135506D01*
X132835841Y-85061918D01*
X132771314Y-84980978D01*
X132702131Y-84894388D01*
X132629653Y-84803848D01*
X132555246Y-84711060D01*
X132495517Y-84636702D01*
X131484511Y-84636702D01*
X131478602Y-84649659D01*
X131464272Y-84671908D01*
X131463225Y-84673391D01*
X131444438Y-84703544D01*
X131424791Y-84740375D01*
X131420892Y-84748511D01*
X131417356Y-84756940D01*
X131414230Y-84767059D01*
X131411486Y-84780260D01*
X131409092Y-84797938D01*
X131407019Y-84821484D01*
X131405235Y-84852293D01*
X131403712Y-84891757D01*
X131402419Y-84941269D01*
X131401326Y-85002223D01*
X131400403Y-85076011D01*
X131399619Y-85164028D01*
X131398945Y-85267665D01*
X131398350Y-85388316D01*
X131397805Y-85527374D01*
X131397279Y-85686232D01*
X131396745Y-85865089D01*
X131396206Y-86050207D01*
X131395772Y-86214145D01*
X131395509Y-86358303D01*
X131395484Y-86484079D01*
X131395765Y-86592871D01*
X131396419Y-86686077D01*
X131397514Y-86765097D01*
X131399118Y-86831328D01*
X131401297Y-86886170D01*
X131404119Y-86931021D01*
X131407651Y-86967278D01*
X131411961Y-86996341D01*
X131417117Y-87019609D01*
X131423185Y-87038479D01*
X131430233Y-87054351D01*
X131438329Y-87068622D01*
X131447540Y-87082691D01*
X131456040Y-87095158D01*
X131473176Y-87121452D01*
X131483322Y-87139037D01*
X131484511Y-87142257D01*
X131473604Y-87143334D01*
X131442411Y-87144335D01*
X131393223Y-87145235D01*
X131328333Y-87146010D01*
X131250030Y-87146637D01*
X131160607Y-87147091D01*
X131062356Y-87147349D01*
X130993445Y-87147400D01*
X130888452Y-87147180D01*
X130791610Y-87146548D01*
X130705107Y-87145549D01*
X130631132Y-87144227D01*
X130571874Y-87142626D01*
X130529520Y-87140791D01*
X130506260Y-87138765D01*
X130502378Y-87137493D01*
X130510076Y-87122591D01*
X130518074Y-87114560D01*
X130531246Y-87097434D01*
X130548485Y-87067183D01*
X130560407Y-87042622D01*
X130587045Y-86983711D01*
X130590120Y-85806845D01*
X130593195Y-84629978D01*
X131038853Y-84629978D01*
X131136670Y-84630142D01*
X131227064Y-84630611D01*
X131307630Y-84631347D01*
X131375962Y-84632316D01*
X131429656Y-84633480D01*
X131466305Y-84634803D01*
X131483504Y-84636249D01*
X131484511Y-84636702D01*
X132495517Y-84636702D01*
X132480270Y-84617722D01*
X132406090Y-84525537D01*
X132334069Y-84436204D01*
X132265569Y-84351424D01*
X132201955Y-84272898D01*
X132144588Y-84202326D01*
X132094833Y-84141409D01*
X132054052Y-84091847D01*
X132036888Y-84071178D01*
X131950596Y-83970516D01*
X131873997Y-83887259D01*
X131805183Y-83819438D01*
X131742248Y-83765089D01*
X131732867Y-83757722D01*
X131693356Y-83727117D01*
X132825116Y-83726867D01*
X132819827Y-83774844D01*
X132823130Y-83832188D01*
X132844661Y-83900463D01*
X132884635Y-83980212D01*
X132929943Y-84052495D01*
X132946161Y-84075140D01*
X132974214Y-84112696D01*
X133012430Y-84163021D01*
X133059137Y-84223973D01*
X133112661Y-84293411D01*
X133171331Y-84369194D01*
X133233475Y-84449180D01*
X133297421Y-84531228D01*
X133361495Y-84613196D01*
X133424027Y-84692943D01*
X133483343Y-84768327D01*
X133537771Y-84837207D01*
X133585639Y-84897442D01*
X133625275Y-84946889D01*
X133655006Y-84983408D01*
X133673161Y-85004858D01*
X133676220Y-85008156D01*
X133679079Y-85000149D01*
X133681293Y-84969855D01*
X133682857Y-84917556D01*
X133683767Y-84843531D01*
X133684020Y-84748063D01*
X133683613Y-84631434D01*
X133682704Y-84511445D01*
X133681382Y-84379333D01*
X133679857Y-84267594D01*
X133677881Y-84174025D01*
X133675206Y-84096419D01*
X133671582Y-84032574D01*
X133666761Y-83980283D01*
X133660494Y-83937344D01*
X133652532Y-83901551D01*
X133642627Y-83870700D01*
X133630531Y-83842586D01*
X133615993Y-83815005D01*
X133601311Y-83789966D01*
X133563314Y-83726867D01*
X134623197Y-83726867D01*
X134926034Y-83726867D01*
X134926001Y-83720617D01*
X134925195Y-83618544D01*
X134924170Y-83529633D01*
X134922900Y-83452941D01*
X134921360Y-83387527D01*
X134919524Y-83332449D01*
X134917367Y-83286765D01*
X134914863Y-83249534D01*
X134911987Y-83219813D01*
X134908713Y-83196662D01*
X134905015Y-83179139D01*
X134900869Y-83166301D01*
X134896247Y-83157208D01*
X134891126Y-83150918D01*
X134885478Y-83146488D01*
X134879279Y-83142978D01*
X134872504Y-83139445D01*
X134866508Y-83135876D01*
X134861275Y-83133300D01*
X134853099Y-83130972D01*
X134840886Y-83128878D01*
X134823541Y-83127007D01*
X134799969Y-83125347D01*
X134769077Y-83123884D01*
X134729768Y-83122608D01*
X134680950Y-83121504D01*
X134621527Y-83120561D01*
X134550404Y-83119767D01*
X134466488Y-83119109D01*
X134368683Y-83118575D01*
X134255894Y-83118153D01*
X134127029Y-83117829D01*
X133980991Y-83117592D01*
X133816686Y-83117430D01*
X133633020Y-83117330D01*
X133428897Y-83117280D01*
X133217753Y-83117267D01*
X131597400Y-83117267D01*
X131597400Y-83214054D01*
%TD*%
M02*
