%TF.GenerationSoftware,KiCad,Pcbnew,5.1.8-db9833491~87~ubuntu20.04.1*%
%TF.CreationDate,2020-11-19T17:12:54+01:00*%
%TF.ProjectId,custom-arduino-rtc-temperature-humidity,63757374-6f6d-42d6-9172-6475696e6f2d,rev?*%
%TF.SameCoordinates,Original*%
%TF.FileFunction,Copper,L2,Inr*%
%TF.FilePolarity,Positive*%
%FSLAX46Y46*%
G04 Gerber Fmt 4.6, Leading zero omitted, Abs format (unit mm)*
G04 Created by KiCad (PCBNEW 5.1.8-db9833491~87~ubuntu20.04.1) date 2020-11-19 17:12:54*
%MOMM*%
%LPD*%
G01*
G04 APERTURE LIST*
%TA.AperFunction,ComponentPad*%
%ADD10O,1.700000X1.700000*%
%TD*%
%TA.AperFunction,ComponentPad*%
%ADD11R,1.700000X1.700000*%
%TD*%
%TA.AperFunction,ComponentPad*%
%ADD12C,1.524000*%
%TD*%
%TA.AperFunction,ComponentPad*%
%ADD13C,2.000000*%
%TD*%
%TA.AperFunction,ComponentPad*%
%ADD14R,1.524000X1.524000*%
%TD*%
%TA.AperFunction,ComponentPad*%
%ADD15C,0.800000*%
%TD*%
%TA.AperFunction,ComponentPad*%
%ADD16C,6.400000*%
%TD*%
%TA.AperFunction,ComponentPad*%
%ADD17O,1.700000X1.350000*%
%TD*%
%TA.AperFunction,ComponentPad*%
%ADD18O,1.500000X1.100000*%
%TD*%
%TA.AperFunction,ViaPad*%
%ADD19C,0.800000*%
%TD*%
%TA.AperFunction,Conductor*%
%ADD20C,0.254000*%
%TD*%
%TA.AperFunction,Conductor*%
%ADD21C,0.100000*%
%TD*%
G04 APERTURE END LIST*
D10*
%TO.N,GND*%
%TO.C,J7*%
X139700000Y-94361000D03*
D11*
%TO.N,+3V3*%
X139700000Y-91821000D03*
%TD*%
D10*
%TO.N,GND*%
%TO.C,J6*%
X144399000Y-94361000D03*
D11*
%TO.N,+5V*%
X144399000Y-91821000D03*
%TD*%
%TO.N,GND*%
%TO.C,BT2*%
%TA.AperFunction,ComponentPad*%
G36*
G01*
X118905000Y-85457000D02*
X118905000Y-86219000D01*
G75*
G02*
X118524000Y-86600000I-381000J0D01*
G01*
X117762000Y-86600000D01*
G75*
G02*
X117381000Y-86219000I0J381000D01*
G01*
X117381000Y-85457000D01*
G75*
G02*
X117762000Y-85076000I381000J0D01*
G01*
X118524000Y-85076000D01*
G75*
G02*
X118905000Y-85457000I0J-381000D01*
G01*
G37*
%TD.AperFunction*%
%TO.N,VBAT*%
%TA.AperFunction,ComponentPad*%
G36*
G01*
X138905000Y-85457000D02*
X138905000Y-86219000D01*
G75*
G02*
X138524000Y-86600000I-381000J0D01*
G01*
X137762000Y-86600000D01*
G75*
G02*
X137381000Y-86219000I0J381000D01*
G01*
X137381000Y-85457000D01*
G75*
G02*
X137762000Y-85076000I381000J0D01*
G01*
X138524000Y-85076000D01*
G75*
G02*
X138905000Y-85457000I0J-381000D01*
G01*
G37*
%TD.AperFunction*%
%TD*%
D12*
%TO.N,SDA*%
%TO.C,J4*%
X133350000Y-23830000D03*
%TO.N,SCL*%
X130810000Y-23830000D03*
%TO.N,+5V*%
X128270000Y-23830000D03*
%TO.N,GND*%
X125730000Y-23830000D03*
%TD*%
%TO.N,+5V*%
%TO.C,J3*%
X138430000Y-66040000D03*
%TO.N,SDA*%
X146050000Y-66040000D03*
%TO.N,SCL*%
X143510000Y-66040000D03*
%TO.N,GND*%
X140970000Y-66040000D03*
%TD*%
D13*
%TO.N,+5V*%
%TO.C,SW3*%
X153187400Y-62303800D03*
%TO.N,BTN_DOWN*%
X148687400Y-62303800D03*
%TO.N,+5V*%
X153187400Y-55803800D03*
%TO.N,BTN_DOWN*%
X148687400Y-55803800D03*
%TD*%
%TO.N,+5V*%
%TO.C,SW2*%
X153162000Y-38783400D03*
%TO.N,BTN_UP*%
X148662000Y-38783400D03*
%TO.N,+5V*%
X153162000Y-32283400D03*
%TO.N,BTN_UP*%
X148662000Y-32283400D03*
%TD*%
%TO.N,+5V*%
%TO.C,SW1*%
X153162000Y-50569000D03*
%TO.N,BTN_SET*%
X148662000Y-50569000D03*
%TO.N,+5V*%
X153162000Y-44069000D03*
%TO.N,BTN_SET*%
X148662000Y-44069000D03*
%TD*%
D12*
%TO.N,GND*%
%TO.C,J1*%
X110871000Y-73025000D03*
%TO.N,RESET*%
X113411000Y-73025000D03*
%TO.N,MOSI*%
X110871000Y-75565000D03*
%TO.N,SCK*%
X113411000Y-75565000D03*
%TO.N,+5V*%
X110871000Y-78105000D03*
D14*
%TO.N,MISO*%
X113411000Y-78105000D03*
%TD*%
D15*
%TO.N,GND*%
%TO.C,H4*%
X152827056Y-92282944D03*
X151130000Y-91580000D03*
X149432944Y-92282944D03*
X148730000Y-93980000D03*
X149432944Y-95677056D03*
X151130000Y-96380000D03*
X152827056Y-95677056D03*
X153530000Y-93980000D03*
D16*
X151130000Y-93980000D03*
%TD*%
D17*
%TO.N,GND*%
%TO.C,J2*%
X106835000Y-63157000D03*
X106835000Y-57697000D03*
D18*
X109835000Y-62847000D03*
X109835000Y-58007000D03*
%TD*%
D15*
%TO.N,GND*%
%TO.C,H3*%
X152827056Y-22432944D03*
X151130000Y-21730000D03*
X149432944Y-22432944D03*
X148730000Y-24130000D03*
X149432944Y-25827056D03*
X151130000Y-26530000D03*
X152827056Y-25827056D03*
X153530000Y-24130000D03*
D16*
X151130000Y-24130000D03*
%TD*%
D15*
%TO.N,GND*%
%TO.C,H2*%
X109647056Y-92282944D03*
X107950000Y-91580000D03*
X106252944Y-92282944D03*
X105550000Y-93980000D03*
X106252944Y-95677056D03*
X107950000Y-96380000D03*
X109647056Y-95677056D03*
X110350000Y-93980000D03*
D16*
X107950000Y-93980000D03*
%TD*%
D15*
%TO.N,GND*%
%TO.C,H1*%
X109647056Y-22432944D03*
X107950000Y-21730000D03*
X106252944Y-22432944D03*
X105550000Y-24130000D03*
X106252944Y-25827056D03*
X107950000Y-26530000D03*
X109647056Y-25827056D03*
X110350000Y-24130000D03*
D16*
X107950000Y-24130000D03*
%TD*%
D19*
%TO.N,GND*%
X127774700Y-58750200D03*
X128460500Y-66370200D03*
X144780000Y-73533000D03*
X139954000Y-74803000D03*
X129730500Y-50685700D03*
X152908000Y-53213000D03*
X152908000Y-41402000D03*
X152908000Y-29718000D03*
X129184400Y-74358500D03*
X118033800Y-57772300D03*
X118033800Y-61201300D03*
X118033800Y-63271400D03*
X137618349Y-57835800D03*
X126339600Y-73266300D03*
X117068600Y-40817800D03*
X117068600Y-46139100D03*
X118859300Y-46139100D03*
X137922000Y-51689000D03*
X110744000Y-29083000D03*
X122174000Y-26289000D03*
X107061000Y-84963000D03*
%TO.N,RESET*%
X125476000Y-66040000D03*
X118999000Y-66040000D03*
%TO.N,SCK*%
X121920000Y-64643000D03*
X115951000Y-74549000D03*
%TO.N,+5V*%
X133858000Y-65405000D03*
X125222000Y-63119000D03*
X125222000Y-59055000D03*
X113792000Y-68072000D03*
X126619000Y-66167000D03*
X133477000Y-54229000D03*
X139827000Y-70893010D03*
X125476000Y-53975000D03*
X109626400Y-49136300D03*
X106794300Y-50647600D03*
X112204500Y-50647600D03*
X118745000Y-26416000D03*
%TO.N,BTN_SET*%
X131902200Y-64477900D03*
%TO.N,BTN_UP*%
X133235700Y-59817000D03*
X147205700Y-40132000D03*
%TO.N,BTN_DOWN*%
X133248400Y-63030100D03*
X147281900Y-63982600D03*
%TO.N,+3V3*%
X123698000Y-43180000D03*
X121158000Y-39751000D03*
%TO.N,CTS*%
X136271000Y-68326000D03*
%TD*%
D20*
%TO.N,+5V*%
X148685330Y-21151161D02*
X148151161Y-21685330D01*
X147731467Y-22313446D01*
X147442377Y-23011372D01*
X147295000Y-23752285D01*
X147295000Y-24507715D01*
X147442377Y-25248628D01*
X147731467Y-25946554D01*
X148151161Y-26574670D01*
X148685330Y-27108839D01*
X149313446Y-27528533D01*
X150011372Y-27817623D01*
X150752285Y-27965000D01*
X151507715Y-27965000D01*
X152248628Y-27817623D01*
X152946554Y-27528533D01*
X153574670Y-27108839D01*
X154108839Y-26574670D01*
X154280000Y-26318510D01*
X154280000Y-31078842D01*
X154233475Y-31032317D01*
X154117807Y-31147985D01*
X154022044Y-30883586D01*
X153732429Y-30742696D01*
X153420892Y-30661016D01*
X153346713Y-30656555D01*
X153398256Y-30635205D01*
X153567774Y-30521937D01*
X153711937Y-30377774D01*
X153825205Y-30208256D01*
X153903226Y-30019898D01*
X153943000Y-29819939D01*
X153943000Y-29616061D01*
X153903226Y-29416102D01*
X153825205Y-29227744D01*
X153711937Y-29058226D01*
X153567774Y-28914063D01*
X153398256Y-28800795D01*
X153209898Y-28722774D01*
X153009939Y-28683000D01*
X152806061Y-28683000D01*
X152606102Y-28722774D01*
X152417744Y-28800795D01*
X152248226Y-28914063D01*
X152104063Y-29058226D01*
X151990795Y-29227744D01*
X151912774Y-29416102D01*
X151873000Y-29616061D01*
X151873000Y-29819939D01*
X151912774Y-30019898D01*
X151990795Y-30208256D01*
X152104063Y-30377774D01*
X152248226Y-30521937D01*
X152417744Y-30635205D01*
X152606102Y-30713226D01*
X152665623Y-30725065D01*
X152475912Y-30790605D01*
X152301956Y-30883586D01*
X152206192Y-31147987D01*
X153162000Y-32103795D01*
X153176143Y-32089653D01*
X153355748Y-32269258D01*
X153341605Y-32283400D01*
X153355748Y-32297543D01*
X153176143Y-32477148D01*
X153162000Y-32463005D01*
X152206192Y-33418813D01*
X152301956Y-33683214D01*
X152591571Y-33824104D01*
X152903108Y-33905784D01*
X153224595Y-33925118D01*
X153543675Y-33881361D01*
X153848088Y-33776195D01*
X154022044Y-33683214D01*
X154117807Y-33418815D01*
X154233475Y-33534483D01*
X154280000Y-33487958D01*
X154280000Y-37578842D01*
X154233475Y-37532317D01*
X154117807Y-37647985D01*
X154022044Y-37383586D01*
X153732429Y-37242696D01*
X153420892Y-37161016D01*
X153099405Y-37141682D01*
X152780325Y-37185439D01*
X152475912Y-37290605D01*
X152301956Y-37383586D01*
X152206192Y-37647987D01*
X153162000Y-38603795D01*
X153176143Y-38589653D01*
X153355748Y-38769258D01*
X153341605Y-38783400D01*
X153355748Y-38797543D01*
X153176143Y-38977148D01*
X153162000Y-38963005D01*
X152206192Y-39918813D01*
X152301956Y-40183214D01*
X152591571Y-40324104D01*
X152777130Y-40372755D01*
X152606102Y-40406774D01*
X152417744Y-40484795D01*
X152248226Y-40598063D01*
X152104063Y-40742226D01*
X151990795Y-40911744D01*
X151912774Y-41100102D01*
X151873000Y-41300061D01*
X151873000Y-41503939D01*
X151912774Y-41703898D01*
X151990795Y-41892256D01*
X152104063Y-42061774D01*
X152248226Y-42205937D01*
X152417744Y-42319205D01*
X152606102Y-42397226D01*
X152806061Y-42437000D01*
X153009939Y-42437000D01*
X153209898Y-42397226D01*
X153398256Y-42319205D01*
X153567774Y-42205937D01*
X153711937Y-42061774D01*
X153825205Y-41892256D01*
X153903226Y-41703898D01*
X153943000Y-41503939D01*
X153943000Y-41300061D01*
X153903226Y-41100102D01*
X153825205Y-40911744D01*
X153711937Y-40742226D01*
X153567774Y-40598063D01*
X153398256Y-40484795D01*
X153246824Y-40422070D01*
X153543675Y-40381361D01*
X153848088Y-40276195D01*
X154022044Y-40183214D01*
X154117807Y-39918815D01*
X154233475Y-40034483D01*
X154280000Y-39987958D01*
X154280000Y-42864442D01*
X154233475Y-42817917D01*
X154117807Y-42933585D01*
X154022044Y-42669186D01*
X153732429Y-42528296D01*
X153420892Y-42446616D01*
X153099405Y-42427282D01*
X152780325Y-42471039D01*
X152475912Y-42576205D01*
X152301956Y-42669186D01*
X152206192Y-42933587D01*
X153162000Y-43889395D01*
X153176143Y-43875253D01*
X153355748Y-44054858D01*
X153341605Y-44069000D01*
X153355748Y-44083143D01*
X153176143Y-44262748D01*
X153162000Y-44248605D01*
X152206192Y-45204413D01*
X152301956Y-45468814D01*
X152591571Y-45609704D01*
X152903108Y-45691384D01*
X153224595Y-45710718D01*
X153543675Y-45666961D01*
X153848088Y-45561795D01*
X154022044Y-45468814D01*
X154117807Y-45204415D01*
X154233475Y-45320083D01*
X154280000Y-45273558D01*
X154280000Y-49364442D01*
X154233475Y-49317917D01*
X154117807Y-49433585D01*
X154022044Y-49169186D01*
X153732429Y-49028296D01*
X153420892Y-48946616D01*
X153099405Y-48927282D01*
X152780325Y-48971039D01*
X152475912Y-49076205D01*
X152301956Y-49169186D01*
X152206192Y-49433587D01*
X153162000Y-50389395D01*
X153176143Y-50375253D01*
X153355748Y-50554858D01*
X153341605Y-50569000D01*
X153355748Y-50583143D01*
X153176143Y-50762748D01*
X153162000Y-50748605D01*
X152206192Y-51704413D01*
X152301956Y-51968814D01*
X152591571Y-52109704D01*
X152852060Y-52178000D01*
X152806061Y-52178000D01*
X152606102Y-52217774D01*
X152417744Y-52295795D01*
X152248226Y-52409063D01*
X152104063Y-52553226D01*
X151990795Y-52722744D01*
X151912774Y-52911102D01*
X151873000Y-53111061D01*
X151873000Y-53314939D01*
X151912774Y-53514898D01*
X151990795Y-53703256D01*
X152104063Y-53872774D01*
X152248226Y-54016937D01*
X152417744Y-54130205D01*
X152606102Y-54208226D01*
X152728400Y-54232552D01*
X152501312Y-54311005D01*
X152327356Y-54403986D01*
X152231592Y-54668387D01*
X153187400Y-55624195D01*
X153201543Y-55610053D01*
X153381148Y-55789658D01*
X153367005Y-55803800D01*
X153381148Y-55817943D01*
X153201543Y-55997548D01*
X153187400Y-55983405D01*
X152231592Y-56939213D01*
X152327356Y-57203614D01*
X152616971Y-57344504D01*
X152928508Y-57426184D01*
X153249995Y-57445518D01*
X153569075Y-57401761D01*
X153873488Y-57296595D01*
X154047444Y-57203614D01*
X154143207Y-56939215D01*
X154258875Y-57054883D01*
X154280000Y-57033758D01*
X154280001Y-61073843D01*
X154258875Y-61052717D01*
X154143207Y-61168385D01*
X154047444Y-60903986D01*
X153757829Y-60763096D01*
X153446292Y-60681416D01*
X153124805Y-60662082D01*
X152805725Y-60705839D01*
X152501312Y-60811005D01*
X152327356Y-60903986D01*
X152231592Y-61168387D01*
X153187400Y-62124195D01*
X153201543Y-62110053D01*
X153381148Y-62289658D01*
X153367005Y-62303800D01*
X153381148Y-62317943D01*
X153201543Y-62497548D01*
X153187400Y-62483405D01*
X152231592Y-63439213D01*
X152327356Y-63703614D01*
X152616971Y-63844504D01*
X152928508Y-63926184D01*
X153249995Y-63945518D01*
X153569075Y-63901761D01*
X153873488Y-63796595D01*
X154047444Y-63703614D01*
X154143207Y-63439215D01*
X154258875Y-63554883D01*
X154280001Y-63533757D01*
X154280001Y-91791492D01*
X154108839Y-91535330D01*
X153574670Y-91001161D01*
X152946554Y-90581467D01*
X152248628Y-90292377D01*
X151507715Y-90145000D01*
X150752285Y-90145000D01*
X150011372Y-90292377D01*
X149313446Y-90581467D01*
X148685330Y-91001161D01*
X148151161Y-91535330D01*
X147731467Y-92163446D01*
X147442377Y-92861372D01*
X147295000Y-93602285D01*
X147295000Y-94357715D01*
X147442377Y-95098628D01*
X147731467Y-95796554D01*
X148151161Y-96424670D01*
X148685330Y-96958839D01*
X148941490Y-97130000D01*
X110138510Y-97130000D01*
X110394670Y-96958839D01*
X110928839Y-96424670D01*
X111348533Y-95796554D01*
X111637623Y-95098628D01*
X111785000Y-94357715D01*
X111785000Y-93602285D01*
X111637623Y-92861372D01*
X111348533Y-92163446D01*
X110928839Y-91535330D01*
X110394670Y-91001161D01*
X110349531Y-90971000D01*
X138211928Y-90971000D01*
X138211928Y-92671000D01*
X138224188Y-92795482D01*
X138260498Y-92915180D01*
X138319463Y-93025494D01*
X138398815Y-93122185D01*
X138495506Y-93201537D01*
X138605820Y-93260502D01*
X138678380Y-93282513D01*
X138546525Y-93414368D01*
X138384010Y-93657589D01*
X138272068Y-93927842D01*
X138215000Y-94214740D01*
X138215000Y-94507260D01*
X138272068Y-94794158D01*
X138384010Y-95064411D01*
X138546525Y-95307632D01*
X138753368Y-95514475D01*
X138996589Y-95676990D01*
X139266842Y-95788932D01*
X139553740Y-95846000D01*
X139846260Y-95846000D01*
X140133158Y-95788932D01*
X140403411Y-95676990D01*
X140646632Y-95514475D01*
X140853475Y-95307632D01*
X141015990Y-95064411D01*
X141127932Y-94794158D01*
X141185000Y-94507260D01*
X141185000Y-94214740D01*
X141127932Y-93927842D01*
X141015990Y-93657589D01*
X140853475Y-93414368D01*
X140721620Y-93282513D01*
X140794180Y-93260502D01*
X140904494Y-93201537D01*
X141001185Y-93122185D01*
X141080537Y-93025494D01*
X141139502Y-92915180D01*
X141175812Y-92795482D01*
X141188072Y-92671000D01*
X142910928Y-92671000D01*
X142923188Y-92795482D01*
X142959498Y-92915180D01*
X143018463Y-93025494D01*
X143097815Y-93122185D01*
X143194506Y-93201537D01*
X143304820Y-93260502D01*
X143377380Y-93282513D01*
X143245525Y-93414368D01*
X143083010Y-93657589D01*
X142971068Y-93927842D01*
X142914000Y-94214740D01*
X142914000Y-94507260D01*
X142971068Y-94794158D01*
X143083010Y-95064411D01*
X143245525Y-95307632D01*
X143452368Y-95514475D01*
X143695589Y-95676990D01*
X143965842Y-95788932D01*
X144252740Y-95846000D01*
X144545260Y-95846000D01*
X144832158Y-95788932D01*
X145102411Y-95676990D01*
X145345632Y-95514475D01*
X145552475Y-95307632D01*
X145714990Y-95064411D01*
X145826932Y-94794158D01*
X145884000Y-94507260D01*
X145884000Y-94214740D01*
X145826932Y-93927842D01*
X145714990Y-93657589D01*
X145552475Y-93414368D01*
X145420620Y-93282513D01*
X145493180Y-93260502D01*
X145603494Y-93201537D01*
X145700185Y-93122185D01*
X145779537Y-93025494D01*
X145838502Y-92915180D01*
X145874812Y-92795482D01*
X145887072Y-92671000D01*
X145884000Y-92106750D01*
X145725250Y-91948000D01*
X144526000Y-91948000D01*
X144526000Y-91968000D01*
X144272000Y-91968000D01*
X144272000Y-91948000D01*
X143072750Y-91948000D01*
X142914000Y-92106750D01*
X142910928Y-92671000D01*
X141188072Y-92671000D01*
X141188072Y-90971000D01*
X142910928Y-90971000D01*
X142914000Y-91535250D01*
X143072750Y-91694000D01*
X144272000Y-91694000D01*
X144272000Y-90494750D01*
X144526000Y-90494750D01*
X144526000Y-91694000D01*
X145725250Y-91694000D01*
X145884000Y-91535250D01*
X145887072Y-90971000D01*
X145874812Y-90846518D01*
X145838502Y-90726820D01*
X145779537Y-90616506D01*
X145700185Y-90519815D01*
X145603494Y-90440463D01*
X145493180Y-90381498D01*
X145373482Y-90345188D01*
X145249000Y-90332928D01*
X144684750Y-90336000D01*
X144526000Y-90494750D01*
X144272000Y-90494750D01*
X144113250Y-90336000D01*
X143549000Y-90332928D01*
X143424518Y-90345188D01*
X143304820Y-90381498D01*
X143194506Y-90440463D01*
X143097815Y-90519815D01*
X143018463Y-90616506D01*
X142959498Y-90726820D01*
X142923188Y-90846518D01*
X142910928Y-90971000D01*
X141188072Y-90971000D01*
X141175812Y-90846518D01*
X141139502Y-90726820D01*
X141080537Y-90616506D01*
X141001185Y-90519815D01*
X140904494Y-90440463D01*
X140794180Y-90381498D01*
X140674482Y-90345188D01*
X140550000Y-90332928D01*
X138850000Y-90332928D01*
X138725518Y-90345188D01*
X138605820Y-90381498D01*
X138495506Y-90440463D01*
X138398815Y-90519815D01*
X138319463Y-90616506D01*
X138260498Y-90726820D01*
X138224188Y-90846518D01*
X138211928Y-90971000D01*
X110349531Y-90971000D01*
X109766554Y-90581467D01*
X109068628Y-90292377D01*
X108327715Y-90145000D01*
X107572285Y-90145000D01*
X106831372Y-90292377D01*
X106133446Y-90581467D01*
X105505330Y-91001161D01*
X104971161Y-91535330D01*
X104800000Y-91791490D01*
X104800000Y-84861061D01*
X106026000Y-84861061D01*
X106026000Y-85064939D01*
X106065774Y-85264898D01*
X106143795Y-85453256D01*
X106257063Y-85622774D01*
X106401226Y-85766937D01*
X106570744Y-85880205D01*
X106759102Y-85958226D01*
X106959061Y-85998000D01*
X107162939Y-85998000D01*
X107362898Y-85958226D01*
X107551256Y-85880205D01*
X107720774Y-85766937D01*
X107864937Y-85622774D01*
X107975703Y-85457000D01*
X116742928Y-85457000D01*
X116742928Y-86219000D01*
X116762509Y-86417811D01*
X116820500Y-86608982D01*
X116914673Y-86785166D01*
X117041407Y-86939593D01*
X117195834Y-87066327D01*
X117372018Y-87160500D01*
X117563189Y-87218491D01*
X117762000Y-87238072D01*
X118524000Y-87238072D01*
X118722811Y-87218491D01*
X118913982Y-87160500D01*
X119090166Y-87066327D01*
X119244593Y-86939593D01*
X119371327Y-86785166D01*
X119465500Y-86608982D01*
X119523491Y-86417811D01*
X119543072Y-86219000D01*
X119543072Y-85457000D01*
X136742928Y-85457000D01*
X136742928Y-86219000D01*
X136762509Y-86417811D01*
X136820500Y-86608982D01*
X136914673Y-86785166D01*
X137041407Y-86939593D01*
X137195834Y-87066327D01*
X137372018Y-87160500D01*
X137563189Y-87218491D01*
X137762000Y-87238072D01*
X138524000Y-87238072D01*
X138722811Y-87218491D01*
X138913982Y-87160500D01*
X139090166Y-87066327D01*
X139244593Y-86939593D01*
X139371327Y-86785166D01*
X139465500Y-86608982D01*
X139523491Y-86417811D01*
X139543072Y-86219000D01*
X139543072Y-85457000D01*
X139523491Y-85258189D01*
X139465500Y-85067018D01*
X139371327Y-84890834D01*
X139244593Y-84736407D01*
X139090166Y-84609673D01*
X138913982Y-84515500D01*
X138722811Y-84457509D01*
X138524000Y-84437928D01*
X137762000Y-84437928D01*
X137563189Y-84457509D01*
X137372018Y-84515500D01*
X137195834Y-84609673D01*
X137041407Y-84736407D01*
X136914673Y-84890834D01*
X136820500Y-85067018D01*
X136762509Y-85258189D01*
X136742928Y-85457000D01*
X119543072Y-85457000D01*
X119523491Y-85258189D01*
X119465500Y-85067018D01*
X119371327Y-84890834D01*
X119244593Y-84736407D01*
X119090166Y-84609673D01*
X118913982Y-84515500D01*
X118722811Y-84457509D01*
X118524000Y-84437928D01*
X117762000Y-84437928D01*
X117563189Y-84457509D01*
X117372018Y-84515500D01*
X117195834Y-84609673D01*
X117041407Y-84736407D01*
X116914673Y-84890834D01*
X116820500Y-85067018D01*
X116762509Y-85258189D01*
X116742928Y-85457000D01*
X107975703Y-85457000D01*
X107978205Y-85453256D01*
X108056226Y-85264898D01*
X108096000Y-85064939D01*
X108096000Y-84861061D01*
X108056226Y-84661102D01*
X107978205Y-84472744D01*
X107864937Y-84303226D01*
X107720774Y-84159063D01*
X107551256Y-84045795D01*
X107362898Y-83967774D01*
X107162939Y-83928000D01*
X106959061Y-83928000D01*
X106759102Y-83967774D01*
X106570744Y-84045795D01*
X106401226Y-84159063D01*
X106257063Y-84303226D01*
X106143795Y-84472744D01*
X106065774Y-84661102D01*
X106026000Y-84861061D01*
X104800000Y-84861061D01*
X104800000Y-79070565D01*
X110085040Y-79070565D01*
X110152020Y-79310656D01*
X110401048Y-79427756D01*
X110668135Y-79494023D01*
X110943017Y-79506910D01*
X111215133Y-79465922D01*
X111474023Y-79372636D01*
X111589980Y-79310656D01*
X111656960Y-79070565D01*
X110871000Y-78284605D01*
X110085040Y-79070565D01*
X104800000Y-79070565D01*
X104800000Y-78177017D01*
X109469090Y-78177017D01*
X109510078Y-78449133D01*
X109603364Y-78708023D01*
X109665344Y-78823980D01*
X109905435Y-78890960D01*
X110691395Y-78105000D01*
X109905435Y-77319040D01*
X109665344Y-77386020D01*
X109548244Y-77635048D01*
X109481977Y-77902135D01*
X109469090Y-78177017D01*
X104800000Y-78177017D01*
X104800000Y-72887408D01*
X109474000Y-72887408D01*
X109474000Y-73162592D01*
X109527686Y-73432490D01*
X109632995Y-73686727D01*
X109785880Y-73915535D01*
X109980465Y-74110120D01*
X110209273Y-74263005D01*
X110286515Y-74295000D01*
X110209273Y-74326995D01*
X109980465Y-74479880D01*
X109785880Y-74674465D01*
X109632995Y-74903273D01*
X109527686Y-75157510D01*
X109474000Y-75427408D01*
X109474000Y-75702592D01*
X109527686Y-75972490D01*
X109632995Y-76226727D01*
X109785880Y-76455535D01*
X109980465Y-76650120D01*
X110209273Y-76803005D01*
X110280943Y-76832692D01*
X110267977Y-76837364D01*
X110152020Y-76899344D01*
X110085040Y-77139435D01*
X110871000Y-77925395D01*
X111656960Y-77139435D01*
X111589980Y-76899344D01*
X111454240Y-76835515D01*
X111532727Y-76803005D01*
X111761535Y-76650120D01*
X111956120Y-76455535D01*
X112109005Y-76226727D01*
X112141000Y-76149485D01*
X112172995Y-76226727D01*
X112325880Y-76455535D01*
X112520465Y-76650120D01*
X112608465Y-76708920D01*
X112524518Y-76717188D01*
X112404820Y-76753498D01*
X112294506Y-76812463D01*
X112197815Y-76891815D01*
X112118463Y-76988506D01*
X112059498Y-77098820D01*
X112023188Y-77218518D01*
X112010928Y-77343000D01*
X112010928Y-77367683D01*
X111836565Y-77319040D01*
X111050605Y-78105000D01*
X111836565Y-78890960D01*
X112010928Y-78842317D01*
X112010928Y-78867000D01*
X112023188Y-78991482D01*
X112059498Y-79111180D01*
X112118463Y-79221494D01*
X112197815Y-79318185D01*
X112294506Y-79397537D01*
X112404820Y-79456502D01*
X112524518Y-79492812D01*
X112649000Y-79505072D01*
X114173000Y-79505072D01*
X114297482Y-79492812D01*
X114417180Y-79456502D01*
X114527494Y-79397537D01*
X114624185Y-79318185D01*
X114703537Y-79221494D01*
X114762502Y-79111180D01*
X114798812Y-78991482D01*
X114811072Y-78867000D01*
X114811072Y-77343000D01*
X114798812Y-77218518D01*
X114762502Y-77098820D01*
X114703537Y-76988506D01*
X114624185Y-76891815D01*
X114527494Y-76812463D01*
X114417180Y-76753498D01*
X114297482Y-76717188D01*
X114213535Y-76708920D01*
X114301535Y-76650120D01*
X114496120Y-76455535D01*
X114649005Y-76226727D01*
X114754314Y-75972490D01*
X114808000Y-75702592D01*
X114808000Y-75427408D01*
X114754314Y-75157510D01*
X114649005Y-74903273D01*
X114496120Y-74674465D01*
X114301535Y-74479880D01*
X114252419Y-74447061D01*
X114916000Y-74447061D01*
X114916000Y-74650939D01*
X114955774Y-74850898D01*
X115033795Y-75039256D01*
X115147063Y-75208774D01*
X115291226Y-75352937D01*
X115460744Y-75466205D01*
X115649102Y-75544226D01*
X115849061Y-75584000D01*
X116052939Y-75584000D01*
X116252898Y-75544226D01*
X116441256Y-75466205D01*
X116610774Y-75352937D01*
X116754937Y-75208774D01*
X116868205Y-75039256D01*
X116946226Y-74850898D01*
X116986000Y-74650939D01*
X116986000Y-74447061D01*
X116946226Y-74247102D01*
X116868205Y-74058744D01*
X116754937Y-73889226D01*
X116610774Y-73745063D01*
X116441256Y-73631795D01*
X116252898Y-73553774D01*
X116052939Y-73514000D01*
X115849061Y-73514000D01*
X115649102Y-73553774D01*
X115460744Y-73631795D01*
X115291226Y-73745063D01*
X115147063Y-73889226D01*
X115033795Y-74058744D01*
X114955774Y-74247102D01*
X114916000Y-74447061D01*
X114252419Y-74447061D01*
X114072727Y-74326995D01*
X113995485Y-74295000D01*
X114072727Y-74263005D01*
X114301535Y-74110120D01*
X114496120Y-73915535D01*
X114649005Y-73686727D01*
X114754314Y-73432490D01*
X114807648Y-73164361D01*
X125304600Y-73164361D01*
X125304600Y-73368239D01*
X125344374Y-73568198D01*
X125422395Y-73756556D01*
X125535663Y-73926074D01*
X125679826Y-74070237D01*
X125849344Y-74183505D01*
X126037702Y-74261526D01*
X126237661Y-74301300D01*
X126441539Y-74301300D01*
X126641498Y-74261526D01*
X126653484Y-74256561D01*
X128149400Y-74256561D01*
X128149400Y-74460439D01*
X128189174Y-74660398D01*
X128267195Y-74848756D01*
X128380463Y-75018274D01*
X128524626Y-75162437D01*
X128694144Y-75275705D01*
X128882502Y-75353726D01*
X129082461Y-75393500D01*
X129286339Y-75393500D01*
X129486298Y-75353726D01*
X129674656Y-75275705D01*
X129844174Y-75162437D01*
X129988337Y-75018274D01*
X130101605Y-74848756D01*
X130162782Y-74701061D01*
X138919000Y-74701061D01*
X138919000Y-74904939D01*
X138958774Y-75104898D01*
X139036795Y-75293256D01*
X139150063Y-75462774D01*
X139294226Y-75606937D01*
X139463744Y-75720205D01*
X139652102Y-75798226D01*
X139852061Y-75838000D01*
X140055939Y-75838000D01*
X140255898Y-75798226D01*
X140444256Y-75720205D01*
X140613774Y-75606937D01*
X140757937Y-75462774D01*
X140871205Y-75293256D01*
X140949226Y-75104898D01*
X140989000Y-74904939D01*
X140989000Y-74701061D01*
X140949226Y-74501102D01*
X140871205Y-74312744D01*
X140757937Y-74143226D01*
X140613774Y-73999063D01*
X140444256Y-73885795D01*
X140255898Y-73807774D01*
X140055939Y-73768000D01*
X139852061Y-73768000D01*
X139652102Y-73807774D01*
X139463744Y-73885795D01*
X139294226Y-73999063D01*
X139150063Y-74143226D01*
X139036795Y-74312744D01*
X138958774Y-74501102D01*
X138919000Y-74701061D01*
X130162782Y-74701061D01*
X130179626Y-74660398D01*
X130219400Y-74460439D01*
X130219400Y-74256561D01*
X130179626Y-74056602D01*
X130101605Y-73868244D01*
X129988337Y-73698726D01*
X129844174Y-73554563D01*
X129674656Y-73441295D01*
X129649950Y-73431061D01*
X143745000Y-73431061D01*
X143745000Y-73634939D01*
X143784774Y-73834898D01*
X143862795Y-74023256D01*
X143976063Y-74192774D01*
X144120226Y-74336937D01*
X144289744Y-74450205D01*
X144478102Y-74528226D01*
X144678061Y-74568000D01*
X144881939Y-74568000D01*
X145081898Y-74528226D01*
X145270256Y-74450205D01*
X145439774Y-74336937D01*
X145583937Y-74192774D01*
X145697205Y-74023256D01*
X145775226Y-73834898D01*
X145815000Y-73634939D01*
X145815000Y-73431061D01*
X145775226Y-73231102D01*
X145697205Y-73042744D01*
X145583937Y-72873226D01*
X145439774Y-72729063D01*
X145270256Y-72615795D01*
X145081898Y-72537774D01*
X144881939Y-72498000D01*
X144678061Y-72498000D01*
X144478102Y-72537774D01*
X144289744Y-72615795D01*
X144120226Y-72729063D01*
X143976063Y-72873226D01*
X143862795Y-73042744D01*
X143784774Y-73231102D01*
X143745000Y-73431061D01*
X129649950Y-73431061D01*
X129486298Y-73363274D01*
X129286339Y-73323500D01*
X129082461Y-73323500D01*
X128882502Y-73363274D01*
X128694144Y-73441295D01*
X128524626Y-73554563D01*
X128380463Y-73698726D01*
X128267195Y-73868244D01*
X128189174Y-74056602D01*
X128149400Y-74256561D01*
X126653484Y-74256561D01*
X126829856Y-74183505D01*
X126999374Y-74070237D01*
X127143537Y-73926074D01*
X127256805Y-73756556D01*
X127334826Y-73568198D01*
X127374600Y-73368239D01*
X127374600Y-73164361D01*
X127334826Y-72964402D01*
X127256805Y-72776044D01*
X127143537Y-72606526D01*
X126999374Y-72462363D01*
X126829856Y-72349095D01*
X126641498Y-72271074D01*
X126441539Y-72231300D01*
X126237661Y-72231300D01*
X126037702Y-72271074D01*
X125849344Y-72349095D01*
X125679826Y-72462363D01*
X125535663Y-72606526D01*
X125422395Y-72776044D01*
X125344374Y-72964402D01*
X125304600Y-73164361D01*
X114807648Y-73164361D01*
X114808000Y-73162592D01*
X114808000Y-72887408D01*
X114754314Y-72617510D01*
X114649005Y-72363273D01*
X114496120Y-72134465D01*
X114301535Y-71939880D01*
X114072727Y-71786995D01*
X113818490Y-71681686D01*
X113548592Y-71628000D01*
X113273408Y-71628000D01*
X113003510Y-71681686D01*
X112749273Y-71786995D01*
X112520465Y-71939880D01*
X112325880Y-72134465D01*
X112172995Y-72363273D01*
X112141000Y-72440515D01*
X112109005Y-72363273D01*
X111956120Y-72134465D01*
X111761535Y-71939880D01*
X111532727Y-71786995D01*
X111278490Y-71681686D01*
X111008592Y-71628000D01*
X110733408Y-71628000D01*
X110463510Y-71681686D01*
X110209273Y-71786995D01*
X109980465Y-71939880D01*
X109785880Y-72134465D01*
X109632995Y-72363273D01*
X109527686Y-72617510D01*
X109474000Y-72887408D01*
X104800000Y-72887408D01*
X104800000Y-68224061D01*
X135236000Y-68224061D01*
X135236000Y-68427939D01*
X135275774Y-68627898D01*
X135353795Y-68816256D01*
X135467063Y-68985774D01*
X135611226Y-69129937D01*
X135780744Y-69243205D01*
X135969102Y-69321226D01*
X136169061Y-69361000D01*
X136372939Y-69361000D01*
X136572898Y-69321226D01*
X136761256Y-69243205D01*
X136930774Y-69129937D01*
X137074937Y-68985774D01*
X137188205Y-68816256D01*
X137266226Y-68627898D01*
X137306000Y-68427939D01*
X137306000Y-68224061D01*
X137266226Y-68024102D01*
X137188205Y-67835744D01*
X137074937Y-67666226D01*
X136930774Y-67522063D01*
X136761256Y-67408795D01*
X136572898Y-67330774D01*
X136372939Y-67291000D01*
X136169061Y-67291000D01*
X135969102Y-67330774D01*
X135780744Y-67408795D01*
X135611226Y-67522063D01*
X135467063Y-67666226D01*
X135353795Y-67835744D01*
X135275774Y-68024102D01*
X135236000Y-68224061D01*
X104800000Y-68224061D01*
X104800000Y-65938061D01*
X117964000Y-65938061D01*
X117964000Y-66141939D01*
X118003774Y-66341898D01*
X118081795Y-66530256D01*
X118195063Y-66699774D01*
X118339226Y-66843937D01*
X118508744Y-66957205D01*
X118697102Y-67035226D01*
X118897061Y-67075000D01*
X119100939Y-67075000D01*
X119300898Y-67035226D01*
X119489256Y-66957205D01*
X119658774Y-66843937D01*
X119802937Y-66699774D01*
X119916205Y-66530256D01*
X119994226Y-66341898D01*
X120034000Y-66141939D01*
X120034000Y-65938061D01*
X124441000Y-65938061D01*
X124441000Y-66141939D01*
X124480774Y-66341898D01*
X124558795Y-66530256D01*
X124672063Y-66699774D01*
X124816226Y-66843937D01*
X124985744Y-66957205D01*
X125174102Y-67035226D01*
X125374061Y-67075000D01*
X125577939Y-67075000D01*
X125777898Y-67035226D01*
X125966256Y-66957205D01*
X126135774Y-66843937D01*
X126279937Y-66699774D01*
X126393205Y-66530256D01*
X126471226Y-66341898D01*
X126485873Y-66268261D01*
X127425500Y-66268261D01*
X127425500Y-66472139D01*
X127465274Y-66672098D01*
X127543295Y-66860456D01*
X127656563Y-67029974D01*
X127800726Y-67174137D01*
X127970244Y-67287405D01*
X128158602Y-67365426D01*
X128358561Y-67405200D01*
X128562439Y-67405200D01*
X128762398Y-67365426D01*
X128950756Y-67287405D01*
X129120274Y-67174137D01*
X129264437Y-67029974D01*
X129280746Y-67005565D01*
X137644040Y-67005565D01*
X137711020Y-67245656D01*
X137960048Y-67362756D01*
X138227135Y-67429023D01*
X138502017Y-67441910D01*
X138774133Y-67400922D01*
X139033023Y-67307636D01*
X139148980Y-67245656D01*
X139215960Y-67005565D01*
X138430000Y-66219605D01*
X137644040Y-67005565D01*
X129280746Y-67005565D01*
X129377705Y-66860456D01*
X129455726Y-66672098D01*
X129495500Y-66472139D01*
X129495500Y-66268261D01*
X129464422Y-66112017D01*
X137028090Y-66112017D01*
X137069078Y-66384133D01*
X137162364Y-66643023D01*
X137224344Y-66758980D01*
X137464435Y-66825960D01*
X138250395Y-66040000D01*
X138609605Y-66040000D01*
X139395565Y-66825960D01*
X139635656Y-66758980D01*
X139699485Y-66623240D01*
X139731995Y-66701727D01*
X139884880Y-66930535D01*
X140079465Y-67125120D01*
X140308273Y-67278005D01*
X140562510Y-67383314D01*
X140832408Y-67437000D01*
X141107592Y-67437000D01*
X141377490Y-67383314D01*
X141631727Y-67278005D01*
X141860535Y-67125120D01*
X142055120Y-66930535D01*
X142208005Y-66701727D01*
X142240000Y-66624485D01*
X142271995Y-66701727D01*
X142424880Y-66930535D01*
X142619465Y-67125120D01*
X142848273Y-67278005D01*
X143102510Y-67383314D01*
X143372408Y-67437000D01*
X143647592Y-67437000D01*
X143917490Y-67383314D01*
X144171727Y-67278005D01*
X144400535Y-67125120D01*
X144595120Y-66930535D01*
X144748005Y-66701727D01*
X144780000Y-66624485D01*
X144811995Y-66701727D01*
X144964880Y-66930535D01*
X145159465Y-67125120D01*
X145388273Y-67278005D01*
X145642510Y-67383314D01*
X145912408Y-67437000D01*
X146187592Y-67437000D01*
X146457490Y-67383314D01*
X146711727Y-67278005D01*
X146940535Y-67125120D01*
X147135120Y-66930535D01*
X147288005Y-66701727D01*
X147393314Y-66447490D01*
X147447000Y-66177592D01*
X147447000Y-65902408D01*
X147393314Y-65632510D01*
X147288005Y-65378273D01*
X147135120Y-65149465D01*
X146951799Y-64966144D01*
X146980002Y-64977826D01*
X147179961Y-65017600D01*
X147383839Y-65017600D01*
X147583798Y-64977826D01*
X147772156Y-64899805D01*
X147941674Y-64786537D01*
X148085837Y-64642374D01*
X148199105Y-64472856D01*
X148277126Y-64284498D01*
X148316900Y-64084539D01*
X148316900Y-63897135D01*
X148526367Y-63938800D01*
X148848433Y-63938800D01*
X149164312Y-63875968D01*
X149461863Y-63752718D01*
X149729652Y-63573787D01*
X149957387Y-63346052D01*
X150136318Y-63078263D01*
X150259568Y-62780712D01*
X150322400Y-62464833D01*
X150322400Y-62366395D01*
X151545682Y-62366395D01*
X151589439Y-62685475D01*
X151694605Y-62989888D01*
X151787586Y-63163844D01*
X152051987Y-63259608D01*
X153007795Y-62303800D01*
X152051987Y-61347992D01*
X151787586Y-61443756D01*
X151646696Y-61733371D01*
X151565016Y-62044908D01*
X151545682Y-62366395D01*
X150322400Y-62366395D01*
X150322400Y-62142767D01*
X150259568Y-61826888D01*
X150136318Y-61529337D01*
X149957387Y-61261548D01*
X149729652Y-61033813D01*
X149461863Y-60854882D01*
X149164312Y-60731632D01*
X148848433Y-60668800D01*
X148526367Y-60668800D01*
X148210488Y-60731632D01*
X147912937Y-60854882D01*
X147645148Y-61033813D01*
X147417413Y-61261548D01*
X147238482Y-61529337D01*
X147115232Y-61826888D01*
X147052400Y-62142767D01*
X147052400Y-62464833D01*
X147115232Y-62780712D01*
X147184359Y-62947600D01*
X147179961Y-62947600D01*
X146980002Y-62987374D01*
X146791644Y-63065395D01*
X146622126Y-63178663D01*
X146477963Y-63322826D01*
X146364695Y-63492344D01*
X146286674Y-63680702D01*
X146246900Y-63880661D01*
X146246900Y-64084539D01*
X146286674Y-64284498D01*
X146364695Y-64472856D01*
X146477963Y-64642374D01*
X146585156Y-64749567D01*
X146457490Y-64696686D01*
X146187592Y-64643000D01*
X145912408Y-64643000D01*
X145642510Y-64696686D01*
X145388273Y-64801995D01*
X145159465Y-64954880D01*
X144964880Y-65149465D01*
X144811995Y-65378273D01*
X144780000Y-65455515D01*
X144748005Y-65378273D01*
X144595120Y-65149465D01*
X144400535Y-64954880D01*
X144171727Y-64801995D01*
X143917490Y-64696686D01*
X143647592Y-64643000D01*
X143372408Y-64643000D01*
X143102510Y-64696686D01*
X142848273Y-64801995D01*
X142619465Y-64954880D01*
X142424880Y-65149465D01*
X142271995Y-65378273D01*
X142240000Y-65455515D01*
X142208005Y-65378273D01*
X142055120Y-65149465D01*
X141860535Y-64954880D01*
X141631727Y-64801995D01*
X141377490Y-64696686D01*
X141107592Y-64643000D01*
X140832408Y-64643000D01*
X140562510Y-64696686D01*
X140308273Y-64801995D01*
X140079465Y-64954880D01*
X139884880Y-65149465D01*
X139731995Y-65378273D01*
X139702308Y-65449943D01*
X139697636Y-65436977D01*
X139635656Y-65321020D01*
X139395565Y-65254040D01*
X138609605Y-66040000D01*
X138250395Y-66040000D01*
X137464435Y-65254040D01*
X137224344Y-65321020D01*
X137107244Y-65570048D01*
X137040977Y-65837135D01*
X137028090Y-66112017D01*
X129464422Y-66112017D01*
X129455726Y-66068302D01*
X129377705Y-65879944D01*
X129264437Y-65710426D01*
X129120274Y-65566263D01*
X128950756Y-65452995D01*
X128762398Y-65374974D01*
X128562439Y-65335200D01*
X128358561Y-65335200D01*
X128158602Y-65374974D01*
X127970244Y-65452995D01*
X127800726Y-65566263D01*
X127656563Y-65710426D01*
X127543295Y-65879944D01*
X127465274Y-66068302D01*
X127425500Y-66268261D01*
X126485873Y-66268261D01*
X126511000Y-66141939D01*
X126511000Y-65938061D01*
X126471226Y-65738102D01*
X126393205Y-65549744D01*
X126279937Y-65380226D01*
X126135774Y-65236063D01*
X125966256Y-65122795D01*
X125777898Y-65044774D01*
X125577939Y-65005000D01*
X125374061Y-65005000D01*
X125174102Y-65044774D01*
X124985744Y-65122795D01*
X124816226Y-65236063D01*
X124672063Y-65380226D01*
X124558795Y-65549744D01*
X124480774Y-65738102D01*
X124441000Y-65938061D01*
X120034000Y-65938061D01*
X119994226Y-65738102D01*
X119916205Y-65549744D01*
X119802937Y-65380226D01*
X119658774Y-65236063D01*
X119489256Y-65122795D01*
X119300898Y-65044774D01*
X119100939Y-65005000D01*
X118897061Y-65005000D01*
X118697102Y-65044774D01*
X118508744Y-65122795D01*
X118339226Y-65236063D01*
X118195063Y-65380226D01*
X118081795Y-65549744D01*
X118003774Y-65738102D01*
X117964000Y-65938061D01*
X104800000Y-65938061D01*
X104800000Y-64541061D01*
X120885000Y-64541061D01*
X120885000Y-64744939D01*
X120924774Y-64944898D01*
X121002795Y-65133256D01*
X121116063Y-65302774D01*
X121260226Y-65446937D01*
X121429744Y-65560205D01*
X121618102Y-65638226D01*
X121818061Y-65678000D01*
X122021939Y-65678000D01*
X122221898Y-65638226D01*
X122410256Y-65560205D01*
X122579774Y-65446937D01*
X122723937Y-65302774D01*
X122837205Y-65133256D01*
X122915226Y-64944898D01*
X122955000Y-64744939D01*
X122955000Y-64541061D01*
X122922160Y-64375961D01*
X130867200Y-64375961D01*
X130867200Y-64579839D01*
X130906974Y-64779798D01*
X130984995Y-64968156D01*
X131098263Y-65137674D01*
X131242426Y-65281837D01*
X131411944Y-65395105D01*
X131600302Y-65473126D01*
X131800261Y-65512900D01*
X132004139Y-65512900D01*
X132204098Y-65473126D01*
X132392456Y-65395105D01*
X132561974Y-65281837D01*
X132706137Y-65137674D01*
X132748391Y-65074435D01*
X137644040Y-65074435D01*
X138430000Y-65860395D01*
X139215960Y-65074435D01*
X139148980Y-64834344D01*
X138899952Y-64717244D01*
X138632865Y-64650977D01*
X138357983Y-64638090D01*
X138085867Y-64679078D01*
X137826977Y-64772364D01*
X137711020Y-64834344D01*
X137644040Y-65074435D01*
X132748391Y-65074435D01*
X132819405Y-64968156D01*
X132897426Y-64779798D01*
X132937200Y-64579839D01*
X132937200Y-64375961D01*
X132897426Y-64176002D01*
X132819405Y-63987644D01*
X132805580Y-63966954D01*
X132946502Y-64025326D01*
X133146461Y-64065100D01*
X133350339Y-64065100D01*
X133550298Y-64025326D01*
X133738656Y-63947305D01*
X133908174Y-63834037D01*
X134052337Y-63689874D01*
X134165605Y-63520356D01*
X134243626Y-63331998D01*
X134283400Y-63132039D01*
X134283400Y-62928161D01*
X134243626Y-62728202D01*
X134165605Y-62539844D01*
X134052337Y-62370326D01*
X133908174Y-62226163D01*
X133738656Y-62112895D01*
X133550298Y-62034874D01*
X133350339Y-61995100D01*
X133146461Y-61995100D01*
X132946502Y-62034874D01*
X132758144Y-62112895D01*
X132588626Y-62226163D01*
X132444463Y-62370326D01*
X132331195Y-62539844D01*
X132253174Y-62728202D01*
X132213400Y-62928161D01*
X132213400Y-63132039D01*
X132253174Y-63331998D01*
X132331195Y-63520356D01*
X132345020Y-63541046D01*
X132204098Y-63482674D01*
X132004139Y-63442900D01*
X131800261Y-63442900D01*
X131600302Y-63482674D01*
X131411944Y-63560695D01*
X131242426Y-63673963D01*
X131098263Y-63818126D01*
X130984995Y-63987644D01*
X130906974Y-64176002D01*
X130867200Y-64375961D01*
X122922160Y-64375961D01*
X122915226Y-64341102D01*
X122837205Y-64152744D01*
X122723937Y-63983226D01*
X122579774Y-63839063D01*
X122410256Y-63725795D01*
X122221898Y-63647774D01*
X122021939Y-63608000D01*
X121818061Y-63608000D01*
X121618102Y-63647774D01*
X121429744Y-63725795D01*
X121260226Y-63839063D01*
X121116063Y-63983226D01*
X121002795Y-64152744D01*
X120924774Y-64341102D01*
X120885000Y-64541061D01*
X104800000Y-64541061D01*
X104800000Y-63157000D01*
X105343662Y-63157000D01*
X105368955Y-63413805D01*
X105443862Y-63660741D01*
X105565505Y-63888318D01*
X105729208Y-64087792D01*
X105928682Y-64251495D01*
X106156259Y-64373138D01*
X106403195Y-64448045D01*
X106595649Y-64467000D01*
X107074351Y-64467000D01*
X107266805Y-64448045D01*
X107513741Y-64373138D01*
X107741318Y-64251495D01*
X107940792Y-64087792D01*
X108104495Y-63888318D01*
X108226138Y-63660741D01*
X108301045Y-63413805D01*
X108326338Y-63157000D01*
X108301045Y-62900195D01*
X108284909Y-62847000D01*
X108444267Y-62847000D01*
X108467147Y-63079300D01*
X108534906Y-63302674D01*
X108644942Y-63508536D01*
X108793025Y-63688975D01*
X108973464Y-63837058D01*
X109179326Y-63947094D01*
X109402700Y-64014853D01*
X109576793Y-64032000D01*
X110093207Y-64032000D01*
X110267300Y-64014853D01*
X110490674Y-63947094D01*
X110696536Y-63837058D01*
X110876975Y-63688975D01*
X111025058Y-63508536D01*
X111135094Y-63302674D01*
X111175503Y-63169461D01*
X116998800Y-63169461D01*
X116998800Y-63373339D01*
X117038574Y-63573298D01*
X117116595Y-63761656D01*
X117229863Y-63931174D01*
X117374026Y-64075337D01*
X117543544Y-64188605D01*
X117731902Y-64266626D01*
X117931861Y-64306400D01*
X118135739Y-64306400D01*
X118335698Y-64266626D01*
X118524056Y-64188605D01*
X118693574Y-64075337D01*
X118837737Y-63931174D01*
X118951005Y-63761656D01*
X119029026Y-63573298D01*
X119068800Y-63373339D01*
X119068800Y-63169461D01*
X119029026Y-62969502D01*
X118951005Y-62781144D01*
X118837737Y-62611626D01*
X118693574Y-62467463D01*
X118524056Y-62354195D01*
X118335698Y-62276174D01*
X118135739Y-62236400D01*
X117931861Y-62236400D01*
X117731902Y-62276174D01*
X117543544Y-62354195D01*
X117374026Y-62467463D01*
X117229863Y-62611626D01*
X117116595Y-62781144D01*
X117038574Y-62969502D01*
X116998800Y-63169461D01*
X111175503Y-63169461D01*
X111202853Y-63079300D01*
X111225733Y-62847000D01*
X111202853Y-62614700D01*
X111135094Y-62391326D01*
X111025058Y-62185464D01*
X110876975Y-62005025D01*
X110696536Y-61856942D01*
X110490674Y-61746906D01*
X110267300Y-61679147D01*
X110093207Y-61662000D01*
X109576793Y-61662000D01*
X109402700Y-61679147D01*
X109179326Y-61746906D01*
X108973464Y-61856942D01*
X108793025Y-62005025D01*
X108644942Y-62185464D01*
X108534906Y-62391326D01*
X108467147Y-62614700D01*
X108444267Y-62847000D01*
X108284909Y-62847000D01*
X108226138Y-62653259D01*
X108104495Y-62425682D01*
X107940792Y-62226208D01*
X107741318Y-62062505D01*
X107513741Y-61940862D01*
X107266805Y-61865955D01*
X107074351Y-61847000D01*
X106595649Y-61847000D01*
X106403195Y-61865955D01*
X106156259Y-61940862D01*
X105928682Y-62062505D01*
X105729208Y-62226208D01*
X105565505Y-62425682D01*
X105443862Y-62653259D01*
X105368955Y-62900195D01*
X105343662Y-63157000D01*
X104800000Y-63157000D01*
X104800000Y-61099361D01*
X116998800Y-61099361D01*
X116998800Y-61303239D01*
X117038574Y-61503198D01*
X117116595Y-61691556D01*
X117229863Y-61861074D01*
X117374026Y-62005237D01*
X117543544Y-62118505D01*
X117731902Y-62196526D01*
X117931861Y-62236300D01*
X118135739Y-62236300D01*
X118335698Y-62196526D01*
X118524056Y-62118505D01*
X118693574Y-62005237D01*
X118837737Y-61861074D01*
X118951005Y-61691556D01*
X119029026Y-61503198D01*
X119068800Y-61303239D01*
X119068800Y-61099361D01*
X119029026Y-60899402D01*
X118951005Y-60711044D01*
X118837737Y-60541526D01*
X118693574Y-60397363D01*
X118524056Y-60284095D01*
X118335698Y-60206074D01*
X118135739Y-60166300D01*
X117931861Y-60166300D01*
X117731902Y-60206074D01*
X117543544Y-60284095D01*
X117374026Y-60397363D01*
X117229863Y-60541526D01*
X117116595Y-60711044D01*
X117038574Y-60899402D01*
X116998800Y-61099361D01*
X104800000Y-61099361D01*
X104800000Y-57697000D01*
X105343662Y-57697000D01*
X105368955Y-57953805D01*
X105443862Y-58200741D01*
X105565505Y-58428318D01*
X105729208Y-58627792D01*
X105928682Y-58791495D01*
X106156259Y-58913138D01*
X106403195Y-58988045D01*
X106595649Y-59007000D01*
X107074351Y-59007000D01*
X107266805Y-58988045D01*
X107513741Y-58913138D01*
X107741318Y-58791495D01*
X107940792Y-58627792D01*
X108104495Y-58428318D01*
X108226138Y-58200741D01*
X108284908Y-58007000D01*
X108444267Y-58007000D01*
X108467147Y-58239300D01*
X108534906Y-58462674D01*
X108644942Y-58668536D01*
X108793025Y-58848975D01*
X108973464Y-58997058D01*
X109179326Y-59107094D01*
X109402700Y-59174853D01*
X109576793Y-59192000D01*
X110093207Y-59192000D01*
X110267300Y-59174853D01*
X110490674Y-59107094D01*
X110696536Y-58997058D01*
X110876975Y-58848975D01*
X111025058Y-58668536D01*
X111135094Y-58462674D01*
X111202853Y-58239300D01*
X111225733Y-58007000D01*
X111202853Y-57774700D01*
X111171203Y-57670361D01*
X116998800Y-57670361D01*
X116998800Y-57874239D01*
X117038574Y-58074198D01*
X117116595Y-58262556D01*
X117229863Y-58432074D01*
X117374026Y-58576237D01*
X117543544Y-58689505D01*
X117731902Y-58767526D01*
X117931861Y-58807300D01*
X118135739Y-58807300D01*
X118335698Y-58767526D01*
X118524056Y-58689505D01*
X118585782Y-58648261D01*
X126739700Y-58648261D01*
X126739700Y-58852139D01*
X126779474Y-59052098D01*
X126857495Y-59240456D01*
X126970763Y-59409974D01*
X127114926Y-59554137D01*
X127284444Y-59667405D01*
X127472802Y-59745426D01*
X127672761Y-59785200D01*
X127876639Y-59785200D01*
X128076598Y-59745426D01*
X128149905Y-59715061D01*
X132200700Y-59715061D01*
X132200700Y-59918939D01*
X132240474Y-60118898D01*
X132318495Y-60307256D01*
X132431763Y-60476774D01*
X132575926Y-60620937D01*
X132745444Y-60734205D01*
X132933802Y-60812226D01*
X133133761Y-60852000D01*
X133337639Y-60852000D01*
X133537598Y-60812226D01*
X133725956Y-60734205D01*
X133895474Y-60620937D01*
X134039637Y-60476774D01*
X134152905Y-60307256D01*
X134230926Y-60118898D01*
X134270700Y-59918939D01*
X134270700Y-59715061D01*
X134230926Y-59515102D01*
X134152905Y-59326744D01*
X134039637Y-59157226D01*
X133895474Y-59013063D01*
X133725956Y-58899795D01*
X133537598Y-58821774D01*
X133337639Y-58782000D01*
X133133761Y-58782000D01*
X132933802Y-58821774D01*
X132745444Y-58899795D01*
X132575926Y-59013063D01*
X132431763Y-59157226D01*
X132318495Y-59326744D01*
X132240474Y-59515102D01*
X132200700Y-59715061D01*
X128149905Y-59715061D01*
X128264956Y-59667405D01*
X128434474Y-59554137D01*
X128578637Y-59409974D01*
X128691905Y-59240456D01*
X128769926Y-59052098D01*
X128809700Y-58852139D01*
X128809700Y-58648261D01*
X128769926Y-58448302D01*
X128691905Y-58259944D01*
X128578637Y-58090426D01*
X128434474Y-57946263D01*
X128264956Y-57832995D01*
X128076598Y-57754974D01*
X127970455Y-57733861D01*
X136583349Y-57733861D01*
X136583349Y-57937739D01*
X136623123Y-58137698D01*
X136701144Y-58326056D01*
X136814412Y-58495574D01*
X136958575Y-58639737D01*
X137128093Y-58753005D01*
X137316451Y-58831026D01*
X137516410Y-58870800D01*
X137720288Y-58870800D01*
X137920247Y-58831026D01*
X138108605Y-58753005D01*
X138278123Y-58639737D01*
X138422286Y-58495574D01*
X138535554Y-58326056D01*
X138613575Y-58137698D01*
X138653349Y-57937739D01*
X138653349Y-57733861D01*
X138613575Y-57533902D01*
X138535554Y-57345544D01*
X138422286Y-57176026D01*
X138278123Y-57031863D01*
X138108605Y-56918595D01*
X137920247Y-56840574D01*
X137720288Y-56800800D01*
X137516410Y-56800800D01*
X137316451Y-56840574D01*
X137128093Y-56918595D01*
X136958575Y-57031863D01*
X136814412Y-57176026D01*
X136701144Y-57345544D01*
X136623123Y-57533902D01*
X136583349Y-57733861D01*
X127970455Y-57733861D01*
X127876639Y-57715200D01*
X127672761Y-57715200D01*
X127472802Y-57754974D01*
X127284444Y-57832995D01*
X127114926Y-57946263D01*
X126970763Y-58090426D01*
X126857495Y-58259944D01*
X126779474Y-58448302D01*
X126739700Y-58648261D01*
X118585782Y-58648261D01*
X118693574Y-58576237D01*
X118837737Y-58432074D01*
X118951005Y-58262556D01*
X119029026Y-58074198D01*
X119068800Y-57874239D01*
X119068800Y-57670361D01*
X119029026Y-57470402D01*
X118951005Y-57282044D01*
X118837737Y-57112526D01*
X118693574Y-56968363D01*
X118524056Y-56855095D01*
X118335698Y-56777074D01*
X118135739Y-56737300D01*
X117931861Y-56737300D01*
X117731902Y-56777074D01*
X117543544Y-56855095D01*
X117374026Y-56968363D01*
X117229863Y-57112526D01*
X117116595Y-57282044D01*
X117038574Y-57470402D01*
X116998800Y-57670361D01*
X111171203Y-57670361D01*
X111135094Y-57551326D01*
X111025058Y-57345464D01*
X110876975Y-57165025D01*
X110696536Y-57016942D01*
X110490674Y-56906906D01*
X110267300Y-56839147D01*
X110093207Y-56822000D01*
X109576793Y-56822000D01*
X109402700Y-56839147D01*
X109179326Y-56906906D01*
X108973464Y-57016942D01*
X108793025Y-57165025D01*
X108644942Y-57345464D01*
X108534906Y-57551326D01*
X108467147Y-57774700D01*
X108444267Y-58007000D01*
X108284908Y-58007000D01*
X108301045Y-57953805D01*
X108326338Y-57697000D01*
X108301045Y-57440195D01*
X108226138Y-57193259D01*
X108104495Y-56965682D01*
X107940792Y-56766208D01*
X107741318Y-56602505D01*
X107513741Y-56480862D01*
X107266805Y-56405955D01*
X107074351Y-56387000D01*
X106595649Y-56387000D01*
X106403195Y-56405955D01*
X106156259Y-56480862D01*
X105928682Y-56602505D01*
X105729208Y-56766208D01*
X105565505Y-56965682D01*
X105443862Y-57193259D01*
X105368955Y-57440195D01*
X105343662Y-57697000D01*
X104800000Y-57697000D01*
X104800000Y-55642767D01*
X147052400Y-55642767D01*
X147052400Y-55964833D01*
X147115232Y-56280712D01*
X147238482Y-56578263D01*
X147417413Y-56846052D01*
X147645148Y-57073787D01*
X147912937Y-57252718D01*
X148210488Y-57375968D01*
X148526367Y-57438800D01*
X148848433Y-57438800D01*
X149164312Y-57375968D01*
X149461863Y-57252718D01*
X149729652Y-57073787D01*
X149957387Y-56846052D01*
X150136318Y-56578263D01*
X150259568Y-56280712D01*
X150322400Y-55964833D01*
X150322400Y-55866395D01*
X151545682Y-55866395D01*
X151589439Y-56185475D01*
X151694605Y-56489888D01*
X151787586Y-56663844D01*
X152051987Y-56759608D01*
X153007795Y-55803800D01*
X152051987Y-54847992D01*
X151787586Y-54943756D01*
X151646696Y-55233371D01*
X151565016Y-55544908D01*
X151545682Y-55866395D01*
X150322400Y-55866395D01*
X150322400Y-55642767D01*
X150259568Y-55326888D01*
X150136318Y-55029337D01*
X149957387Y-54761548D01*
X149729652Y-54533813D01*
X149461863Y-54354882D01*
X149164312Y-54231632D01*
X148848433Y-54168800D01*
X148526367Y-54168800D01*
X148210488Y-54231632D01*
X147912937Y-54354882D01*
X147645148Y-54533813D01*
X147417413Y-54761548D01*
X147238482Y-55029337D01*
X147115232Y-55326888D01*
X147052400Y-55642767D01*
X104800000Y-55642767D01*
X104800000Y-50583761D01*
X128695500Y-50583761D01*
X128695500Y-50787639D01*
X128735274Y-50987598D01*
X128813295Y-51175956D01*
X128926563Y-51345474D01*
X129070726Y-51489637D01*
X129240244Y-51602905D01*
X129428602Y-51680926D01*
X129628561Y-51720700D01*
X129832439Y-51720700D01*
X130032398Y-51680926D01*
X130220756Y-51602905D01*
X130244468Y-51587061D01*
X136887000Y-51587061D01*
X136887000Y-51790939D01*
X136926774Y-51990898D01*
X137004795Y-52179256D01*
X137118063Y-52348774D01*
X137262226Y-52492937D01*
X137431744Y-52606205D01*
X137620102Y-52684226D01*
X137820061Y-52724000D01*
X138023939Y-52724000D01*
X138223898Y-52684226D01*
X138412256Y-52606205D01*
X138581774Y-52492937D01*
X138725937Y-52348774D01*
X138839205Y-52179256D01*
X138917226Y-51990898D01*
X138957000Y-51790939D01*
X138957000Y-51587061D01*
X138917226Y-51387102D01*
X138839205Y-51198744D01*
X138725937Y-51029226D01*
X138581774Y-50885063D01*
X138412256Y-50771795D01*
X138223898Y-50693774D01*
X138023939Y-50654000D01*
X137820061Y-50654000D01*
X137620102Y-50693774D01*
X137431744Y-50771795D01*
X137262226Y-50885063D01*
X137118063Y-51029226D01*
X137004795Y-51198744D01*
X136926774Y-51387102D01*
X136887000Y-51587061D01*
X130244468Y-51587061D01*
X130390274Y-51489637D01*
X130534437Y-51345474D01*
X130647705Y-51175956D01*
X130725726Y-50987598D01*
X130765500Y-50787639D01*
X130765500Y-50583761D01*
X130730533Y-50407967D01*
X147027000Y-50407967D01*
X147027000Y-50730033D01*
X147089832Y-51045912D01*
X147213082Y-51343463D01*
X147392013Y-51611252D01*
X147619748Y-51838987D01*
X147887537Y-52017918D01*
X148185088Y-52141168D01*
X148500967Y-52204000D01*
X148823033Y-52204000D01*
X149138912Y-52141168D01*
X149436463Y-52017918D01*
X149704252Y-51838987D01*
X149931987Y-51611252D01*
X150110918Y-51343463D01*
X150234168Y-51045912D01*
X150297000Y-50730033D01*
X150297000Y-50631595D01*
X151520282Y-50631595D01*
X151564039Y-50950675D01*
X151669205Y-51255088D01*
X151762186Y-51429044D01*
X152026587Y-51524808D01*
X152982395Y-50569000D01*
X152026587Y-49613192D01*
X151762186Y-49708956D01*
X151621296Y-49998571D01*
X151539616Y-50310108D01*
X151520282Y-50631595D01*
X150297000Y-50631595D01*
X150297000Y-50407967D01*
X150234168Y-50092088D01*
X150110918Y-49794537D01*
X149931987Y-49526748D01*
X149704252Y-49299013D01*
X149436463Y-49120082D01*
X149138912Y-48996832D01*
X148823033Y-48934000D01*
X148500967Y-48934000D01*
X148185088Y-48996832D01*
X147887537Y-49120082D01*
X147619748Y-49299013D01*
X147392013Y-49526748D01*
X147213082Y-49794537D01*
X147089832Y-50092088D01*
X147027000Y-50407967D01*
X130730533Y-50407967D01*
X130725726Y-50383802D01*
X130647705Y-50195444D01*
X130534437Y-50025926D01*
X130390274Y-49881763D01*
X130220756Y-49768495D01*
X130032398Y-49690474D01*
X129832439Y-49650700D01*
X129628561Y-49650700D01*
X129428602Y-49690474D01*
X129240244Y-49768495D01*
X129070726Y-49881763D01*
X128926563Y-50025926D01*
X128813295Y-50195444D01*
X128735274Y-50383802D01*
X128695500Y-50583761D01*
X104800000Y-50583761D01*
X104800000Y-46037161D01*
X116033600Y-46037161D01*
X116033600Y-46241039D01*
X116073374Y-46440998D01*
X116151395Y-46629356D01*
X116264663Y-46798874D01*
X116408826Y-46943037D01*
X116578344Y-47056305D01*
X116766702Y-47134326D01*
X116966661Y-47174100D01*
X117170539Y-47174100D01*
X117370498Y-47134326D01*
X117558856Y-47056305D01*
X117728374Y-46943037D01*
X117872537Y-46798874D01*
X117963950Y-46662064D01*
X118055363Y-46798874D01*
X118199526Y-46943037D01*
X118369044Y-47056305D01*
X118557402Y-47134326D01*
X118757361Y-47174100D01*
X118961239Y-47174100D01*
X119161198Y-47134326D01*
X119349556Y-47056305D01*
X119519074Y-46943037D01*
X119663237Y-46798874D01*
X119776505Y-46629356D01*
X119854526Y-46440998D01*
X119894300Y-46241039D01*
X119894300Y-46037161D01*
X119854526Y-45837202D01*
X119776505Y-45648844D01*
X119663237Y-45479326D01*
X119519074Y-45335163D01*
X119349556Y-45221895D01*
X119161198Y-45143874D01*
X118961239Y-45104100D01*
X118757361Y-45104100D01*
X118557402Y-45143874D01*
X118369044Y-45221895D01*
X118199526Y-45335163D01*
X118055363Y-45479326D01*
X117963950Y-45616136D01*
X117872537Y-45479326D01*
X117728374Y-45335163D01*
X117558856Y-45221895D01*
X117370498Y-45143874D01*
X117170539Y-45104100D01*
X116966661Y-45104100D01*
X116766702Y-45143874D01*
X116578344Y-45221895D01*
X116408826Y-45335163D01*
X116264663Y-45479326D01*
X116151395Y-45648844D01*
X116073374Y-45837202D01*
X116033600Y-46037161D01*
X104800000Y-46037161D01*
X104800000Y-43078061D01*
X122663000Y-43078061D01*
X122663000Y-43281939D01*
X122702774Y-43481898D01*
X122780795Y-43670256D01*
X122894063Y-43839774D01*
X123038226Y-43983937D01*
X123207744Y-44097205D01*
X123396102Y-44175226D01*
X123596061Y-44215000D01*
X123799939Y-44215000D01*
X123999898Y-44175226D01*
X124188256Y-44097205D01*
X124357774Y-43983937D01*
X124433744Y-43907967D01*
X147027000Y-43907967D01*
X147027000Y-44230033D01*
X147089832Y-44545912D01*
X147213082Y-44843463D01*
X147392013Y-45111252D01*
X147619748Y-45338987D01*
X147887537Y-45517918D01*
X148185088Y-45641168D01*
X148500967Y-45704000D01*
X148823033Y-45704000D01*
X149138912Y-45641168D01*
X149436463Y-45517918D01*
X149704252Y-45338987D01*
X149931987Y-45111252D01*
X150110918Y-44843463D01*
X150234168Y-44545912D01*
X150297000Y-44230033D01*
X150297000Y-44131595D01*
X151520282Y-44131595D01*
X151564039Y-44450675D01*
X151669205Y-44755088D01*
X151762186Y-44929044D01*
X152026587Y-45024808D01*
X152982395Y-44069000D01*
X152026587Y-43113192D01*
X151762186Y-43208956D01*
X151621296Y-43498571D01*
X151539616Y-43810108D01*
X151520282Y-44131595D01*
X150297000Y-44131595D01*
X150297000Y-43907967D01*
X150234168Y-43592088D01*
X150110918Y-43294537D01*
X149931987Y-43026748D01*
X149704252Y-42799013D01*
X149436463Y-42620082D01*
X149138912Y-42496832D01*
X148823033Y-42434000D01*
X148500967Y-42434000D01*
X148185088Y-42496832D01*
X147887537Y-42620082D01*
X147619748Y-42799013D01*
X147392013Y-43026748D01*
X147213082Y-43294537D01*
X147089832Y-43592088D01*
X147027000Y-43907967D01*
X124433744Y-43907967D01*
X124501937Y-43839774D01*
X124615205Y-43670256D01*
X124693226Y-43481898D01*
X124733000Y-43281939D01*
X124733000Y-43078061D01*
X124693226Y-42878102D01*
X124615205Y-42689744D01*
X124501937Y-42520226D01*
X124357774Y-42376063D01*
X124188256Y-42262795D01*
X123999898Y-42184774D01*
X123799939Y-42145000D01*
X123596061Y-42145000D01*
X123396102Y-42184774D01*
X123207744Y-42262795D01*
X123038226Y-42376063D01*
X122894063Y-42520226D01*
X122780795Y-42689744D01*
X122702774Y-42878102D01*
X122663000Y-43078061D01*
X104800000Y-43078061D01*
X104800000Y-40715861D01*
X116033600Y-40715861D01*
X116033600Y-40919739D01*
X116073374Y-41119698D01*
X116151395Y-41308056D01*
X116264663Y-41477574D01*
X116408826Y-41621737D01*
X116578344Y-41735005D01*
X116766702Y-41813026D01*
X116966661Y-41852800D01*
X117170539Y-41852800D01*
X117370498Y-41813026D01*
X117558856Y-41735005D01*
X117728374Y-41621737D01*
X117872537Y-41477574D01*
X117985805Y-41308056D01*
X118063826Y-41119698D01*
X118103600Y-40919739D01*
X118103600Y-40715861D01*
X118063826Y-40515902D01*
X117985805Y-40327544D01*
X117872537Y-40158026D01*
X117728374Y-40013863D01*
X117558856Y-39900595D01*
X117370498Y-39822574D01*
X117170539Y-39782800D01*
X116966661Y-39782800D01*
X116766702Y-39822574D01*
X116578344Y-39900595D01*
X116408826Y-40013863D01*
X116264663Y-40158026D01*
X116151395Y-40327544D01*
X116073374Y-40515902D01*
X116033600Y-40715861D01*
X104800000Y-40715861D01*
X104800000Y-39649061D01*
X120123000Y-39649061D01*
X120123000Y-39852939D01*
X120162774Y-40052898D01*
X120240795Y-40241256D01*
X120354063Y-40410774D01*
X120498226Y-40554937D01*
X120667744Y-40668205D01*
X120856102Y-40746226D01*
X121056061Y-40786000D01*
X121259939Y-40786000D01*
X121459898Y-40746226D01*
X121648256Y-40668205D01*
X121817774Y-40554937D01*
X121961937Y-40410774D01*
X122075205Y-40241256D01*
X122153226Y-40052898D01*
X122157768Y-40030061D01*
X146170700Y-40030061D01*
X146170700Y-40233939D01*
X146210474Y-40433898D01*
X146288495Y-40622256D01*
X146401763Y-40791774D01*
X146545926Y-40935937D01*
X146715444Y-41049205D01*
X146903802Y-41127226D01*
X147103761Y-41167000D01*
X147307639Y-41167000D01*
X147507598Y-41127226D01*
X147695956Y-41049205D01*
X147865474Y-40935937D01*
X148009637Y-40791774D01*
X148122905Y-40622256D01*
X148200926Y-40433898D01*
X148215311Y-40361580D01*
X148500967Y-40418400D01*
X148823033Y-40418400D01*
X149138912Y-40355568D01*
X149436463Y-40232318D01*
X149704252Y-40053387D01*
X149931987Y-39825652D01*
X150110918Y-39557863D01*
X150234168Y-39260312D01*
X150297000Y-38944433D01*
X150297000Y-38845995D01*
X151520282Y-38845995D01*
X151564039Y-39165075D01*
X151669205Y-39469488D01*
X151762186Y-39643444D01*
X152026587Y-39739208D01*
X152982395Y-38783400D01*
X152026587Y-37827592D01*
X151762186Y-37923356D01*
X151621296Y-38212971D01*
X151539616Y-38524508D01*
X151520282Y-38845995D01*
X150297000Y-38845995D01*
X150297000Y-38622367D01*
X150234168Y-38306488D01*
X150110918Y-38008937D01*
X149931987Y-37741148D01*
X149704252Y-37513413D01*
X149436463Y-37334482D01*
X149138912Y-37211232D01*
X148823033Y-37148400D01*
X148500967Y-37148400D01*
X148185088Y-37211232D01*
X147887537Y-37334482D01*
X147619748Y-37513413D01*
X147392013Y-37741148D01*
X147213082Y-38008937D01*
X147089832Y-38306488D01*
X147027000Y-38622367D01*
X147027000Y-38944433D01*
X147059114Y-39105881D01*
X146903802Y-39136774D01*
X146715444Y-39214795D01*
X146545926Y-39328063D01*
X146401763Y-39472226D01*
X146288495Y-39641744D01*
X146210474Y-39830102D01*
X146170700Y-40030061D01*
X122157768Y-40030061D01*
X122193000Y-39852939D01*
X122193000Y-39649061D01*
X122153226Y-39449102D01*
X122075205Y-39260744D01*
X121961937Y-39091226D01*
X121817774Y-38947063D01*
X121648256Y-38833795D01*
X121459898Y-38755774D01*
X121259939Y-38716000D01*
X121056061Y-38716000D01*
X120856102Y-38755774D01*
X120667744Y-38833795D01*
X120498226Y-38947063D01*
X120354063Y-39091226D01*
X120240795Y-39260744D01*
X120162774Y-39449102D01*
X120123000Y-39649061D01*
X104800000Y-39649061D01*
X104800000Y-32122367D01*
X147027000Y-32122367D01*
X147027000Y-32444433D01*
X147089832Y-32760312D01*
X147213082Y-33057863D01*
X147392013Y-33325652D01*
X147619748Y-33553387D01*
X147887537Y-33732318D01*
X148185088Y-33855568D01*
X148500967Y-33918400D01*
X148823033Y-33918400D01*
X149138912Y-33855568D01*
X149436463Y-33732318D01*
X149704252Y-33553387D01*
X149931987Y-33325652D01*
X150110918Y-33057863D01*
X150234168Y-32760312D01*
X150297000Y-32444433D01*
X150297000Y-32345995D01*
X151520282Y-32345995D01*
X151564039Y-32665075D01*
X151669205Y-32969488D01*
X151762186Y-33143444D01*
X152026587Y-33239208D01*
X152982395Y-32283400D01*
X152026587Y-31327592D01*
X151762186Y-31423356D01*
X151621296Y-31712971D01*
X151539616Y-32024508D01*
X151520282Y-32345995D01*
X150297000Y-32345995D01*
X150297000Y-32122367D01*
X150234168Y-31806488D01*
X150110918Y-31508937D01*
X149931987Y-31241148D01*
X149704252Y-31013413D01*
X149436463Y-30834482D01*
X149138912Y-30711232D01*
X148823033Y-30648400D01*
X148500967Y-30648400D01*
X148185088Y-30711232D01*
X147887537Y-30834482D01*
X147619748Y-31013413D01*
X147392013Y-31241148D01*
X147213082Y-31508937D01*
X147089832Y-31806488D01*
X147027000Y-32122367D01*
X104800000Y-32122367D01*
X104800000Y-28981061D01*
X109709000Y-28981061D01*
X109709000Y-29184939D01*
X109748774Y-29384898D01*
X109826795Y-29573256D01*
X109940063Y-29742774D01*
X110084226Y-29886937D01*
X110253744Y-30000205D01*
X110442102Y-30078226D01*
X110642061Y-30118000D01*
X110845939Y-30118000D01*
X111045898Y-30078226D01*
X111234256Y-30000205D01*
X111403774Y-29886937D01*
X111547937Y-29742774D01*
X111661205Y-29573256D01*
X111739226Y-29384898D01*
X111779000Y-29184939D01*
X111779000Y-28981061D01*
X111739226Y-28781102D01*
X111661205Y-28592744D01*
X111547937Y-28423226D01*
X111403774Y-28279063D01*
X111234256Y-28165795D01*
X111045898Y-28087774D01*
X110845939Y-28048000D01*
X110642061Y-28048000D01*
X110442102Y-28087774D01*
X110253744Y-28165795D01*
X110084226Y-28279063D01*
X109940063Y-28423226D01*
X109826795Y-28592744D01*
X109748774Y-28781102D01*
X109709000Y-28981061D01*
X104800000Y-28981061D01*
X104800000Y-26318510D01*
X104971161Y-26574670D01*
X105505330Y-27108839D01*
X106133446Y-27528533D01*
X106831372Y-27817623D01*
X107572285Y-27965000D01*
X108327715Y-27965000D01*
X109068628Y-27817623D01*
X109766554Y-27528533D01*
X110394670Y-27108839D01*
X110928839Y-26574670D01*
X111187831Y-26187061D01*
X121139000Y-26187061D01*
X121139000Y-26390939D01*
X121178774Y-26590898D01*
X121256795Y-26779256D01*
X121370063Y-26948774D01*
X121514226Y-27092937D01*
X121683744Y-27206205D01*
X121872102Y-27284226D01*
X122072061Y-27324000D01*
X122275939Y-27324000D01*
X122475898Y-27284226D01*
X122664256Y-27206205D01*
X122833774Y-27092937D01*
X122977937Y-26948774D01*
X123091205Y-26779256D01*
X123169226Y-26590898D01*
X123209000Y-26390939D01*
X123209000Y-26187061D01*
X123169226Y-25987102D01*
X123091205Y-25798744D01*
X122977937Y-25629226D01*
X122833774Y-25485063D01*
X122664256Y-25371795D01*
X122475898Y-25293774D01*
X122275939Y-25254000D01*
X122072061Y-25254000D01*
X121872102Y-25293774D01*
X121683744Y-25371795D01*
X121514226Y-25485063D01*
X121370063Y-25629226D01*
X121256795Y-25798744D01*
X121178774Y-25987102D01*
X121139000Y-26187061D01*
X111187831Y-26187061D01*
X111348533Y-25946554D01*
X111637623Y-25248628D01*
X111785000Y-24507715D01*
X111785000Y-23752285D01*
X111773090Y-23692408D01*
X124333000Y-23692408D01*
X124333000Y-23967592D01*
X124386686Y-24237490D01*
X124491995Y-24491727D01*
X124644880Y-24720535D01*
X124839465Y-24915120D01*
X125068273Y-25068005D01*
X125322510Y-25173314D01*
X125592408Y-25227000D01*
X125867592Y-25227000D01*
X126137490Y-25173314D01*
X126391727Y-25068005D01*
X126620535Y-24915120D01*
X126740090Y-24795565D01*
X127484040Y-24795565D01*
X127551020Y-25035656D01*
X127800048Y-25152756D01*
X128067135Y-25219023D01*
X128342017Y-25231910D01*
X128614133Y-25190922D01*
X128873023Y-25097636D01*
X128988980Y-25035656D01*
X129055960Y-24795565D01*
X128270000Y-24009605D01*
X127484040Y-24795565D01*
X126740090Y-24795565D01*
X126815120Y-24720535D01*
X126968005Y-24491727D01*
X126997692Y-24420057D01*
X127002364Y-24433023D01*
X127064344Y-24548980D01*
X127304435Y-24615960D01*
X128090395Y-23830000D01*
X128449605Y-23830000D01*
X129235565Y-24615960D01*
X129475656Y-24548980D01*
X129539485Y-24413240D01*
X129571995Y-24491727D01*
X129724880Y-24720535D01*
X129919465Y-24915120D01*
X130148273Y-25068005D01*
X130402510Y-25173314D01*
X130672408Y-25227000D01*
X130947592Y-25227000D01*
X131217490Y-25173314D01*
X131471727Y-25068005D01*
X131700535Y-24915120D01*
X131895120Y-24720535D01*
X132048005Y-24491727D01*
X132080000Y-24414485D01*
X132111995Y-24491727D01*
X132264880Y-24720535D01*
X132459465Y-24915120D01*
X132688273Y-25068005D01*
X132942510Y-25173314D01*
X133212408Y-25227000D01*
X133487592Y-25227000D01*
X133757490Y-25173314D01*
X134011727Y-25068005D01*
X134240535Y-24915120D01*
X134435120Y-24720535D01*
X134588005Y-24491727D01*
X134693314Y-24237490D01*
X134747000Y-23967592D01*
X134747000Y-23692408D01*
X134693314Y-23422510D01*
X134588005Y-23168273D01*
X134435120Y-22939465D01*
X134240535Y-22744880D01*
X134011727Y-22591995D01*
X133757490Y-22486686D01*
X133487592Y-22433000D01*
X133212408Y-22433000D01*
X132942510Y-22486686D01*
X132688273Y-22591995D01*
X132459465Y-22744880D01*
X132264880Y-22939465D01*
X132111995Y-23168273D01*
X132080000Y-23245515D01*
X132048005Y-23168273D01*
X131895120Y-22939465D01*
X131700535Y-22744880D01*
X131471727Y-22591995D01*
X131217490Y-22486686D01*
X130947592Y-22433000D01*
X130672408Y-22433000D01*
X130402510Y-22486686D01*
X130148273Y-22591995D01*
X129919465Y-22744880D01*
X129724880Y-22939465D01*
X129571995Y-23168273D01*
X129542308Y-23239943D01*
X129537636Y-23226977D01*
X129475656Y-23111020D01*
X129235565Y-23044040D01*
X128449605Y-23830000D01*
X128090395Y-23830000D01*
X127304435Y-23044040D01*
X127064344Y-23111020D01*
X127000515Y-23246760D01*
X126968005Y-23168273D01*
X126815120Y-22939465D01*
X126740090Y-22864435D01*
X127484040Y-22864435D01*
X128270000Y-23650395D01*
X129055960Y-22864435D01*
X128988980Y-22624344D01*
X128739952Y-22507244D01*
X128472865Y-22440977D01*
X128197983Y-22428090D01*
X127925867Y-22469078D01*
X127666977Y-22562364D01*
X127551020Y-22624344D01*
X127484040Y-22864435D01*
X126740090Y-22864435D01*
X126620535Y-22744880D01*
X126391727Y-22591995D01*
X126137490Y-22486686D01*
X125867592Y-22433000D01*
X125592408Y-22433000D01*
X125322510Y-22486686D01*
X125068273Y-22591995D01*
X124839465Y-22744880D01*
X124644880Y-22939465D01*
X124491995Y-23168273D01*
X124386686Y-23422510D01*
X124333000Y-23692408D01*
X111773090Y-23692408D01*
X111637623Y-23011372D01*
X111348533Y-22313446D01*
X110928839Y-21685330D01*
X110394670Y-21151161D01*
X110138510Y-20980000D01*
X148941490Y-20980000D01*
X148685330Y-21151161D01*
%TA.AperFunction,Conductor*%
D21*
G36*
X148685330Y-21151161D02*
G01*
X148151161Y-21685330D01*
X147731467Y-22313446D01*
X147442377Y-23011372D01*
X147295000Y-23752285D01*
X147295000Y-24507715D01*
X147442377Y-25248628D01*
X147731467Y-25946554D01*
X148151161Y-26574670D01*
X148685330Y-27108839D01*
X149313446Y-27528533D01*
X150011372Y-27817623D01*
X150752285Y-27965000D01*
X151507715Y-27965000D01*
X152248628Y-27817623D01*
X152946554Y-27528533D01*
X153574670Y-27108839D01*
X154108839Y-26574670D01*
X154280000Y-26318510D01*
X154280000Y-31078842D01*
X154233475Y-31032317D01*
X154117807Y-31147985D01*
X154022044Y-30883586D01*
X153732429Y-30742696D01*
X153420892Y-30661016D01*
X153346713Y-30656555D01*
X153398256Y-30635205D01*
X153567774Y-30521937D01*
X153711937Y-30377774D01*
X153825205Y-30208256D01*
X153903226Y-30019898D01*
X153943000Y-29819939D01*
X153943000Y-29616061D01*
X153903226Y-29416102D01*
X153825205Y-29227744D01*
X153711937Y-29058226D01*
X153567774Y-28914063D01*
X153398256Y-28800795D01*
X153209898Y-28722774D01*
X153009939Y-28683000D01*
X152806061Y-28683000D01*
X152606102Y-28722774D01*
X152417744Y-28800795D01*
X152248226Y-28914063D01*
X152104063Y-29058226D01*
X151990795Y-29227744D01*
X151912774Y-29416102D01*
X151873000Y-29616061D01*
X151873000Y-29819939D01*
X151912774Y-30019898D01*
X151990795Y-30208256D01*
X152104063Y-30377774D01*
X152248226Y-30521937D01*
X152417744Y-30635205D01*
X152606102Y-30713226D01*
X152665623Y-30725065D01*
X152475912Y-30790605D01*
X152301956Y-30883586D01*
X152206192Y-31147987D01*
X153162000Y-32103795D01*
X153176143Y-32089653D01*
X153355748Y-32269258D01*
X153341605Y-32283400D01*
X153355748Y-32297543D01*
X153176143Y-32477148D01*
X153162000Y-32463005D01*
X152206192Y-33418813D01*
X152301956Y-33683214D01*
X152591571Y-33824104D01*
X152903108Y-33905784D01*
X153224595Y-33925118D01*
X153543675Y-33881361D01*
X153848088Y-33776195D01*
X154022044Y-33683214D01*
X154117807Y-33418815D01*
X154233475Y-33534483D01*
X154280000Y-33487958D01*
X154280000Y-37578842D01*
X154233475Y-37532317D01*
X154117807Y-37647985D01*
X154022044Y-37383586D01*
X153732429Y-37242696D01*
X153420892Y-37161016D01*
X153099405Y-37141682D01*
X152780325Y-37185439D01*
X152475912Y-37290605D01*
X152301956Y-37383586D01*
X152206192Y-37647987D01*
X153162000Y-38603795D01*
X153176143Y-38589653D01*
X153355748Y-38769258D01*
X153341605Y-38783400D01*
X153355748Y-38797543D01*
X153176143Y-38977148D01*
X153162000Y-38963005D01*
X152206192Y-39918813D01*
X152301956Y-40183214D01*
X152591571Y-40324104D01*
X152777130Y-40372755D01*
X152606102Y-40406774D01*
X152417744Y-40484795D01*
X152248226Y-40598063D01*
X152104063Y-40742226D01*
X151990795Y-40911744D01*
X151912774Y-41100102D01*
X151873000Y-41300061D01*
X151873000Y-41503939D01*
X151912774Y-41703898D01*
X151990795Y-41892256D01*
X152104063Y-42061774D01*
X152248226Y-42205937D01*
X152417744Y-42319205D01*
X152606102Y-42397226D01*
X152806061Y-42437000D01*
X153009939Y-42437000D01*
X153209898Y-42397226D01*
X153398256Y-42319205D01*
X153567774Y-42205937D01*
X153711937Y-42061774D01*
X153825205Y-41892256D01*
X153903226Y-41703898D01*
X153943000Y-41503939D01*
X153943000Y-41300061D01*
X153903226Y-41100102D01*
X153825205Y-40911744D01*
X153711937Y-40742226D01*
X153567774Y-40598063D01*
X153398256Y-40484795D01*
X153246824Y-40422070D01*
X153543675Y-40381361D01*
X153848088Y-40276195D01*
X154022044Y-40183214D01*
X154117807Y-39918815D01*
X154233475Y-40034483D01*
X154280000Y-39987958D01*
X154280000Y-42864442D01*
X154233475Y-42817917D01*
X154117807Y-42933585D01*
X154022044Y-42669186D01*
X153732429Y-42528296D01*
X153420892Y-42446616D01*
X153099405Y-42427282D01*
X152780325Y-42471039D01*
X152475912Y-42576205D01*
X152301956Y-42669186D01*
X152206192Y-42933587D01*
X153162000Y-43889395D01*
X153176143Y-43875253D01*
X153355748Y-44054858D01*
X153341605Y-44069000D01*
X153355748Y-44083143D01*
X153176143Y-44262748D01*
X153162000Y-44248605D01*
X152206192Y-45204413D01*
X152301956Y-45468814D01*
X152591571Y-45609704D01*
X152903108Y-45691384D01*
X153224595Y-45710718D01*
X153543675Y-45666961D01*
X153848088Y-45561795D01*
X154022044Y-45468814D01*
X154117807Y-45204415D01*
X154233475Y-45320083D01*
X154280000Y-45273558D01*
X154280000Y-49364442D01*
X154233475Y-49317917D01*
X154117807Y-49433585D01*
X154022044Y-49169186D01*
X153732429Y-49028296D01*
X153420892Y-48946616D01*
X153099405Y-48927282D01*
X152780325Y-48971039D01*
X152475912Y-49076205D01*
X152301956Y-49169186D01*
X152206192Y-49433587D01*
X153162000Y-50389395D01*
X153176143Y-50375253D01*
X153355748Y-50554858D01*
X153341605Y-50569000D01*
X153355748Y-50583143D01*
X153176143Y-50762748D01*
X153162000Y-50748605D01*
X152206192Y-51704413D01*
X152301956Y-51968814D01*
X152591571Y-52109704D01*
X152852060Y-52178000D01*
X152806061Y-52178000D01*
X152606102Y-52217774D01*
X152417744Y-52295795D01*
X152248226Y-52409063D01*
X152104063Y-52553226D01*
X151990795Y-52722744D01*
X151912774Y-52911102D01*
X151873000Y-53111061D01*
X151873000Y-53314939D01*
X151912774Y-53514898D01*
X151990795Y-53703256D01*
X152104063Y-53872774D01*
X152248226Y-54016937D01*
X152417744Y-54130205D01*
X152606102Y-54208226D01*
X152728400Y-54232552D01*
X152501312Y-54311005D01*
X152327356Y-54403986D01*
X152231592Y-54668387D01*
X153187400Y-55624195D01*
X153201543Y-55610053D01*
X153381148Y-55789658D01*
X153367005Y-55803800D01*
X153381148Y-55817943D01*
X153201543Y-55997548D01*
X153187400Y-55983405D01*
X152231592Y-56939213D01*
X152327356Y-57203614D01*
X152616971Y-57344504D01*
X152928508Y-57426184D01*
X153249995Y-57445518D01*
X153569075Y-57401761D01*
X153873488Y-57296595D01*
X154047444Y-57203614D01*
X154143207Y-56939215D01*
X154258875Y-57054883D01*
X154280000Y-57033758D01*
X154280001Y-61073843D01*
X154258875Y-61052717D01*
X154143207Y-61168385D01*
X154047444Y-60903986D01*
X153757829Y-60763096D01*
X153446292Y-60681416D01*
X153124805Y-60662082D01*
X152805725Y-60705839D01*
X152501312Y-60811005D01*
X152327356Y-60903986D01*
X152231592Y-61168387D01*
X153187400Y-62124195D01*
X153201543Y-62110053D01*
X153381148Y-62289658D01*
X153367005Y-62303800D01*
X153381148Y-62317943D01*
X153201543Y-62497548D01*
X153187400Y-62483405D01*
X152231592Y-63439213D01*
X152327356Y-63703614D01*
X152616971Y-63844504D01*
X152928508Y-63926184D01*
X153249995Y-63945518D01*
X153569075Y-63901761D01*
X153873488Y-63796595D01*
X154047444Y-63703614D01*
X154143207Y-63439215D01*
X154258875Y-63554883D01*
X154280001Y-63533757D01*
X154280001Y-91791492D01*
X154108839Y-91535330D01*
X153574670Y-91001161D01*
X152946554Y-90581467D01*
X152248628Y-90292377D01*
X151507715Y-90145000D01*
X150752285Y-90145000D01*
X150011372Y-90292377D01*
X149313446Y-90581467D01*
X148685330Y-91001161D01*
X148151161Y-91535330D01*
X147731467Y-92163446D01*
X147442377Y-92861372D01*
X147295000Y-93602285D01*
X147295000Y-94357715D01*
X147442377Y-95098628D01*
X147731467Y-95796554D01*
X148151161Y-96424670D01*
X148685330Y-96958839D01*
X148941490Y-97130000D01*
X110138510Y-97130000D01*
X110394670Y-96958839D01*
X110928839Y-96424670D01*
X111348533Y-95796554D01*
X111637623Y-95098628D01*
X111785000Y-94357715D01*
X111785000Y-93602285D01*
X111637623Y-92861372D01*
X111348533Y-92163446D01*
X110928839Y-91535330D01*
X110394670Y-91001161D01*
X110349531Y-90971000D01*
X138211928Y-90971000D01*
X138211928Y-92671000D01*
X138224188Y-92795482D01*
X138260498Y-92915180D01*
X138319463Y-93025494D01*
X138398815Y-93122185D01*
X138495506Y-93201537D01*
X138605820Y-93260502D01*
X138678380Y-93282513D01*
X138546525Y-93414368D01*
X138384010Y-93657589D01*
X138272068Y-93927842D01*
X138215000Y-94214740D01*
X138215000Y-94507260D01*
X138272068Y-94794158D01*
X138384010Y-95064411D01*
X138546525Y-95307632D01*
X138753368Y-95514475D01*
X138996589Y-95676990D01*
X139266842Y-95788932D01*
X139553740Y-95846000D01*
X139846260Y-95846000D01*
X140133158Y-95788932D01*
X140403411Y-95676990D01*
X140646632Y-95514475D01*
X140853475Y-95307632D01*
X141015990Y-95064411D01*
X141127932Y-94794158D01*
X141185000Y-94507260D01*
X141185000Y-94214740D01*
X141127932Y-93927842D01*
X141015990Y-93657589D01*
X140853475Y-93414368D01*
X140721620Y-93282513D01*
X140794180Y-93260502D01*
X140904494Y-93201537D01*
X141001185Y-93122185D01*
X141080537Y-93025494D01*
X141139502Y-92915180D01*
X141175812Y-92795482D01*
X141188072Y-92671000D01*
X142910928Y-92671000D01*
X142923188Y-92795482D01*
X142959498Y-92915180D01*
X143018463Y-93025494D01*
X143097815Y-93122185D01*
X143194506Y-93201537D01*
X143304820Y-93260502D01*
X143377380Y-93282513D01*
X143245525Y-93414368D01*
X143083010Y-93657589D01*
X142971068Y-93927842D01*
X142914000Y-94214740D01*
X142914000Y-94507260D01*
X142971068Y-94794158D01*
X143083010Y-95064411D01*
X143245525Y-95307632D01*
X143452368Y-95514475D01*
X143695589Y-95676990D01*
X143965842Y-95788932D01*
X144252740Y-95846000D01*
X144545260Y-95846000D01*
X144832158Y-95788932D01*
X145102411Y-95676990D01*
X145345632Y-95514475D01*
X145552475Y-95307632D01*
X145714990Y-95064411D01*
X145826932Y-94794158D01*
X145884000Y-94507260D01*
X145884000Y-94214740D01*
X145826932Y-93927842D01*
X145714990Y-93657589D01*
X145552475Y-93414368D01*
X145420620Y-93282513D01*
X145493180Y-93260502D01*
X145603494Y-93201537D01*
X145700185Y-93122185D01*
X145779537Y-93025494D01*
X145838502Y-92915180D01*
X145874812Y-92795482D01*
X145887072Y-92671000D01*
X145884000Y-92106750D01*
X145725250Y-91948000D01*
X144526000Y-91948000D01*
X144526000Y-91968000D01*
X144272000Y-91968000D01*
X144272000Y-91948000D01*
X143072750Y-91948000D01*
X142914000Y-92106750D01*
X142910928Y-92671000D01*
X141188072Y-92671000D01*
X141188072Y-90971000D01*
X142910928Y-90971000D01*
X142914000Y-91535250D01*
X143072750Y-91694000D01*
X144272000Y-91694000D01*
X144272000Y-90494750D01*
X144526000Y-90494750D01*
X144526000Y-91694000D01*
X145725250Y-91694000D01*
X145884000Y-91535250D01*
X145887072Y-90971000D01*
X145874812Y-90846518D01*
X145838502Y-90726820D01*
X145779537Y-90616506D01*
X145700185Y-90519815D01*
X145603494Y-90440463D01*
X145493180Y-90381498D01*
X145373482Y-90345188D01*
X145249000Y-90332928D01*
X144684750Y-90336000D01*
X144526000Y-90494750D01*
X144272000Y-90494750D01*
X144113250Y-90336000D01*
X143549000Y-90332928D01*
X143424518Y-90345188D01*
X143304820Y-90381498D01*
X143194506Y-90440463D01*
X143097815Y-90519815D01*
X143018463Y-90616506D01*
X142959498Y-90726820D01*
X142923188Y-90846518D01*
X142910928Y-90971000D01*
X141188072Y-90971000D01*
X141175812Y-90846518D01*
X141139502Y-90726820D01*
X141080537Y-90616506D01*
X141001185Y-90519815D01*
X140904494Y-90440463D01*
X140794180Y-90381498D01*
X140674482Y-90345188D01*
X140550000Y-90332928D01*
X138850000Y-90332928D01*
X138725518Y-90345188D01*
X138605820Y-90381498D01*
X138495506Y-90440463D01*
X138398815Y-90519815D01*
X138319463Y-90616506D01*
X138260498Y-90726820D01*
X138224188Y-90846518D01*
X138211928Y-90971000D01*
X110349531Y-90971000D01*
X109766554Y-90581467D01*
X109068628Y-90292377D01*
X108327715Y-90145000D01*
X107572285Y-90145000D01*
X106831372Y-90292377D01*
X106133446Y-90581467D01*
X105505330Y-91001161D01*
X104971161Y-91535330D01*
X104800000Y-91791490D01*
X104800000Y-84861061D01*
X106026000Y-84861061D01*
X106026000Y-85064939D01*
X106065774Y-85264898D01*
X106143795Y-85453256D01*
X106257063Y-85622774D01*
X106401226Y-85766937D01*
X106570744Y-85880205D01*
X106759102Y-85958226D01*
X106959061Y-85998000D01*
X107162939Y-85998000D01*
X107362898Y-85958226D01*
X107551256Y-85880205D01*
X107720774Y-85766937D01*
X107864937Y-85622774D01*
X107975703Y-85457000D01*
X116742928Y-85457000D01*
X116742928Y-86219000D01*
X116762509Y-86417811D01*
X116820500Y-86608982D01*
X116914673Y-86785166D01*
X117041407Y-86939593D01*
X117195834Y-87066327D01*
X117372018Y-87160500D01*
X117563189Y-87218491D01*
X117762000Y-87238072D01*
X118524000Y-87238072D01*
X118722811Y-87218491D01*
X118913982Y-87160500D01*
X119090166Y-87066327D01*
X119244593Y-86939593D01*
X119371327Y-86785166D01*
X119465500Y-86608982D01*
X119523491Y-86417811D01*
X119543072Y-86219000D01*
X119543072Y-85457000D01*
X136742928Y-85457000D01*
X136742928Y-86219000D01*
X136762509Y-86417811D01*
X136820500Y-86608982D01*
X136914673Y-86785166D01*
X137041407Y-86939593D01*
X137195834Y-87066327D01*
X137372018Y-87160500D01*
X137563189Y-87218491D01*
X137762000Y-87238072D01*
X138524000Y-87238072D01*
X138722811Y-87218491D01*
X138913982Y-87160500D01*
X139090166Y-87066327D01*
X139244593Y-86939593D01*
X139371327Y-86785166D01*
X139465500Y-86608982D01*
X139523491Y-86417811D01*
X139543072Y-86219000D01*
X139543072Y-85457000D01*
X139523491Y-85258189D01*
X139465500Y-85067018D01*
X139371327Y-84890834D01*
X139244593Y-84736407D01*
X139090166Y-84609673D01*
X138913982Y-84515500D01*
X138722811Y-84457509D01*
X138524000Y-84437928D01*
X137762000Y-84437928D01*
X137563189Y-84457509D01*
X137372018Y-84515500D01*
X137195834Y-84609673D01*
X137041407Y-84736407D01*
X136914673Y-84890834D01*
X136820500Y-85067018D01*
X136762509Y-85258189D01*
X136742928Y-85457000D01*
X119543072Y-85457000D01*
X119523491Y-85258189D01*
X119465500Y-85067018D01*
X119371327Y-84890834D01*
X119244593Y-84736407D01*
X119090166Y-84609673D01*
X118913982Y-84515500D01*
X118722811Y-84457509D01*
X118524000Y-84437928D01*
X117762000Y-84437928D01*
X117563189Y-84457509D01*
X117372018Y-84515500D01*
X117195834Y-84609673D01*
X117041407Y-84736407D01*
X116914673Y-84890834D01*
X116820500Y-85067018D01*
X116762509Y-85258189D01*
X116742928Y-85457000D01*
X107975703Y-85457000D01*
X107978205Y-85453256D01*
X108056226Y-85264898D01*
X108096000Y-85064939D01*
X108096000Y-84861061D01*
X108056226Y-84661102D01*
X107978205Y-84472744D01*
X107864937Y-84303226D01*
X107720774Y-84159063D01*
X107551256Y-84045795D01*
X107362898Y-83967774D01*
X107162939Y-83928000D01*
X106959061Y-83928000D01*
X106759102Y-83967774D01*
X106570744Y-84045795D01*
X106401226Y-84159063D01*
X106257063Y-84303226D01*
X106143795Y-84472744D01*
X106065774Y-84661102D01*
X106026000Y-84861061D01*
X104800000Y-84861061D01*
X104800000Y-79070565D01*
X110085040Y-79070565D01*
X110152020Y-79310656D01*
X110401048Y-79427756D01*
X110668135Y-79494023D01*
X110943017Y-79506910D01*
X111215133Y-79465922D01*
X111474023Y-79372636D01*
X111589980Y-79310656D01*
X111656960Y-79070565D01*
X110871000Y-78284605D01*
X110085040Y-79070565D01*
X104800000Y-79070565D01*
X104800000Y-78177017D01*
X109469090Y-78177017D01*
X109510078Y-78449133D01*
X109603364Y-78708023D01*
X109665344Y-78823980D01*
X109905435Y-78890960D01*
X110691395Y-78105000D01*
X109905435Y-77319040D01*
X109665344Y-77386020D01*
X109548244Y-77635048D01*
X109481977Y-77902135D01*
X109469090Y-78177017D01*
X104800000Y-78177017D01*
X104800000Y-72887408D01*
X109474000Y-72887408D01*
X109474000Y-73162592D01*
X109527686Y-73432490D01*
X109632995Y-73686727D01*
X109785880Y-73915535D01*
X109980465Y-74110120D01*
X110209273Y-74263005D01*
X110286515Y-74295000D01*
X110209273Y-74326995D01*
X109980465Y-74479880D01*
X109785880Y-74674465D01*
X109632995Y-74903273D01*
X109527686Y-75157510D01*
X109474000Y-75427408D01*
X109474000Y-75702592D01*
X109527686Y-75972490D01*
X109632995Y-76226727D01*
X109785880Y-76455535D01*
X109980465Y-76650120D01*
X110209273Y-76803005D01*
X110280943Y-76832692D01*
X110267977Y-76837364D01*
X110152020Y-76899344D01*
X110085040Y-77139435D01*
X110871000Y-77925395D01*
X111656960Y-77139435D01*
X111589980Y-76899344D01*
X111454240Y-76835515D01*
X111532727Y-76803005D01*
X111761535Y-76650120D01*
X111956120Y-76455535D01*
X112109005Y-76226727D01*
X112141000Y-76149485D01*
X112172995Y-76226727D01*
X112325880Y-76455535D01*
X112520465Y-76650120D01*
X112608465Y-76708920D01*
X112524518Y-76717188D01*
X112404820Y-76753498D01*
X112294506Y-76812463D01*
X112197815Y-76891815D01*
X112118463Y-76988506D01*
X112059498Y-77098820D01*
X112023188Y-77218518D01*
X112010928Y-77343000D01*
X112010928Y-77367683D01*
X111836565Y-77319040D01*
X111050605Y-78105000D01*
X111836565Y-78890960D01*
X112010928Y-78842317D01*
X112010928Y-78867000D01*
X112023188Y-78991482D01*
X112059498Y-79111180D01*
X112118463Y-79221494D01*
X112197815Y-79318185D01*
X112294506Y-79397537D01*
X112404820Y-79456502D01*
X112524518Y-79492812D01*
X112649000Y-79505072D01*
X114173000Y-79505072D01*
X114297482Y-79492812D01*
X114417180Y-79456502D01*
X114527494Y-79397537D01*
X114624185Y-79318185D01*
X114703537Y-79221494D01*
X114762502Y-79111180D01*
X114798812Y-78991482D01*
X114811072Y-78867000D01*
X114811072Y-77343000D01*
X114798812Y-77218518D01*
X114762502Y-77098820D01*
X114703537Y-76988506D01*
X114624185Y-76891815D01*
X114527494Y-76812463D01*
X114417180Y-76753498D01*
X114297482Y-76717188D01*
X114213535Y-76708920D01*
X114301535Y-76650120D01*
X114496120Y-76455535D01*
X114649005Y-76226727D01*
X114754314Y-75972490D01*
X114808000Y-75702592D01*
X114808000Y-75427408D01*
X114754314Y-75157510D01*
X114649005Y-74903273D01*
X114496120Y-74674465D01*
X114301535Y-74479880D01*
X114252419Y-74447061D01*
X114916000Y-74447061D01*
X114916000Y-74650939D01*
X114955774Y-74850898D01*
X115033795Y-75039256D01*
X115147063Y-75208774D01*
X115291226Y-75352937D01*
X115460744Y-75466205D01*
X115649102Y-75544226D01*
X115849061Y-75584000D01*
X116052939Y-75584000D01*
X116252898Y-75544226D01*
X116441256Y-75466205D01*
X116610774Y-75352937D01*
X116754937Y-75208774D01*
X116868205Y-75039256D01*
X116946226Y-74850898D01*
X116986000Y-74650939D01*
X116986000Y-74447061D01*
X116946226Y-74247102D01*
X116868205Y-74058744D01*
X116754937Y-73889226D01*
X116610774Y-73745063D01*
X116441256Y-73631795D01*
X116252898Y-73553774D01*
X116052939Y-73514000D01*
X115849061Y-73514000D01*
X115649102Y-73553774D01*
X115460744Y-73631795D01*
X115291226Y-73745063D01*
X115147063Y-73889226D01*
X115033795Y-74058744D01*
X114955774Y-74247102D01*
X114916000Y-74447061D01*
X114252419Y-74447061D01*
X114072727Y-74326995D01*
X113995485Y-74295000D01*
X114072727Y-74263005D01*
X114301535Y-74110120D01*
X114496120Y-73915535D01*
X114649005Y-73686727D01*
X114754314Y-73432490D01*
X114807648Y-73164361D01*
X125304600Y-73164361D01*
X125304600Y-73368239D01*
X125344374Y-73568198D01*
X125422395Y-73756556D01*
X125535663Y-73926074D01*
X125679826Y-74070237D01*
X125849344Y-74183505D01*
X126037702Y-74261526D01*
X126237661Y-74301300D01*
X126441539Y-74301300D01*
X126641498Y-74261526D01*
X126653484Y-74256561D01*
X128149400Y-74256561D01*
X128149400Y-74460439D01*
X128189174Y-74660398D01*
X128267195Y-74848756D01*
X128380463Y-75018274D01*
X128524626Y-75162437D01*
X128694144Y-75275705D01*
X128882502Y-75353726D01*
X129082461Y-75393500D01*
X129286339Y-75393500D01*
X129486298Y-75353726D01*
X129674656Y-75275705D01*
X129844174Y-75162437D01*
X129988337Y-75018274D01*
X130101605Y-74848756D01*
X130162782Y-74701061D01*
X138919000Y-74701061D01*
X138919000Y-74904939D01*
X138958774Y-75104898D01*
X139036795Y-75293256D01*
X139150063Y-75462774D01*
X139294226Y-75606937D01*
X139463744Y-75720205D01*
X139652102Y-75798226D01*
X139852061Y-75838000D01*
X140055939Y-75838000D01*
X140255898Y-75798226D01*
X140444256Y-75720205D01*
X140613774Y-75606937D01*
X140757937Y-75462774D01*
X140871205Y-75293256D01*
X140949226Y-75104898D01*
X140989000Y-74904939D01*
X140989000Y-74701061D01*
X140949226Y-74501102D01*
X140871205Y-74312744D01*
X140757937Y-74143226D01*
X140613774Y-73999063D01*
X140444256Y-73885795D01*
X140255898Y-73807774D01*
X140055939Y-73768000D01*
X139852061Y-73768000D01*
X139652102Y-73807774D01*
X139463744Y-73885795D01*
X139294226Y-73999063D01*
X139150063Y-74143226D01*
X139036795Y-74312744D01*
X138958774Y-74501102D01*
X138919000Y-74701061D01*
X130162782Y-74701061D01*
X130179626Y-74660398D01*
X130219400Y-74460439D01*
X130219400Y-74256561D01*
X130179626Y-74056602D01*
X130101605Y-73868244D01*
X129988337Y-73698726D01*
X129844174Y-73554563D01*
X129674656Y-73441295D01*
X129649950Y-73431061D01*
X143745000Y-73431061D01*
X143745000Y-73634939D01*
X143784774Y-73834898D01*
X143862795Y-74023256D01*
X143976063Y-74192774D01*
X144120226Y-74336937D01*
X144289744Y-74450205D01*
X144478102Y-74528226D01*
X144678061Y-74568000D01*
X144881939Y-74568000D01*
X145081898Y-74528226D01*
X145270256Y-74450205D01*
X145439774Y-74336937D01*
X145583937Y-74192774D01*
X145697205Y-74023256D01*
X145775226Y-73834898D01*
X145815000Y-73634939D01*
X145815000Y-73431061D01*
X145775226Y-73231102D01*
X145697205Y-73042744D01*
X145583937Y-72873226D01*
X145439774Y-72729063D01*
X145270256Y-72615795D01*
X145081898Y-72537774D01*
X144881939Y-72498000D01*
X144678061Y-72498000D01*
X144478102Y-72537774D01*
X144289744Y-72615795D01*
X144120226Y-72729063D01*
X143976063Y-72873226D01*
X143862795Y-73042744D01*
X143784774Y-73231102D01*
X143745000Y-73431061D01*
X129649950Y-73431061D01*
X129486298Y-73363274D01*
X129286339Y-73323500D01*
X129082461Y-73323500D01*
X128882502Y-73363274D01*
X128694144Y-73441295D01*
X128524626Y-73554563D01*
X128380463Y-73698726D01*
X128267195Y-73868244D01*
X128189174Y-74056602D01*
X128149400Y-74256561D01*
X126653484Y-74256561D01*
X126829856Y-74183505D01*
X126999374Y-74070237D01*
X127143537Y-73926074D01*
X127256805Y-73756556D01*
X127334826Y-73568198D01*
X127374600Y-73368239D01*
X127374600Y-73164361D01*
X127334826Y-72964402D01*
X127256805Y-72776044D01*
X127143537Y-72606526D01*
X126999374Y-72462363D01*
X126829856Y-72349095D01*
X126641498Y-72271074D01*
X126441539Y-72231300D01*
X126237661Y-72231300D01*
X126037702Y-72271074D01*
X125849344Y-72349095D01*
X125679826Y-72462363D01*
X125535663Y-72606526D01*
X125422395Y-72776044D01*
X125344374Y-72964402D01*
X125304600Y-73164361D01*
X114807648Y-73164361D01*
X114808000Y-73162592D01*
X114808000Y-72887408D01*
X114754314Y-72617510D01*
X114649005Y-72363273D01*
X114496120Y-72134465D01*
X114301535Y-71939880D01*
X114072727Y-71786995D01*
X113818490Y-71681686D01*
X113548592Y-71628000D01*
X113273408Y-71628000D01*
X113003510Y-71681686D01*
X112749273Y-71786995D01*
X112520465Y-71939880D01*
X112325880Y-72134465D01*
X112172995Y-72363273D01*
X112141000Y-72440515D01*
X112109005Y-72363273D01*
X111956120Y-72134465D01*
X111761535Y-71939880D01*
X111532727Y-71786995D01*
X111278490Y-71681686D01*
X111008592Y-71628000D01*
X110733408Y-71628000D01*
X110463510Y-71681686D01*
X110209273Y-71786995D01*
X109980465Y-71939880D01*
X109785880Y-72134465D01*
X109632995Y-72363273D01*
X109527686Y-72617510D01*
X109474000Y-72887408D01*
X104800000Y-72887408D01*
X104800000Y-68224061D01*
X135236000Y-68224061D01*
X135236000Y-68427939D01*
X135275774Y-68627898D01*
X135353795Y-68816256D01*
X135467063Y-68985774D01*
X135611226Y-69129937D01*
X135780744Y-69243205D01*
X135969102Y-69321226D01*
X136169061Y-69361000D01*
X136372939Y-69361000D01*
X136572898Y-69321226D01*
X136761256Y-69243205D01*
X136930774Y-69129937D01*
X137074937Y-68985774D01*
X137188205Y-68816256D01*
X137266226Y-68627898D01*
X137306000Y-68427939D01*
X137306000Y-68224061D01*
X137266226Y-68024102D01*
X137188205Y-67835744D01*
X137074937Y-67666226D01*
X136930774Y-67522063D01*
X136761256Y-67408795D01*
X136572898Y-67330774D01*
X136372939Y-67291000D01*
X136169061Y-67291000D01*
X135969102Y-67330774D01*
X135780744Y-67408795D01*
X135611226Y-67522063D01*
X135467063Y-67666226D01*
X135353795Y-67835744D01*
X135275774Y-68024102D01*
X135236000Y-68224061D01*
X104800000Y-68224061D01*
X104800000Y-65938061D01*
X117964000Y-65938061D01*
X117964000Y-66141939D01*
X118003774Y-66341898D01*
X118081795Y-66530256D01*
X118195063Y-66699774D01*
X118339226Y-66843937D01*
X118508744Y-66957205D01*
X118697102Y-67035226D01*
X118897061Y-67075000D01*
X119100939Y-67075000D01*
X119300898Y-67035226D01*
X119489256Y-66957205D01*
X119658774Y-66843937D01*
X119802937Y-66699774D01*
X119916205Y-66530256D01*
X119994226Y-66341898D01*
X120034000Y-66141939D01*
X120034000Y-65938061D01*
X124441000Y-65938061D01*
X124441000Y-66141939D01*
X124480774Y-66341898D01*
X124558795Y-66530256D01*
X124672063Y-66699774D01*
X124816226Y-66843937D01*
X124985744Y-66957205D01*
X125174102Y-67035226D01*
X125374061Y-67075000D01*
X125577939Y-67075000D01*
X125777898Y-67035226D01*
X125966256Y-66957205D01*
X126135774Y-66843937D01*
X126279937Y-66699774D01*
X126393205Y-66530256D01*
X126471226Y-66341898D01*
X126485873Y-66268261D01*
X127425500Y-66268261D01*
X127425500Y-66472139D01*
X127465274Y-66672098D01*
X127543295Y-66860456D01*
X127656563Y-67029974D01*
X127800726Y-67174137D01*
X127970244Y-67287405D01*
X128158602Y-67365426D01*
X128358561Y-67405200D01*
X128562439Y-67405200D01*
X128762398Y-67365426D01*
X128950756Y-67287405D01*
X129120274Y-67174137D01*
X129264437Y-67029974D01*
X129280746Y-67005565D01*
X137644040Y-67005565D01*
X137711020Y-67245656D01*
X137960048Y-67362756D01*
X138227135Y-67429023D01*
X138502017Y-67441910D01*
X138774133Y-67400922D01*
X139033023Y-67307636D01*
X139148980Y-67245656D01*
X139215960Y-67005565D01*
X138430000Y-66219605D01*
X137644040Y-67005565D01*
X129280746Y-67005565D01*
X129377705Y-66860456D01*
X129455726Y-66672098D01*
X129495500Y-66472139D01*
X129495500Y-66268261D01*
X129464422Y-66112017D01*
X137028090Y-66112017D01*
X137069078Y-66384133D01*
X137162364Y-66643023D01*
X137224344Y-66758980D01*
X137464435Y-66825960D01*
X138250395Y-66040000D01*
X138609605Y-66040000D01*
X139395565Y-66825960D01*
X139635656Y-66758980D01*
X139699485Y-66623240D01*
X139731995Y-66701727D01*
X139884880Y-66930535D01*
X140079465Y-67125120D01*
X140308273Y-67278005D01*
X140562510Y-67383314D01*
X140832408Y-67437000D01*
X141107592Y-67437000D01*
X141377490Y-67383314D01*
X141631727Y-67278005D01*
X141860535Y-67125120D01*
X142055120Y-66930535D01*
X142208005Y-66701727D01*
X142240000Y-66624485D01*
X142271995Y-66701727D01*
X142424880Y-66930535D01*
X142619465Y-67125120D01*
X142848273Y-67278005D01*
X143102510Y-67383314D01*
X143372408Y-67437000D01*
X143647592Y-67437000D01*
X143917490Y-67383314D01*
X144171727Y-67278005D01*
X144400535Y-67125120D01*
X144595120Y-66930535D01*
X144748005Y-66701727D01*
X144780000Y-66624485D01*
X144811995Y-66701727D01*
X144964880Y-66930535D01*
X145159465Y-67125120D01*
X145388273Y-67278005D01*
X145642510Y-67383314D01*
X145912408Y-67437000D01*
X146187592Y-67437000D01*
X146457490Y-67383314D01*
X146711727Y-67278005D01*
X146940535Y-67125120D01*
X147135120Y-66930535D01*
X147288005Y-66701727D01*
X147393314Y-66447490D01*
X147447000Y-66177592D01*
X147447000Y-65902408D01*
X147393314Y-65632510D01*
X147288005Y-65378273D01*
X147135120Y-65149465D01*
X146951799Y-64966144D01*
X146980002Y-64977826D01*
X147179961Y-65017600D01*
X147383839Y-65017600D01*
X147583798Y-64977826D01*
X147772156Y-64899805D01*
X147941674Y-64786537D01*
X148085837Y-64642374D01*
X148199105Y-64472856D01*
X148277126Y-64284498D01*
X148316900Y-64084539D01*
X148316900Y-63897135D01*
X148526367Y-63938800D01*
X148848433Y-63938800D01*
X149164312Y-63875968D01*
X149461863Y-63752718D01*
X149729652Y-63573787D01*
X149957387Y-63346052D01*
X150136318Y-63078263D01*
X150259568Y-62780712D01*
X150322400Y-62464833D01*
X150322400Y-62366395D01*
X151545682Y-62366395D01*
X151589439Y-62685475D01*
X151694605Y-62989888D01*
X151787586Y-63163844D01*
X152051987Y-63259608D01*
X153007795Y-62303800D01*
X152051987Y-61347992D01*
X151787586Y-61443756D01*
X151646696Y-61733371D01*
X151565016Y-62044908D01*
X151545682Y-62366395D01*
X150322400Y-62366395D01*
X150322400Y-62142767D01*
X150259568Y-61826888D01*
X150136318Y-61529337D01*
X149957387Y-61261548D01*
X149729652Y-61033813D01*
X149461863Y-60854882D01*
X149164312Y-60731632D01*
X148848433Y-60668800D01*
X148526367Y-60668800D01*
X148210488Y-60731632D01*
X147912937Y-60854882D01*
X147645148Y-61033813D01*
X147417413Y-61261548D01*
X147238482Y-61529337D01*
X147115232Y-61826888D01*
X147052400Y-62142767D01*
X147052400Y-62464833D01*
X147115232Y-62780712D01*
X147184359Y-62947600D01*
X147179961Y-62947600D01*
X146980002Y-62987374D01*
X146791644Y-63065395D01*
X146622126Y-63178663D01*
X146477963Y-63322826D01*
X146364695Y-63492344D01*
X146286674Y-63680702D01*
X146246900Y-63880661D01*
X146246900Y-64084539D01*
X146286674Y-64284498D01*
X146364695Y-64472856D01*
X146477963Y-64642374D01*
X146585156Y-64749567D01*
X146457490Y-64696686D01*
X146187592Y-64643000D01*
X145912408Y-64643000D01*
X145642510Y-64696686D01*
X145388273Y-64801995D01*
X145159465Y-64954880D01*
X144964880Y-65149465D01*
X144811995Y-65378273D01*
X144780000Y-65455515D01*
X144748005Y-65378273D01*
X144595120Y-65149465D01*
X144400535Y-64954880D01*
X144171727Y-64801995D01*
X143917490Y-64696686D01*
X143647592Y-64643000D01*
X143372408Y-64643000D01*
X143102510Y-64696686D01*
X142848273Y-64801995D01*
X142619465Y-64954880D01*
X142424880Y-65149465D01*
X142271995Y-65378273D01*
X142240000Y-65455515D01*
X142208005Y-65378273D01*
X142055120Y-65149465D01*
X141860535Y-64954880D01*
X141631727Y-64801995D01*
X141377490Y-64696686D01*
X141107592Y-64643000D01*
X140832408Y-64643000D01*
X140562510Y-64696686D01*
X140308273Y-64801995D01*
X140079465Y-64954880D01*
X139884880Y-65149465D01*
X139731995Y-65378273D01*
X139702308Y-65449943D01*
X139697636Y-65436977D01*
X139635656Y-65321020D01*
X139395565Y-65254040D01*
X138609605Y-66040000D01*
X138250395Y-66040000D01*
X137464435Y-65254040D01*
X137224344Y-65321020D01*
X137107244Y-65570048D01*
X137040977Y-65837135D01*
X137028090Y-66112017D01*
X129464422Y-66112017D01*
X129455726Y-66068302D01*
X129377705Y-65879944D01*
X129264437Y-65710426D01*
X129120274Y-65566263D01*
X128950756Y-65452995D01*
X128762398Y-65374974D01*
X128562439Y-65335200D01*
X128358561Y-65335200D01*
X128158602Y-65374974D01*
X127970244Y-65452995D01*
X127800726Y-65566263D01*
X127656563Y-65710426D01*
X127543295Y-65879944D01*
X127465274Y-66068302D01*
X127425500Y-66268261D01*
X126485873Y-66268261D01*
X126511000Y-66141939D01*
X126511000Y-65938061D01*
X126471226Y-65738102D01*
X126393205Y-65549744D01*
X126279937Y-65380226D01*
X126135774Y-65236063D01*
X125966256Y-65122795D01*
X125777898Y-65044774D01*
X125577939Y-65005000D01*
X125374061Y-65005000D01*
X125174102Y-65044774D01*
X124985744Y-65122795D01*
X124816226Y-65236063D01*
X124672063Y-65380226D01*
X124558795Y-65549744D01*
X124480774Y-65738102D01*
X124441000Y-65938061D01*
X120034000Y-65938061D01*
X119994226Y-65738102D01*
X119916205Y-65549744D01*
X119802937Y-65380226D01*
X119658774Y-65236063D01*
X119489256Y-65122795D01*
X119300898Y-65044774D01*
X119100939Y-65005000D01*
X118897061Y-65005000D01*
X118697102Y-65044774D01*
X118508744Y-65122795D01*
X118339226Y-65236063D01*
X118195063Y-65380226D01*
X118081795Y-65549744D01*
X118003774Y-65738102D01*
X117964000Y-65938061D01*
X104800000Y-65938061D01*
X104800000Y-64541061D01*
X120885000Y-64541061D01*
X120885000Y-64744939D01*
X120924774Y-64944898D01*
X121002795Y-65133256D01*
X121116063Y-65302774D01*
X121260226Y-65446937D01*
X121429744Y-65560205D01*
X121618102Y-65638226D01*
X121818061Y-65678000D01*
X122021939Y-65678000D01*
X122221898Y-65638226D01*
X122410256Y-65560205D01*
X122579774Y-65446937D01*
X122723937Y-65302774D01*
X122837205Y-65133256D01*
X122915226Y-64944898D01*
X122955000Y-64744939D01*
X122955000Y-64541061D01*
X122922160Y-64375961D01*
X130867200Y-64375961D01*
X130867200Y-64579839D01*
X130906974Y-64779798D01*
X130984995Y-64968156D01*
X131098263Y-65137674D01*
X131242426Y-65281837D01*
X131411944Y-65395105D01*
X131600302Y-65473126D01*
X131800261Y-65512900D01*
X132004139Y-65512900D01*
X132204098Y-65473126D01*
X132392456Y-65395105D01*
X132561974Y-65281837D01*
X132706137Y-65137674D01*
X132748391Y-65074435D01*
X137644040Y-65074435D01*
X138430000Y-65860395D01*
X139215960Y-65074435D01*
X139148980Y-64834344D01*
X138899952Y-64717244D01*
X138632865Y-64650977D01*
X138357983Y-64638090D01*
X138085867Y-64679078D01*
X137826977Y-64772364D01*
X137711020Y-64834344D01*
X137644040Y-65074435D01*
X132748391Y-65074435D01*
X132819405Y-64968156D01*
X132897426Y-64779798D01*
X132937200Y-64579839D01*
X132937200Y-64375961D01*
X132897426Y-64176002D01*
X132819405Y-63987644D01*
X132805580Y-63966954D01*
X132946502Y-64025326D01*
X133146461Y-64065100D01*
X133350339Y-64065100D01*
X133550298Y-64025326D01*
X133738656Y-63947305D01*
X133908174Y-63834037D01*
X134052337Y-63689874D01*
X134165605Y-63520356D01*
X134243626Y-63331998D01*
X134283400Y-63132039D01*
X134283400Y-62928161D01*
X134243626Y-62728202D01*
X134165605Y-62539844D01*
X134052337Y-62370326D01*
X133908174Y-62226163D01*
X133738656Y-62112895D01*
X133550298Y-62034874D01*
X133350339Y-61995100D01*
X133146461Y-61995100D01*
X132946502Y-62034874D01*
X132758144Y-62112895D01*
X132588626Y-62226163D01*
X132444463Y-62370326D01*
X132331195Y-62539844D01*
X132253174Y-62728202D01*
X132213400Y-62928161D01*
X132213400Y-63132039D01*
X132253174Y-63331998D01*
X132331195Y-63520356D01*
X132345020Y-63541046D01*
X132204098Y-63482674D01*
X132004139Y-63442900D01*
X131800261Y-63442900D01*
X131600302Y-63482674D01*
X131411944Y-63560695D01*
X131242426Y-63673963D01*
X131098263Y-63818126D01*
X130984995Y-63987644D01*
X130906974Y-64176002D01*
X130867200Y-64375961D01*
X122922160Y-64375961D01*
X122915226Y-64341102D01*
X122837205Y-64152744D01*
X122723937Y-63983226D01*
X122579774Y-63839063D01*
X122410256Y-63725795D01*
X122221898Y-63647774D01*
X122021939Y-63608000D01*
X121818061Y-63608000D01*
X121618102Y-63647774D01*
X121429744Y-63725795D01*
X121260226Y-63839063D01*
X121116063Y-63983226D01*
X121002795Y-64152744D01*
X120924774Y-64341102D01*
X120885000Y-64541061D01*
X104800000Y-64541061D01*
X104800000Y-63157000D01*
X105343662Y-63157000D01*
X105368955Y-63413805D01*
X105443862Y-63660741D01*
X105565505Y-63888318D01*
X105729208Y-64087792D01*
X105928682Y-64251495D01*
X106156259Y-64373138D01*
X106403195Y-64448045D01*
X106595649Y-64467000D01*
X107074351Y-64467000D01*
X107266805Y-64448045D01*
X107513741Y-64373138D01*
X107741318Y-64251495D01*
X107940792Y-64087792D01*
X108104495Y-63888318D01*
X108226138Y-63660741D01*
X108301045Y-63413805D01*
X108326338Y-63157000D01*
X108301045Y-62900195D01*
X108284909Y-62847000D01*
X108444267Y-62847000D01*
X108467147Y-63079300D01*
X108534906Y-63302674D01*
X108644942Y-63508536D01*
X108793025Y-63688975D01*
X108973464Y-63837058D01*
X109179326Y-63947094D01*
X109402700Y-64014853D01*
X109576793Y-64032000D01*
X110093207Y-64032000D01*
X110267300Y-64014853D01*
X110490674Y-63947094D01*
X110696536Y-63837058D01*
X110876975Y-63688975D01*
X111025058Y-63508536D01*
X111135094Y-63302674D01*
X111175503Y-63169461D01*
X116998800Y-63169461D01*
X116998800Y-63373339D01*
X117038574Y-63573298D01*
X117116595Y-63761656D01*
X117229863Y-63931174D01*
X117374026Y-64075337D01*
X117543544Y-64188605D01*
X117731902Y-64266626D01*
X117931861Y-64306400D01*
X118135739Y-64306400D01*
X118335698Y-64266626D01*
X118524056Y-64188605D01*
X118693574Y-64075337D01*
X118837737Y-63931174D01*
X118951005Y-63761656D01*
X119029026Y-63573298D01*
X119068800Y-63373339D01*
X119068800Y-63169461D01*
X119029026Y-62969502D01*
X118951005Y-62781144D01*
X118837737Y-62611626D01*
X118693574Y-62467463D01*
X118524056Y-62354195D01*
X118335698Y-62276174D01*
X118135739Y-62236400D01*
X117931861Y-62236400D01*
X117731902Y-62276174D01*
X117543544Y-62354195D01*
X117374026Y-62467463D01*
X117229863Y-62611626D01*
X117116595Y-62781144D01*
X117038574Y-62969502D01*
X116998800Y-63169461D01*
X111175503Y-63169461D01*
X111202853Y-63079300D01*
X111225733Y-62847000D01*
X111202853Y-62614700D01*
X111135094Y-62391326D01*
X111025058Y-62185464D01*
X110876975Y-62005025D01*
X110696536Y-61856942D01*
X110490674Y-61746906D01*
X110267300Y-61679147D01*
X110093207Y-61662000D01*
X109576793Y-61662000D01*
X109402700Y-61679147D01*
X109179326Y-61746906D01*
X108973464Y-61856942D01*
X108793025Y-62005025D01*
X108644942Y-62185464D01*
X108534906Y-62391326D01*
X108467147Y-62614700D01*
X108444267Y-62847000D01*
X108284909Y-62847000D01*
X108226138Y-62653259D01*
X108104495Y-62425682D01*
X107940792Y-62226208D01*
X107741318Y-62062505D01*
X107513741Y-61940862D01*
X107266805Y-61865955D01*
X107074351Y-61847000D01*
X106595649Y-61847000D01*
X106403195Y-61865955D01*
X106156259Y-61940862D01*
X105928682Y-62062505D01*
X105729208Y-62226208D01*
X105565505Y-62425682D01*
X105443862Y-62653259D01*
X105368955Y-62900195D01*
X105343662Y-63157000D01*
X104800000Y-63157000D01*
X104800000Y-61099361D01*
X116998800Y-61099361D01*
X116998800Y-61303239D01*
X117038574Y-61503198D01*
X117116595Y-61691556D01*
X117229863Y-61861074D01*
X117374026Y-62005237D01*
X117543544Y-62118505D01*
X117731902Y-62196526D01*
X117931861Y-62236300D01*
X118135739Y-62236300D01*
X118335698Y-62196526D01*
X118524056Y-62118505D01*
X118693574Y-62005237D01*
X118837737Y-61861074D01*
X118951005Y-61691556D01*
X119029026Y-61503198D01*
X119068800Y-61303239D01*
X119068800Y-61099361D01*
X119029026Y-60899402D01*
X118951005Y-60711044D01*
X118837737Y-60541526D01*
X118693574Y-60397363D01*
X118524056Y-60284095D01*
X118335698Y-60206074D01*
X118135739Y-60166300D01*
X117931861Y-60166300D01*
X117731902Y-60206074D01*
X117543544Y-60284095D01*
X117374026Y-60397363D01*
X117229863Y-60541526D01*
X117116595Y-60711044D01*
X117038574Y-60899402D01*
X116998800Y-61099361D01*
X104800000Y-61099361D01*
X104800000Y-57697000D01*
X105343662Y-57697000D01*
X105368955Y-57953805D01*
X105443862Y-58200741D01*
X105565505Y-58428318D01*
X105729208Y-58627792D01*
X105928682Y-58791495D01*
X106156259Y-58913138D01*
X106403195Y-58988045D01*
X106595649Y-59007000D01*
X107074351Y-59007000D01*
X107266805Y-58988045D01*
X107513741Y-58913138D01*
X107741318Y-58791495D01*
X107940792Y-58627792D01*
X108104495Y-58428318D01*
X108226138Y-58200741D01*
X108284908Y-58007000D01*
X108444267Y-58007000D01*
X108467147Y-58239300D01*
X108534906Y-58462674D01*
X108644942Y-58668536D01*
X108793025Y-58848975D01*
X108973464Y-58997058D01*
X109179326Y-59107094D01*
X109402700Y-59174853D01*
X109576793Y-59192000D01*
X110093207Y-59192000D01*
X110267300Y-59174853D01*
X110490674Y-59107094D01*
X110696536Y-58997058D01*
X110876975Y-58848975D01*
X111025058Y-58668536D01*
X111135094Y-58462674D01*
X111202853Y-58239300D01*
X111225733Y-58007000D01*
X111202853Y-57774700D01*
X111171203Y-57670361D01*
X116998800Y-57670361D01*
X116998800Y-57874239D01*
X117038574Y-58074198D01*
X117116595Y-58262556D01*
X117229863Y-58432074D01*
X117374026Y-58576237D01*
X117543544Y-58689505D01*
X117731902Y-58767526D01*
X117931861Y-58807300D01*
X118135739Y-58807300D01*
X118335698Y-58767526D01*
X118524056Y-58689505D01*
X118585782Y-58648261D01*
X126739700Y-58648261D01*
X126739700Y-58852139D01*
X126779474Y-59052098D01*
X126857495Y-59240456D01*
X126970763Y-59409974D01*
X127114926Y-59554137D01*
X127284444Y-59667405D01*
X127472802Y-59745426D01*
X127672761Y-59785200D01*
X127876639Y-59785200D01*
X128076598Y-59745426D01*
X128149905Y-59715061D01*
X132200700Y-59715061D01*
X132200700Y-59918939D01*
X132240474Y-60118898D01*
X132318495Y-60307256D01*
X132431763Y-60476774D01*
X132575926Y-60620937D01*
X132745444Y-60734205D01*
X132933802Y-60812226D01*
X133133761Y-60852000D01*
X133337639Y-60852000D01*
X133537598Y-60812226D01*
X133725956Y-60734205D01*
X133895474Y-60620937D01*
X134039637Y-60476774D01*
X134152905Y-60307256D01*
X134230926Y-60118898D01*
X134270700Y-59918939D01*
X134270700Y-59715061D01*
X134230926Y-59515102D01*
X134152905Y-59326744D01*
X134039637Y-59157226D01*
X133895474Y-59013063D01*
X133725956Y-58899795D01*
X133537598Y-58821774D01*
X133337639Y-58782000D01*
X133133761Y-58782000D01*
X132933802Y-58821774D01*
X132745444Y-58899795D01*
X132575926Y-59013063D01*
X132431763Y-59157226D01*
X132318495Y-59326744D01*
X132240474Y-59515102D01*
X132200700Y-59715061D01*
X128149905Y-59715061D01*
X128264956Y-59667405D01*
X128434474Y-59554137D01*
X128578637Y-59409974D01*
X128691905Y-59240456D01*
X128769926Y-59052098D01*
X128809700Y-58852139D01*
X128809700Y-58648261D01*
X128769926Y-58448302D01*
X128691905Y-58259944D01*
X128578637Y-58090426D01*
X128434474Y-57946263D01*
X128264956Y-57832995D01*
X128076598Y-57754974D01*
X127970455Y-57733861D01*
X136583349Y-57733861D01*
X136583349Y-57937739D01*
X136623123Y-58137698D01*
X136701144Y-58326056D01*
X136814412Y-58495574D01*
X136958575Y-58639737D01*
X137128093Y-58753005D01*
X137316451Y-58831026D01*
X137516410Y-58870800D01*
X137720288Y-58870800D01*
X137920247Y-58831026D01*
X138108605Y-58753005D01*
X138278123Y-58639737D01*
X138422286Y-58495574D01*
X138535554Y-58326056D01*
X138613575Y-58137698D01*
X138653349Y-57937739D01*
X138653349Y-57733861D01*
X138613575Y-57533902D01*
X138535554Y-57345544D01*
X138422286Y-57176026D01*
X138278123Y-57031863D01*
X138108605Y-56918595D01*
X137920247Y-56840574D01*
X137720288Y-56800800D01*
X137516410Y-56800800D01*
X137316451Y-56840574D01*
X137128093Y-56918595D01*
X136958575Y-57031863D01*
X136814412Y-57176026D01*
X136701144Y-57345544D01*
X136623123Y-57533902D01*
X136583349Y-57733861D01*
X127970455Y-57733861D01*
X127876639Y-57715200D01*
X127672761Y-57715200D01*
X127472802Y-57754974D01*
X127284444Y-57832995D01*
X127114926Y-57946263D01*
X126970763Y-58090426D01*
X126857495Y-58259944D01*
X126779474Y-58448302D01*
X126739700Y-58648261D01*
X118585782Y-58648261D01*
X118693574Y-58576237D01*
X118837737Y-58432074D01*
X118951005Y-58262556D01*
X119029026Y-58074198D01*
X119068800Y-57874239D01*
X119068800Y-57670361D01*
X119029026Y-57470402D01*
X118951005Y-57282044D01*
X118837737Y-57112526D01*
X118693574Y-56968363D01*
X118524056Y-56855095D01*
X118335698Y-56777074D01*
X118135739Y-56737300D01*
X117931861Y-56737300D01*
X117731902Y-56777074D01*
X117543544Y-56855095D01*
X117374026Y-56968363D01*
X117229863Y-57112526D01*
X117116595Y-57282044D01*
X117038574Y-57470402D01*
X116998800Y-57670361D01*
X111171203Y-57670361D01*
X111135094Y-57551326D01*
X111025058Y-57345464D01*
X110876975Y-57165025D01*
X110696536Y-57016942D01*
X110490674Y-56906906D01*
X110267300Y-56839147D01*
X110093207Y-56822000D01*
X109576793Y-56822000D01*
X109402700Y-56839147D01*
X109179326Y-56906906D01*
X108973464Y-57016942D01*
X108793025Y-57165025D01*
X108644942Y-57345464D01*
X108534906Y-57551326D01*
X108467147Y-57774700D01*
X108444267Y-58007000D01*
X108284908Y-58007000D01*
X108301045Y-57953805D01*
X108326338Y-57697000D01*
X108301045Y-57440195D01*
X108226138Y-57193259D01*
X108104495Y-56965682D01*
X107940792Y-56766208D01*
X107741318Y-56602505D01*
X107513741Y-56480862D01*
X107266805Y-56405955D01*
X107074351Y-56387000D01*
X106595649Y-56387000D01*
X106403195Y-56405955D01*
X106156259Y-56480862D01*
X105928682Y-56602505D01*
X105729208Y-56766208D01*
X105565505Y-56965682D01*
X105443862Y-57193259D01*
X105368955Y-57440195D01*
X105343662Y-57697000D01*
X104800000Y-57697000D01*
X104800000Y-55642767D01*
X147052400Y-55642767D01*
X147052400Y-55964833D01*
X147115232Y-56280712D01*
X147238482Y-56578263D01*
X147417413Y-56846052D01*
X147645148Y-57073787D01*
X147912937Y-57252718D01*
X148210488Y-57375968D01*
X148526367Y-57438800D01*
X148848433Y-57438800D01*
X149164312Y-57375968D01*
X149461863Y-57252718D01*
X149729652Y-57073787D01*
X149957387Y-56846052D01*
X150136318Y-56578263D01*
X150259568Y-56280712D01*
X150322400Y-55964833D01*
X150322400Y-55866395D01*
X151545682Y-55866395D01*
X151589439Y-56185475D01*
X151694605Y-56489888D01*
X151787586Y-56663844D01*
X152051987Y-56759608D01*
X153007795Y-55803800D01*
X152051987Y-54847992D01*
X151787586Y-54943756D01*
X151646696Y-55233371D01*
X151565016Y-55544908D01*
X151545682Y-55866395D01*
X150322400Y-55866395D01*
X150322400Y-55642767D01*
X150259568Y-55326888D01*
X150136318Y-55029337D01*
X149957387Y-54761548D01*
X149729652Y-54533813D01*
X149461863Y-54354882D01*
X149164312Y-54231632D01*
X148848433Y-54168800D01*
X148526367Y-54168800D01*
X148210488Y-54231632D01*
X147912937Y-54354882D01*
X147645148Y-54533813D01*
X147417413Y-54761548D01*
X147238482Y-55029337D01*
X147115232Y-55326888D01*
X147052400Y-55642767D01*
X104800000Y-55642767D01*
X104800000Y-50583761D01*
X128695500Y-50583761D01*
X128695500Y-50787639D01*
X128735274Y-50987598D01*
X128813295Y-51175956D01*
X128926563Y-51345474D01*
X129070726Y-51489637D01*
X129240244Y-51602905D01*
X129428602Y-51680926D01*
X129628561Y-51720700D01*
X129832439Y-51720700D01*
X130032398Y-51680926D01*
X130220756Y-51602905D01*
X130244468Y-51587061D01*
X136887000Y-51587061D01*
X136887000Y-51790939D01*
X136926774Y-51990898D01*
X137004795Y-52179256D01*
X137118063Y-52348774D01*
X137262226Y-52492937D01*
X137431744Y-52606205D01*
X137620102Y-52684226D01*
X137820061Y-52724000D01*
X138023939Y-52724000D01*
X138223898Y-52684226D01*
X138412256Y-52606205D01*
X138581774Y-52492937D01*
X138725937Y-52348774D01*
X138839205Y-52179256D01*
X138917226Y-51990898D01*
X138957000Y-51790939D01*
X138957000Y-51587061D01*
X138917226Y-51387102D01*
X138839205Y-51198744D01*
X138725937Y-51029226D01*
X138581774Y-50885063D01*
X138412256Y-50771795D01*
X138223898Y-50693774D01*
X138023939Y-50654000D01*
X137820061Y-50654000D01*
X137620102Y-50693774D01*
X137431744Y-50771795D01*
X137262226Y-50885063D01*
X137118063Y-51029226D01*
X137004795Y-51198744D01*
X136926774Y-51387102D01*
X136887000Y-51587061D01*
X130244468Y-51587061D01*
X130390274Y-51489637D01*
X130534437Y-51345474D01*
X130647705Y-51175956D01*
X130725726Y-50987598D01*
X130765500Y-50787639D01*
X130765500Y-50583761D01*
X130730533Y-50407967D01*
X147027000Y-50407967D01*
X147027000Y-50730033D01*
X147089832Y-51045912D01*
X147213082Y-51343463D01*
X147392013Y-51611252D01*
X147619748Y-51838987D01*
X147887537Y-52017918D01*
X148185088Y-52141168D01*
X148500967Y-52204000D01*
X148823033Y-52204000D01*
X149138912Y-52141168D01*
X149436463Y-52017918D01*
X149704252Y-51838987D01*
X149931987Y-51611252D01*
X150110918Y-51343463D01*
X150234168Y-51045912D01*
X150297000Y-50730033D01*
X150297000Y-50631595D01*
X151520282Y-50631595D01*
X151564039Y-50950675D01*
X151669205Y-51255088D01*
X151762186Y-51429044D01*
X152026587Y-51524808D01*
X152982395Y-50569000D01*
X152026587Y-49613192D01*
X151762186Y-49708956D01*
X151621296Y-49998571D01*
X151539616Y-50310108D01*
X151520282Y-50631595D01*
X150297000Y-50631595D01*
X150297000Y-50407967D01*
X150234168Y-50092088D01*
X150110918Y-49794537D01*
X149931987Y-49526748D01*
X149704252Y-49299013D01*
X149436463Y-49120082D01*
X149138912Y-48996832D01*
X148823033Y-48934000D01*
X148500967Y-48934000D01*
X148185088Y-48996832D01*
X147887537Y-49120082D01*
X147619748Y-49299013D01*
X147392013Y-49526748D01*
X147213082Y-49794537D01*
X147089832Y-50092088D01*
X147027000Y-50407967D01*
X130730533Y-50407967D01*
X130725726Y-50383802D01*
X130647705Y-50195444D01*
X130534437Y-50025926D01*
X130390274Y-49881763D01*
X130220756Y-49768495D01*
X130032398Y-49690474D01*
X129832439Y-49650700D01*
X129628561Y-49650700D01*
X129428602Y-49690474D01*
X129240244Y-49768495D01*
X129070726Y-49881763D01*
X128926563Y-50025926D01*
X128813295Y-50195444D01*
X128735274Y-50383802D01*
X128695500Y-50583761D01*
X104800000Y-50583761D01*
X104800000Y-46037161D01*
X116033600Y-46037161D01*
X116033600Y-46241039D01*
X116073374Y-46440998D01*
X116151395Y-46629356D01*
X116264663Y-46798874D01*
X116408826Y-46943037D01*
X116578344Y-47056305D01*
X116766702Y-47134326D01*
X116966661Y-47174100D01*
X117170539Y-47174100D01*
X117370498Y-47134326D01*
X117558856Y-47056305D01*
X117728374Y-46943037D01*
X117872537Y-46798874D01*
X117963950Y-46662064D01*
X118055363Y-46798874D01*
X118199526Y-46943037D01*
X118369044Y-47056305D01*
X118557402Y-47134326D01*
X118757361Y-47174100D01*
X118961239Y-47174100D01*
X119161198Y-47134326D01*
X119349556Y-47056305D01*
X119519074Y-46943037D01*
X119663237Y-46798874D01*
X119776505Y-46629356D01*
X119854526Y-46440998D01*
X119894300Y-46241039D01*
X119894300Y-46037161D01*
X119854526Y-45837202D01*
X119776505Y-45648844D01*
X119663237Y-45479326D01*
X119519074Y-45335163D01*
X119349556Y-45221895D01*
X119161198Y-45143874D01*
X118961239Y-45104100D01*
X118757361Y-45104100D01*
X118557402Y-45143874D01*
X118369044Y-45221895D01*
X118199526Y-45335163D01*
X118055363Y-45479326D01*
X117963950Y-45616136D01*
X117872537Y-45479326D01*
X117728374Y-45335163D01*
X117558856Y-45221895D01*
X117370498Y-45143874D01*
X117170539Y-45104100D01*
X116966661Y-45104100D01*
X116766702Y-45143874D01*
X116578344Y-45221895D01*
X116408826Y-45335163D01*
X116264663Y-45479326D01*
X116151395Y-45648844D01*
X116073374Y-45837202D01*
X116033600Y-46037161D01*
X104800000Y-46037161D01*
X104800000Y-43078061D01*
X122663000Y-43078061D01*
X122663000Y-43281939D01*
X122702774Y-43481898D01*
X122780795Y-43670256D01*
X122894063Y-43839774D01*
X123038226Y-43983937D01*
X123207744Y-44097205D01*
X123396102Y-44175226D01*
X123596061Y-44215000D01*
X123799939Y-44215000D01*
X123999898Y-44175226D01*
X124188256Y-44097205D01*
X124357774Y-43983937D01*
X124433744Y-43907967D01*
X147027000Y-43907967D01*
X147027000Y-44230033D01*
X147089832Y-44545912D01*
X147213082Y-44843463D01*
X147392013Y-45111252D01*
X147619748Y-45338987D01*
X147887537Y-45517918D01*
X148185088Y-45641168D01*
X148500967Y-45704000D01*
X148823033Y-45704000D01*
X149138912Y-45641168D01*
X149436463Y-45517918D01*
X149704252Y-45338987D01*
X149931987Y-45111252D01*
X150110918Y-44843463D01*
X150234168Y-44545912D01*
X150297000Y-44230033D01*
X150297000Y-44131595D01*
X151520282Y-44131595D01*
X151564039Y-44450675D01*
X151669205Y-44755088D01*
X151762186Y-44929044D01*
X152026587Y-45024808D01*
X152982395Y-44069000D01*
X152026587Y-43113192D01*
X151762186Y-43208956D01*
X151621296Y-43498571D01*
X151539616Y-43810108D01*
X151520282Y-44131595D01*
X150297000Y-44131595D01*
X150297000Y-43907967D01*
X150234168Y-43592088D01*
X150110918Y-43294537D01*
X149931987Y-43026748D01*
X149704252Y-42799013D01*
X149436463Y-42620082D01*
X149138912Y-42496832D01*
X148823033Y-42434000D01*
X148500967Y-42434000D01*
X148185088Y-42496832D01*
X147887537Y-42620082D01*
X147619748Y-42799013D01*
X147392013Y-43026748D01*
X147213082Y-43294537D01*
X147089832Y-43592088D01*
X147027000Y-43907967D01*
X124433744Y-43907967D01*
X124501937Y-43839774D01*
X124615205Y-43670256D01*
X124693226Y-43481898D01*
X124733000Y-43281939D01*
X124733000Y-43078061D01*
X124693226Y-42878102D01*
X124615205Y-42689744D01*
X124501937Y-42520226D01*
X124357774Y-42376063D01*
X124188256Y-42262795D01*
X123999898Y-42184774D01*
X123799939Y-42145000D01*
X123596061Y-42145000D01*
X123396102Y-42184774D01*
X123207744Y-42262795D01*
X123038226Y-42376063D01*
X122894063Y-42520226D01*
X122780795Y-42689744D01*
X122702774Y-42878102D01*
X122663000Y-43078061D01*
X104800000Y-43078061D01*
X104800000Y-40715861D01*
X116033600Y-40715861D01*
X116033600Y-40919739D01*
X116073374Y-41119698D01*
X116151395Y-41308056D01*
X116264663Y-41477574D01*
X116408826Y-41621737D01*
X116578344Y-41735005D01*
X116766702Y-41813026D01*
X116966661Y-41852800D01*
X117170539Y-41852800D01*
X117370498Y-41813026D01*
X117558856Y-41735005D01*
X117728374Y-41621737D01*
X117872537Y-41477574D01*
X117985805Y-41308056D01*
X118063826Y-41119698D01*
X118103600Y-40919739D01*
X118103600Y-40715861D01*
X118063826Y-40515902D01*
X117985805Y-40327544D01*
X117872537Y-40158026D01*
X117728374Y-40013863D01*
X117558856Y-39900595D01*
X117370498Y-39822574D01*
X117170539Y-39782800D01*
X116966661Y-39782800D01*
X116766702Y-39822574D01*
X116578344Y-39900595D01*
X116408826Y-40013863D01*
X116264663Y-40158026D01*
X116151395Y-40327544D01*
X116073374Y-40515902D01*
X116033600Y-40715861D01*
X104800000Y-40715861D01*
X104800000Y-39649061D01*
X120123000Y-39649061D01*
X120123000Y-39852939D01*
X120162774Y-40052898D01*
X120240795Y-40241256D01*
X120354063Y-40410774D01*
X120498226Y-40554937D01*
X120667744Y-40668205D01*
X120856102Y-40746226D01*
X121056061Y-40786000D01*
X121259939Y-40786000D01*
X121459898Y-40746226D01*
X121648256Y-40668205D01*
X121817774Y-40554937D01*
X121961937Y-40410774D01*
X122075205Y-40241256D01*
X122153226Y-40052898D01*
X122157768Y-40030061D01*
X146170700Y-40030061D01*
X146170700Y-40233939D01*
X146210474Y-40433898D01*
X146288495Y-40622256D01*
X146401763Y-40791774D01*
X146545926Y-40935937D01*
X146715444Y-41049205D01*
X146903802Y-41127226D01*
X147103761Y-41167000D01*
X147307639Y-41167000D01*
X147507598Y-41127226D01*
X147695956Y-41049205D01*
X147865474Y-40935937D01*
X148009637Y-40791774D01*
X148122905Y-40622256D01*
X148200926Y-40433898D01*
X148215311Y-40361580D01*
X148500967Y-40418400D01*
X148823033Y-40418400D01*
X149138912Y-40355568D01*
X149436463Y-40232318D01*
X149704252Y-40053387D01*
X149931987Y-39825652D01*
X150110918Y-39557863D01*
X150234168Y-39260312D01*
X150297000Y-38944433D01*
X150297000Y-38845995D01*
X151520282Y-38845995D01*
X151564039Y-39165075D01*
X151669205Y-39469488D01*
X151762186Y-39643444D01*
X152026587Y-39739208D01*
X152982395Y-38783400D01*
X152026587Y-37827592D01*
X151762186Y-37923356D01*
X151621296Y-38212971D01*
X151539616Y-38524508D01*
X151520282Y-38845995D01*
X150297000Y-38845995D01*
X150297000Y-38622367D01*
X150234168Y-38306488D01*
X150110918Y-38008937D01*
X149931987Y-37741148D01*
X149704252Y-37513413D01*
X149436463Y-37334482D01*
X149138912Y-37211232D01*
X148823033Y-37148400D01*
X148500967Y-37148400D01*
X148185088Y-37211232D01*
X147887537Y-37334482D01*
X147619748Y-37513413D01*
X147392013Y-37741148D01*
X147213082Y-38008937D01*
X147089832Y-38306488D01*
X147027000Y-38622367D01*
X147027000Y-38944433D01*
X147059114Y-39105881D01*
X146903802Y-39136774D01*
X146715444Y-39214795D01*
X146545926Y-39328063D01*
X146401763Y-39472226D01*
X146288495Y-39641744D01*
X146210474Y-39830102D01*
X146170700Y-40030061D01*
X122157768Y-40030061D01*
X122193000Y-39852939D01*
X122193000Y-39649061D01*
X122153226Y-39449102D01*
X122075205Y-39260744D01*
X121961937Y-39091226D01*
X121817774Y-38947063D01*
X121648256Y-38833795D01*
X121459898Y-38755774D01*
X121259939Y-38716000D01*
X121056061Y-38716000D01*
X120856102Y-38755774D01*
X120667744Y-38833795D01*
X120498226Y-38947063D01*
X120354063Y-39091226D01*
X120240795Y-39260744D01*
X120162774Y-39449102D01*
X120123000Y-39649061D01*
X104800000Y-39649061D01*
X104800000Y-32122367D01*
X147027000Y-32122367D01*
X147027000Y-32444433D01*
X147089832Y-32760312D01*
X147213082Y-33057863D01*
X147392013Y-33325652D01*
X147619748Y-33553387D01*
X147887537Y-33732318D01*
X148185088Y-33855568D01*
X148500967Y-33918400D01*
X148823033Y-33918400D01*
X149138912Y-33855568D01*
X149436463Y-33732318D01*
X149704252Y-33553387D01*
X149931987Y-33325652D01*
X150110918Y-33057863D01*
X150234168Y-32760312D01*
X150297000Y-32444433D01*
X150297000Y-32345995D01*
X151520282Y-32345995D01*
X151564039Y-32665075D01*
X151669205Y-32969488D01*
X151762186Y-33143444D01*
X152026587Y-33239208D01*
X152982395Y-32283400D01*
X152026587Y-31327592D01*
X151762186Y-31423356D01*
X151621296Y-31712971D01*
X151539616Y-32024508D01*
X151520282Y-32345995D01*
X150297000Y-32345995D01*
X150297000Y-32122367D01*
X150234168Y-31806488D01*
X150110918Y-31508937D01*
X149931987Y-31241148D01*
X149704252Y-31013413D01*
X149436463Y-30834482D01*
X149138912Y-30711232D01*
X148823033Y-30648400D01*
X148500967Y-30648400D01*
X148185088Y-30711232D01*
X147887537Y-30834482D01*
X147619748Y-31013413D01*
X147392013Y-31241148D01*
X147213082Y-31508937D01*
X147089832Y-31806488D01*
X147027000Y-32122367D01*
X104800000Y-32122367D01*
X104800000Y-28981061D01*
X109709000Y-28981061D01*
X109709000Y-29184939D01*
X109748774Y-29384898D01*
X109826795Y-29573256D01*
X109940063Y-29742774D01*
X110084226Y-29886937D01*
X110253744Y-30000205D01*
X110442102Y-30078226D01*
X110642061Y-30118000D01*
X110845939Y-30118000D01*
X111045898Y-30078226D01*
X111234256Y-30000205D01*
X111403774Y-29886937D01*
X111547937Y-29742774D01*
X111661205Y-29573256D01*
X111739226Y-29384898D01*
X111779000Y-29184939D01*
X111779000Y-28981061D01*
X111739226Y-28781102D01*
X111661205Y-28592744D01*
X111547937Y-28423226D01*
X111403774Y-28279063D01*
X111234256Y-28165795D01*
X111045898Y-28087774D01*
X110845939Y-28048000D01*
X110642061Y-28048000D01*
X110442102Y-28087774D01*
X110253744Y-28165795D01*
X110084226Y-28279063D01*
X109940063Y-28423226D01*
X109826795Y-28592744D01*
X109748774Y-28781102D01*
X109709000Y-28981061D01*
X104800000Y-28981061D01*
X104800000Y-26318510D01*
X104971161Y-26574670D01*
X105505330Y-27108839D01*
X106133446Y-27528533D01*
X106831372Y-27817623D01*
X107572285Y-27965000D01*
X108327715Y-27965000D01*
X109068628Y-27817623D01*
X109766554Y-27528533D01*
X110394670Y-27108839D01*
X110928839Y-26574670D01*
X111187831Y-26187061D01*
X121139000Y-26187061D01*
X121139000Y-26390939D01*
X121178774Y-26590898D01*
X121256795Y-26779256D01*
X121370063Y-26948774D01*
X121514226Y-27092937D01*
X121683744Y-27206205D01*
X121872102Y-27284226D01*
X122072061Y-27324000D01*
X122275939Y-27324000D01*
X122475898Y-27284226D01*
X122664256Y-27206205D01*
X122833774Y-27092937D01*
X122977937Y-26948774D01*
X123091205Y-26779256D01*
X123169226Y-26590898D01*
X123209000Y-26390939D01*
X123209000Y-26187061D01*
X123169226Y-25987102D01*
X123091205Y-25798744D01*
X122977937Y-25629226D01*
X122833774Y-25485063D01*
X122664256Y-25371795D01*
X122475898Y-25293774D01*
X122275939Y-25254000D01*
X122072061Y-25254000D01*
X121872102Y-25293774D01*
X121683744Y-25371795D01*
X121514226Y-25485063D01*
X121370063Y-25629226D01*
X121256795Y-25798744D01*
X121178774Y-25987102D01*
X121139000Y-26187061D01*
X111187831Y-26187061D01*
X111348533Y-25946554D01*
X111637623Y-25248628D01*
X111785000Y-24507715D01*
X111785000Y-23752285D01*
X111773090Y-23692408D01*
X124333000Y-23692408D01*
X124333000Y-23967592D01*
X124386686Y-24237490D01*
X124491995Y-24491727D01*
X124644880Y-24720535D01*
X124839465Y-24915120D01*
X125068273Y-25068005D01*
X125322510Y-25173314D01*
X125592408Y-25227000D01*
X125867592Y-25227000D01*
X126137490Y-25173314D01*
X126391727Y-25068005D01*
X126620535Y-24915120D01*
X126740090Y-24795565D01*
X127484040Y-24795565D01*
X127551020Y-25035656D01*
X127800048Y-25152756D01*
X128067135Y-25219023D01*
X128342017Y-25231910D01*
X128614133Y-25190922D01*
X128873023Y-25097636D01*
X128988980Y-25035656D01*
X129055960Y-24795565D01*
X128270000Y-24009605D01*
X127484040Y-24795565D01*
X126740090Y-24795565D01*
X126815120Y-24720535D01*
X126968005Y-24491727D01*
X126997692Y-24420057D01*
X127002364Y-24433023D01*
X127064344Y-24548980D01*
X127304435Y-24615960D01*
X128090395Y-23830000D01*
X128449605Y-23830000D01*
X129235565Y-24615960D01*
X129475656Y-24548980D01*
X129539485Y-24413240D01*
X129571995Y-24491727D01*
X129724880Y-24720535D01*
X129919465Y-24915120D01*
X130148273Y-25068005D01*
X130402510Y-25173314D01*
X130672408Y-25227000D01*
X130947592Y-25227000D01*
X131217490Y-25173314D01*
X131471727Y-25068005D01*
X131700535Y-24915120D01*
X131895120Y-24720535D01*
X132048005Y-24491727D01*
X132080000Y-24414485D01*
X132111995Y-24491727D01*
X132264880Y-24720535D01*
X132459465Y-24915120D01*
X132688273Y-25068005D01*
X132942510Y-25173314D01*
X133212408Y-25227000D01*
X133487592Y-25227000D01*
X133757490Y-25173314D01*
X134011727Y-25068005D01*
X134240535Y-24915120D01*
X134435120Y-24720535D01*
X134588005Y-24491727D01*
X134693314Y-24237490D01*
X134747000Y-23967592D01*
X134747000Y-23692408D01*
X134693314Y-23422510D01*
X134588005Y-23168273D01*
X134435120Y-22939465D01*
X134240535Y-22744880D01*
X134011727Y-22591995D01*
X133757490Y-22486686D01*
X133487592Y-22433000D01*
X133212408Y-22433000D01*
X132942510Y-22486686D01*
X132688273Y-22591995D01*
X132459465Y-22744880D01*
X132264880Y-22939465D01*
X132111995Y-23168273D01*
X132080000Y-23245515D01*
X132048005Y-23168273D01*
X131895120Y-22939465D01*
X131700535Y-22744880D01*
X131471727Y-22591995D01*
X131217490Y-22486686D01*
X130947592Y-22433000D01*
X130672408Y-22433000D01*
X130402510Y-22486686D01*
X130148273Y-22591995D01*
X129919465Y-22744880D01*
X129724880Y-22939465D01*
X129571995Y-23168273D01*
X129542308Y-23239943D01*
X129537636Y-23226977D01*
X129475656Y-23111020D01*
X129235565Y-23044040D01*
X128449605Y-23830000D01*
X128090395Y-23830000D01*
X127304435Y-23044040D01*
X127064344Y-23111020D01*
X127000515Y-23246760D01*
X126968005Y-23168273D01*
X126815120Y-22939465D01*
X126740090Y-22864435D01*
X127484040Y-22864435D01*
X128270000Y-23650395D01*
X129055960Y-22864435D01*
X128988980Y-22624344D01*
X128739952Y-22507244D01*
X128472865Y-22440977D01*
X128197983Y-22428090D01*
X127925867Y-22469078D01*
X127666977Y-22562364D01*
X127551020Y-22624344D01*
X127484040Y-22864435D01*
X126740090Y-22864435D01*
X126620535Y-22744880D01*
X126391727Y-22591995D01*
X126137490Y-22486686D01*
X125867592Y-22433000D01*
X125592408Y-22433000D01*
X125322510Y-22486686D01*
X125068273Y-22591995D01*
X124839465Y-22744880D01*
X124644880Y-22939465D01*
X124491995Y-23168273D01*
X124386686Y-23422510D01*
X124333000Y-23692408D01*
X111773090Y-23692408D01*
X111637623Y-23011372D01*
X111348533Y-22313446D01*
X110928839Y-21685330D01*
X110394670Y-21151161D01*
X110138510Y-20980000D01*
X148941490Y-20980000D01*
X148685330Y-21151161D01*
G37*
%TD.AperFunction*%
%TD*%
M02*
