M48
; DRILL file {KiCad 5.1.8-db9833491~87~ubuntu20.04.1} date Thu Nov 19 17:12:51 2020
; FORMAT={-:-/ absolute / metric / decimal}
; #@! TF.CreationDate,2020-11-19T17:12:51+01:00
; #@! TF.GenerationSoftware,Kicad,Pcbnew,5.1.8-db9833491~87~ubuntu20.04.1
; #@! TF.FileFunction,Plated,1,4,PTH
FMAT,2
METRIC
T1C0.400
T2C0.500
T3C0.650
T4C0.700
T5C0.762
T6C1.000
T7C1.100
T8C3.200
%
G90
G05
T1
X106.794Y-50.648
X107.061Y-84.963
X109.626Y-49.136
X110.744Y-29.083
X112.204Y-50.648
X113.792Y-68.072
X115.951Y-74.549
X117.069Y-40.818
X117.069Y-46.139
X118.034Y-57.772
X118.034Y-61.201
X118.034Y-63.271
X118.745Y-26.416
X118.859Y-46.139
X118.999Y-66.04
X121.158Y-39.751
X121.92Y-64.643
X122.174Y-26.289
X123.698Y-43.18
X125.222Y-59.055
X125.222Y-63.119
X125.476Y-53.975
X125.476Y-66.04
X126.34Y-73.266
X126.619Y-66.167
X127.775Y-58.75
X128.46Y-66.37
X129.184Y-74.358
X129.731Y-50.686
X131.902Y-64.478
X133.236Y-59.817
X133.248Y-63.03
X133.477Y-54.229
X133.858Y-65.405
X136.271Y-68.326
X137.618Y-57.836
X137.922Y-51.689
X139.827Y-70.893
X139.954Y-74.803
X144.78Y-73.533
X147.206Y-40.132
X147.282Y-63.983
X152.908Y-29.718
X152.908Y-41.402
X152.908Y-53.213
T2
X148.73Y-24.13
X149.433Y-22.433
X149.433Y-25.827
X151.13Y-21.73
X151.13Y-26.53
X152.827Y-22.433
X152.827Y-25.827
X153.53Y-24.13
X148.73Y-93.98
X149.433Y-92.283
X149.433Y-95.677
X151.13Y-91.58
X151.13Y-96.38
X152.827Y-92.283
X152.827Y-95.677
X153.53Y-93.98
X105.55Y-93.98
X106.253Y-92.283
X106.253Y-95.677
X107.95Y-91.58
X107.95Y-96.38
X109.647Y-92.283
X109.647Y-95.677
X110.35Y-93.98
X105.55Y-24.13
X106.253Y-22.433
X106.253Y-25.827
X107.95Y-21.73
X107.95Y-26.53
X109.647Y-22.433
X109.647Y-25.827
X110.35Y-24.13
T5
X110.871Y-73.025
X110.871Y-75.565
X110.871Y-78.105
X113.411Y-73.025
X113.411Y-75.565
X113.411Y-78.105
X138.43Y-66.04
X140.97Y-66.04
X143.51Y-66.04
X146.05Y-66.04
X118.143Y-85.838
X138.143Y-85.838
X125.73Y-23.83
X128.27Y-23.83
X130.81Y-23.83
X133.35Y-23.83
T6
X139.7Y-91.821
X139.7Y-94.361
X144.399Y-91.821
X144.399Y-94.361
T7
X148.687Y-55.804
X148.687Y-62.304
X153.187Y-55.804
X153.187Y-62.304
X148.662Y-44.069
X148.662Y-50.569
X153.162Y-44.069
X153.162Y-50.569
X148.662Y-32.283
X148.662Y-38.783
X153.162Y-32.283
X153.162Y-38.783
T8
X151.13Y-24.13
X151.13Y-93.98
X107.95Y-93.98
X107.95Y-24.13
T3
G00X109.635Y-58.007
M15
G01X110.035Y-58.007
M16
G05
G00X109.635Y-62.847
M15
G01X110.035Y-62.847
M16
G05
T4
G00X106.585Y-57.697
M15
G01X107.085Y-57.697
M16
G05
G00X106.585Y-63.157
M15
G01X107.085Y-63.157
M16
G05
T0
M30
