%TF.GenerationSoftware,KiCad,Pcbnew,5.1.8-db9833491~87~ubuntu20.04.1*%
%TF.CreationDate,2020-11-19T17:12:54+01:00*%
%TF.ProjectId,custom-arduino-rtc-temperature-humidity,63757374-6f6d-42d6-9172-6475696e6f2d,rev?*%
%TF.SameCoordinates,Original*%
%TF.FileFunction,Soldermask,Bot*%
%TF.FilePolarity,Negative*%
%FSLAX46Y46*%
G04 Gerber Fmt 4.6, Leading zero omitted, Abs format (unit mm)*
G04 Created by KiCad (PCBNEW 5.1.8-db9833491~87~ubuntu20.04.1) date 2020-11-19 17:12:54*
%MOMM*%
%LPD*%
G01*
G04 APERTURE LIST*
%ADD10O,1.700000X1.700000*%
%ADD11R,1.700000X1.700000*%
%ADD12C,1.524000*%
%ADD13C,2.000000*%
%ADD14R,1.524000X1.524000*%
%ADD15C,0.800000*%
%ADD16C,6.400000*%
%ADD17O,1.700000X1.350000*%
%ADD18O,1.500000X1.100000*%
G04 APERTURE END LIST*
D10*
%TO.C,J7*%
X139700000Y-94361000D03*
D11*
X139700000Y-91821000D03*
%TD*%
D10*
%TO.C,J6*%
X144399000Y-94361000D03*
D11*
X144399000Y-91821000D03*
%TD*%
%TO.C,BT2*%
G36*
G01*
X118905000Y-85457000D02*
X118905000Y-86219000D01*
G75*
G02*
X118524000Y-86600000I-381000J0D01*
G01*
X117762000Y-86600000D01*
G75*
G02*
X117381000Y-86219000I0J381000D01*
G01*
X117381000Y-85457000D01*
G75*
G02*
X117762000Y-85076000I381000J0D01*
G01*
X118524000Y-85076000D01*
G75*
G02*
X118905000Y-85457000I0J-381000D01*
G01*
G37*
G36*
G01*
X138905000Y-85457000D02*
X138905000Y-86219000D01*
G75*
G02*
X138524000Y-86600000I-381000J0D01*
G01*
X137762000Y-86600000D01*
G75*
G02*
X137381000Y-86219000I0J381000D01*
G01*
X137381000Y-85457000D01*
G75*
G02*
X137762000Y-85076000I381000J0D01*
G01*
X138524000Y-85076000D01*
G75*
G02*
X138905000Y-85457000I0J-381000D01*
G01*
G37*
%TD*%
D12*
%TO.C,J4*%
X133350000Y-23830000D03*
X130810000Y-23830000D03*
X128270000Y-23830000D03*
X125730000Y-23830000D03*
%TD*%
%TO.C,J3*%
X138430000Y-66040000D03*
X146050000Y-66040000D03*
X143510000Y-66040000D03*
X140970000Y-66040000D03*
%TD*%
D13*
%TO.C,SW3*%
X153187400Y-62303800D03*
X148687400Y-62303800D03*
X153187400Y-55803800D03*
X148687400Y-55803800D03*
%TD*%
%TO.C,SW2*%
X153162000Y-38783400D03*
X148662000Y-38783400D03*
X153162000Y-32283400D03*
X148662000Y-32283400D03*
%TD*%
%TO.C,SW1*%
X153162000Y-50569000D03*
X148662000Y-50569000D03*
X153162000Y-44069000D03*
X148662000Y-44069000D03*
%TD*%
D12*
%TO.C,J1*%
X110871000Y-73025000D03*
X113411000Y-73025000D03*
X110871000Y-75565000D03*
X113411000Y-75565000D03*
X110871000Y-78105000D03*
D14*
X113411000Y-78105000D03*
%TD*%
D15*
%TO.C,H4*%
X152827056Y-92282944D03*
X151130000Y-91580000D03*
X149432944Y-92282944D03*
X148730000Y-93980000D03*
X149432944Y-95677056D03*
X151130000Y-96380000D03*
X152827056Y-95677056D03*
X153530000Y-93980000D03*
D16*
X151130000Y-93980000D03*
%TD*%
D17*
%TO.C,J2*%
X106835000Y-63157000D03*
X106835000Y-57697000D03*
D18*
X109835000Y-62847000D03*
X109835000Y-58007000D03*
%TD*%
D15*
%TO.C,H3*%
X152827056Y-22432944D03*
X151130000Y-21730000D03*
X149432944Y-22432944D03*
X148730000Y-24130000D03*
X149432944Y-25827056D03*
X151130000Y-26530000D03*
X152827056Y-25827056D03*
X153530000Y-24130000D03*
D16*
X151130000Y-24130000D03*
%TD*%
D15*
%TO.C,H2*%
X109647056Y-92282944D03*
X107950000Y-91580000D03*
X106252944Y-92282944D03*
X105550000Y-93980000D03*
X106252944Y-95677056D03*
X107950000Y-96380000D03*
X109647056Y-95677056D03*
X110350000Y-93980000D03*
D16*
X107950000Y-93980000D03*
%TD*%
D15*
%TO.C,H1*%
X109647056Y-22432944D03*
X107950000Y-21730000D03*
X106252944Y-22432944D03*
X105550000Y-24130000D03*
X106252944Y-25827056D03*
X107950000Y-26530000D03*
X109647056Y-25827056D03*
X110350000Y-24130000D03*
D16*
X107950000Y-24130000D03*
%TD*%
M02*
