%TF.GenerationSoftware,KiCad,Pcbnew,5.1.8-db9833491~87~ubuntu20.04.1*%
%TF.CreationDate,2020-11-19T17:12:54+01:00*%
%TF.ProjectId,custom-arduino-rtc-temperature-humidity,63757374-6f6d-42d6-9172-6475696e6f2d,rev?*%
%TF.SameCoordinates,Original*%
%TF.FileFunction,Copper,L1,Top*%
%TF.FilePolarity,Positive*%
%FSLAX46Y46*%
G04 Gerber Fmt 4.6, Leading zero omitted, Abs format (unit mm)*
G04 Created by KiCad (PCBNEW 5.1.8-db9833491~87~ubuntu20.04.1) date 2020-11-19 17:12:54*
%MOMM*%
%LPD*%
G01*
G04 APERTURE LIST*
%TA.AperFunction,SMDPad,CuDef*%
%ADD10R,1.400000X1.600000*%
%TD*%
%TA.AperFunction,ComponentPad*%
%ADD11O,1.700000X1.700000*%
%TD*%
%TA.AperFunction,ComponentPad*%
%ADD12R,1.700000X1.700000*%
%TD*%
%TA.AperFunction,ComponentPad*%
%ADD13C,1.524000*%
%TD*%
%TA.AperFunction,SMDPad,CuDef*%
%ADD14R,2.000000X1.500000*%
%TD*%
%TA.AperFunction,SMDPad,CuDef*%
%ADD15R,2.000000X3.800000*%
%TD*%
%TA.AperFunction,ComponentPad*%
%ADD16C,2.000000*%
%TD*%
%TA.AperFunction,SMDPad,CuDef*%
%ADD17R,0.400000X3.200000*%
%TD*%
%TA.AperFunction,ComponentPad*%
%ADD18R,1.524000X1.524000*%
%TD*%
%TA.AperFunction,ComponentPad*%
%ADD19C,0.800000*%
%TD*%
%TA.AperFunction,ComponentPad*%
%ADD20C,6.400000*%
%TD*%
%TA.AperFunction,SMDPad,CuDef*%
%ADD21R,2.500000X1.430000*%
%TD*%
%TA.AperFunction,ComponentPad*%
%ADD22O,1.700000X1.350000*%
%TD*%
%TA.AperFunction,ComponentPad*%
%ADD23O,1.500000X1.100000*%
%TD*%
%TA.AperFunction,SMDPad,CuDef*%
%ADD24R,1.650000X0.400000*%
%TD*%
%TA.AperFunction,SMDPad,CuDef*%
%ADD25R,1.500000X2.000000*%
%TD*%
%TA.AperFunction,SMDPad,CuDef*%
%ADD26R,0.700000X1.825000*%
%TD*%
%TA.AperFunction,SMDPad,CuDef*%
%ADD27R,2.000000X1.350000*%
%TD*%
%TA.AperFunction,SMDPad,CuDef*%
%ADD28R,1.500000X0.550000*%
%TD*%
%TA.AperFunction,SMDPad,CuDef*%
%ADD29R,0.550000X1.500000*%
%TD*%
%TA.AperFunction,ViaPad*%
%ADD30C,0.800000*%
%TD*%
%TA.AperFunction,Conductor*%
%ADD31C,0.250000*%
%TD*%
%TA.AperFunction,Conductor*%
%ADD32C,0.400000*%
%TD*%
G04 APERTURE END LIST*
D10*
%TO.P,SW4,2*%
%TO.N,GND*%
X107085000Y-81363000D03*
X107085000Y-88563000D03*
%TO.P,SW4,1*%
%TO.N,RESET*%
X110085000Y-81363000D03*
X110085000Y-88563000D03*
%TD*%
D11*
%TO.P,J7,2*%
%TO.N,GND*%
X139700000Y-94361000D03*
D12*
%TO.P,J7,1*%
%TO.N,+3V3*%
X139700000Y-91821000D03*
%TD*%
D11*
%TO.P,J6,2*%
%TO.N,GND*%
X144399000Y-94361000D03*
D12*
%TO.P,J6,1*%
%TO.N,+5V*%
X144399000Y-91821000D03*
%TD*%
%TO.P,U4,8*%
%TO.N,+5V*%
%TA.AperFunction,SMDPad,CuDef*%
G36*
G01*
X119784000Y-24916000D02*
X119484000Y-24916000D01*
G75*
G02*
X119334000Y-24766000I0J150000D01*
G01*
X119334000Y-23116000D01*
G75*
G02*
X119484000Y-22966000I150000J0D01*
G01*
X119784000Y-22966000D01*
G75*
G02*
X119934000Y-23116000I0J-150000D01*
G01*
X119934000Y-24766000D01*
G75*
G02*
X119784000Y-24916000I-150000J0D01*
G01*
G37*
%TD.AperFunction*%
%TO.P,U4,7*%
%TO.N,GND*%
%TA.AperFunction,SMDPad,CuDef*%
G36*
G01*
X121054000Y-24916000D02*
X120754000Y-24916000D01*
G75*
G02*
X120604000Y-24766000I0J150000D01*
G01*
X120604000Y-23116000D01*
G75*
G02*
X120754000Y-22966000I150000J0D01*
G01*
X121054000Y-22966000D01*
G75*
G02*
X121204000Y-23116000I0J-150000D01*
G01*
X121204000Y-24766000D01*
G75*
G02*
X121054000Y-24916000I-150000J0D01*
G01*
G37*
%TD.AperFunction*%
%TO.P,U4,6*%
%TO.N,SCL*%
%TA.AperFunction,SMDPad,CuDef*%
G36*
G01*
X122324000Y-24916000D02*
X122024000Y-24916000D01*
G75*
G02*
X121874000Y-24766000I0J150000D01*
G01*
X121874000Y-23116000D01*
G75*
G02*
X122024000Y-22966000I150000J0D01*
G01*
X122324000Y-22966000D01*
G75*
G02*
X122474000Y-23116000I0J-150000D01*
G01*
X122474000Y-24766000D01*
G75*
G02*
X122324000Y-24916000I-150000J0D01*
G01*
G37*
%TD.AperFunction*%
%TO.P,U4,5*%
%TO.N,SDA*%
%TA.AperFunction,SMDPad,CuDef*%
G36*
G01*
X123594000Y-24916000D02*
X123294000Y-24916000D01*
G75*
G02*
X123144000Y-24766000I0J150000D01*
G01*
X123144000Y-23116000D01*
G75*
G02*
X123294000Y-22966000I150000J0D01*
G01*
X123594000Y-22966000D01*
G75*
G02*
X123744000Y-23116000I0J-150000D01*
G01*
X123744000Y-24766000D01*
G75*
G02*
X123594000Y-24916000I-150000J0D01*
G01*
G37*
%TD.AperFunction*%
%TO.P,U4,4*%
%TO.N,GND*%
%TA.AperFunction,SMDPad,CuDef*%
G36*
G01*
X123594000Y-29866000D02*
X123294000Y-29866000D01*
G75*
G02*
X123144000Y-29716000I0J150000D01*
G01*
X123144000Y-28066000D01*
G75*
G02*
X123294000Y-27916000I150000J0D01*
G01*
X123594000Y-27916000D01*
G75*
G02*
X123744000Y-28066000I0J-150000D01*
G01*
X123744000Y-29716000D01*
G75*
G02*
X123594000Y-29866000I-150000J0D01*
G01*
G37*
%TD.AperFunction*%
%TO.P,U4,3*%
%TO.N,Net-(U4-Pad3)*%
%TA.AperFunction,SMDPad,CuDef*%
G36*
G01*
X122324000Y-29866000D02*
X122024000Y-29866000D01*
G75*
G02*
X121874000Y-29716000I0J150000D01*
G01*
X121874000Y-28066000D01*
G75*
G02*
X122024000Y-27916000I150000J0D01*
G01*
X122324000Y-27916000D01*
G75*
G02*
X122474000Y-28066000I0J-150000D01*
G01*
X122474000Y-29716000D01*
G75*
G02*
X122324000Y-29866000I-150000J0D01*
G01*
G37*
%TD.AperFunction*%
%TO.P,U4,2*%
%TO.N,Net-(U4-Pad2)*%
%TA.AperFunction,SMDPad,CuDef*%
G36*
G01*
X121054000Y-29866000D02*
X120754000Y-29866000D01*
G75*
G02*
X120604000Y-29716000I0J150000D01*
G01*
X120604000Y-28066000D01*
G75*
G02*
X120754000Y-27916000I150000J0D01*
G01*
X121054000Y-27916000D01*
G75*
G02*
X121204000Y-28066000I0J-150000D01*
G01*
X121204000Y-29716000D01*
G75*
G02*
X121054000Y-29866000I-150000J0D01*
G01*
G37*
%TD.AperFunction*%
%TO.P,U4,1*%
%TO.N,Net-(U4-Pad1)*%
%TA.AperFunction,SMDPad,CuDef*%
G36*
G01*
X119784000Y-29866000D02*
X119484000Y-29866000D01*
G75*
G02*
X119334000Y-29716000I0J150000D01*
G01*
X119334000Y-28066000D01*
G75*
G02*
X119484000Y-27916000I150000J0D01*
G01*
X119784000Y-27916000D01*
G75*
G02*
X119934000Y-28066000I0J-150000D01*
G01*
X119934000Y-29716000D01*
G75*
G02*
X119784000Y-29866000I-150000J0D01*
G01*
G37*
%TD.AperFunction*%
%TD*%
%TO.P,R8,2*%
%TO.N,Net-(D1-Pad2)*%
%TA.AperFunction,SMDPad,CuDef*%
G36*
G01*
X107550000Y-30918999D02*
X107550000Y-31819001D01*
G75*
G02*
X107300001Y-32069000I-249999J0D01*
G01*
X106599999Y-32069000D01*
G75*
G02*
X106350000Y-31819001I0J249999D01*
G01*
X106350000Y-30918999D01*
G75*
G02*
X106599999Y-30669000I249999J0D01*
G01*
X107300001Y-30669000D01*
G75*
G02*
X107550000Y-30918999I0J-249999D01*
G01*
G37*
%TD.AperFunction*%
%TO.P,R8,1*%
%TO.N,Net-(R8-Pad1)*%
%TA.AperFunction,SMDPad,CuDef*%
G36*
G01*
X109550000Y-30918999D02*
X109550000Y-31819001D01*
G75*
G02*
X109300001Y-32069000I-249999J0D01*
G01*
X108599999Y-32069000D01*
G75*
G02*
X108350000Y-31819001I0J249999D01*
G01*
X108350000Y-30918999D01*
G75*
G02*
X108599999Y-30669000I249999J0D01*
G01*
X109300001Y-30669000D01*
G75*
G02*
X109550000Y-30918999I0J-249999D01*
G01*
G37*
%TD.AperFunction*%
%TD*%
%TO.P,D1,2*%
%TO.N,Net-(D1-Pad2)*%
%TA.AperFunction,SMDPad,CuDef*%
G36*
G01*
X107500000Y-28632999D02*
X107500000Y-29533001D01*
G75*
G02*
X107250001Y-29783000I-249999J0D01*
G01*
X106599999Y-29783000D01*
G75*
G02*
X106350000Y-29533001I0J249999D01*
G01*
X106350000Y-28632999D01*
G75*
G02*
X106599999Y-28383000I249999J0D01*
G01*
X107250001Y-28383000D01*
G75*
G02*
X107500000Y-28632999I0J-249999D01*
G01*
G37*
%TD.AperFunction*%
%TO.P,D1,1*%
%TO.N,GND*%
%TA.AperFunction,SMDPad,CuDef*%
G36*
G01*
X109550000Y-28632999D02*
X109550000Y-29533001D01*
G75*
G02*
X109300001Y-29783000I-249999J0D01*
G01*
X108649999Y-29783000D01*
G75*
G02*
X108400000Y-29533001I0J249999D01*
G01*
X108400000Y-28632999D01*
G75*
G02*
X108649999Y-28383000I249999J0D01*
G01*
X109300001Y-28383000D01*
G75*
G02*
X109550000Y-28632999I0J-249999D01*
G01*
G37*
%TD.AperFunction*%
%TD*%
%TO.P,R7,1*%
%TO.N,Net-(R7-Pad1)*%
%TA.AperFunction,SMDPad,CuDef*%
G36*
G01*
X135306000Y-53790001D02*
X135306000Y-52889999D01*
G75*
G02*
X135555999Y-52640000I249999J0D01*
G01*
X136256001Y-52640000D01*
G75*
G02*
X136506000Y-52889999I0J-249999D01*
G01*
X136506000Y-53790001D01*
G75*
G02*
X136256001Y-54040000I-249999J0D01*
G01*
X135555999Y-54040000D01*
G75*
G02*
X135306000Y-53790001I0J249999D01*
G01*
G37*
%TD.AperFunction*%
%TO.P,R7,2*%
%TO.N,GND*%
%TA.AperFunction,SMDPad,CuDef*%
G36*
G01*
X137306000Y-53790001D02*
X137306000Y-52889999D01*
G75*
G02*
X137555999Y-52640000I249999J0D01*
G01*
X138256001Y-52640000D01*
G75*
G02*
X138506000Y-52889999I0J-249999D01*
G01*
X138506000Y-53790001D01*
G75*
G02*
X138256001Y-54040000I-249999J0D01*
G01*
X137555999Y-54040000D01*
G75*
G02*
X137306000Y-53790001I0J249999D01*
G01*
G37*
%TD.AperFunction*%
%TD*%
%TO.P,BT2,2*%
%TO.N,GND*%
%TA.AperFunction,ComponentPad*%
G36*
G01*
X118905000Y-85457000D02*
X118905000Y-86219000D01*
G75*
G02*
X118524000Y-86600000I-381000J0D01*
G01*
X117762000Y-86600000D01*
G75*
G02*
X117381000Y-86219000I0J381000D01*
G01*
X117381000Y-85457000D01*
G75*
G02*
X117762000Y-85076000I381000J0D01*
G01*
X118524000Y-85076000D01*
G75*
G02*
X118905000Y-85457000I0J-381000D01*
G01*
G37*
%TD.AperFunction*%
%TO.P,BT2,1*%
%TO.N,VBAT*%
%TA.AperFunction,ComponentPad*%
G36*
G01*
X138905000Y-85457000D02*
X138905000Y-86219000D01*
G75*
G02*
X138524000Y-86600000I-381000J0D01*
G01*
X137762000Y-86600000D01*
G75*
G02*
X137381000Y-86219000I0J381000D01*
G01*
X137381000Y-85457000D01*
G75*
G02*
X137762000Y-85076000I381000J0D01*
G01*
X138524000Y-85076000D01*
G75*
G02*
X138905000Y-85457000I0J-381000D01*
G01*
G37*
%TD.AperFunction*%
%TD*%
D13*
%TO.P,J4,4*%
%TO.N,SDA*%
X133350000Y-23830000D03*
%TO.P,J4,3*%
%TO.N,SCL*%
X130810000Y-23830000D03*
%TO.P,J4,2*%
%TO.N,+5V*%
X128270000Y-23830000D03*
%TO.P,J4,1*%
%TO.N,GND*%
X125730000Y-23830000D03*
%TD*%
%TO.P,J3,1*%
%TO.N,+5V*%
X138430000Y-66040000D03*
%TO.P,J3,4*%
%TO.N,SDA*%
X146050000Y-66040000D03*
%TO.P,J3,3*%
%TO.N,SCL*%
X143510000Y-66040000D03*
%TO.P,J3,2*%
%TO.N,GND*%
X140970000Y-66040000D03*
%TD*%
D14*
%TO.P,U3,1*%
%TO.N,GND*%
X114871100Y-40829200D03*
%TO.P,U3,3*%
%TO.N,+5V*%
X114871100Y-45429200D03*
%TO.P,U3,2*%
%TO.N,+3V3*%
X114871100Y-43129200D03*
D15*
X121171100Y-43129200D03*
%TD*%
%TO.P,C11,2*%
%TO.N,GND*%
%TA.AperFunction,SMDPad,CuDef*%
G36*
G01*
X119730100Y-50236100D02*
X119730100Y-51186100D01*
G75*
G02*
X119480100Y-51436100I-250000J0D01*
G01*
X118805100Y-51436100D01*
G75*
G02*
X118555100Y-51186100I0J250000D01*
G01*
X118555100Y-50236100D01*
G75*
G02*
X118805100Y-49986100I250000J0D01*
G01*
X119480100Y-49986100D01*
G75*
G02*
X119730100Y-50236100I0J-250000D01*
G01*
G37*
%TD.AperFunction*%
%TO.P,C11,1*%
%TO.N,+3V3*%
%TA.AperFunction,SMDPad,CuDef*%
G36*
G01*
X121805100Y-50236100D02*
X121805100Y-51186100D01*
G75*
G02*
X121555100Y-51436100I-250000J0D01*
G01*
X120880100Y-51436100D01*
G75*
G02*
X120630100Y-51186100I0J250000D01*
G01*
X120630100Y-50236100D01*
G75*
G02*
X120880100Y-49986100I250000J0D01*
G01*
X121555100Y-49986100D01*
G75*
G02*
X121805100Y-50236100I0J-250000D01*
G01*
G37*
%TD.AperFunction*%
%TD*%
%TO.P,C10,2*%
%TO.N,GND*%
%TA.AperFunction,SMDPad,CuDef*%
G36*
G01*
X119717400Y-47721500D02*
X119717400Y-48671500D01*
G75*
G02*
X119467400Y-48921500I-250000J0D01*
G01*
X118792400Y-48921500D01*
G75*
G02*
X118542400Y-48671500I0J250000D01*
G01*
X118542400Y-47721500D01*
G75*
G02*
X118792400Y-47471500I250000J0D01*
G01*
X119467400Y-47471500D01*
G75*
G02*
X119717400Y-47721500I0J-250000D01*
G01*
G37*
%TD.AperFunction*%
%TO.P,C10,1*%
%TO.N,+3V3*%
%TA.AperFunction,SMDPad,CuDef*%
G36*
G01*
X121792400Y-47721500D02*
X121792400Y-48671500D01*
G75*
G02*
X121542400Y-48921500I-250000J0D01*
G01*
X120867400Y-48921500D01*
G75*
G02*
X120617400Y-48671500I0J250000D01*
G01*
X120617400Y-47721500D01*
G75*
G02*
X120867400Y-47471500I250000J0D01*
G01*
X121542400Y-47471500D01*
G75*
G02*
X121792400Y-47721500I0J-250000D01*
G01*
G37*
%TD.AperFunction*%
%TD*%
%TO.P,C9,2*%
%TO.N,GND*%
%TA.AperFunction,SMDPad,CuDef*%
G36*
G01*
X116337500Y-48722300D02*
X116337500Y-47772300D01*
G75*
G02*
X116587500Y-47522300I250000J0D01*
G01*
X117262500Y-47522300D01*
G75*
G02*
X117512500Y-47772300I0J-250000D01*
G01*
X117512500Y-48722300D01*
G75*
G02*
X117262500Y-48972300I-250000J0D01*
G01*
X116587500Y-48972300D01*
G75*
G02*
X116337500Y-48722300I0J250000D01*
G01*
G37*
%TD.AperFunction*%
%TO.P,C9,1*%
%TO.N,+5V*%
%TA.AperFunction,SMDPad,CuDef*%
G36*
G01*
X114262500Y-48722300D02*
X114262500Y-47772300D01*
G75*
G02*
X114512500Y-47522300I250000J0D01*
G01*
X115187500Y-47522300D01*
G75*
G02*
X115437500Y-47772300I0J-250000D01*
G01*
X115437500Y-48722300D01*
G75*
G02*
X115187500Y-48972300I-250000J0D01*
G01*
X114512500Y-48972300D01*
G75*
G02*
X114262500Y-48722300I0J250000D01*
G01*
G37*
%TD.AperFunction*%
%TD*%
%TO.P,C8,2*%
%TO.N,GND*%
%TA.AperFunction,SMDPad,CuDef*%
G36*
G01*
X116401000Y-51160700D02*
X116401000Y-50210700D01*
G75*
G02*
X116651000Y-49960700I250000J0D01*
G01*
X117326000Y-49960700D01*
G75*
G02*
X117576000Y-50210700I0J-250000D01*
G01*
X117576000Y-51160700D01*
G75*
G02*
X117326000Y-51410700I-250000J0D01*
G01*
X116651000Y-51410700D01*
G75*
G02*
X116401000Y-51160700I0J250000D01*
G01*
G37*
%TD.AperFunction*%
%TO.P,C8,1*%
%TO.N,+5V*%
%TA.AperFunction,SMDPad,CuDef*%
G36*
G01*
X114326000Y-51160700D02*
X114326000Y-50210700D01*
G75*
G02*
X114576000Y-49960700I250000J0D01*
G01*
X115251000Y-49960700D01*
G75*
G02*
X115501000Y-50210700I0J-250000D01*
G01*
X115501000Y-51160700D01*
G75*
G02*
X115251000Y-51410700I-250000J0D01*
G01*
X114576000Y-51410700D01*
G75*
G02*
X114326000Y-51160700I0J250000D01*
G01*
G37*
%TD.AperFunction*%
%TD*%
%TO.P,C5,2*%
%TO.N,GND*%
%TA.AperFunction,SMDPad,CuDef*%
G36*
G01*
X120009500Y-62758300D02*
X120009500Y-63708300D01*
G75*
G02*
X119759500Y-63958300I-250000J0D01*
G01*
X119084500Y-63958300D01*
G75*
G02*
X118834500Y-63708300I0J250000D01*
G01*
X118834500Y-62758300D01*
G75*
G02*
X119084500Y-62508300I250000J0D01*
G01*
X119759500Y-62508300D01*
G75*
G02*
X120009500Y-62758300I0J-250000D01*
G01*
G37*
%TD.AperFunction*%
%TO.P,C5,1*%
%TO.N,+5V*%
%TA.AperFunction,SMDPad,CuDef*%
G36*
G01*
X122084500Y-62758300D02*
X122084500Y-63708300D01*
G75*
G02*
X121834500Y-63958300I-250000J0D01*
G01*
X121159500Y-63958300D01*
G75*
G02*
X120909500Y-63708300I0J250000D01*
G01*
X120909500Y-62758300D01*
G75*
G02*
X121159500Y-62508300I250000J0D01*
G01*
X121834500Y-62508300D01*
G75*
G02*
X122084500Y-62758300I0J-250000D01*
G01*
G37*
%TD.AperFunction*%
%TD*%
%TO.P,C4,2*%
%TO.N,GND*%
%TA.AperFunction,SMDPad,CuDef*%
G36*
G01*
X125864600Y-71366800D02*
X126814600Y-71366800D01*
G75*
G02*
X127064600Y-71616800I0J-250000D01*
G01*
X127064600Y-72291800D01*
G75*
G02*
X126814600Y-72541800I-250000J0D01*
G01*
X125864600Y-72541800D01*
G75*
G02*
X125614600Y-72291800I0J250000D01*
G01*
X125614600Y-71616800D01*
G75*
G02*
X125864600Y-71366800I250000J0D01*
G01*
G37*
%TD.AperFunction*%
%TO.P,C4,1*%
%TO.N,+5V*%
%TA.AperFunction,SMDPad,CuDef*%
G36*
G01*
X125864600Y-69291800D02*
X126814600Y-69291800D01*
G75*
G02*
X127064600Y-69541800I0J-250000D01*
G01*
X127064600Y-70216800D01*
G75*
G02*
X126814600Y-70466800I-250000J0D01*
G01*
X125864600Y-70466800D01*
G75*
G02*
X125614600Y-70216800I0J250000D01*
G01*
X125614600Y-69541800D01*
G75*
G02*
X125864600Y-69291800I250000J0D01*
G01*
G37*
%TD.AperFunction*%
%TD*%
%TO.P,F1,2*%
%TO.N,Net-(F1-Pad2)*%
%TA.AperFunction,SMDPad,CuDef*%
G36*
G01*
X108163699Y-54457800D02*
X111063701Y-54457800D01*
G75*
G02*
X111313700Y-54707799I0J-249999D01*
G01*
X111313700Y-55507801D01*
G75*
G02*
X111063701Y-55757800I-249999J0D01*
G01*
X108163699Y-55757800D01*
G75*
G02*
X107913700Y-55507801I0J249999D01*
G01*
X107913700Y-54707799D01*
G75*
G02*
X108163699Y-54457800I249999J0D01*
G01*
G37*
%TD.AperFunction*%
%TO.P,F1,1*%
%TO.N,+5V*%
%TA.AperFunction,SMDPad,CuDef*%
G36*
G01*
X108163699Y-50007800D02*
X111063701Y-50007800D01*
G75*
G02*
X111313700Y-50257799I0J-249999D01*
G01*
X111313700Y-51057801D01*
G75*
G02*
X111063701Y-51307800I-249999J0D01*
G01*
X108163699Y-51307800D01*
G75*
G02*
X107913700Y-51057801I0J249999D01*
G01*
X107913700Y-50257799D01*
G75*
G02*
X108163699Y-50007800I249999J0D01*
G01*
G37*
%TD.AperFunction*%
%TD*%
D16*
%TO.P,SW3,1*%
%TO.N,+5V*%
X153187400Y-62303800D03*
%TO.P,SW3,2*%
%TO.N,BTN_DOWN*%
X148687400Y-62303800D03*
%TO.P,SW3,1*%
%TO.N,+5V*%
X153187400Y-55803800D03*
%TO.P,SW3,2*%
%TO.N,BTN_DOWN*%
X148687400Y-55803800D03*
%TD*%
%TO.P,SW2,1*%
%TO.N,+5V*%
X153162000Y-38783400D03*
%TO.P,SW2,2*%
%TO.N,BTN_UP*%
X148662000Y-38783400D03*
%TO.P,SW2,1*%
%TO.N,+5V*%
X153162000Y-32283400D03*
%TO.P,SW2,2*%
%TO.N,BTN_UP*%
X148662000Y-32283400D03*
%TD*%
%TO.P,SW1,1*%
%TO.N,+5V*%
X153162000Y-50569000D03*
%TO.P,SW1,2*%
%TO.N,BTN_SET*%
X148662000Y-50569000D03*
%TO.P,SW1,1*%
%TO.N,+5V*%
X153162000Y-44069000D03*
%TO.P,SW1,2*%
%TO.N,BTN_SET*%
X148662000Y-44069000D03*
%TD*%
%TO.P,R6,1*%
%TO.N,GND*%
%TA.AperFunction,SMDPad,CuDef*%
G36*
G01*
X151307600Y-52762999D02*
X151307600Y-53663001D01*
G75*
G02*
X151057601Y-53913000I-249999J0D01*
G01*
X150357599Y-53913000D01*
G75*
G02*
X150107600Y-53663001I0J249999D01*
G01*
X150107600Y-52762999D01*
G75*
G02*
X150357599Y-52513000I249999J0D01*
G01*
X151057601Y-52513000D01*
G75*
G02*
X151307600Y-52762999I0J-249999D01*
G01*
G37*
%TD.AperFunction*%
%TO.P,R6,2*%
%TO.N,BTN_DOWN*%
%TA.AperFunction,SMDPad,CuDef*%
G36*
G01*
X149307600Y-52762999D02*
X149307600Y-53663001D01*
G75*
G02*
X149057601Y-53913000I-249999J0D01*
G01*
X148357599Y-53913000D01*
G75*
G02*
X148107600Y-53663001I0J249999D01*
G01*
X148107600Y-52762999D01*
G75*
G02*
X148357599Y-52513000I249999J0D01*
G01*
X149057601Y-52513000D01*
G75*
G02*
X149307600Y-52762999I0J-249999D01*
G01*
G37*
%TD.AperFunction*%
%TD*%
%TO.P,R5,2*%
%TO.N,BTN_UP*%
%TA.AperFunction,SMDPad,CuDef*%
G36*
G01*
X149282200Y-29255299D02*
X149282200Y-30155301D01*
G75*
G02*
X149032201Y-30405300I-249999J0D01*
G01*
X148332199Y-30405300D01*
G75*
G02*
X148082200Y-30155301I0J249999D01*
G01*
X148082200Y-29255299D01*
G75*
G02*
X148332199Y-29005300I249999J0D01*
G01*
X149032201Y-29005300D01*
G75*
G02*
X149282200Y-29255299I0J-249999D01*
G01*
G37*
%TD.AperFunction*%
%TO.P,R5,1*%
%TO.N,GND*%
%TA.AperFunction,SMDPad,CuDef*%
G36*
G01*
X151282200Y-29255299D02*
X151282200Y-30155301D01*
G75*
G02*
X151032201Y-30405300I-249999J0D01*
G01*
X150332199Y-30405300D01*
G75*
G02*
X150082200Y-30155301I0J249999D01*
G01*
X150082200Y-29255299D01*
G75*
G02*
X150332199Y-29005300I249999J0D01*
G01*
X151032201Y-29005300D01*
G75*
G02*
X151282200Y-29255299I0J-249999D01*
G01*
G37*
%TD.AperFunction*%
%TD*%
%TO.P,R3,2*%
%TO.N,BTN_SET*%
%TA.AperFunction,SMDPad,CuDef*%
G36*
G01*
X149206000Y-40951999D02*
X149206000Y-41852001D01*
G75*
G02*
X148956001Y-42102000I-249999J0D01*
G01*
X148255999Y-42102000D01*
G75*
G02*
X148006000Y-41852001I0J249999D01*
G01*
X148006000Y-40951999D01*
G75*
G02*
X148255999Y-40702000I249999J0D01*
G01*
X148956001Y-40702000D01*
G75*
G02*
X149206000Y-40951999I0J-249999D01*
G01*
G37*
%TD.AperFunction*%
%TO.P,R3,1*%
%TO.N,GND*%
%TA.AperFunction,SMDPad,CuDef*%
G36*
G01*
X151206000Y-40951999D02*
X151206000Y-41852001D01*
G75*
G02*
X150956001Y-42102000I-249999J0D01*
G01*
X150255999Y-42102000D01*
G75*
G02*
X150006000Y-41852001I0J249999D01*
G01*
X150006000Y-40951999D01*
G75*
G02*
X150255999Y-40702000I249999J0D01*
G01*
X150956001Y-40702000D01*
G75*
G02*
X151206000Y-40951999I0J-249999D01*
G01*
G37*
%TD.AperFunction*%
%TD*%
%TO.P,C2,2*%
%TO.N,GND*%
%TA.AperFunction,SMDPad,CuDef*%
G36*
G01*
X137800100Y-59655200D02*
X136850100Y-59655200D01*
G75*
G02*
X136600100Y-59405200I0J250000D01*
G01*
X136600100Y-58730200D01*
G75*
G02*
X136850100Y-58480200I250000J0D01*
G01*
X137800100Y-58480200D01*
G75*
G02*
X138050100Y-58730200I0J-250000D01*
G01*
X138050100Y-59405200D01*
G75*
G02*
X137800100Y-59655200I-250000J0D01*
G01*
G37*
%TD.AperFunction*%
%TO.P,C2,1*%
%TO.N,+5V*%
%TA.AperFunction,SMDPad,CuDef*%
G36*
G01*
X137800100Y-61730200D02*
X136850100Y-61730200D01*
G75*
G02*
X136600100Y-61480200I0J250000D01*
G01*
X136600100Y-60805200D01*
G75*
G02*
X136850100Y-60555200I250000J0D01*
G01*
X137800100Y-60555200D01*
G75*
G02*
X138050100Y-60805200I0J-250000D01*
G01*
X138050100Y-61480200D01*
G75*
G02*
X137800100Y-61730200I-250000J0D01*
G01*
G37*
%TD.AperFunction*%
%TD*%
%TO.P,C1,2*%
%TO.N,GND*%
%TA.AperFunction,SMDPad,CuDef*%
G36*
G01*
X120161900Y-57284600D02*
X120161900Y-58234600D01*
G75*
G02*
X119911900Y-58484600I-250000J0D01*
G01*
X119236900Y-58484600D01*
G75*
G02*
X118986900Y-58234600I0J250000D01*
G01*
X118986900Y-57284600D01*
G75*
G02*
X119236900Y-57034600I250000J0D01*
G01*
X119911900Y-57034600D01*
G75*
G02*
X120161900Y-57284600I0J-250000D01*
G01*
G37*
%TD.AperFunction*%
%TO.P,C1,1*%
%TO.N,+5V*%
%TA.AperFunction,SMDPad,CuDef*%
G36*
G01*
X122236900Y-57284600D02*
X122236900Y-58234600D01*
G75*
G02*
X121986900Y-58484600I-250000J0D01*
G01*
X121311900Y-58484600D01*
G75*
G02*
X121061900Y-58234600I0J250000D01*
G01*
X121061900Y-57284600D01*
G75*
G02*
X121311900Y-57034600I250000J0D01*
G01*
X121986900Y-57034600D01*
G75*
G02*
X122236900Y-57284600I0J-250000D01*
G01*
G37*
%TD.AperFunction*%
%TD*%
%TO.P,R4,2*%
%TO.N,+5V*%
%TA.AperFunction,SMDPad,CuDef*%
G36*
G01*
X115932000Y-67621999D02*
X115932000Y-68522001D01*
G75*
G02*
X115682001Y-68772000I-249999J0D01*
G01*
X114981999Y-68772000D01*
G75*
G02*
X114732000Y-68522001I0J249999D01*
G01*
X114732000Y-67621999D01*
G75*
G02*
X114981999Y-67372000I249999J0D01*
G01*
X115682001Y-67372000D01*
G75*
G02*
X115932000Y-67621999I0J-249999D01*
G01*
G37*
%TD.AperFunction*%
%TO.P,R4,1*%
%TO.N,RESET*%
%TA.AperFunction,SMDPad,CuDef*%
G36*
G01*
X117932000Y-67621999D02*
X117932000Y-68522001D01*
G75*
G02*
X117682001Y-68772000I-249999J0D01*
G01*
X116981999Y-68772000D01*
G75*
G02*
X116732000Y-68522001I0J249999D01*
G01*
X116732000Y-67621999D01*
G75*
G02*
X116981999Y-67372000I249999J0D01*
G01*
X117682001Y-67372000D01*
G75*
G02*
X117932000Y-67621999I0J-249999D01*
G01*
G37*
%TD.AperFunction*%
%TD*%
%TO.P,R2,2*%
%TO.N,Net-(J2-Pad2)*%
%TA.AperFunction,SMDPad,CuDef*%
G36*
G01*
X115170000Y-58604999D02*
X115170000Y-59505001D01*
G75*
G02*
X114920001Y-59755000I-249999J0D01*
G01*
X114219999Y-59755000D01*
G75*
G02*
X113970000Y-59505001I0J249999D01*
G01*
X113970000Y-58604999D01*
G75*
G02*
X114219999Y-58355000I249999J0D01*
G01*
X114920001Y-58355000D01*
G75*
G02*
X115170000Y-58604999I0J-249999D01*
G01*
G37*
%TD.AperFunction*%
%TO.P,R2,1*%
%TO.N,D-*%
%TA.AperFunction,SMDPad,CuDef*%
G36*
G01*
X117170000Y-58604999D02*
X117170000Y-59505001D01*
G75*
G02*
X116920001Y-59755000I-249999J0D01*
G01*
X116219999Y-59755000D01*
G75*
G02*
X115970000Y-59505001I0J249999D01*
G01*
X115970000Y-58604999D01*
G75*
G02*
X116219999Y-58355000I249999J0D01*
G01*
X116920001Y-58355000D01*
G75*
G02*
X117170000Y-58604999I0J-249999D01*
G01*
G37*
%TD.AperFunction*%
%TD*%
%TO.P,R1,2*%
%TO.N,Net-(J2-Pad3)*%
%TA.AperFunction,SMDPad,CuDef*%
G36*
G01*
X115170000Y-60636999D02*
X115170000Y-61537001D01*
G75*
G02*
X114920001Y-61787000I-249999J0D01*
G01*
X114219999Y-61787000D01*
G75*
G02*
X113970000Y-61537001I0J249999D01*
G01*
X113970000Y-60636999D01*
G75*
G02*
X114219999Y-60387000I249999J0D01*
G01*
X114920001Y-60387000D01*
G75*
G02*
X115170000Y-60636999I0J-249999D01*
G01*
G37*
%TD.AperFunction*%
%TO.P,R1,1*%
%TO.N,D+*%
%TA.AperFunction,SMDPad,CuDef*%
G36*
G01*
X117170000Y-60636999D02*
X117170000Y-61537001D01*
G75*
G02*
X116920001Y-61787000I-249999J0D01*
G01*
X116219999Y-61787000D01*
G75*
G02*
X115970000Y-61537001I0J249999D01*
G01*
X115970000Y-60636999D01*
G75*
G02*
X116219999Y-60387000I249999J0D01*
G01*
X116920001Y-60387000D01*
G75*
G02*
X117170000Y-60636999I0J-249999D01*
G01*
G37*
%TD.AperFunction*%
%TD*%
D17*
%TO.P,Y1,3*%
%TO.N,Net-(U2-Pad16)*%
X127959000Y-71755000D03*
%TO.P,Y1,2*%
%TO.N,GND*%
X129159000Y-71755000D03*
%TO.P,Y1,1*%
%TO.N,Net-(U2-Pad17)*%
X130359000Y-71755000D03*
%TD*%
D13*
%TO.P,J1,6*%
%TO.N,GND*%
X110871000Y-73025000D03*
%TO.P,J1,5*%
%TO.N,RESET*%
X113411000Y-73025000D03*
%TO.P,J1,4*%
%TO.N,MOSI*%
X110871000Y-75565000D03*
%TO.P,J1,3*%
%TO.N,SCK*%
X113411000Y-75565000D03*
%TO.P,J1,2*%
%TO.N,+5V*%
X110871000Y-78105000D03*
D18*
%TO.P,J1,1*%
%TO.N,MISO*%
X113411000Y-78105000D03*
%TD*%
%TO.P,C6,2*%
%TO.N,Net-(C6-Pad2)*%
%TA.AperFunction,SMDPad,CuDef*%
G36*
G01*
X129255500Y-53904300D02*
X130205500Y-53904300D01*
G75*
G02*
X130455500Y-54154300I0J-250000D01*
G01*
X130455500Y-54829300D01*
G75*
G02*
X130205500Y-55079300I-250000J0D01*
G01*
X129255500Y-55079300D01*
G75*
G02*
X129005500Y-54829300I0J250000D01*
G01*
X129005500Y-54154300D01*
G75*
G02*
X129255500Y-53904300I250000J0D01*
G01*
G37*
%TD.AperFunction*%
%TO.P,C6,1*%
%TO.N,GND*%
%TA.AperFunction,SMDPad,CuDef*%
G36*
G01*
X129255500Y-51829300D02*
X130205500Y-51829300D01*
G75*
G02*
X130455500Y-52079300I0J-250000D01*
G01*
X130455500Y-52754300D01*
G75*
G02*
X130205500Y-53004300I-250000J0D01*
G01*
X129255500Y-53004300D01*
G75*
G02*
X129005500Y-52754300I0J250000D01*
G01*
X129005500Y-52079300D01*
G75*
G02*
X129255500Y-51829300I250000J0D01*
G01*
G37*
%TD.AperFunction*%
%TD*%
D19*
%TO.P,H4,1*%
%TO.N,GND*%
X152827056Y-92282944D03*
X151130000Y-91580000D03*
X149432944Y-92282944D03*
X148730000Y-93980000D03*
X149432944Y-95677056D03*
X151130000Y-96380000D03*
X152827056Y-95677056D03*
X153530000Y-93980000D03*
D20*
X151130000Y-93980000D03*
%TD*%
D21*
%TO.P,J2,6*%
%TO.N,GND*%
X106565000Y-61387000D03*
X106565000Y-59467000D03*
D22*
X106835000Y-63157000D03*
X106835000Y-57697000D03*
D23*
X109835000Y-62847000D03*
X109835000Y-58007000D03*
D24*
%TO.P,J2,5*%
X109715000Y-61727000D03*
%TO.P,J2,4*%
%TO.N,Net-(J2-Pad4)*%
X109715000Y-61077000D03*
%TO.P,J2,3*%
%TO.N,Net-(J2-Pad3)*%
X109715000Y-60427000D03*
%TO.P,J2,2*%
%TO.N,Net-(J2-Pad2)*%
X109715000Y-59777000D03*
%TO.P,J2,1*%
%TO.N,Net-(F1-Pad2)*%
X109715000Y-59127000D03*
D25*
%TO.P,J2,6*%
%TO.N,GND*%
X109835000Y-63327000D03*
X109815000Y-57577000D03*
D26*
X108515000Y-63427000D03*
X108515000Y-57477000D03*
D27*
X107765000Y-57697000D03*
X107765000Y-63177000D03*
%TD*%
%TO.P,C3,2*%
%TO.N,GND*%
%TA.AperFunction,SMDPad,CuDef*%
G36*
G01*
X120009500Y-60726300D02*
X120009500Y-61676300D01*
G75*
G02*
X119759500Y-61926300I-250000J0D01*
G01*
X119084500Y-61926300D01*
G75*
G02*
X118834500Y-61676300I0J250000D01*
G01*
X118834500Y-60726300D01*
G75*
G02*
X119084500Y-60476300I250000J0D01*
G01*
X119759500Y-60476300D01*
G75*
G02*
X120009500Y-60726300I0J-250000D01*
G01*
G37*
%TD.AperFunction*%
%TO.P,C3,1*%
%TO.N,Net-(C3-Pad1)*%
%TA.AperFunction,SMDPad,CuDef*%
G36*
G01*
X122084500Y-60726300D02*
X122084500Y-61676300D01*
G75*
G02*
X121834500Y-61926300I-250000J0D01*
G01*
X121159500Y-61926300D01*
G75*
G02*
X120909500Y-61676300I0J250000D01*
G01*
X120909500Y-60726300D01*
G75*
G02*
X121159500Y-60476300I250000J0D01*
G01*
X121834500Y-60476300D01*
G75*
G02*
X122084500Y-60726300I0J-250000D01*
G01*
G37*
%TD.AperFunction*%
%TD*%
D19*
%TO.P,H3,1*%
%TO.N,GND*%
X152827056Y-22432944D03*
X151130000Y-21730000D03*
X149432944Y-22432944D03*
X148730000Y-24130000D03*
X149432944Y-25827056D03*
X151130000Y-26530000D03*
X152827056Y-25827056D03*
X153530000Y-24130000D03*
D20*
X151130000Y-24130000D03*
%TD*%
D19*
%TO.P,H2,1*%
%TO.N,GND*%
X109647056Y-92282944D03*
X107950000Y-91580000D03*
X106252944Y-92282944D03*
X105550000Y-93980000D03*
X106252944Y-95677056D03*
X107950000Y-96380000D03*
X109647056Y-95677056D03*
X110350000Y-93980000D03*
D20*
X107950000Y-93980000D03*
%TD*%
D19*
%TO.P,H1,1*%
%TO.N,GND*%
X109647056Y-22432944D03*
X107950000Y-21730000D03*
X106252944Y-22432944D03*
X105550000Y-24130000D03*
X106252944Y-25827056D03*
X107950000Y-26530000D03*
X109647056Y-25827056D03*
X110350000Y-24130000D03*
D20*
X107950000Y-24130000D03*
%TD*%
D28*
%TO.P,U2,1*%
%TO.N,Net-(U2-Pad1)*%
X123840000Y-58230000D03*
%TO.P,U2,2*%
%TO.N,+5V*%
X123840000Y-59030000D03*
%TO.P,U2,3*%
%TO.N,D-*%
X123840000Y-59830000D03*
%TO.P,U2,4*%
%TO.N,D+*%
X123840000Y-60630000D03*
%TO.P,U2,5*%
%TO.N,GND*%
X123840000Y-61430000D03*
%TO.P,U2,6*%
%TO.N,Net-(C3-Pad1)*%
X123840000Y-62230000D03*
%TO.P,U2,7*%
%TO.N,+5V*%
X123840000Y-63030000D03*
%TO.P,U2,8*%
%TO.N,Net-(U2-Pad8)*%
X123840000Y-63830000D03*
%TO.P,U2,9*%
%TO.N,SCK*%
X123840000Y-64630000D03*
%TO.P,U2,10*%
%TO.N,MOSI*%
X123840000Y-65430000D03*
%TO.P,U2,11*%
%TO.N,MISO*%
X123840000Y-66230000D03*
D29*
%TO.P,U2,12*%
%TO.N,CLK_INT*%
X125540000Y-67930000D03*
%TO.P,U2,13*%
%TO.N,RESET*%
X126340000Y-67930000D03*
%TO.P,U2,14*%
%TO.N,+5V*%
X127140000Y-67930000D03*
%TO.P,U2,15*%
%TO.N,GND*%
X127940000Y-67930000D03*
%TO.P,U2,16*%
%TO.N,Net-(U2-Pad16)*%
X128740000Y-67930000D03*
%TO.P,U2,17*%
%TO.N,Net-(U2-Pad17)*%
X129540000Y-67930000D03*
%TO.P,U2,18*%
%TO.N,SCL*%
X130340000Y-67930000D03*
%TO.P,U2,19*%
%TO.N,SDA*%
X131140000Y-67930000D03*
%TO.P,U2,20*%
%TO.N,RX*%
X131940000Y-67930000D03*
%TO.P,U2,21*%
%TO.N,TX*%
X132740000Y-67930000D03*
%TO.P,U2,22*%
%TO.N,CTS*%
X133540000Y-67930000D03*
D28*
%TO.P,U2,23*%
%TO.N,GND*%
X135240000Y-66230000D03*
%TO.P,U2,24*%
%TO.N,+5V*%
X135240000Y-65430000D03*
%TO.P,U2,25*%
%TO.N,BTN_SET*%
X135240000Y-64630000D03*
%TO.P,U2,26*%
%TO.N,Net-(U2-Pad26)*%
X135240000Y-63830000D03*
%TO.P,U2,27*%
%TO.N,BTN_DOWN*%
X135240000Y-63030000D03*
%TO.P,U2,28*%
%TO.N,Net-(U2-Pad28)*%
X135240000Y-62230000D03*
%TO.P,U2,29*%
%TO.N,Net-(U2-Pad29)*%
X135240000Y-61430000D03*
%TO.P,U2,30*%
%TO.N,Net-(U2-Pad30)*%
X135240000Y-60630000D03*
%TO.P,U2,31*%
%TO.N,BTN_UP*%
X135240000Y-59830000D03*
%TO.P,U2,32*%
%TO.N,Net-(R8-Pad1)*%
X135240000Y-59030000D03*
%TO.P,U2,33*%
%TO.N,Net-(R7-Pad1)*%
X135240000Y-58230000D03*
D29*
%TO.P,U2,34*%
%TO.N,+5V*%
X133540000Y-56530000D03*
%TO.P,U2,35*%
%TO.N,GND*%
X132740000Y-56530000D03*
%TO.P,U2,36*%
%TO.N,Net-(U2-Pad36)*%
X131940000Y-56530000D03*
%TO.P,U2,37*%
%TO.N,Net-(U2-Pad37)*%
X131140000Y-56530000D03*
%TO.P,U2,38*%
%TO.N,Net-(U2-Pad38)*%
X130340000Y-56530000D03*
%TO.P,U2,39*%
%TO.N,Net-(U2-Pad39)*%
X129540000Y-56530000D03*
%TO.P,U2,40*%
%TO.N,Net-(U2-Pad40)*%
X128740000Y-56530000D03*
%TO.P,U2,41*%
%TO.N,Net-(U2-Pad41)*%
X127940000Y-56530000D03*
%TO.P,U2,42*%
%TO.N,Net-(C6-Pad2)*%
X127140000Y-56530000D03*
%TO.P,U2,43*%
%TO.N,GND*%
X126340000Y-56530000D03*
%TO.P,U2,44*%
%TO.N,+5V*%
X125540000Y-56530000D03*
%TD*%
%TO.P,U1,16*%
%TO.N,SCL*%
%TA.AperFunction,SMDPad,CuDef*%
G36*
G01*
X145865000Y-69873000D02*
X145865000Y-69573000D01*
G75*
G02*
X146015000Y-69423000I150000J0D01*
G01*
X147765000Y-69423000D01*
G75*
G02*
X147915000Y-69573000I0J-150000D01*
G01*
X147915000Y-69873000D01*
G75*
G02*
X147765000Y-70023000I-150000J0D01*
G01*
X146015000Y-70023000D01*
G75*
G02*
X145865000Y-69873000I0J150000D01*
G01*
G37*
%TD.AperFunction*%
%TO.P,U1,15*%
%TO.N,SDA*%
%TA.AperFunction,SMDPad,CuDef*%
G36*
G01*
X145865000Y-71143000D02*
X145865000Y-70843000D01*
G75*
G02*
X146015000Y-70693000I150000J0D01*
G01*
X147765000Y-70693000D01*
G75*
G02*
X147915000Y-70843000I0J-150000D01*
G01*
X147915000Y-71143000D01*
G75*
G02*
X147765000Y-71293000I-150000J0D01*
G01*
X146015000Y-71293000D01*
G75*
G02*
X145865000Y-71143000I0J150000D01*
G01*
G37*
%TD.AperFunction*%
%TO.P,U1,14*%
%TO.N,VBAT*%
%TA.AperFunction,SMDPad,CuDef*%
G36*
G01*
X145865000Y-72413000D02*
X145865000Y-72113000D01*
G75*
G02*
X146015000Y-71963000I150000J0D01*
G01*
X147765000Y-71963000D01*
G75*
G02*
X147915000Y-72113000I0J-150000D01*
G01*
X147915000Y-72413000D01*
G75*
G02*
X147765000Y-72563000I-150000J0D01*
G01*
X146015000Y-72563000D01*
G75*
G02*
X145865000Y-72413000I0J150000D01*
G01*
G37*
%TD.AperFunction*%
%TO.P,U1,13*%
%TO.N,GND*%
%TA.AperFunction,SMDPad,CuDef*%
G36*
G01*
X145865000Y-73683000D02*
X145865000Y-73383000D01*
G75*
G02*
X146015000Y-73233000I150000J0D01*
G01*
X147765000Y-73233000D01*
G75*
G02*
X147915000Y-73383000I0J-150000D01*
G01*
X147915000Y-73683000D01*
G75*
G02*
X147765000Y-73833000I-150000J0D01*
G01*
X146015000Y-73833000D01*
G75*
G02*
X145865000Y-73683000I0J150000D01*
G01*
G37*
%TD.AperFunction*%
%TO.P,U1,12*%
%TA.AperFunction,SMDPad,CuDef*%
G36*
G01*
X145865000Y-74953000D02*
X145865000Y-74653000D01*
G75*
G02*
X146015000Y-74503000I150000J0D01*
G01*
X147765000Y-74503000D01*
G75*
G02*
X147915000Y-74653000I0J-150000D01*
G01*
X147915000Y-74953000D01*
G75*
G02*
X147765000Y-75103000I-150000J0D01*
G01*
X146015000Y-75103000D01*
G75*
G02*
X145865000Y-74953000I0J150000D01*
G01*
G37*
%TD.AperFunction*%
%TO.P,U1,11*%
%TA.AperFunction,SMDPad,CuDef*%
G36*
G01*
X145865000Y-76223000D02*
X145865000Y-75923000D01*
G75*
G02*
X146015000Y-75773000I150000J0D01*
G01*
X147765000Y-75773000D01*
G75*
G02*
X147915000Y-75923000I0J-150000D01*
G01*
X147915000Y-76223000D01*
G75*
G02*
X147765000Y-76373000I-150000J0D01*
G01*
X146015000Y-76373000D01*
G75*
G02*
X145865000Y-76223000I0J150000D01*
G01*
G37*
%TD.AperFunction*%
%TO.P,U1,10*%
%TA.AperFunction,SMDPad,CuDef*%
G36*
G01*
X145865000Y-77493000D02*
X145865000Y-77193000D01*
G75*
G02*
X146015000Y-77043000I150000J0D01*
G01*
X147765000Y-77043000D01*
G75*
G02*
X147915000Y-77193000I0J-150000D01*
G01*
X147915000Y-77493000D01*
G75*
G02*
X147765000Y-77643000I-150000J0D01*
G01*
X146015000Y-77643000D01*
G75*
G02*
X145865000Y-77493000I0J150000D01*
G01*
G37*
%TD.AperFunction*%
%TO.P,U1,9*%
%TA.AperFunction,SMDPad,CuDef*%
G36*
G01*
X145865000Y-78763000D02*
X145865000Y-78463000D01*
G75*
G02*
X146015000Y-78313000I150000J0D01*
G01*
X147765000Y-78313000D01*
G75*
G02*
X147915000Y-78463000I0J-150000D01*
G01*
X147915000Y-78763000D01*
G75*
G02*
X147765000Y-78913000I-150000J0D01*
G01*
X146015000Y-78913000D01*
G75*
G02*
X145865000Y-78763000I0J150000D01*
G01*
G37*
%TD.AperFunction*%
%TO.P,U1,8*%
%TA.AperFunction,SMDPad,CuDef*%
G36*
G01*
X136565000Y-78763000D02*
X136565000Y-78463000D01*
G75*
G02*
X136715000Y-78313000I150000J0D01*
G01*
X138465000Y-78313000D01*
G75*
G02*
X138615000Y-78463000I0J-150000D01*
G01*
X138615000Y-78763000D01*
G75*
G02*
X138465000Y-78913000I-150000J0D01*
G01*
X136715000Y-78913000D01*
G75*
G02*
X136565000Y-78763000I0J150000D01*
G01*
G37*
%TD.AperFunction*%
%TO.P,U1,7*%
%TA.AperFunction,SMDPad,CuDef*%
G36*
G01*
X136565000Y-77493000D02*
X136565000Y-77193000D01*
G75*
G02*
X136715000Y-77043000I150000J0D01*
G01*
X138465000Y-77043000D01*
G75*
G02*
X138615000Y-77193000I0J-150000D01*
G01*
X138615000Y-77493000D01*
G75*
G02*
X138465000Y-77643000I-150000J0D01*
G01*
X136715000Y-77643000D01*
G75*
G02*
X136565000Y-77493000I0J150000D01*
G01*
G37*
%TD.AperFunction*%
%TO.P,U1,6*%
%TA.AperFunction,SMDPad,CuDef*%
G36*
G01*
X136565000Y-76223000D02*
X136565000Y-75923000D01*
G75*
G02*
X136715000Y-75773000I150000J0D01*
G01*
X138465000Y-75773000D01*
G75*
G02*
X138615000Y-75923000I0J-150000D01*
G01*
X138615000Y-76223000D01*
G75*
G02*
X138465000Y-76373000I-150000J0D01*
G01*
X136715000Y-76373000D01*
G75*
G02*
X136565000Y-76223000I0J150000D01*
G01*
G37*
%TD.AperFunction*%
%TO.P,U1,5*%
%TA.AperFunction,SMDPad,CuDef*%
G36*
G01*
X136565000Y-74953000D02*
X136565000Y-74653000D01*
G75*
G02*
X136715000Y-74503000I150000J0D01*
G01*
X138465000Y-74503000D01*
G75*
G02*
X138615000Y-74653000I0J-150000D01*
G01*
X138615000Y-74953000D01*
G75*
G02*
X138465000Y-75103000I-150000J0D01*
G01*
X136715000Y-75103000D01*
G75*
G02*
X136565000Y-74953000I0J150000D01*
G01*
G37*
%TD.AperFunction*%
%TO.P,U1,4*%
%TO.N,Net-(U1-Pad4)*%
%TA.AperFunction,SMDPad,CuDef*%
G36*
G01*
X136565000Y-73683000D02*
X136565000Y-73383000D01*
G75*
G02*
X136715000Y-73233000I150000J0D01*
G01*
X138465000Y-73233000D01*
G75*
G02*
X138615000Y-73383000I0J-150000D01*
G01*
X138615000Y-73683000D01*
G75*
G02*
X138465000Y-73833000I-150000J0D01*
G01*
X136715000Y-73833000D01*
G75*
G02*
X136565000Y-73683000I0J150000D01*
G01*
G37*
%TD.AperFunction*%
%TO.P,U1,3*%
%TO.N,CLK_INT*%
%TA.AperFunction,SMDPad,CuDef*%
G36*
G01*
X136565000Y-72413000D02*
X136565000Y-72113000D01*
G75*
G02*
X136715000Y-71963000I150000J0D01*
G01*
X138465000Y-71963000D01*
G75*
G02*
X138615000Y-72113000I0J-150000D01*
G01*
X138615000Y-72413000D01*
G75*
G02*
X138465000Y-72563000I-150000J0D01*
G01*
X136715000Y-72563000D01*
G75*
G02*
X136565000Y-72413000I0J150000D01*
G01*
G37*
%TD.AperFunction*%
%TO.P,U1,2*%
%TO.N,+5V*%
%TA.AperFunction,SMDPad,CuDef*%
G36*
G01*
X136565000Y-71143000D02*
X136565000Y-70843000D01*
G75*
G02*
X136715000Y-70693000I150000J0D01*
G01*
X138465000Y-70693000D01*
G75*
G02*
X138615000Y-70843000I0J-150000D01*
G01*
X138615000Y-71143000D01*
G75*
G02*
X138465000Y-71293000I-150000J0D01*
G01*
X136715000Y-71293000D01*
G75*
G02*
X136565000Y-71143000I0J150000D01*
G01*
G37*
%TD.AperFunction*%
%TO.P,U1,1*%
%TO.N,Net-(U1-Pad1)*%
%TA.AperFunction,SMDPad,CuDef*%
G36*
G01*
X136565000Y-69873000D02*
X136565000Y-69573000D01*
G75*
G02*
X136715000Y-69423000I150000J0D01*
G01*
X138465000Y-69423000D01*
G75*
G02*
X138615000Y-69573000I0J-150000D01*
G01*
X138615000Y-69873000D01*
G75*
G02*
X138465000Y-70023000I-150000J0D01*
G01*
X136715000Y-70023000D01*
G75*
G02*
X136565000Y-69873000I0J150000D01*
G01*
G37*
%TD.AperFunction*%
%TD*%
D30*
%TO.N,GND*%
X127774700Y-58750200D03*
X128460500Y-66370200D03*
X144780000Y-73533000D03*
X139954000Y-74803000D03*
X129730500Y-50685700D03*
X152908000Y-53213000D03*
X152908000Y-41402000D03*
X152908000Y-29718000D03*
X129184400Y-74358500D03*
X118033800Y-57772300D03*
X118033800Y-61201300D03*
X118033800Y-63271400D03*
X137618349Y-57835800D03*
X126339600Y-73266300D03*
X117068600Y-40817800D03*
X117068600Y-46139100D03*
X118859300Y-46139100D03*
X137922000Y-51689000D03*
X110744000Y-29083000D03*
X122174000Y-26289000D03*
X107061000Y-84963000D03*
%TO.N,RESET*%
X125476000Y-66040000D03*
X118999000Y-66040000D03*
%TO.N,SCK*%
X121920000Y-64643000D03*
X115951000Y-74549000D03*
%TO.N,+5V*%
X133858000Y-65405000D03*
X125222000Y-63119000D03*
X125222000Y-59055000D03*
X113792000Y-68072000D03*
X126619000Y-66167000D03*
X133477000Y-54229000D03*
X139827000Y-70893010D03*
X125476000Y-53975000D03*
X109626400Y-49136300D03*
X106794300Y-50647600D03*
X112204500Y-50647600D03*
X118745000Y-26416000D03*
%TO.N,BTN_SET*%
X131902200Y-64477900D03*
%TO.N,BTN_UP*%
X133235700Y-59817000D03*
X147205700Y-40132000D03*
%TO.N,BTN_DOWN*%
X133248400Y-63030100D03*
X147281900Y-63982600D03*
%TO.N,+3V3*%
X123698000Y-43180000D03*
X121158000Y-39751000D03*
%TO.N,CTS*%
X136271000Y-68326000D03*
%TD*%
D31*
%TO.N,GND*%
X109835000Y-61847000D02*
X109715000Y-61727000D01*
X109835000Y-62847000D02*
X109835000Y-61847000D01*
X106565000Y-62887000D02*
X106835000Y-63157000D01*
X106565000Y-61387000D02*
X106565000Y-62887000D01*
X106565000Y-57967000D02*
X106835000Y-57697000D01*
X106565000Y-59467000D02*
X106565000Y-57967000D01*
X137590000Y-78613000D02*
X137590000Y-77343000D01*
X137590000Y-77343000D02*
X137590000Y-76073000D01*
X137590000Y-76073000D02*
X137590000Y-74803000D01*
X146890000Y-73533000D02*
X146890000Y-74803000D01*
X146890000Y-76073000D02*
X146890000Y-74803000D01*
X146890000Y-77343000D02*
X146890000Y-76073000D01*
X146890000Y-78613000D02*
X146890000Y-77343000D01*
X146890000Y-73533000D02*
X144780000Y-73533000D01*
X137590000Y-74803000D02*
X139954000Y-74803000D01*
X150606000Y-41402000D02*
X152908000Y-41402000D01*
X150733000Y-29718000D02*
X152908000Y-29718000D01*
X129730500Y-50685700D02*
X129730500Y-52416800D01*
X129159000Y-74333100D02*
X129184400Y-74358500D01*
X129159000Y-71755000D02*
X129159000Y-74333100D01*
X118046500Y-57759600D02*
X118033800Y-57772300D01*
X119574400Y-57759600D02*
X118046500Y-57759600D01*
X119422000Y-61201300D02*
X118033800Y-61201300D01*
X118071900Y-63233300D02*
X118033800Y-63271400D01*
X119422000Y-63233300D02*
X118071900Y-63233300D01*
X137325100Y-58129049D02*
X137618349Y-57835800D01*
X137325100Y-59067700D02*
X137325100Y-58129049D01*
X126339600Y-71954300D02*
X126339600Y-73266300D01*
X131519800Y-58750200D02*
X127774700Y-58750200D01*
X132740000Y-57530000D02*
X131519800Y-58750200D01*
X132740000Y-56530000D02*
X132740000Y-57530000D01*
X126340000Y-57315500D02*
X127774700Y-58750200D01*
X126340000Y-56530000D02*
X126340000Y-57315500D01*
X125094900Y-61430000D02*
X127774700Y-58750200D01*
X123840000Y-61430000D02*
X125094900Y-61430000D01*
X127940000Y-66890700D02*
X128460500Y-66370200D01*
X127940000Y-67930000D02*
X127940000Y-66890700D01*
X135099800Y-66370200D02*
X135240000Y-66230000D01*
X128460500Y-66370200D02*
X135099800Y-66370200D01*
X150707600Y-53213000D02*
X152908000Y-53213000D01*
X117057200Y-40829200D02*
X117068600Y-40817800D01*
D32*
X114871100Y-40829200D02*
X117057200Y-40829200D01*
D31*
X116925000Y-46282700D02*
X117068600Y-46139100D01*
D32*
X116925000Y-48247300D02*
X116925000Y-46282700D01*
D31*
X119129900Y-46409700D02*
X118859300Y-46139100D01*
D32*
X119129900Y-48196500D02*
X119129900Y-46409700D01*
D31*
X116988500Y-48310800D02*
X116925000Y-48247300D01*
D32*
X116988500Y-50685700D02*
X116988500Y-48310800D01*
D31*
X119142600Y-48209200D02*
X119129900Y-48196500D01*
D32*
X119142600Y-50711100D02*
X119142600Y-48209200D01*
D31*
X137906000Y-51705000D02*
X137922000Y-51689000D01*
X137906000Y-53340000D02*
X137906000Y-51705000D01*
X108975000Y-29083000D02*
X110744000Y-29083000D01*
X122174000Y-26186000D02*
X122174000Y-26289000D01*
X120904000Y-24916000D02*
X122174000Y-26186000D01*
X120904000Y-23941000D02*
X120904000Y-24916000D01*
X123444000Y-27559000D02*
X122174000Y-26289000D01*
X123444000Y-28891000D02*
X123444000Y-27559000D01*
X107085000Y-84939000D02*
X107061000Y-84963000D01*
X107085000Y-81363000D02*
X107085000Y-84939000D01*
X107061000Y-88539000D02*
X107085000Y-88563000D01*
X107061000Y-84963000D02*
X107061000Y-88539000D01*
%TO.N,RESET*%
X113411000Y-71905500D02*
X117244500Y-68072000D01*
X113411000Y-73025000D02*
X113411000Y-71905500D01*
X125476000Y-66066000D02*
X125476000Y-66040000D01*
X126340000Y-66930000D02*
X125476000Y-66066000D01*
X126340000Y-67930000D02*
X126340000Y-66930000D01*
X110085000Y-88563000D02*
X110085000Y-81363000D01*
X109783999Y-81061999D02*
X110085000Y-81363000D01*
X109783999Y-72503239D02*
X109783999Y-81061999D01*
X110349239Y-71937999D02*
X109783999Y-72503239D01*
X112323999Y-71937999D02*
X110349239Y-71937999D01*
X113411000Y-73025000D02*
X112323999Y-71937999D01*
X117332000Y-67707000D02*
X118999000Y-66040000D01*
X117332000Y-68072000D02*
X117332000Y-67707000D01*
%TO.N,MOSI*%
X113981999Y-74477999D02*
X123029998Y-65430000D01*
X123029998Y-65430000D02*
X123840000Y-65430000D01*
X111958001Y-74477999D02*
X113981999Y-74477999D01*
X110871000Y-75565000D02*
X111958001Y-74477999D01*
%TO.N,SCK*%
X121933000Y-64630000D02*
X121920000Y-64643000D01*
X123840000Y-64630000D02*
X121933000Y-64630000D01*
X114935000Y-75565000D02*
X113411000Y-75565000D01*
X115951000Y-74549000D02*
X114935000Y-75565000D01*
%TO.N,MISO*%
X118958999Y-71111001D02*
X123840000Y-66230000D01*
X118958999Y-73569001D02*
X118958999Y-71111001D01*
X114423000Y-78105000D02*
X118958999Y-73569001D01*
X113411000Y-78105000D02*
X114423000Y-78105000D01*
%TO.N,SDA*%
X146050000Y-36530000D02*
X133350000Y-23830000D01*
X146050000Y-66040000D02*
X146050000Y-36530000D01*
X146050000Y-66040000D02*
X148971000Y-68961000D01*
X147915000Y-70993000D02*
X146890000Y-70993000D01*
X148971000Y-69937000D02*
X147915000Y-70993000D01*
X148971000Y-68961000D02*
X148971000Y-69937000D01*
X146264990Y-71618010D02*
X146890000Y-70993000D01*
X133828010Y-71618010D02*
X146264990Y-71618010D01*
X131140000Y-68930000D02*
X133828010Y-71618010D01*
X131140000Y-67930000D02*
X131140000Y-68930000D01*
X132262999Y-22742999D02*
X133350000Y-23830000D01*
X124642001Y-22742999D02*
X132262999Y-22742999D01*
X123444000Y-23941000D02*
X124642001Y-22742999D01*
%TO.N,SCL*%
X143510000Y-36530000D02*
X130810000Y-23830000D01*
X143510000Y-66040000D02*
X143510000Y-36530000D01*
X143510000Y-66040000D02*
X143510000Y-67945000D01*
X145288000Y-69723000D02*
X146890000Y-69723000D01*
X143510000Y-67945000D02*
X145288000Y-69723000D01*
X130340000Y-67119998D02*
X130340000Y-67930000D01*
X130604999Y-66854999D02*
X130340000Y-67119998D01*
X134657002Y-67437000D02*
X134075001Y-66854999D01*
X134075001Y-66854999D02*
X130604999Y-66854999D01*
X142113000Y-67437000D02*
X134657002Y-67437000D01*
X143510000Y-66040000D02*
X142113000Y-67437000D01*
X129398990Y-25241010D02*
X130810000Y-23830000D01*
X122499010Y-25241010D02*
X129398990Y-25241010D01*
X122174000Y-24916000D02*
X122499010Y-25241010D01*
X122174000Y-23941000D02*
X122174000Y-24916000D01*
%TO.N,VBAT*%
X144976998Y-72263000D02*
X146890000Y-72263000D01*
X144054999Y-73184999D02*
X144976998Y-72263000D01*
X144054999Y-79926001D02*
X144054999Y-73184999D01*
X138143000Y-85838000D02*
X144054999Y-79926001D01*
%TO.N,D+*%
X117631010Y-60025990D02*
X116570000Y-61087000D01*
X122425988Y-60025990D02*
X117631010Y-60025990D01*
X123029998Y-60630000D02*
X122425988Y-60025990D01*
X123840000Y-60630000D02*
X123029998Y-60630000D01*
%TO.N,D-*%
X123029998Y-59830000D02*
X123840000Y-59830000D01*
X122254998Y-59055000D02*
X123029998Y-59830000D01*
X116570000Y-59055000D02*
X122254998Y-59055000D01*
%TO.N,+5V*%
X133883000Y-65430000D02*
X133858000Y-65405000D01*
X135240000Y-65430000D02*
X133883000Y-65430000D01*
X125133000Y-63030000D02*
X125222000Y-63119000D01*
X123840000Y-63030000D02*
X125133000Y-63030000D01*
X125197000Y-59030000D02*
X125222000Y-59055000D01*
X123840000Y-59030000D02*
X125197000Y-59030000D01*
X127140000Y-66688000D02*
X126619000Y-66167000D01*
X127140000Y-67930000D02*
X127140000Y-66688000D01*
X139727010Y-70993000D02*
X139827000Y-70893010D01*
X137590000Y-70993000D02*
X139727010Y-70993000D01*
X125540000Y-54039000D02*
X125476000Y-53975000D01*
X125540000Y-56530000D02*
X125540000Y-54039000D01*
X113792000Y-68072000D02*
X115332000Y-68072000D01*
X121649400Y-57812992D02*
X121649400Y-57759600D01*
X122866408Y-59030000D02*
X121649400Y-57812992D01*
X123840000Y-59030000D02*
X122866408Y-59030000D01*
X121700300Y-63030000D02*
X121497000Y-63233300D01*
X123840000Y-63030000D02*
X121700300Y-63030000D01*
X137631001Y-61448601D02*
X137325100Y-61142700D01*
X137631001Y-64991001D02*
X137631001Y-61448601D01*
X137192002Y-65430000D02*
X137631001Y-64991001D01*
X135240000Y-65430000D02*
X137192002Y-65430000D01*
X127140000Y-69078900D02*
X127140000Y-67930000D01*
X126339600Y-69879300D02*
X127140000Y-69078900D01*
D32*
X109613700Y-49149000D02*
X109626400Y-49136300D01*
X109613700Y-50657800D02*
X109613700Y-49149000D01*
X106804500Y-50657800D02*
X106794300Y-50647600D01*
X109613700Y-50657800D02*
X106804500Y-50657800D01*
X112194300Y-50657800D02*
X112204500Y-50647600D01*
X109613700Y-50657800D02*
X112194300Y-50657800D01*
D31*
X114875400Y-50647600D02*
X114913500Y-50685700D01*
D32*
X112204500Y-50647600D02*
X114875400Y-50647600D01*
D31*
X114913500Y-48310800D02*
X114850000Y-48247300D01*
D32*
X114913500Y-50685700D02*
X114913500Y-48310800D01*
D31*
X114850000Y-45450300D02*
X114871100Y-45429200D01*
D32*
X114850000Y-48247300D02*
X114850000Y-45450300D01*
D31*
X133540000Y-54292000D02*
X133477000Y-54229000D01*
X133540000Y-56530000D02*
X133540000Y-54292000D01*
X119634000Y-25527000D02*
X118745000Y-26416000D01*
X119634000Y-23941000D02*
X119634000Y-25527000D01*
%TO.N,Net-(C3-Pad1)*%
X122525700Y-62230000D02*
X121497000Y-61201300D01*
X123840000Y-62230000D02*
X122525700Y-62230000D01*
%TO.N,Net-(C6-Pad2)*%
X128767301Y-55454999D02*
X129730500Y-54491800D01*
X127140000Y-55530000D02*
X127215001Y-55454999D01*
X127215001Y-55454999D02*
X128767301Y-55454999D01*
X127140000Y-56530000D02*
X127140000Y-55530000D01*
%TO.N,TX*%
X132898000Y-69088000D02*
X135001000Y-69088000D01*
X132740000Y-68930000D02*
X132898000Y-69088000D01*
X132740000Y-67930000D02*
X132740000Y-68930000D01*
%TO.N,RX*%
X133114000Y-70104000D02*
X135001000Y-70104000D01*
X131940000Y-68930000D02*
X133114000Y-70104000D01*
X131940000Y-67930000D02*
X131940000Y-68930000D01*
%TO.N,Net-(U2-Pad17)*%
X130359000Y-69905000D02*
X130359000Y-71755000D01*
X129540000Y-69086000D02*
X130359000Y-69905000D01*
X129540000Y-67930000D02*
X129540000Y-69086000D01*
%TO.N,Net-(U2-Pad16)*%
X127959000Y-69711000D02*
X127959000Y-71755000D01*
X128740000Y-68930000D02*
X127959000Y-69711000D01*
X128740000Y-67930000D02*
X128740000Y-68930000D01*
D32*
%TO.N,Net-(F1-Pad2)*%
X109815802Y-55107800D02*
X109613700Y-55107800D01*
X110985010Y-56277008D02*
X109815802Y-55107800D01*
X110985010Y-59081990D02*
X110985010Y-56277008D01*
X110940000Y-59127000D02*
X110985010Y-59081990D01*
X109715000Y-59127000D02*
X110940000Y-59127000D01*
D31*
%TO.N,Net-(J2-Pad3)*%
X110466351Y-60427000D02*
X109715000Y-60427000D01*
X113910000Y-60427000D02*
X110466351Y-60427000D01*
X114570000Y-61087000D02*
X113910000Y-60427000D01*
%TO.N,Net-(J2-Pad2)*%
X112066034Y-59777000D02*
X109715000Y-59777000D01*
X113848000Y-59777000D02*
X112066034Y-59777000D01*
X114570000Y-59055000D02*
X113848000Y-59777000D01*
%TO.N,BTN_SET*%
X148662000Y-41458000D02*
X148606000Y-41402000D01*
X148662000Y-44069000D02*
X148662000Y-41458000D01*
X148662000Y-50569000D02*
X148662000Y-44069000D01*
X132054300Y-64630000D02*
X131902200Y-64477900D01*
X135240000Y-64630000D02*
X132054300Y-64630000D01*
%TO.N,BTN_UP*%
X148662000Y-29789000D02*
X148733000Y-29718000D01*
X148662000Y-32258000D02*
X148662000Y-29789000D01*
X148662000Y-38758000D02*
X148662000Y-32258000D01*
X133248700Y-59830000D02*
X133235700Y-59817000D01*
X135240000Y-59830000D02*
X133248700Y-59830000D01*
X147313400Y-40132000D02*
X148662000Y-38783400D01*
X147205700Y-40132000D02*
X147313400Y-40132000D01*
%TO.N,BTN_DOWN*%
X148590000Y-62452000D02*
X148662000Y-62380000D01*
X148662000Y-53538000D02*
X148987000Y-53213000D01*
X148602700Y-62219100D02*
X148687400Y-62303800D01*
X148602700Y-59778900D02*
X148602700Y-62219100D01*
X148602700Y-55888500D02*
X148687400Y-55803800D01*
X148602700Y-59778900D02*
X148602700Y-55888500D01*
X148687400Y-53233200D02*
X148707600Y-53213000D01*
X148687400Y-55803800D02*
X148687400Y-53233200D01*
X133248500Y-63030000D02*
X133248400Y-63030100D01*
X135240000Y-63030000D02*
X133248500Y-63030000D01*
X148687400Y-62577100D02*
X147281900Y-63982600D01*
X148687400Y-62303800D02*
X148687400Y-62577100D01*
%TO.N,CLK_INT*%
X125289590Y-68180410D02*
X125540000Y-67930000D01*
X125289590Y-73289292D02*
X125289590Y-68180410D01*
X127083799Y-75083501D02*
X125289590Y-73289292D01*
X129532401Y-75083501D02*
X127083799Y-75083501D01*
X132352902Y-72263000D02*
X129532401Y-75083501D01*
X137590000Y-72263000D02*
X132352902Y-72263000D01*
D32*
%TO.N,+3V3*%
X114871100Y-43129200D02*
X121171100Y-43129200D01*
D31*
X121171100Y-48162700D02*
X121204900Y-48196500D01*
D32*
X121171100Y-43129200D02*
X121171100Y-48162700D01*
D31*
X121204900Y-50698400D02*
X121217600Y-50711100D01*
D32*
X121204900Y-48196500D02*
X121204900Y-50698400D01*
D31*
X121171100Y-39764100D02*
X121158000Y-39751000D01*
D32*
X121171100Y-43129200D02*
X121171100Y-39764100D01*
D31*
X123647200Y-43129200D02*
X123698000Y-43180000D01*
D32*
X121171100Y-43129200D02*
X123647200Y-43129200D01*
D31*
%TO.N,CTS*%
X136213010Y-68268010D02*
X136271000Y-68326000D01*
X133878010Y-68268010D02*
X136213010Y-68268010D01*
X133540000Y-67930000D02*
X133878010Y-68268010D01*
%TO.N,Net-(R7-Pad1)*%
X135906000Y-57564000D02*
X135906000Y-53340000D01*
X135240000Y-58230000D02*
X135906000Y-57564000D01*
%TO.N,Net-(D1-Pad2)*%
X106950000Y-29108000D02*
X106925000Y-29083000D01*
X106950000Y-31369000D02*
X106950000Y-29108000D01*
%TO.N,Net-(R8-Pad1)*%
X113849002Y-31369000D02*
X108950000Y-31369000D01*
X134202001Y-51721999D02*
X113849002Y-31369000D01*
X134202001Y-54577001D02*
X134202001Y-51721999D01*
X134140001Y-54639001D02*
X134202001Y-54577001D01*
X134140001Y-58930001D02*
X134140001Y-54639001D01*
X134240000Y-59030000D02*
X134140001Y-58930001D01*
X135240000Y-59030000D02*
X134240000Y-59030000D01*
%TD*%
M02*
